<?xml version="1.0" encoding="UTF-8" standalone="no"?>
<!-- Generator: Adobe Illustrator 23.0.3, SVG Export Plug-In . SVG Version: 6.00 Build 0)  -->

<svg
   version="1.0"
   id="Layer_1"
   x="0px"
   y="0px"
   width="60px"
   height="380px"
   viewBox="0 0 60 380"
   enable-background="new 0 0 60 380"
   xml:space="preserve"
   sodipodi:docname="refold_bg.svg.2021_10_21_00_06_59.0.svg"
   inkscape:version="1.1.1 (3bf5ae0d25, 2021-09-20)"
   xmlns:inkscape="http://www.inkscape.org/namespaces/inkscape"
   xmlns:sodipodi="http://sodipodi.sourceforge.net/DTD/sodipodi-0.dtd"
   xmlns="http://www.w3.org/2000/svg"
   xmlns:svg="http://www.w3.org/2000/svg"><defs
   id="defs448">
	
	
	
	
	
	
	
	
	
	
	
	
	
	
	
	
	
	
	
	
</defs><sodipodi:namedview
   id="namedview446"
   pagecolor="#ffffff"
   bordercolor="#111111"
   borderopacity="1"
   inkscape:pageshadow="0"
   inkscape:pageopacity="0"
   inkscape:pagecheckerboard="1"
   showgrid="false"
   inkscape:zoom="2.4041631"
   inkscape:cx="29.948052"
   inkscape:cy="148.49242"
   inkscape:current-layer="Layer_1" />
<title
   id="title2">repelzen_BG</title>
<g
   id="export_bg">
	<g
   id="path33453">
		<path
   fill="#313131"
   d="M0,0h60v380H0V0z"
   id="path4" />
	</g>
</g>
<g
   id="g20">
		<g
   id="g12">
			<path
   fill="#313131"
   d="m 26.47368,104.28673 c -8.92453,1.9474 -14.58061,10.76083 -12.63321,19.68536 0.99648,4.56665 3.87867,8.49846 7.93376,10.82301"
   id="path8" />
			<path
   fill="#098eb7"
   d="m 21.77441,135.29492 c -0.08739,6e-5 -0.17325,-0.0228 -0.249,-0.0664 -8.16436,-4.68005 -10.98895,-15.0925 -6.3089,-23.25686 2.39488,-4.17787 6.44577,-7.1473 11.1507,-8.17381 0.26496,-0.0617 0.52978,0.10303 0.59151,0.36798 0.0011,0.005 0.0022,0.01 0.0032,0.0148 0.05864,0.26965 -0.11225,0.53581 -0.38183,0.59473 -8.65454,1.88823 -14.13972,10.43483 -12.25149,19.08936 0.96632,4.42908 3.76179,8.24237 7.69485,10.49658 0.23947,0.13751 0.32212,0.44312 0.1846,0.68259 -0.08916,0.15527 -0.25455,0.25101 -0.4336,0.25101 h -6e-5 z"
   id="path10" />
		</g>
		<g
   id="g18">
			<path
   fill="#313131"
   d="m 38.19023,134.81546 c 7.93579,-4.52284 10.70253,-14.62256 6.17969,-22.55835 -2.47002,-4.33391 -6.76421,-7.32146 -11.68652,-8.13054"
   id="path14" />
			<path
   fill="#098eb7"
   d="m 38.19043,135.31543 c -0.27605,2.7e-4 -0.50005,-0.22328 -0.50033,-0.49933 -1.8e-4,-0.17975 0.09616,-0.34575 0.25233,-0.43475 7.69604,-4.38579 10.37954,-14.18004 5.99376,-21.87608 -2.39513,-4.2029 -6.55926,-7.10027 -11.33262,-7.88515 -0.27225,-0.044 -0.45732,-0.30032 -0.41336,-0.57257 9e-5,-5.5e-4 1.8e-4,-0.001 2.7e-4,-0.002 0.04831,-0.26982 0.30199,-0.45264 0.57324,-0.41309 9.28582,1.5257 15.57664,10.29018 14.05094,19.576 -0.83326,5.0714 -3.91107,9.49577 -8.37613,12.0407 -0.07546,0.0434 -0.16104,0.0662 -0.2481,0.0659 z"
   id="path16" />
		</g>
	</g><g
   id="g96">
		<g
   id="g92">
			<path
   fill="#afafaf"
   d="m 42.0625,83.31689 c -0.18487,1.4e-4 -0.35469,-0.10186 -0.44141,-0.26513 l -0.97265,-1.82617 c -0.1303,-0.24347 -0.03856,-0.54646 0.20491,-0.67677 0.24347,-0.13029 0.54647,-0.03855 0.67677,0.20492 3.8e-4,7e-4 7.6e-4,0.0014 0.0011,0.0021 l 0.97266,1.82617 c 0.12991,0.24346 0.03785,0.54613 -0.20561,0.67603 -0.07256,0.03872 -0.15356,0.05893 -0.2358,0.05883 z"
   id="path22" />
			<path
   fill="#afafaf"
   d="m 45.25293,81.27051 c -0.15194,1.1e-4 -0.29568,-0.06889 -0.39063,-0.1875 l -1.29394,-1.61524 c -0.17259,-0.21574 -0.13761,-0.53053 0.07813,-0.70313 0.21574,-0.1726 0.53054,-0.13761 0.70313,0.07813 l 1.29394,1.61523 c 0.17226,0.21565 0.1373,0.53008 -0.07812,0.70263 -0.08844,0.07147 -0.19881,0.11028 -0.31251,0.10988 z"
   id="path24" />
			<path
   fill="#afafaf"
   d="m 48.04,78.68311 c -0.12249,2.9e-4 -0.24075,-0.04476 -0.332,-0.12647 l -1.5459,-1.37549 c -0.2063,-0.18337 -0.22488,-0.49927 -0.04151,-0.70557 0.18338,-0.2063 0.49927,-0.22488 0.70557,-0.0415 l 1.5459,1.37549 c 0.20655,0.18292 0.2257,0.49864 0.04278,0.70518 -0.095,0.10728 -0.23149,0.16859 -0.37478,0.16836 z"
   id="path26" />
			<path
   fill="#afafaf"
   d="m 50.39551,75.65186 c -0.09597,2.1e-4 -0.18994,-0.02744 -0.27051,-0.07959 l -1.73926,-1.1211 c -0.23152,-0.15043 -0.29726,-0.46006 -0.14683,-0.69158 0.14948,-0.23006 0.45645,-0.29666 0.68783,-0.14924 l 1.73926,1.1211 c 0.23219,0.14948 0.29923,0.45888 0.14975,0.69107 -0.092,0.14291 -0.2503,0.22929 -0.42027,0.22934 z"
   id="path28" />
			<path
   fill="#afafaf"
   d="m 52.29,72.271 c -0.07144,2e-4 -0.14207,-0.01514 -0.207,-0.04493 l -1.88281,-0.85888 c -0.25283,-0.11105 -0.36776,-0.40604 -0.25671,-0.65887 0.11105,-0.25282 0.40603,-0.36776 0.65886,-0.25671 0.004,0.0018 0.008,0.0036 0.0119,0.0054 l 1.88281,0.85889 c 0.25137,0.11422 0.36256,0.41058 0.24834,0.66196 -0.08114,0.17857 -0.2592,0.2932 -0.45534,0.29312 h -5e-5 z"
   id="path30" />
			<path
   fill="#afafaf"
   d="m 53.69336,68.63037 c -0.04795,1.4e-4 -0.09566,-0.0068 -0.1416,-0.02051 l -1.9834,-0.5874 c -0.26567,-0.07533 -0.41997,-0.35176 -0.34464,-0.61743 0.07533,-0.26567 0.35176,-0.41997 0.61743,-0.34464 0.0035,9.8e-4 0.007,0.002 0.01041,0.0031 l 1.9834,0.5874 c 0.26482,0.07828 0.41604,0.35641 0.33776,0.62122 -0.06279,0.21242 -0.25785,0.35822 -0.47936,0.35827 z"
   id="path32" />
			<path
   fill="#afafaf"
   d="m 54.57617,64.81836 c -0.02482,-8e-5 -0.0496,-0.0019 -0.07417,-0.0054 l -2.04687,-0.30322 c -0.27277,-0.04022 -0.46129,-0.29395 -0.42107,-0.56673 6e-5,-3.8e-4 1.1e-4,-7.7e-4 1.7e-4,-0.0012 0.04405,-0.27079 0.29542,-0.45747 0.56738,-0.42138 l 2.04688,0.30322 c 0.27315,0.04072 0.46157,0.29516 0.42086,0.56831 -0.03644,0.24445 -0.24598,0.42561 -0.49313,0.42632 z"
   id="path34" />
			<path
   fill="#afafaf"
   d="m 54.89941,60.92383 v 0 l -2.06836,-0.001 c -0.27614,0 -0.5,-0.22386 -0.5,-0.5 0,-0.27614 0.22386,-0.5 0.5,-0.5 v 0 l 2.06836,0.001 c 0.27614,0 0.5,0.22386 0.5,0.5 0,0.27614 -0.22386,0.5 -0.5,0.5 z"
   id="path36" />
			<path
   fill="#afafaf"
   d="m 52.56543,57.33057 c -0.27618,-5.9e-4 -0.49958,-0.22495 -0.49899,-0.50112 5.2e-4,-0.24372 0.17666,-0.45156 0.41699,-0.49205 l 2.04,-0.34179 c 0.27255,-0.04476 0.52977,0.1399 0.57453,0.41245 0.04451,0.27102 -0.13787,0.52721 -0.40853,0.57387 l -2.04,0.3418 c -0.02776,0.0047 -0.05586,0.007 -0.084,0.0068 z"
   id="path38" />
			<path
   fill="#afafaf"
   d="m 51.72754,53.91846 c -0.27606,-3e-5 -0.49982,-0.22385 -0.49979,-0.49992 3e-5,-0.21353 0.1357,-0.40347 0.33768,-0.47274 l 1.957,-0.67236 c 0.26104,-0.08953 0.54523,0.0495 0.63476,0.31055 0.08953,0.26104 -0.0495,0.54523 -0.31054,0.63476 v 0 l -1.957,0.67236 c -0.05214,0.01808 -0.10693,0.02732 -0.16211,0.02735 z"
   id="path40" />
			<path
   fill="#afafaf"
   d="m 50.36328,50.73291 c -0.27631,-3.9e-4 -0.49998,-0.22469 -0.4996,-0.501 2.6e-4,-0.18388 0.10137,-0.3528 0.26331,-0.43991 l 1.82325,-0.97656 c 0.24371,-0.13016 0.54678,-0.03812 0.67694,0.20559 0.12989,0.2432 0.03852,0.54565 -0.2043,0.67625 l -1.82324,0.97656 c -0.07272,0.03882 -0.15391,0.05911 -0.23636,0.05907 z"
   id="path42" />
			<path
   fill="#afafaf"
   d="m 48.51855,47.81982 c -0.27604,1.3e-4 -0.49992,-0.22354 -0.50004,-0.49958 -8e-5,-0.15668 0.07333,-0.30433 0.19829,-0.39885 l 1.64843,-1.24951 c 0.21991,-0.16685 0.53343,-0.12384 0.70028,0.09607 0.16685,0.21991 0.12384,0.53343 -0.09607,0.70028 -2.3e-4,1.8e-4 -4.6e-4,3.5e-4 -6.9e-4,5.3e-4 l -1.64844,1.24951 c -0.08674,0.066 -0.19276,0.10168 -0.30176,0.10155 z"
   id="path44" />
			<path
   fill="#afafaf"
   d="m 46.23926,45.22559 c -0.27614,2e-5 -0.50001,-0.22383 -0.50003,-0.49997 0,-0.12976 0.05043,-0.25444 0.14065,-0.34769 l 1.43848,-1.4873 c 0.19201,-0.19848 0.50855,-0.20372 0.70703,-0.01172 0.19847,0.19201 0.20372,0.50855 0.01172,0.70703 l -1.43848,1.4873 c -0.09399,0.09768 -0.22381,0.15272 -0.35937,0.15235 z"
   id="path46" />
			<path
   fill="#afafaf"
   d="m 43.5752,42.99707 c -0.27634,-2.6e-4 -0.50015,-0.22448 -0.49989,-0.50082 10e-5,-0.10324 0.03212,-0.20393 0.09169,-0.28825 l 1.19629,-1.6875 c 0.16038,-0.22492 0.47273,-0.27724 0.69765,-0.11686 0.22388,0.15964 0.27693,0.47006 0.11876,0.69498 l -1.19629,1.6875 c -0.09372,0.13246 -0.24595,0.21112 -0.40821,0.21095 z"
   id="path48" />
			<path
   fill="#afafaf"
   d="m 40.57324,41.18213 c -0.27621,5e-5 -0.50016,-0.22382 -0.50021,-0.50003 -1e-5,-0.0778 0.01812,-0.15454 0.05297,-0.2241 l 0.92773,-1.84912 c 0.12479,-0.24651 0.42578,-0.34519 0.67229,-0.22041 0.24509,0.12407 0.3443,0.42255 0.22224,0.66865 l -0.92773,1.84912 c -0.085,0.16908 -0.25804,0.27582 -0.44729,0.27589 z"
   id="path50" />
			<path
   fill="#afafaf"
   d="m 37.28125,39.82764 c -0.05203,-6e-5 -0.10374,-0.0081 -0.15332,-0.02393 -0.26277,-0.08484 -0.40705,-0.3666 -0.32227,-0.62939 l 0.63477,-1.96924 c 0.08416,-0.26283 0.36544,-0.40767 0.62827,-0.32351 0.26283,0.08416 0.40767,0.36544 0.32352,0.62827 -2e-4,6.3e-4 -4e-4,0.0013 -6.1e-4,0.0019 L 37.75684,39.481 c -0.06659,0.20645 -0.25866,0.34645 -0.47559,0.34664 z"
   id="path52" />
			<path
   fill="#afafaf"
   d="m 33.74805,38.97949 c -0.0265,7e-5 -0.05296,-0.002 -0.0791,-0.0063 -0.27272,-0.04308 -0.45894,-0.29902 -0.416,-0.57177 l 0.32324,-2.04346 c 0.04385,-0.2728 0.30053,-0.4584 0.57333,-0.41455 0.27181,0.04369 0.45724,0.29877 0.41495,0.5708 l -0.32324,2.04346 c -0.03863,0.24257 -0.24755,0.42128 -0.49318,0.42187 z"
   id="path54" />
			<path
   fill="#afafaf"
   d="m 30.0166,38.68457 v 0 c -0.27623,-2.4e-4 -0.50003,-0.22425 -0.5,-0.50049 l 0.002,-2.06885 c 6e-5,-0.27593 0.22379,-0.49957 0.49973,-0.49951 9e-5,0 1.8e-4,0 2.7e-4,0 v 0 c 0.27623,2.4e-4 0.50003,0.22425 0.5,0.50049 l -0.002,2.06885 c -5e-5,0.27592 -0.22377,0.49956 -0.49969,0.49951 -10e-5,0 -2.1e-4,0 -3.1e-4,0 z"
   id="path56" />
			<path
   fill="#afafaf"
   d="m 26.28418,38.97412 c -0.24578,-6.3e-4 -0.45475,-0.1796 -0.49316,-0.42236 l -0.32032,-2.044 c -0.04288,-0.27291 0.1436,-0.5289 0.4165,-0.57177 0.27291,-0.04288 0.5289,0.1436 0.57178,0.4165 v 0 l 0.32032,2.04394 c 0.04287,0.27287 -0.14358,0.52882 -0.41644,0.57169 -1.9e-4,3e-5 -3.7e-4,6e-5 -5.6e-4,9e-5 -0.02586,0.0039 -0.05197,0.0059 -0.07812,0.0059 z"
   id="path58" />
			<path
   fill="#afafaf"
   d="m 22.749,39.81787 c -0.21735,-7e-5 -0.40985,-0.14031 -0.47656,-0.34717 l -0.63183,-1.97021 c -0.08361,-0.26345 0.06218,-0.5448 0.32563,-0.62841 0.26232,-0.08325 0.54264,0.06093 0.62749,0.32274 l 0.63184,1.97022 c 0.08397,0.26352 -0.06157,0.54521 -0.32509,0.62919 -0.04898,0.0156 -0.10007,0.02358 -0.15148,0.02364 z"
   id="path60" />
			<path
   fill="#afafaf"
   d="m 19.45508,41.168 c -0.18937,-7e-5 -0.36248,-0.10704 -0.44727,-0.27637 L 18.083,39.041 c -0.12284,-0.24735 -0.0219,-0.54745 0.22545,-0.67029 0.2464,-0.12237 0.54537,-0.02271 0.66908,0.22302 l 0.9248,1.85059 c 0.12351,0.24698 0.02341,0.54733 -0.22357,0.67083 -0.06945,0.03473 -0.14604,0.05281 -0.22369,0.0528 z"
   id="path62" />
			<path
   fill="#afafaf"
   d="m 16.4502,42.979 c -0.16232,-3e-5 -0.31453,-0.07886 -0.40821,-0.21142 l -1.19433,-1.68945 c -0.15938,-0.22544 -0.10582,-0.5374 0.11963,-0.69677 0.22544,-0.15937 0.5374,-0.10582 0.69677,0.11963 v 0 l 1.19434,1.68945 c 0.15953,0.22521 0.10628,0.53711 -0.11893,0.69663 -0.08456,0.05989 -0.18565,0.09202 -0.28927,0.09193 z"
   id="path64" />
			<path
   fill="#afafaf"
   d="m 13.78223,45.2041 c -0.13587,1e-5 -0.26592,-0.05515 -0.36035,-0.15283 L 11.98633,43.562 c -0.19085,-0.19987 -0.18353,-0.51661 0.01634,-0.70745 0.19861,-0.18965 0.51296,-0.18379 0.70436,0.01313 l 1.43555,1.48925 c 0.19146,0.19937 0.18505,0.51621 -0.01432,0.70767 -0.09306,0.08935 -0.21702,0.13933 -0.34603,0.1395 z"
   id="path66" />
			<path
   fill="#afafaf"
   d="m 11.5,47.79541 c -0.10935,6e-5 -0.21571,-0.03578 -0.30273,-0.102 l -1.64649,-1.252 C 9.331,46.27422 9.28837,45.96051 9.45557,45.74073 c 0.1672,-0.21978 0.4809,-0.26241 0.70068,-0.09521 v 0 l 1.64648,1.252 c 0.21989,0.16685 0.26289,0.48038 0.09603,0.70027 -0.09463,0.1247 -0.24222,0.19787 -0.39876,0.19768 z"
   id="path68" />
			<path
   fill="#afafaf"
   d="M 9.65137,50.70557 C 9.56885,50.70566 9.48762,50.68519 9.415,50.646 L 7.59273,49.667 C 7.34949,49.53648 7.25811,49.23348 7.38863,48.99024 7.51915,48.747 7.82215,48.65562 8.06539,48.78614 l 1.82227,0.979 c 0.24331,0.13044 0.33482,0.43342 0.20439,0.67673 -0.08707,0.16242 -0.25644,0.26376 -0.44072,0.2637 0,0 4e-5,0 4e-5,0 z"
   id="path70" />
			<path
   fill="#afafaf"
   d="m 8.28223,53.88867 c -0.0555,-3e-5 -0.11061,-0.0093 -0.16309,-0.02734 l -1.956,-0.67481 C 5.90229,53.09589 5.76431,52.81096 5.85494,52.55011 5.9453,52.29006 6.22887,52.15197 6.48931,52.24121 l 1.956,0.67481 c 0.26104,0.09008 0.39962,0.37472 0.30954,0.63575 -0.06957,0.20161 -0.25935,0.33689 -0.47262,0.3369 z"
   id="path72" />
			<path
   fill="#afafaf"
   d="m 7.43945,57.29932 c -0.02814,-9e-5 -0.05622,-0.0024 -0.084,-0.0068 l -2.04,-0.34473 C 5.04305,56.90161 4.8595,56.64355 4.90529,56.37109 4.95662,56.10225 5.21068,55.92161 5.48147,55.96143 l 2.04,0.34472 c 0.27237,0.04548 0.4563,0.30315 0.41082,0.57552 -0.04022,0.24089 -0.24859,0.41748 -0.49282,0.41765 0,0 -2e-5,0 -2e-5,0 z"
   id="path74" />
			<path
   fill="#afafaf"
   d="m 7.169,60.89111 v 0 l -2.06934,-0.002 c -0.27614,0 -0.5,-0.22386 -0.5,-0.5 0,-0.27614 0.22386,-0.5 0.5,-0.5 v 0 l 2.06934,0.002 c 0.27614,0 0.5,0.22386 0.5,0.5 0,0.27614 -0.22386,0.5 -0.5,0.5 z"
   id="path76" />
			<path
   fill="#afafaf"
   d="m 5.41113,64.78711 c -0.2762,-5e-4 -0.4997,-0.22482 -0.49919,-0.50102 4.5e-4,-0.24834 0.18307,-0.45873 0.42888,-0.4941 l 2.04785,-0.293 c 0.27362,-0.03816 0.52637,0.15271 0.56454,0.42633 0.03793,0.27191 -0.15039,0.52357 -0.42196,0.5639 l -2.04785,0.293 c -0.02395,0.0033 -0.0481,0.0049 -0.07227,0.0049 z"
   id="path78" />
			<path
   fill="#afafaf"
   d="M 6.27148,68.60742 C 5.99534,68.60758 5.77135,68.38385 5.77119,68.10771 5.77106,67.88476 5.91856,67.68866 6.13281,67.62695 l 1.98731,-0.57373 c 0.26526,-0.07693 0.54265,0.07575 0.61958,0.341 0.07692,0.26526 -0.07575,0.54266 -0.34101,0.61958 -4.1e-4,1.2e-4 -8.2e-4,2.4e-4 -0.00123,3.6e-4 l -1.9873,0.57373 c -0.04509,0.01294 -0.09177,0.01952 -0.13868,0.01953 z"
   id="path80" />
			<path
   fill="#afafaf"
   d="m 7.64746,72.25928 c -0.27614,1.3e-4 -0.5001,-0.22363 -0.50023,-0.49976 -9e-5,-0.19736 0.11592,-0.37631 0.29613,-0.45679 L 9.333,70.459 c 0.25214,-0.11272 0.54793,3.1e-4 0.66065,0.25245 0.11272,0.25214 -3e-4,0.54792 -0.25245,0.66064 v 0 L 7.85155,72.21584 C 7.78736,72.24461 7.7178,72.25941 7.64746,72.25928 Z"
   id="path82" />
			<path
   fill="#afafaf"
   d="M 9.51465,75.65381 C 9.23847,75.65369 9.01469,75.4297 9.01482,75.15353 c 8e-5,-0.17117 0.0877,-0.33041 0.23225,-0.42208 l 1.74707,-1.1084 c 0.23434,-0.14607 0.54273,-0.07452 0.68881,0.15984 0.14456,0.23192 0.07613,0.53694 -0.15365,0.68488 l -1.74707,1.1084 c -0.07997,0.05085 -0.17281,0.07779 -0.26758,0.07764 z"
   id="path84" />
			<path
   fill="#afafaf"
   d="m 11.84668,78.69775 c -0.27602,2.8e-4 -0.5,-0.22324 -0.50029,-0.49925 -1.5e-4,-0.14408 0.06189,-0.28122 0.17021,-0.37623 l 1.55469,-1.36573 c 0.20738,-0.1823 0.52328,-0.16196 0.70558,0.04542 0.1823,0.20738 0.16196,0.52328 -0.04542,0.70558 l -1.55469,1.36572 c -0.09116,0.08037 -0.20855,0.12465 -0.33008,0.12449 z"
   id="path86" />
			<path
   fill="#afafaf"
   d="m 14.62012,81.29688 c -0.11414,2.8e-4 -0.22488,-0.03887 -0.31348,-0.11084 -0.21489,-0.17329 -0.24897,-0.48784 -0.07617,-0.70313 l 1.29883,-1.61133 c 0.17413,-0.2146 0.48927,-0.24741 0.70387,-0.07327 0.21357,0.17329 0.24725,0.48646 0.07542,0.7012 l -1.29882,1.61133 c -0.09512,0.11768 -0.23833,0.18606 -0.38965,0.18604 z"
   id="path88" />
			<path
   fill="#afafaf"
   d="m 17.80957,83.34961 c -0.27595,3.3e-4 -0.49991,-0.22311 -0.50024,-0.49906 -10e-5,-0.08224 0.02011,-0.16324 0.05883,-0.2358 l 0.97266,-1.82618 c 0.12933,-0.24398 0.43196,-0.33692 0.67595,-0.2076 0.24398,0.12933 0.33693,0.43197 0.20759,0.67595 -2.4e-4,4.6e-4 -4.9e-4,9.2e-4 -7.3e-4,0.0014 L 18.251,83.08447 c -0.08672,0.16328 -0.25655,0.26528 -0.44143,0.26514 z"
   id="path90" />
		</g>
		<path
   fill="#afafaf"
   d="m 41.30664,81.28809 c -0.27605,2.7e-4 -0.50005,-0.2233 -0.50032,-0.49936 C 40.80615,80.609 40.90249,80.443 41.05864,80.354 51.77495,74.24675 55.51133,60.60856 49.40408,49.89226 43.29683,39.17596 29.65864,35.43957 18.94234,41.54682 8.22604,47.65407 4.48965,61.29226 10.5969,72.00857 c 1.97373,3.46328 4.83843,6.33518 8.29674,8.3176 0.23947,0.13752 0.32211,0.44312 0.1846,0.68259 -0.13752,0.23946 -0.44313,0.32211 -0.68259,0.18459 C 7.21622,74.7842 3.34915,60.52585 9.7583,49.34642 c 6.40915,-11.17943 20.6675,-15.0465 31.84693,-8.63736 11.17943,6.40914 15.0465,20.6675 8.63736,31.84693 -2.07083,3.61212 -5.07048,6.60432 -8.68775,8.66616 -0.0755,0.04346 -0.16111,0.0662 -0.2482,0.06594 z"
   id="path94" />
	</g><path
   fill="#afafaf"
   d="m 44.72618,308.07162 h 0.54765 c 6.20005,0 11.22618,5.02615 11.22617,11.2262 v 0 17.55444 0 h -23 v 0 -17.55444 c -1e-5,-6.20004 5.02612,-11.2262 11.22617,-11.2262 z"
   id="path98" /><path
   fill="#afafaf"
   d="m 45,284.63184 c -0.27599,1.5e-4 -0.49984,-0.22345 -0.5,-0.49945 0,-1.8e-4 0,-3.7e-4 0,-5.5e-4 v -19.98383 c 0,-0.27615 0.22386,-0.5 0.5,-0.5 0.27614,0 0.5,0.22385 0.5,0.5 v 19.98389 c 1.2e-4,0.276 -0.22351,0.49982 -0.4995,0.49994 -1.7e-4,0 -3.3e-4,0 -5e-4,0 z"
   id="path176" /><path
   fill="#afafaf"
   d="m 15,284.63184 c -0.27599,1.5e-4 -0.49985,-0.22345 -0.5,-0.49945 0,-1.8e-4 0,-3.7e-4 0,-5.5e-4 v -19.98383 c 0,-0.27615 0.22386,-0.5 0.5,-0.5 0.27614,0 0.5,0.22385 0.5,0.5 v 19.98389 c 1.2e-4,0.276 -0.22351,0.49982 -0.4995,0.49994 -1.7e-4,0 -3.3e-4,0 -5e-4,0 z"
   id="path198" /><path
   fill="#afafaf"
   d="m 7.865,6.2e-4 h 44.27 v 0 5.40259 c 0,3.91436 -3.17322,7.08758 -7.08758,7.08758 v 0 h -30.0948 c -3.91436,2e-5 -7.0876,-3.17318 -7.08762,-7.08754 0,-10e-6 0,-3e-5 0,-4e-5 z"
   id="path316" /><g
   id="g356">
		<g
   id="g322">
			<path
   fill="#313131"
   d="M 15.00293,9.01074 H 13.64844 L 12.25488,6.69531 H 12.23926 V 9.01074 H 11.12012 V 3.26953 h 1.51562 c 1.13379,0 1.918,0.50195 1.918,1.72852 0.05572,0.74688 -0.44205,1.42261 -1.17187,1.59082 z M 12.23926,5.91113 h 0.14453 c 0.61719,0 1.05078,-0.18261 1.05078,-0.88281 0,-0.708 -0.44922,-0.84473 -1.043,-0.84473 h -0.15234 z"
   id="path318" />
			<path
   fill="#313131"
   d="m 15.00293,9.16064 h -1.35449 c -0.05277,9e-5 -0.10171,-0.02753 -0.12891,-0.07275 L 12.38965,7.20947 v 1.80127 c -5e-5,0.08284 -0.06726,0.14996 -0.1501,0.1499 -10e-5,0 -1.9e-4,0 -2.9e-4,0 h -1.11914 c -0.08284,2.2e-4 -0.15017,-0.06677 -0.15039,-0.14961 0,-10e-5 0,-1.9e-4 0,-2.9e-4 V 3.26953 c 6e-5,-0.08284 0.06726,-0.14996 0.1501,-0.1499 10e-5,0 1.9e-4,0 2.9e-4,0 h 1.51562 c 1.334,0 2.06836,0.667 2.06836,1.87842 0.03643,0.73433 -0.39688,1.41095 -1.0791,1.68506 l 1.50293,2.24414 c 0.03043,0.04627 0.03306,0.1055 0.0068,0.15429 -0.02572,0.04893 -0.07657,0.07943 -0.13184,0.0791 z M 13.7334,8.86084 h 0.98828 L 13.25684,6.67236 c -0.04595,-0.0691 -0.02718,-0.16237 0.04193,-0.20832 0.0177,-0.01177 0.03769,-0.01965 0.05865,-0.02312 0.65393,-0.16142 1.09593,-0.77117 1.0459,-1.44287 0,-1.04737 -0.59473,-1.57862 -1.76758,-1.57862 h -1.36523 v 5.44141 h 0.81836 V 6.69531 c 6e-5,-0.08284 0.06726,-0.14996 0.1501,-0.1499 10e-5,0 1.9e-4,0 2.9e-4,0 0.05707,-3.7e-4 0.11084,0.02669 0.14453,0.07275 z M 12.38379,6.061 h -0.14453 c -0.08284,2.2e-4 -0.15017,-0.06677 -0.15039,-0.14961 0,-10e-5 0,-2e-4 0,-3e-4 v -1.7275 c 6e-5,-0.08284 0.06726,-0.14996 0.1501,-0.1499 10e-5,0 1.9e-4,0 2.9e-4,0 h 0.15234 c 0.55567,0 1.19336,0.11279 1.19336,0.99463 C 13.585,6.061 12.68066,6.061 12.38379,6.061 Z m 0.0059,-1.72754 v 1.42777 c 0.64355,-0.00146 0.89453,-0.207 0.89453,-0.73291 0,-0.51269 -0.2334,-0.69482 -0.89258,-0.69482 z"
   id="path320" />
		</g>
		<g
   id="g328">
			<path
   fill="#313131"
   d="m 18.01465,4.24414 v 1.26367 h 1.78223 v 0.97461 h -1.78223 v 1.55371 h 1.85058 V 9.01074 H 16.89551 V 3.26953 h 2.96972 v 0.97461 z"
   id="path324" />
			<path
   fill="#313131"
   d="m 19.86523,9.16064 h -2.96972 c -0.08284,2.2e-4 -0.15018,-0.06677 -0.15039,-0.14961 0,-10e-5 0,-1.9e-4 0,-2.9e-4 V 3.26953 c 6e-5,-0.08284 0.06726,-0.14996 0.1501,-0.1499 1e-4,0 1.9e-4,0 2.9e-4,0 h 2.96972 c 0.08284,-2.2e-4 0.15018,0.06676 0.1504,0.1496 0,1e-4 0,2e-4 0,3e-4 v 0.97461 c -6e-5,0.08284 -0.06726,0.14996 -0.1501,0.1499 -10e-5,0 -2e-4,0 -3e-4,0 H 18.165 v 0.96387 h 1.63184 c 0.08284,-2.2e-4 0.15018,0.06677 0.15039,0.14961 0,10e-5 0,1.9e-4 0,2.9e-4 v 0.97461 c -6e-5,0.08284 -0.06726,0.14996 -0.1501,0.1499 -10e-5,0 -1.9e-4,0 -2.9e-4,0 H 18.165 v 1.25391 h 1.70019 c 0.08284,-2.2e-4 0.15018,0.06676 0.1504,0.1496 0,10e-5 0,2e-4 0,3e-4 v 0.97461 c -6e-5,0.08284 -0.06726,0.14995 -0.1501,0.1499 -9e-5,0 -1.7e-4,0 -2.6e-4,0 z M 17.0459,8.86084 h 2.66894 V 8.186 h -1.70019 c -0.08284,2.2e-4 -0.15018,-0.06677 -0.15039,-0.14961 0,-1e-4 0,-2e-4 0,-3e-4 V 6.48242 c 6e-5,-0.08284 0.06726,-0.14996 0.1501,-0.1499 10e-5,0 1.9e-4,0 2.9e-4,0 h 1.63183 V 5.65771 h -1.63183 c -0.08284,2.2e-4 -0.15018,-0.06677 -0.15039,-0.14961 0,-10e-5 0,-1.9e-4 0,-2.9e-4 V 4.24414 c 6e-5,-0.08284 0.06726,-0.14996 0.1501,-0.1499 10e-5,0 1.9e-4,0 2.9e-4,0 h 1.70019 V 3.41943 H 17.0459 Z"
   id="path326" />
		</g>
		<g
   id="g334">
			<path
   fill="#313131"
   d="m 27.25586,4.24414 v 1.26367 h 1.62207 V 6.48242 H 27.25586 V 9.01074 H 26.13672 V 3.26953 h 2.84766 v 0.97461 z"
   id="path330" />
			<path
   fill="#313131"
   d="m 27.25586,9.16064 h -1.11914 c -0.08284,2.2e-4 -0.15018,-0.06677 -0.15039,-0.14961 0,-10e-5 0,-1.9e-4 0,-2.9e-4 V 3.26953 c 6e-5,-0.08284 0.06726,-0.14996 0.1501,-0.1499 10e-5,0 1.9e-4,0 2.9e-4,0 h 2.84766 c 0.08284,-2.2e-4 0.15018,0.06677 0.15039,0.14961 0,1e-4 0,1.9e-4 0,2.9e-4 v 0.97461 c -6e-5,0.08284 -0.06726,0.14996 -0.1501,0.1499 -10e-5,0 -1.9e-4,0 -2.9e-4,0 h -1.57813 v 0.96387 h 1.47168 c 0.08284,-2.2e-4 0.15018,0.06677 0.15039,0.14961 0,10e-5 0,1.9e-4 0,2.9e-4 v 0.97461 c -6e-5,0.08284 -0.06726,0.14996 -0.1501,0.1499 -10e-5,0 -1.9e-4,0 -2.9e-4,0 h -1.47168 v 2.37842 c -6e-5,0.08284 -0.06726,0.14995 -0.1501,0.1499 -1e-4,0 -1.9e-4,0 -2.9e-4,0 z m -0.96875,-0.2998 h 0.81836 V 6.48242 c 6e-5,-0.08284 0.06726,-0.14996 0.1501,-0.1499 10e-5,0 1.9e-4,0 2.9e-4,0 h 1.47168 V 5.65771 h -1.47168 c -0.08284,2.2e-4 -0.15018,-0.06677 -0.15039,-0.14961 0,-10e-5 0,-1.9e-4 0,-2.9e-4 V 4.24414 c 6e-5,-0.08284 0.06726,-0.14996 0.1501,-0.1499 10e-5,0 1.9e-4,0 2.9e-4,0 H 28.834 V 3.41943 h -2.54689 z"
   id="path332" />
		</g>
		<g
   id="g340">
			<path
   fill="#313131"
   d="M 33.75488,9.16309 C 32.19786,9.1793 30.92251,7.93023 30.9063,6.37321 30.90546,6.293 30.908,6.21279 30.9141,6.13281 c -0.094,-1.56867 1.10146,-2.91654 2.67013,-3.01054 1.56867,-0.094 2.91654,1.10146 3.01054,2.67013 0.0068,0.11337 0.0068,0.22704 0,0.3404 0.11667,1.55261 -1.0474,2.90583 -2.60001,3.0225 -0.0798,0.00601 -0.15982,0.0086 -0.23984,0.00779 z"
   id="path336" />
			<path
   fill="#313131"
   d="M 33.75488,9.313 C 32.1223,9.33695 30.77943,8.03289 30.75548,6.40032 30.75417,6.31108 30.7569,6.22182 30.76367,6.13282 30.66981,4.48109 31.9327,3.066 33.58444,2.97214 c 1.65173,-0.09386 3.06682,1.16904 3.16068,2.82077 0.0064,0.11321 0.0064,0.2267 0,0.33992 0.1242,1.62761 -1.09457,3.04773 -2.72218,3.17193 -0.08918,0.00679 -0.17863,0.00955 -0.26806,0.00824 z m 0,-6.0459 c -1.46999,-0.02008 -2.67793,1.1553 -2.69802,2.62529 -0.0011,0.08022 0.0014,0.16044 0.0076,0.24043 -0.1017,1.48562 1.02018,2.77239 2.5058,2.87409 1.48561,0.1017 2.77239,-1.02018 2.87409,-2.5058 0.0084,-0.12262 0.0084,-0.24567 0,-0.36829 C 36.55746,4.66746 35.46125,3.38785 33.99589,3.27474 33.91571,3.26855 33.83529,3.266 33.75488,3.2671 Z"
   id="path338" />
		</g>
		<g
   id="g346">
			<path
   fill="#313131"
   d="m 39.78906,8.03613 h 1.584 V 9.01074 H 38.66992 V 3.26953 h 1.11914 z"
   id="path342" />
			<path
   fill="#313131"
   d="m 41.37305,9.16064 h -2.70313 c -0.08284,2.2e-4 -0.15017,-0.06677 -0.15039,-0.14961 0,-10e-5 0,-1.9e-4 0,-2.9e-4 V 3.26953 c 5e-5,-0.08284 0.06726,-0.14996 0.1501,-0.1499 1e-4,0 1.9e-4,0 2.9e-4,0 h 1.11914 c 0.08284,-2.2e-4 0.15017,0.06677 0.15039,0.14961 0,1e-4 0,1.9e-4 0,2.9e-4 v 4.6167 h 1.4336 c 0.08284,-2.2e-4 0.15017,0.06677 0.15039,0.14961 0,10e-5 0,1.9e-4 0,2.9e-4 v 0.97461 c -6e-5,0.08284 -0.06726,0.14995 -0.1501,0.1499 -9e-5,0 -1.9e-4,0 -2.9e-4,0 z m -2.55274,-0.2998 h 2.40235 V 8.186 h -1.4336 c -0.08284,2.2e-4 -0.15017,-0.06677 -0.15039,-0.14961 0,-1e-4 0,-2e-4 0,-3e-4 V 3.41943 h -0.81836 z"
   id="path344" />
		</g>
		<g
   id="g352">
			<path
   fill="#313131"
   d="m 43.25684,3.26953 h 1.59863 c 1.50172,-0.03119 2.7444,1.16092 2.77559,2.66264 0.0015,0.07179 1.4e-4,0.14361 -0.0041,0.21529 0.06876,1.51121 -1.10058,2.79202 -2.61179,2.86077 -0.05547,0.00252 -0.11101,0.00336 -0.16653,0.00251 H 43.2568 Z m 1.11916,4.7666 h 0.18261 C 45.48353,8.16574 46.33838,7.52101 46.46799,6.5961 46.4892,6.44473 46.48979,6.29118 46.46975,6.13965 46.59259,5.21459 45.94227,4.3651 45.01721,4.24226 44.86497,4.22204 44.71068,4.22268 44.55861,4.24414 H 44.376 Z"
   id="path348" />
			<path
   fill="#313131"
   d="M 44.84863,9.16064 H 43.25684 C 43.174,9.16086 43.10667,9.09387 43.10645,9.01103 c 0,-10e-5 0,-1.9e-4 0,-2.9e-4 V 3.26953 c 5e-5,-0.08284 0.06726,-0.14996 0.1501,-0.1499 1e-4,0 1.9e-4,0 2.9e-4,0 h 1.59863 c 1.58982,-0.02581 2.89955,1.24206 2.92536,2.83188 0.0011,0.06534 -1e-4,0.13069 -0.0035,0.19595 0.07713,1.58545 -1.14559,2.93324 -2.73104,3.01037 -0.06584,0.0032 -0.13177,0.00414 -0.19767,0.00281 z m -1.4414,-0.2998 h 1.4414 C 46.27526,8.88715 47.4531,7.75196 47.47941,6.32533 47.4805,6.26602 47.47955,6.2067 47.47656,6.14746 47.56975,4.73661 46.50158,3.51735 45.09073,3.42416 45.01243,3.41899 44.93392,3.41742 44.85547,3.41946 h -1.44824 z m 1.15136,-0.6748 H 44.376 c -0.08284,2.2e-4 -0.15017,-0.06677 -0.15039,-0.14961 0,-10e-5 0,-2e-4 0,-3e-4 v -3.792 c 5e-5,-0.08284 0.06726,-0.14996 0.1501,-0.1499 1e-4,0 1.9e-4,0 2.9e-4,0 h 0.18261 c 1.00524,-0.13231 1.9274,0.57534 2.05971,1.58058 0.0203,0.15424 0.02091,0.31044 0.0018,0.46483 C 46.74477,7.14613 46.02989,8.06309 45.0234,8.18772 44.86902,8.20684 44.71283,8.20626 44.55859,8.186 Z M 44.52637,7.88623 h 0.03222 C 45.39973,8.0165 46.18722,7.44022 46.31748,6.59908 46.34105,6.44689 46.34168,6.29203 46.31934,6.13965 46.44247,5.2976 45.85967,4.51516 45.01762,4.39202 44.86537,4.36976 44.71064,4.37042 44.55859,4.394 h -0.03222 z"
   id="path350" />
		</g>
		<circle
   fill="#cc4c4c"
   cx="22.83872"
   cy="5.91113"
   r="1.15602"
   id="circle354" />
	</g><g
   id="g420">
		<g
   id="g406">
			<g
   id="g362">
				<path
   fill="#cc4c4c"
   d="m 13.90159,372.71753 h -1.35635 l -1.39539,-2.31754 h -0.01561 v 2.3175 H 10.014 v -5.74792 h 1.51736 c 1.13582,0 1.92036,0.50299 1.92036,1.73056 0.0558,0.74802 -0.44288,1.42474 -1.17388,1.59299 z m -2.76735,-3.10254 h 0.14539 c 0.61768,0 1.05191,-0.18301 1.05191,-0.88455 0,-0.70892 -0.44984,-0.84601 -1.0441,-0.84601 h -0.1532 z"
   id="path358" />
				<path
   fill="#cc4c4c"
   d="m 13.90137,372.918 h -1.35645 c -0.07008,-9e-5 -0.13497,-0.037 -0.1709,-0.0972 l -1.04,-1.72705 v 1.62399 c -1.5e-4,0.1105 -0.08969,0.20004 -0.20019,0.2002 h -1.12016 c -0.1105,-1.5e-4 -0.20004,-0.0897 -0.20019,-0.2002 v -5.74799 c 1.5e-4,-0.1105 0.08969,-0.20004 0.20019,-0.2002 h 1.51758 c 1.36816,0 2.12109,0.68555 2.12109,1.93066 0.03289,0.73264 -0.38422,1.41132 -1.05273,1.71289 l 1.46777,2.19336 c 0.0617,0.0915 0.03756,0.21567 -0.05392,0.27737 -0.03311,0.0223 -0.07215,0.0342 -0.11208,0.0341 z m -1.24317,-0.40039 h 0.86817 L 12.1123,370.4043 c -0.03815,-0.0562 -0.04479,-0.12814 -0.01757,-0.19043 0.02702,-0.0622 0.08355,-0.10663 0.15039,-0.11816 0.63109,-0.15729 1.05657,-0.74701 1.00683,-1.39551 0,-1.01563 -0.5791,-1.53027 -1.7207,-1.53027 h -1.31738 v 5.34766 h 0.71972 v -2.11768 c 1.5e-4,-0.1105 0.0897,-0.20004 0.2002,-0.2002 0.07436,-2.1e-4 0.14407,0.0361 0.18652,0.0972 z m -1.3789,-2.70215 h -0.14551 c -0.1105,-1.5e-4 -0.20005,-0.0897 -0.2002,-0.2002 v -1.73099 c 1.6e-4,-0.1105 0.0897,-0.20004 0.2002,-0.2002 h 0.15332 c 0.33984,0 1.24414,0 1.24414,1.04639 0.02365,0.58487 -0.4313,1.07816 -1.01616,1.10181 -0.07898,0.003 -0.15807,-0.002 -0.23579,-0.0168 v 4e-5 z m 0.05468,-1.73099 v 1.33008 c 0.58008,-0.0107 0.79688,-0.19971 0.79688,-0.68408 0,-0.47119 -0.20215,-0.6377 -0.79686,-0.646 z"
   id="path360" />
			</g>
			<g
   id="g368">
				<path
   fill="#cc4c4c"
   d="m 16.909,367.9454 v 1.26511 h 1.78375 v 0.9758 H 16.909 v 1.55542 h 1.853 v 0.9758 h -2.97322 v -5.74792 H 18.762 v 0.9758 h -1.853 z"
   id="path364" />
				<path
   fill="#cc4c4c"
   d="m 18.76172,372.918 h -2.97266 c -0.1105,-1.5e-4 -0.20004,-0.0897 -0.20019,-0.2002 v -5.74799 c 1.5e-4,-0.1105 0.08969,-0.20004 0.20019,-0.2002 h 2.97266 c 0.1105,1.5e-4 0.20004,0.0897 0.20019,0.2002 v 0.97559 c -1.5e-4,0.1105 -0.08969,0.20004 -0.20019,0.2002 h -1.65234 v 0.86475 h 1.583 c 0.1105,1.5e-4 0.20004,0.0897 0.2002,0.2002 v 0.97607 c -1.5e-4,0.1105 -0.08969,0.20004 -0.2002,0.2002 h -1.583 v 1.15479 h 1.65234 c 0.1105,1.5e-4 0.20004,0.0897 0.20019,0.2002 v 0.97607 c -1.8e-4,0.11046 -0.08971,0.19997 -0.20019,0.20012 z m -2.77246,-0.40039 h 2.57226 v -0.57568 h -1.65234 c -0.1105,-1.5e-4 -0.20005,-0.0897 -0.2002,-0.2002 v -1.55518 c 1.5e-4,-0.1105 0.08969,-0.20004 0.2002,-0.2002 h 1.583 v -0.57568 h -1.583 c -0.1105,-1.5e-4 -0.20005,-0.0897 -0.2002,-0.2002 v -1.26514 c 1.5e-4,-0.1105 0.08969,-0.20004 0.2002,-0.2002 h 1.65234 v -0.5752 h -2.57226 z"
   id="path366" />
			</g>
			<g
   id="g374">
				<path
   fill="#d8bb44"
   d="m 22.151,372.71753 h -1.12026 v -5.74792 h 1.52419 c 1.20511,0 1.98965,0.4801 1.98965,1.78375 0.11013,0.89337 -0.5248,1.70688 -1.41817,1.81699 -0.13896,0.0171 -0.27954,0.0163 -0.41828,-0.002 H 22.151 Z m 0,-3.07962 h 0.22932 c 0.66256,0 1.02165,-0.1449 1.02165,-0.89236 0,-0.73917 -0.4274,-0.84601 -1.05288,-0.84601 H 22.151 Z"
   id="path370" />
				<path
   fill="#d8bb44"
   d="m 22.15137,372.86768 h -1.1211 c -0.08284,2.1e-4 -0.15018,-0.0668 -0.15039,-0.1496 0,-1.2e-4 0,-2.1e-4 0,-3.1e-4 v -5.74799 c 5e-5,-0.0829 0.06726,-0.14996 0.1501,-0.1499 1e-4,0 2e-4,0 2.9e-4,0 h 1.52442 c 1.41992,0 2.14062,0.65039 2.14062,1.93359 0.10768,0.97852 -0.59829,1.85907 -1.57681,1.96674 -0.13647,0.015 -0.27421,0.0142 -0.41049,-0.002 h -0.40625 v 2 c -9e-5,0.0829 -0.06732,0.14993 -0.15016,0.14984 -8e-5,1e-5 -1.5e-4,1e-5 -2.3e-4,1e-5 z m -0.97071,-0.29981 H 22.001 v -2 c 5e-5,-0.0829 0.06726,-0.14996 0.1501,-0.1499 10e-5,0 2e-4,0 2.9e-4,0 H 22.708 c 0.8117,0.11826 1.56558,-0.44388 1.68384,-1.25558 0.01975,-0.13556 0.02065,-0.27316 0.0027,-0.40897 0,-1.11475 -0.584,-1.63379 -1.83984,-1.63379 h -1.374 z m 1.19922,-2.78027 h -0.22851 c -0.08284,2.1e-4 -0.15018,-0.0668 -0.15039,-0.1496 0,-1.2e-4 0,-2.1e-4 0,-3.1e-4 v -1.73828 c 5e-5,-0.0829 0.06726,-0.14996 0.1501,-0.1499 10e-5,0 2e-4,0 2.9e-4,0 h 0.19726 c 0.582,0 1.2041,0.0767 1.2041,0.99609 0,0.86475 -0.46873,1.042 -1.17285,1.042 z m -0.07812,-0.29981 h 0.07812 c 0.61524,0 0.87207,-0.103 0.87207,-0.74219 0,-0.5957 -0.27832,-0.69629 -0.90332,-0.69629 h -0.04687 z"
   id="path372" />
			</g>
			<g
   id="g380">
				<path
   fill="#d8bb44"
   d="m 27.69737,367.9454 v 1.26511 h 1.78375 v 0.9758 h -1.78375 v 1.55542 h 1.853 v 0.9758 h -2.97321 v -5.74792 h 2.97324 v 0.9758 h -1.85303 z"
   id="path376" />
				<path
   fill="#d8bb44"
   d="m 29.55078,372.86768 h -2.97363 c -0.08284,2.1e-4 -0.15018,-0.0668 -0.15039,-0.1496 0,-1.2e-4 0,-2.1e-4 0,-3.1e-4 v -5.74799 c 5e-5,-0.0829 0.06726,-0.14996 0.1501,-0.1499 10e-5,0 2e-4,0 2.9e-4,0 h 2.97363 c 0.08284,-2.1e-4 0.15018,0.0668 0.15039,0.1496 0,1.2e-4 0,2.1e-4 0,3.1e-4 v 0.97559 c -5e-5,0.0829 -0.06726,0.14996 -0.1501,0.1499 -10e-5,0 -2e-4,0 -2.9e-4,0 h -1.70312 v 0.96533 h 1.63379 c 0.08284,-2.1e-4 0.15018,0.0668 0.15039,0.1496 0,1.2e-4 0,2.1e-4 0,3.1e-4 v 0.97607 c -5e-5,0.0829 -0.06726,0.14996 -0.1501,0.1499 -10e-5,0 -2e-4,0 -2.9e-4,0 h -1.63379 v 1.25537 h 1.70312 c 0.08284,-2.1e-4 0.15018,0.0668 0.15039,0.1496 0,1.2e-4 0,2.1e-4 0,3.1e-4 v 0.97607 c -9e-5,0.0829 -0.06732,0.14993 -0.15016,0.14984 -8e-5,0 -1.5e-4,0 -2.3e-4,0 z m -2.82324,-0.29981 h 2.67285 v -0.67627 h -1.70312 c -0.08284,2.1e-4 -0.15018,-0.0668 -0.15039,-0.1496 0,-1.2e-4 0,-2.1e-4 0,-3.1e-4 v -1.55518 c 5e-5,-0.0829 0.06726,-0.14996 0.1501,-0.1499 10e-5,0 2e-4,0 2.9e-4,0 h 1.63378 v -0.67627 h -1.63378 c -0.08284,2.1e-4 -0.15018,-0.0668 -0.15039,-0.1496 0,-1.2e-4 0,-2.1e-4 0,-3.1e-4 v -1.26514 c 5e-5,-0.0829 0.06726,-0.14996 0.1501,-0.1499 10e-5,0 2e-4,0 2.9e-4,0 h 1.70312 v -0.67578 h -2.67285 z"
   id="path378" />
			</g>
			<g
   id="g386">
				<path
   fill="#10a687"
   d="M 32.93933,371.74173 H 34.525 v 0.9758 h -2.70588 v -5.74792 h 1.12021 z"
   id="path382" />
				<path
   fill="#10a687"
   d="m 34.52539,372.86768 h -2.70605 c -0.08284,2.1e-4 -0.15018,-0.0668 -0.15039,-0.1496 0,-1.2e-4 0,-2.1e-4 0,-3.1e-4 v -5.74799 c 5e-5,-0.0829 0.06726,-0.14996 0.1501,-0.1499 10e-5,0 2e-4,0 2.9e-4,0 h 1.12011 c 0.08284,-2.1e-4 0.15017,0.0668 0.15039,0.1496 0,1.2e-4 0,2.1e-4 0,3.1e-4 v 4.62207 h 1.43555 c 0.08284,-2.1e-4 0.15017,0.0668 0.15039,0.1496 0,1.2e-4 0,2.1e-4 0,3.1e-4 v 0.97607 c -9e-5,0.0829 -0.06731,0.14993 -0.15016,0.14984 -7e-5,0 -1.5e-4,0 -2.3e-4,0 z m -2.55566,-0.29981 H 34.375 v -0.67627 h -1.43555 c -0.08284,2.1e-4 -0.15017,-0.0668 -0.15039,-0.1496 0,-1.2e-4 0,-2.1e-4 0,-3.1e-4 v -4.62207 h -0.81933 z"
   id="path384" />
			</g>
			<g
   id="g392">
				<path
   fill="#10a687"
   d="m 40.20315,371.74173 v 0.9758 H 36.0326 l 2.53121,-4.77213 H 36.421 v -0.9758 h 3.91879 l -2.52341,4.77213 z"
   id="path388" />
				<path
   fill="#10a687"
   d="m 40.20313,372.86768 h -4.1709 c -0.05277,9e-5 -0.10171,-0.0275 -0.12891,-0.0727 -0.02661,-0.0452 -0.02809,-0.10092 -0.0039,-0.14746 l 2.415,-4.55225 H 36.4209 c -0.08284,2.1e-4 -0.15017,-0.0668 -0.15039,-0.1496 0,-1.2e-4 0,-2.1e-4 0,-3.1e-4 v -0.97559 c 5e-5,-0.0829 0.06725,-0.14996 0.1501,-0.1499 10e-5,0 1.9e-4,0 2.9e-4,0 h 3.91894 c 0.05264,-6e-5 0.1015,0.0273 0.12891,0.0723 0.02661,0.0454 0.02808,0.10123 0.0039,0.14795 l -2.40723,4.55176 h 2.1377 c 0.08284,-2.1e-4 0.15017,0.0668 0.15039,0.1496 0,1.2e-4 0,2.1e-4 0,3.1e-4 v 0.97607 c -5e-5,0.0829 -0.06725,0.14996 -0.1501,0.1499 -10e-5,0 -1.9e-4,0 -2.9e-4,0 z m -3.92188,-0.29981 h 3.77148 v -0.67627 h -2.23632 c -0.05264,6e-5 -0.10151,-0.0273 -0.12891,-0.0723 -0.02663,-0.0454 -0.02811,-0.10129 -0.0039,-0.14801 l 2.40723,-4.55176 H 36.5713 v 0.67578 h 1.99219 c 0.05276,-9e-5 0.1017,0.0275 0.1289,0.0727 0.0266,0.0452 0.02808,0.10092 0.0039,0.14746 z"
   id="path390" />
			</g>
			<g
   id="g398">
				<path
   fill="#098eb7"
   d="m 43.43107,367.9454 v 1.26511 h 1.78376 v 0.9758 h -1.78376 v 1.55542 h 1.853 v 0.9758 h -2.97321 v -5.74792 h 2.97325 v 0.9758 h -1.85304 z"
   id="path394" />
				<path
   fill="#098eb7"
   d="m 45.28418,372.86768 h -2.97363 c -0.08284,2.1e-4 -0.15017,-0.0668 -0.15039,-0.1496 0,-1.2e-4 0,-2.1e-4 0,-3.1e-4 v -5.74799 c 5e-5,-0.0829 0.06725,-0.14996 0.1501,-0.1499 1e-4,0 1.9e-4,0 2.9e-4,0 h 2.97363 c 0.08284,-2.1e-4 0.15017,0.0668 0.15039,0.1496 0,1.2e-4 0,2.1e-4 0,3.1e-4 v 0.97559 c -5e-5,0.0829 -0.06725,0.14996 -0.1501,0.1499 -10e-5,0 -1.9e-4,0 -2.9e-4,0 h -1.70313 v 0.96533 h 1.63379 c 0.08284,-2.1e-4 0.15017,0.0668 0.15039,0.1496 0,1.2e-4 0,2.1e-4 0,3.1e-4 v 0.97607 c -5e-5,0.0829 -0.06725,0.14996 -0.1501,0.1499 -1e-4,0 -1.9e-4,0 -2.9e-4,0 h -1.63379 v 1.25537 h 1.70313 c 0.08284,-2.1e-4 0.15017,0.0668 0.15039,0.1496 0,1.2e-4 0,2.1e-4 0,3.1e-4 v 0.97607 c -9e-5,0.0829 -0.06731,0.14993 -0.15016,0.14984 -7e-5,0 -1.5e-4,0 -2.3e-4,0 z m -2.82324,-0.29981 h 2.67285 v -0.67627 h -1.70313 c -0.08284,2.1e-4 -0.15017,-0.0668 -0.15039,-0.1496 0,-1.2e-4 0,-2.1e-4 0,-3.1e-4 v -1.55518 c 5e-5,-0.0829 0.06725,-0.14996 0.1501,-0.1499 10e-5,0 1.9e-4,0 2.9e-4,0 h 1.63379 v -0.67627 h -1.63379 c -0.08284,2.1e-4 -0.15017,-0.0668 -0.15039,-0.1496 0,-1.2e-4 0,-2.1e-4 0,-3.1e-4 v -1.26514 c 5e-5,-0.0829 0.06725,-0.14996 0.1501,-0.1499 10e-5,0 1.9e-4,0 2.9e-4,0 h 1.70313 v -0.67578 h -2.67285 z"
   id="path396" />
			</g>
			<g
   id="g404">
				<path
   fill="#098eb7"
   d="m 47.55283,366.81689 h 0.808 l 3.02691,4.01785 h 0.01464 v -3.86511 h 1.12118 v 5.86209 h -0.80795 l -3.02692,-4.01736 H 48.673 v 3.90317 h -1.12017 z"
   id="path400" />
				<path
   fill="#098eb7"
   d="m 52.52344,372.98145 h -0.80762 c -0.04715,0 -0.09159,-0.022 -0.12012,-0.0596 l -2.77246,-3.67969 v 3.47559 c -5e-5,0.0829 -0.06725,0.14996 -0.1501,0.1499 -10e-5,0 -1.9e-4,0 -2.9e-4,0 h -1.12012 c -0.08284,2.1e-4 -0.15017,-0.0668 -0.15039,-0.1496 0,-1.2e-4 0,-2.1e-4 0,-3.1e-4 v -5.90088 c 5e-5,-0.0829 0.06725,-0.14996 0.1501,-0.1499 1e-4,0 1.9e-4,0 2.9e-4,0 h 0.80762 c 0.04715,-3e-5 0.0916,0.022 0.12012,0.0596 l 2.77148,3.67969 v -3.43652 c 5e-5,-0.0829 0.06725,-0.14996 0.1501,-0.1499 10e-5,0 1.9e-4,0 2.9e-4,0 h 1.1211 c 0.08284,-2.1e-4 0.15017,0.0668 0.15039,0.1496 0,1.2e-4 0,2.1e-4 0,3.1e-4 v 5.86182 c -5e-5,0.0829 -0.06725,0.14996 -0.1501,0.1499 -9e-5,-1e-5 -1.9e-4,-1e-5 -2.9e-4,-1e-5 z m -0.73242,-0.29981 h 0.582 v -5.56201 H 51.5527 v 3.71536 c -5e-5,0.0829 -0.06725,0.14996 -0.1501,0.1499 -10e-5,0 -1.9e-4,0 -2.9e-4,0 -0.05135,2.1e-4 -0.10035,-0.0215 -0.13476,-0.0596 l -2.98242,-3.9585 h -0.582 v 5.60107 h 0.81933 v -3.75342 c 5e-5,-0.0829 0.06725,-0.14996 0.1501,-0.1499 1e-4,0 1.9e-4,0 2.9e-4,0 0.05163,-2.1e-4 0.10094,0.0214 0.13574,0.0596 z"
   id="path402" />
			</g>
		</g>
		<g
   id="g412">
			<rect
   x="9.8748503"
   y="364.82104"
   fill="#e6e6e6"
   width="42.887039"
   height="0.89929003"
   id="rect408" />
			<path
   fill="#e6e6e6"
   d="M 52.76172,365.87012 H 9.875 c -0.08284,2.1e-4 -0.15017,-0.0668 -0.15039,-0.1496 0,-1.2e-4 0,-2.1e-4 0,-3.1e-4 v -0.89941 c 5e-5,-0.0829 0.06725,-0.14996 0.1501,-0.1499 10e-5,0 2e-4,0 2.9e-4,0 h 42.88672 c 0.08284,-2.1e-4 0.15017,0.0668 0.15039,0.1496 0,1.2e-4 0,2.1e-4 0,3.1e-4 v 0.89941 c -5e-5,0.0829 -0.06725,0.14996 -0.1501,0.1499 -10e-5,0 -1.9e-4,0 -2.9e-4,0 z M 10.02539,365.57031 H 52.61133 V 364.9707 H 10.02539 Z"
   id="path410" />
		</g>
		<g
   id="g418">
			<rect
   x="10.01403"
   y="374.27966"
   fill="#e6e6e6"
   width="42.887039"
   height="0.89929003"
   id="rect414" />
			<path
   fill="#e6e6e6"
   d="m 52.90137,375.3291 h -42.8877 c -0.08284,2.1e-4 -0.15017,-0.0668 -0.15039,-0.1496 0,-1.2e-4 0,-2.1e-4 0,-3.1e-4 v -0.89941 c 5e-5,-0.0829 0.06725,-0.14996 0.1501,-0.1499 10e-5,0 2e-4,0 2.9e-4,0 h 42.8877 c 0.08284,-2.1e-4 0.15017,0.0668 0.15039,0.1496 0,1.2e-4 0,2.1e-4 0,3.1e-4 v 0.89941 c -5e-5,0.0829 -0.06725,0.14996 -0.1501,0.1499 -9e-5,0 -1.9e-4,0 -2.9e-4,0 z M 10.16406,375.0293 H 52.751 v -0.59961 H 10.16406 Z"
   id="path416" />
		</g>
	</g><g
   id="g434">
		<g
   id="g426">
			<path
   fill="#313131"
   d="m 43.41549,237.36279 c -5.80185,0.87474 -9.79606,6.28719 -8.92132,12.08902 0.48371,3.20828 2.40696,6.01965 5.22183,7.63318"
   id="path422" />
			<path
   fill="#098eb7"
   d="m 39.71582,257.58499 c -0.08739,6e-5 -0.17326,-0.0228 -0.249,-0.0664 -5.32997,-3.05528 -7.17396,-9.85287 -4.11867,-15.18285 1.68953,-2.9474 4.63332,-4.96115 7.99267,-5.46754 0.27222,-0.0369 0.5243,0.14973 0.56836,0.4209 0.04081,0.27286 -0.14711,0.52721 -0.41992,0.56836 -5.52864,0.83362 -9.33472,5.99124 -8.5011,11.51988 0.46101,3.05746 2.29399,5.7366 4.97668,7.27406 0.23947,0.13751 0.32212,0.44312 0.1846,0.68259 -0.08916,0.15527 -0.25455,0.25101 -0.43361,0.25101 z"
   id="path424" />
		</g>
		<g
   id="g432">
			<path
   fill="#313131"
   d="m 50.26114,257.09811 c 5.09768,-2.90532 6.87493,-9.39304 3.9696,-14.49072 -1.59678,-2.80171 -4.37968,-4.72652 -7.56461,-5.23207"
   id="path428" />
			<path
   fill="#098eb7"
   d="m 50.26074,257.59814 c -0.27605,2.7e-4 -0.50005,-0.22327 -0.50033,-0.49933 -1.8e-4,-0.17975 0.09616,-0.34573 0.25233,-0.43475 4.85796,-2.76753 6.5526,-8.94922 3.78507,-13.80717 -1.52151,-2.67079 -4.17407,-4.50563 -7.20988,-4.98726 -0.2728,-0.0438 -0.4584,-0.30054 -0.41455,-0.57333 0.04369,-0.2718 0.29877,-0.45724 0.5708,-0.41495 6.06757,0.96254 10.20602,6.66156 9.24348,12.72913 -0.52911,3.33534 -2.54475,6.24973 -5.47883,7.92175 -0.07545,0.0434 -0.16104,0.0662 -0.24809,0.0659 z"
   id="path430" />
		</g>
	</g><g
   id="g440">
		<path
   fill="#afafaf"
   d="m 9.71582,257.58499 c -0.08739,6e-5 -0.17325,-0.0228 -0.249,-0.0664 -5.32997,-3.05528 -7.17396,-9.85287 -4.11867,-15.18285 1.68953,-2.9474 4.63332,-4.96115 7.99267,-5.46754 0.27333,-0.04 0.5273,0.14925 0.56725,0.42258 0.03973,0.27187 -0.14726,0.52487 -0.41881,0.56668 -5.52864,0.83362 -9.33472,5.99124 -8.5011,11.51988 0.46101,3.05746 2.29399,5.7366 4.97668,7.27406 0.23947,0.13751 0.32212,0.44312 0.1846,0.68259 -0.08916,0.15527 -0.25455,0.25101 -0.4336,0.25101 z"
   id="path436" />
		<path
   fill="#afafaf"
   d="m 20.26074,257.59814 c -0.27605,2.7e-4 -0.50006,-0.22327 -0.50033,-0.49933 -1.8e-4,-0.17975 0.09617,-0.34576 0.25233,-0.43475 4.85796,-2.76753 6.5526,-8.94922 3.78507,-13.80717 -1.52151,-2.67079 -4.17407,-4.50563 -7.20988,-4.98726 -0.2728,-0.0438 -0.4584,-0.30054 -0.41455,-0.57333 0.04369,-0.2718 0.29877,-0.45724 0.5708,-0.41495 6.06757,0.96254 10.20602,6.66156 9.24348,12.72913 -0.5291,3.33534 -2.54475,6.24973 -5.47883,7.92175 -0.07545,0.0434 -0.16103,0.0662 -0.24809,0.0659 z"
   id="path438" />
	</g>
<path
   fill="#AFAFAF"
   d="M33.75488,4.37159C32.87005,4.4082,32.18244,5.15517,32.21905,6.04  c0.00065,0.01565,0.00152,0.03129,0.00263,0.04692c0,0.84034,0.40137,1.82178,1.5332,1.82178  c1.13086,0,1.53223-0.98144,1.53223-1.82178c0.06263-0.88328-0.60264-1.6501-1.48592-1.71273  C33.78577,4.3731,33.77033,4.37223,33.75488,4.37159z"
   id="path443" />
<g
   aria-label="fold"
   id="text2719"
   style="font-weight:500;font-size:11.3333px;line-height:1.25;font-family:'Futura PT';-inkscape-font-specification:'Futura PT, Medium';fill:#afafaf"><path
     d="m 23.799779,92.172467 v -1.178663 h -1.26933 v -1.16733 c 0,-0.407998 0.034,-0.668664 0.147333,-0.849997 0.136,-0.203999 0.317333,-0.249333 0.498665,-0.249333 0.238,0 0.430666,0.05667 0.623332,0.204 v -1.257996 c -0.238,-0.113333 -0.487332,-0.17 -0.793331,-0.17 -0.509999,0 -0.917997,0.158666 -1.212663,0.407999 -0.611998,0.509998 -0.645998,1.280663 -0.645998,1.733995 v 1.348662 h -0.521332 v 1.178663 h 0.521332 v 3.728656 h 1.382662 v -3.728656 z"
     id="path25284" /><path
     d="m 26.995767,90.835138 c -0.92933,0 -1.563995,0.305999 -1.983327,0.691331 -0.487332,0.441999 -0.827331,1.121997 -0.827331,1.926661 0,0.793331 0.339999,1.473329 0.827331,1.915328 0.419332,0.385332 1.053997,0.691331 1.983327,0.691331 0.929331,0 1.563996,-0.305999 1.983328,-0.691331 0.487332,-0.441999 0.827331,-1.121997 0.827331,-1.915328 0,-0.804664 -0.339999,-1.484662 -0.827331,-1.926661 -0.419332,-0.385332 -1.053997,-0.691331 -1.983328,-0.691331 z m 0,4.000655 c -0.804664,0 -1.382662,-0.634665 -1.382662,-1.382663 0,-0.770664 0.589331,-1.393996 1.382662,-1.393996 0.793331,0 1.382663,0.623332 1.382663,1.393996 0,0.747998 -0.577999,1.382663 -1.382663,1.382663 z"
     id="path25286" /><path
     d="m 30.871743,87.639148 v 8.261975 h 1.382663 v -8.261975 z"
     id="path25288" /><path
     d="m 37.331712,91.628469 c -0.464665,-0.725331 -1.20133,-0.793331 -1.575329,-0.793331 -1.450662,0 -2.436659,1.155997 -2.436659,2.606659 0,1.439329 0.99733,2.617992 2.504659,2.617992 0.351332,0 1.008664,-0.07933 1.507329,-0.793331 v 0.634665 h 1.382662 v -8.261975 h -1.382662 z m -1.223996,0.430665 c 0.793331,0 1.359995,0.600665 1.359995,1.382663 0,0.781998 -0.566664,1.393996 -1.359995,1.393996 -0.793331,0 -1.359996,-0.611998 -1.359996,-1.393996 0,-0.781998 0.566665,-1.382663 1.359996,-1.382663 z"
     id="path25290" /></g><g
   aria-label="fold"
   id="text2719-7"
   style="font-weight:500;font-size:11.3333px;line-height:1.25;font-family:'Futura PT';-inkscape-font-specification:'Futura PT, Medium';fill:#afafaf"><path
     d="m 8.7997793,226.33458 v -1.17867 H 7.5304497 v -1.16733 c 0,-0.40799 0.034,-0.66866 0.1473329,-0.84999 0.1359996,-0.204 0.3173324,-0.24934 0.4986652,-0.24934 0.2379993,0 0.4306654,0.0567 0.6233315,0.204 v -1.25799 c -0.2379993,-0.11334 -0.4873319,-0.17 -0.793331,-0.17 -0.5099985,0 -0.9179973,0.15866 -1.2126631,0.408 -0.6119981,0.50999 -0.645998,1.28066 -0.645998,1.73399 v 1.34866 H 5.6264554 v 1.17867 h 0.5213318 v 3.72865 h 1.3826625 v -3.72865 z"
     id="path25332" /><path
     d="m 11.995768,224.99725 c -0.929331,0 -1.563996,0.306 -1.983328,0.69133 -0.4873316,0.442 -0.8273306,1.122 -0.8273306,1.92666 0,0.79333 0.339999,1.47333 0.8273306,1.91533 0.419332,0.38533 1.053997,0.69133 1.983328,0.69133 0.92933,0 1.563995,-0.306 1.983327,-0.69133 0.487332,-0.442 0.827331,-1.122 0.827331,-1.91533 0,-0.80466 -0.339999,-1.48466 -0.827331,-1.92666 -0.419332,-0.38533 -1.053997,-0.69133 -1.983327,-0.69133 z m 0,4.00065 c -0.804665,0 -1.382663,-0.63466 -1.382663,-1.38266 0,-0.77066 0.589332,-1.394 1.382663,-1.394 0.793331,0 1.382662,0.62334 1.382662,1.394 0,0.748 -0.577998,1.38266 -1.382662,1.38266 z"
     id="path25334" /><path
     d="m 15.871744,221.80126 v 8.26197 h 1.382662 v -8.26197 z"
     id="path25336" /><path
     d="m 22.331712,225.79058 c -0.464665,-0.72533 -1.201329,-0.79333 -1.575328,-0.79333 -1.450663,0 -2.43666,1.15599 -2.43666,2.60666 0,1.43933 0.997331,2.61799 2.50466,2.61799 0.351332,0 1.008663,-0.0793 1.507328,-0.79333 v 0.63466 h 1.382663 v -8.26197 h -1.382663 z m -1.223996,0.43066 c 0.793331,0 1.359996,0.60067 1.359996,1.38267 0,0.78199 -0.566665,1.39399 -1.359996,1.39399 -0.793331,0 -1.359996,-0.612 -1.359996,-1.39399 0,-0.782 0.566665,-1.38267 1.359996,-1.38267 z"
     id="path25338" /></g><g
   aria-label="symmetry"
   id="text4628"
   style="font-weight:500;font-size:11.3333px;line-height:1.25;font-family:'Futura PT';-inkscape-font-specification:'Futura PT, Medium';fill:#afafaf"><path
     d="m 9.8670844,143.23127 c -0.6233315,-0.476 -1.2013297,-0.52133 -1.5639953,-0.52133 -0.3966655,0 -0.8953307,0.0453 -1.2806629,0.35133 -0.2833325,0.238 -0.5099985,0.63467 -0.5099985,1.11067 0,0.39666 0.1473329,0.70266 0.3739989,0.94066 0.2946658,0.306 0.7026646,0.46466 1.0539969,0.58933 l 0.3173324,0.11333 c 0.1813328,0.068 0.4306653,0.19267 0.4306653,0.49867 0,0.34 -0.2946657,0.53266 -0.6799979,0.53266 -0.4079988,0 -0.8159976,-0.24933 -1.0879968,-0.56666 l -0.7253312,0.83866 c 0.3059991,0.32867 0.8839974,0.816 1.9039944,0.816 0.6006648,0 1.0766634,-0.15867 1.4733289,-0.52133 0.3966655,-0.36267 0.5439984,-0.80467 0.5439984,-1.24666 0,-0.31734 -0.102,-0.612 -0.2493326,-0.816 -0.2833325,-0.38533 -0.8613308,-0.578 -1.2466629,-0.70267 l -0.3286657,-0.102 c -0.3853322,-0.12466 -0.4419987,-0.31733 -0.4419987,-0.44199 0,-0.238 0.2039994,-0.39667 0.5326651,-0.39667 0.1473329,0 0.4759985,0.0227 0.8046642,0.32867 z"
     id="path25293" /><path
     d="m 10.875738,150.37125 h 1.563995 l 3.955322,-7.50264 h -1.563996 l -1.359996,2.78799 -1.518662,-2.78799 h -1.609328 l 2.334659,4.17065 z"
     id="path25295" /><path
     d="m 17.075033,147.77592 h 1.382662 v -2.50465 c 0,-0.26067 0.01133,-0.65734 0.192666,-0.952 0.147333,-0.26067 0.385332,-0.43067 0.759331,-0.43067 0.136,0 0.385333,0.0227 0.566665,0.24934 0.102,0.12466 0.226666,0.38533 0.226666,0.96333 v 2.67465 h 1.382663 v -2.50465 c 0,-0.26067 0.01133,-0.65734 0.192666,-0.952 0.147333,-0.26067 0.385332,-0.43067 0.759331,-0.43067 0.136,0 0.385332,0.0227 0.566665,0.24934 0.102,0.12466 0.226666,0.38533 0.226666,0.96333 v 2.67465 h 1.382663 v -3.08265 c 0,-0.544 -0.02267,-0.96333 -0.339999,-1.38267 -0.192667,-0.24933 -0.566665,-0.60066 -1.325996,-0.60066 -0.849998,0 -1.33733,0.51 -1.575329,0.89533 -0.124666,-0.24933 -0.521332,-0.89533 -1.552662,-0.89533 -0.294666,0 -0.940664,0.0567 -1.461996,0.714 v -0.55533 h -1.382662 z"
     id="path25297" /><path
     d="m 26.028327,147.77592 h 1.382663 v -2.50465 c 0,-0.26067 0.01133,-0.65734 0.192666,-0.952 0.147333,-0.26067 0.385332,-0.43067 0.759331,-0.43067 0.136,0 0.385332,0.0227 0.566665,0.24934 0.102,0.12466 0.226666,0.38533 0.226666,0.96333 v 2.67465 h 1.382663 v -2.50465 c 0,-0.26067 0.01133,-0.65734 0.192666,-0.952 0.147333,-0.26067 0.385332,-0.43067 0.759331,-0.43067 0.135999,0 0.385332,0.0227 0.566665,0.24934 0.101999,0.12466 0.226666,0.38533 0.226666,0.96333 v 2.67465 h 1.382662 v -3.08265 c 0,-0.544 -0.02267,-0.96333 -0.339999,-1.38267 -0.192666,-0.24933 -0.566665,-0.60066 -1.325996,-0.60066 -0.849997,0 -1.337329,0.51 -1.575328,0.89533 -0.124667,-0.24933 -0.521332,-0.89533 -1.552662,-0.89533 -0.294666,0 -0.940664,0.0567 -1.461996,0.714 v -0.55533 h -1.382663 z"
     id="path25299" /><path
     d="m 38.528947,146.2006 c -0.226666,0.39666 -0.623332,0.64599 -1.144663,0.64599 -0.532666,0 -0.838665,-0.26066 -0.985998,-0.46466 -0.158666,-0.21533 -0.237999,-0.53267 -0.237999,-0.82733 h 3.671989 v -0.11334 c 0,-0.53266 -0.068,-1.30332 -0.589331,-1.92666 -0.339999,-0.40799 -0.917998,-0.80466 -1.915328,-0.80466 -0.589332,0 -1.269329,0.12467 -1.847328,0.69133 -0.351332,0.35133 -0.747998,0.952 -0.747998,1.92666 0,0.77067 0.226666,1.40533 0.770665,1.91533 0.487332,0.46466 1.087997,0.69133 1.881328,0.69133 1.711328,0 2.266659,-1.16733 2.413992,-1.52999 z m -2.323327,-1.53 c 0.113333,-0.65733 0.645998,-0.986 1.155997,-0.986 0.509998,0 1.053997,0.31734 1.16733,0.986 z"
     id="path25301" /><path
     d="m 43.232257,144.04727 v -1.17866 H 42.28026 v -1.67733 h -1.382662 v 1.67733 h -0.543999 v 1.17866 h 0.543999 v 3.72865 h 1.382662 v -3.72865 z"
     id="path25303" /><path
     d="m 43.957572,147.77592 h 1.382663 v -2.35732 c 0,-0.34 0.01133,-0.75933 0.271999,-1.088 0.271999,-0.34 0.657331,-0.39666 0.917997,-0.39666 0.283333,0 0.464666,0.0567 0.645998,0.18133 l 0.181333,-1.292 c -0.158666,-0.0567 -0.351332,-0.11333 -0.589331,-0.11333 -0.328666,0 -0.600665,0.0793 -0.815998,0.21533 -0.102,0.0567 -0.396665,0.26067 -0.611998,0.68 v -0.73666 h -1.382663 z"
     id="path25305" /><path
     d="m 48.275533,150.37125 h 1.563995 l 3.955322,-7.50264 h -1.563996 l -1.359996,2.78799 -1.518662,-2.78799 h -1.609328 l 2.334659,4.17065 z"
     id="path25307" /></g><g
   id="g15171"
   transform="translate(0,-20)"
   style="fill:#10a687;fill-opacity:1"><g
     aria-label="2"
     id="text8738"
     style="font-weight:500;font-size:11.3333px;line-height:1.25;font-family:'Futura PT';-inkscape-font-specification:'Futura PT, Medium'"><path
       d="m 12.003521,186.67334 h 5.485317 v -1.26933 h -2.731325 l 1.303329,-1.41666 c 0.589332,-0.63467 1.371329,-1.47333 1.371329,-2.64066 0,-1.20133 -0.906664,-2.40266 -2.663325,-2.40266 -1.495996,0 -2.583992,0.986 -2.651992,2.52733 h 1.518662 c 0.02267,-0.646 0.430665,-1.258 1.20133,-1.258 0.634665,0 1.121996,0.46466 1.121996,1.14466 0,0.442 -0.237999,0.90667 -0.441998,1.21267 -0.271999,0.40799 -1.155997,1.41666 -1.291996,1.57532 z"
       id="path25310" /></g><g
     aria-label="4"
     id="text9598"
     style="font-weight:500;font-size:11.3333px;line-height:1.25;font-family:'Futura PT';-inkscape-font-specification:'Futura PT, Medium'"><path
       d="m 31.767771,179.11403 h -1.325996 l -3.751322,5.47398 v 0.65733 h 3.694655 v 1.428 h 1.382663 v -1.428 h 0.883997 v -1.17866 h -0.883997 z m -3.33199,4.95265 1.949327,-2.87866 v 2.87866 z"
       id="path25313" /></g><g
     aria-label="6"
     id="text10950"
     style="font-weight:500;font-size:11.3333px;line-height:1.25;font-family:'Futura PT';-inkscape-font-specification:'Futura PT, Medium'"><path
       d="m 45.067041,178.90019 -2.221326,2.96932 c -0.532665,0.70267 -0.951997,1.43933 -0.951997,2.35733 0,0.85 0.328665,1.42799 0.736664,1.83599 0.623332,0.62333 1.348663,0.77067 2.153327,0.77067 0.770664,0 1.507329,-0.15867 2.153327,-0.86133 0.509998,-0.55534 0.691331,-1.19 0.691331,-1.82466 0,-0.79334 -0.317332,-1.43933 -0.713998,-1.81333 -0.441998,-0.43067 -1.110663,-0.646 -1.665995,-0.646 -0.328665,0 -0.600665,0.0793 -0.827331,0.18133 l 1.835995,-2.39132 z m -0.305999,6.75464 c -0.453332,0 -0.781997,-0.19266 -0.974663,-0.37399 -0.283333,-0.26067 -0.419332,-0.60067 -0.419332,-1.02 0,-0.41933 0.135999,-0.70267 0.407998,-0.986 0.249333,-0.26066 0.543999,-0.408 0.985997,-0.408 0.373999,0 0.691332,0.0907 0.974664,0.36267 0.260666,0.24933 0.419332,0.58933 0.419332,1.04266 0,0.49867 -0.226666,0.816 -0.407999,0.99733 -0.192666,0.19267 -0.509998,0.38533 -0.985997,0.38533 z"
       id="path25316" /></g></g><g
   aria-label="stages"
   id="text12280"
   style="font-weight:500;font-size:11.3333px;line-height:1.25;font-family:'Futura PT';-inkscape-font-specification:'Futura PT, Medium';fill:#10a687"><path
     d="m 18.280985,198.9291 c -0.623331,-0.476 -1.201329,-0.52133 -1.563995,-0.52133 -0.396666,0 -0.895331,0.0453 -1.280663,0.35133 -0.283332,0.238 -0.509998,0.63467 -0.509998,1.11067 0,0.39666 0.147332,0.70266 0.373998,0.94066 0.294666,0.306 0.702665,0.46466 1.053997,0.58933 l 0.317333,0.11333 c 0.181333,0.068 0.430665,0.19267 0.430665,0.49867 0,0.34 -0.294666,0.53266 -0.679998,0.53266 -0.407999,0 -0.815997,-0.24933 -1.087997,-0.56666 l -0.725331,0.83866 c 0.305999,0.32867 0.883998,0.816 1.903995,0.816 0.600664,0 1.076663,-0.15867 1.473328,-0.52133 0.396666,-0.36267 0.543999,-0.80466 0.543999,-1.24666 0,-0.31734 -0.102,-0.612 -0.249333,-0.816 -0.283332,-0.38533 -0.861331,-0.578 -1.246663,-0.70267 l -0.328665,-0.102 c -0.385333,-0.12466 -0.441999,-0.31733 -0.441999,-0.44199 0,-0.238 0.203999,-0.39667 0.532665,-0.39667 0.147333,0 0.475999,0.0227 0.804664,0.32867 z"
     id="path25319" /><path
     d="m 21.839634,199.7451 v -1.17866 h -0.951998 v -1.67733 h -1.382662 v 1.67733 h -0.543999 v 1.17866 h 0.543999 v 3.72865 h 1.382662 v -3.72865 z"
     id="path25321" /><path
     d="m 26.327603,199.2011 c -0.464665,-0.72533 -1.201329,-0.79333 -1.575328,-0.79333 -1.450663,0 -2.43666,1.156 -2.43666,2.60666 0,1.43933 0.997331,2.61799 2.50466,2.61799 0.351332,0 1.008663,-0.0793 1.507328,-0.79333 v 0.63466 h 1.382663 v -4.90731 h -1.382663 z m -1.223996,0.43067 c 0.793331,0 1.359996,0.60066 1.359996,1.38266 0,0.782 -0.566665,1.39399 -1.359996,1.39399 -0.793331,0 -1.359996,-0.61199 -1.359996,-1.39399 0,-0.782 0.566665,-1.38266 1.359996,-1.38266 z"
     id="path25323" /><path
     d="m 32.764914,199.2011 c -0.192666,-0.29466 -0.623331,-0.79333 -1.541329,-0.79333 -0.657331,0 -1.257996,0.238 -1.688661,0.65733 -0.475999,0.46467 -0.759331,1.17866 -0.759331,1.94933 0,0.952 0.419332,1.58666 0.781997,1.94933 0.475999,0.46466 1.042664,0.66866 1.699995,0.66866 0.373999,0 1.03133,-0.0907 1.507329,-0.816 v 0.69133 c 0,0.39667 -0.034,0.782 -0.351332,1.088 -0.181333,0.17 -0.441999,0.306 -0.838664,0.306 -0.192667,0 -0.566665,-0.0113 -0.838665,-0.26067 -0.158666,-0.13599 -0.283332,-0.36266 -0.339999,-0.58933 h -1.495995 c 0.113333,0.55533 0.407999,1.13333 0.793331,1.462 0.317332,0.28333 0.883997,0.56666 1.835994,0.56666 1.008664,0 1.597996,-0.35133 1.937995,-0.69133 0.611998,-0.612 0.679998,-1.39399 0.679998,-2.14199 v -4.68065 h -1.382663 z m -1.20133,0.43067 c 0.373999,0 0.691332,0.11333 0.963331,0.39666 0.192666,0.204 0.396665,0.52133 0.396665,0.986 0,0.39666 -0.158666,0.79333 -0.441998,1.054 -0.238,0.21533 -0.577999,0.33999 -0.917998,0.33999 -0.328665,0 -0.702664,-0.11333 -0.99733,-0.43066 -0.203999,-0.21533 -0.362666,-0.53267 -0.362666,-0.96333 0,-0.51 0.215333,-0.83867 0.441999,-1.04266 0.169999,-0.15867 0.475999,-0.34 0.917997,-0.34 z"
     id="path25325" /><path
     d="m 39.00955,201.89843 c -0.226666,0.39666 -0.623332,0.64599 -1.144664,0.64599 -0.532665,0 -0.838664,-0.26066 -0.985997,-0.46466 -0.158666,-0.21533 -0.237999,-0.53267 -0.237999,-0.82733 h 3.671989 v -0.11333 c 0,-0.53267 -0.068,-1.30333 -0.589332,-1.92667 -0.339999,-0.40799 -0.917997,-0.80466 -1.915327,-0.80466 -0.589332,0 -1.26933,0.12467 -1.847328,0.69133 -0.351332,0.35133 -0.747998,0.952 -0.747998,1.92666 0,0.77067 0.226666,1.40533 0.770665,1.91533 0.487331,0.46467 1.087996,0.69133 1.881327,0.69133 1.711329,0 2.26666,-1.16733 2.413993,-1.52999 z m -2.323327,-1.53 c 0.113333,-0.65733 0.645998,-0.986 1.155997,-0.986 0.509998,0 1.053997,0.31734 1.16733,0.986 z"
     id="path25327" /><path
     d="m 44.732859,198.9291 c -0.623331,-0.476 -1.20133,-0.52133 -1.563995,-0.52133 -0.396666,0 -0.895331,0.0453 -1.280663,0.35133 -0.283333,0.238 -0.509999,0.63467 -0.509999,1.11067 0,0.39666 0.147333,0.70266 0.373999,0.94066 0.294666,0.306 0.702665,0.46466 1.053997,0.58933 l 0.317332,0.11333 c 0.181333,0.068 0.430666,0.19267 0.430666,0.49867 0,0.34 -0.294666,0.53266 -0.679998,0.53266 -0.407999,0 -0.815998,-0.24933 -1.087997,-0.56666 l -0.725331,0.83866 c 0.305999,0.32867 0.883997,0.816 1.903994,0.816 0.600665,0 1.076664,-0.15867 1.473329,-0.52133 0.396666,-0.36267 0.543999,-0.80466 0.543999,-1.24666 0,-0.31734 -0.102,-0.612 -0.249333,-0.816 -0.283332,-0.38533 -0.861331,-0.578 -1.246663,-0.70267 l -0.328666,-0.102 c -0.385332,-0.12466 -0.441998,-0.31733 -0.441998,-0.44199 0,-0.238 0.203999,-0.39667 0.532665,-0.39667 0.147333,0 0.475998,0.0227 0.804664,0.32867 z"
     id="path25329" /></g><g
   aria-label="sym"
   id="text1633"
   style="font-weight:500;font-size:11.3333px;line-height:1.25;font-family:'Futura PT';-inkscape-font-specification:'Futura PT, Medium';fill:#afafaf"><path
     d="m 39.048594,225.51858 c -0.623332,-0.476 -1.20133,-0.52133 -1.563995,-0.52133 -0.396666,0 -0.895331,0.0453 -1.280663,0.35133 -0.283333,0.238 -0.509999,0.63466 -0.509999,1.11066 0,0.39667 0.147333,0.70267 0.373999,0.94067 0.294666,0.306 0.702665,0.46466 1.053997,0.58933 l 0.317332,0.11333 c 0.181333,0.068 0.430666,0.19267 0.430666,0.49867 0,0.34 -0.294666,0.53266 -0.679998,0.53266 -0.407999,0 -0.815998,-0.24933 -1.087997,-0.56666 l -0.725331,0.83866 c 0.305999,0.32867 0.883997,0.816 1.903994,0.816 0.600665,0 1.076664,-0.15867 1.473329,-0.52133 0.396666,-0.36267 0.543998,-0.80467 0.543998,-1.24667 0,-0.31733 -0.101999,-0.61199 -0.249332,-0.81599 -0.283333,-0.38534 -0.861331,-0.578 -1.246663,-0.70267 l -0.328666,-0.102 c -0.385332,-0.12466 -0.441998,-0.31733 -0.441998,-0.442 0,-0.238 0.203999,-0.39666 0.532665,-0.39666 0.147333,0 0.475998,0.0227 0.804664,0.32866 z"
     id="path25341" /><path
     d="m 40.057247,232.65856 h 1.563995 l 3.955322,-7.50265 h -1.563995 l -1.359996,2.788 -1.518662,-2.788 h -1.609329 l 2.33466,4.17066 z"
     id="path25343" /><path
     d="m 46.256542,230.06323 h 1.382663 v -2.50466 c 0,-0.26066 0.01133,-0.65733 0.192666,-0.95199 0.147333,-0.26067 0.385332,-0.43067 0.759331,-0.43067 0.135999,0 0.385332,0.0227 0.566665,0.24933 0.102,0.12467 0.226666,0.38534 0.226666,0.96333 v 2.67466 h 1.382662 v -2.50466 c 0,-0.26066 0.01133,-0.65733 0.192666,-0.95199 0.147333,-0.26067 0.385333,-0.43067 0.759332,-0.43067 0.135999,0 0.385332,0.0227 0.566665,0.24933 0.101999,0.12467 0.226666,0.38534 0.226666,0.96333 v 2.67466 h 1.382662 v -3.08266 c 0,-0.54399 -0.02267,-0.96333 -0.339999,-1.38266 -0.192666,-0.24933 -0.566665,-0.60066 -1.325996,-0.60066 -0.849997,0 -1.337329,0.51 -1.575329,0.89533 -0.124666,-0.24933 -0.521331,-0.89533 -1.552662,-0.89533 -0.294665,0 -0.940664,0.0567 -1.461995,0.714 v -0.55534 h -1.382663 z"
     id="path25345" /></g><g
   aria-label="in"
   id="text4357"
   style="font-weight:500;font-size:11.3333px;line-height:1.25;font-family:'Futura PT';-inkscape-font-specification:'Futura PT, Medium';fill:#afafaf"><path
     d="m 11.115775,315.36615 v 4.90732 h 1.382663 v -4.90732 z m -0.136,-2.07399 c 0,0.45333 0.373999,0.82733 0.827331,0.82733 0.453332,0 0.827331,-0.374 0.827331,-0.82733 0,-0.45334 -0.373999,-0.82734 -0.827331,-0.82734 -0.453332,0 -0.827331,0.374 -0.827331,0.82734 z"
     id="path25348" /><path
     d="m 13.813089,320.27347 h 1.382662 v -2.50466 c 0,-0.28333 0.01133,-0.63467 0.215333,-0.952 0.203999,-0.306 0.487332,-0.43066 0.849997,-0.43066 0.136,0 0.430666,0.0227 0.645998,0.24933 0.249333,0.26066 0.260666,0.69133 0.260666,0.96333 v 2.67466 h 1.382663 v -3.08266 c 0,-0.476 -0.04533,-0.96333 -0.385332,-1.38266 -0.385333,-0.476 -1.019997,-0.60067 -1.450663,-0.60067 -0.793331,0 -1.257996,0.43067 -1.518662,0.79333 v -0.63466 h -1.382662 z"
     id="path25350" /></g><g
   aria-label="out"
   id="text5215"
   style="font-weight:500;font-size:11.3333px;line-height:1.25;font-family:'Futura PT';-inkscape-font-specification:'Futura PT, Medium';fill:#313131"><path
     d="m 40.188948,315.26434 c -0.92933,0 -1.563995,0.306 -1.983327,0.69133 -0.487332,0.442 -0.827331,1.122 -0.827331,1.92666 0,0.79333 0.339999,1.47333 0.827331,1.91533 0.419332,0.38533 1.053997,0.69133 1.983327,0.69133 0.929331,0 1.563996,-0.306 1.983328,-0.69133 0.487332,-0.442 0.827331,-1.122 0.827331,-1.91533 0,-0.80466 -0.339999,-1.48466 -0.827331,-1.92666 -0.419332,-0.38533 -1.053997,-0.69133 -1.983328,-0.69133 z m 0,4.00065 c -0.804664,0 -1.382662,-0.63466 -1.382662,-1.38266 0,-0.77066 0.589331,-1.394 1.382662,-1.394 0.793331,0 1.382663,0.62334 1.382663,1.394 0,0.748 -0.577998,1.38266 -1.382663,1.38266 z"
     id="path25353" /><path
     d="m 44.064924,315.423 v 3.00333 c 0,0.442 0.05667,1.03133 0.600665,1.50733 0.453332,0.39666 1.178663,0.55533 1.779328,0.55533 0.600665,0 1.325996,-0.15867 1.779328,-0.55533 0.543999,-0.476 0.600665,-1.06533 0.600665,-1.50733 V 315.423 h -1.382663 v 2.77666 c 0,0.26067 -0.02267,0.612 -0.294665,0.86133 -0.17,0.14734 -0.441999,0.24934 -0.702665,0.24934 -0.260666,0 -0.532665,-0.102 -0.702665,-0.24934 -0.271999,-0.24933 -0.294665,-0.60066 -0.294665,-0.86133 V 315.423 Z"
     id="path25355" /><path
     d="M 52.474224,316.60167 V 315.423 h -0.951997 v -1.67732 h -1.382663 v 1.67732 h -0.543998 v 1.17867 h 0.543998 v 3.72865 h 1.382663 v -3.72865 z"
     id="path25357" /></g></svg>
