<?xml version="1.0" encoding="UTF-8" standalone="no"?>
<!-- Generator: Adobe Illustrator 23.0.3, SVG Export Plug-In . SVG Version: 6.00 Build 0)  -->

<svg
   version="1.0"
   id="Layer_1"
   x="0px"
   y="0px"
   width="60px"
   height="380px"
   viewBox="0 0 60 380"
   enable-background="new 0 0 60 380"
   xml:space="preserve"
   sodipodi:docname="repelzen_bg1.svg"
   inkscape:version="1.1.1 (3bf5ae0d25, 2021-09-20)"
   xmlns:inkscape="http://www.inkscape.org/namespaces/inkscape"
   xmlns:sodipodi="http://sodipodi.sourceforge.net/DTD/sodipodi-0.dtd"
   xmlns="http://www.w3.org/2000/svg"
   xmlns:svg="http://www.w3.org/2000/svg"><defs
   id="defs164">
	
	

		
		
	</defs><sodipodi:namedview
   id="namedview162"
   pagecolor="#ffffff"
   bordercolor="#111111"
   borderopacity="1"
   inkscape:pageshadow="0"
   inkscape:pageopacity="0"
   inkscape:pagecheckerboard="1"
   showgrid="false"
   inkscape:zoom="1.7"
   inkscape:cx="30"
   inkscape:cy="214.70588"
   inkscape:current-layer="Layer_1" />
<path
   id="path33453_13_"
   fill="#313131"
   d="M 0,0 H 60 V 380 H 0 Z" /><circle
   fill="#cc4c4c"
   cx="29.953609"
   cy="39.954021"
   r="1.15602"
   id="circle83" />
<title
   id="title89">repelzen_BG</title>

<path
   fill="#CC4C4C"
   d="M41.30566,249.79199h-4.10645c-0.1377,0-0.25,0.1123-0.25,0.25v7.54688h-6.04443v-7.25488  c0-0.1377-0.11182-0.25-0.25-0.25h-4.10596c-0.13818,0-0.25,0.1123-0.25,0.25v7.25488h-4.82324v-7.54688  c0-0.1377-0.11182-0.25-0.25-0.25h-4.10596c-0.13818,0-0.25,0.1123-0.25,0.25v12.51074c0,0.1377,0.11182,0.25,0.25,0.25h24.18604  c0.1377,0,0.25-0.1123,0.25-0.25v-12.51074C41.55566,249.9043,41.44336,249.79199,41.30566,249.79199z"
   id="path103" />
<path
   fill="#D8BB44"
   d="M41.30566,235.53223h-8.7959v-2.09375c0-5.21875-2.72656-7.97754-7.88428-7.97754  c-5.14648,0-7.75586,2.90137-7.75586,8.62207v6.41309c0,0.1377,0.11182,0.25,0.25,0.25h24.18604c0.1377,0,0.25-0.1123,0.25-0.25  v-4.71387C41.55566,235.64453,41.44336,235.53223,41.30566,235.53223z M21.28271,235.53223v-0.58301  c0-2.77246,0.51172-4.18066,3.30957-4.18066c2.96289,0,3.50488,1.36328,3.50488,4.04883v0.71484H21.28271z"
   id="path105" />
<path
   fill="#D8BB44"
   d="M41.30566,204.39844h-4.10645c-0.1377,0-0.25,0.1123-0.25,0.25v7.54688h-6.04443v-7.25586  c0-0.1377-0.11182-0.25-0.25-0.25h-4.10596c-0.13818,0-0.25,0.1123-0.25,0.25v7.25586h-4.82324v-7.54688  c0-0.1377-0.11182-0.25-0.25-0.25h-4.10596c-0.13818,0-0.25,0.1123-0.25,0.25v12.50977c0,0.1377,0.11182,0.25,0.25,0.25h24.18604  c0.1377,0,0.25-0.1123,0.25-0.25v-12.50977C41.55566,204.51074,41.44336,204.39844,41.30566,204.39844z"
   id="path107" />
<path
   fill="#10A687"
   d="M41.30566,183.4668h-4.10645c-0.1377,0-0.25,0.11182-0.25,0.25v6.42188H17.11963  c-0.13818,0-0.25,0.11182-0.25,0.25v4.71387c0,0.1377,0.11182,0.25,0.25,0.25h24.18604c0.1377,0,0.25-0.1123,0.25-0.25V183.7168  C41.55566,183.57861,41.44336,183.4668,41.30566,183.4668z"
   id="path109" />
<path
   fill="#10A687"
   d="M41.30566,159.57471h-4.10645c-0.1377,0-0.25,0.11182-0.25,0.25v9.62793l-19.71289-10.42383  c-0.07764-0.04053-0.1709-0.03711-0.24561,0.00684c-0.0752,0.04541-0.12109,0.12646-0.12109,0.21436v16.48877  c0,0.13818,0.11182,0.25,0.25,0.25h4.10596c0.13818,0,0.25-0.11182,0.25-0.25v-8.60059l19.71289,10.45557  c0.03711,0.01953,0.07715,0.0293,0.11719,0.0293c0.04492,0,0.08887-0.01221,0.12891-0.03564  c0.0752-0.04541,0.12109-0.12646,0.12109-0.21436v-17.54834C41.55566,159.68652,41.44336,159.57471,41.30566,159.57471z"
   id="path111" />
<path
   fill="#098EB7"
   d="M41.30566,138.1958h-4.10645c-0.1377,0-0.25,0.11182-0.25,0.25v7.54688h-6.04443v-7.25537  c0-0.13818-0.11182-0.25-0.25-0.25h-4.10596c-0.13818,0-0.25,0.11182-0.25,0.25v7.25537h-4.82324v-7.54688  c0-0.13818-0.11182-0.25-0.25-0.25h-4.10596c-0.13818,0-0.25,0.11182-0.25,0.25v12.51025c0,0.13818,0.11182,0.25,0.25,0.25h24.18604  c0.1377,0,0.25-0.11182,0.25-0.25V138.4458C41.55566,138.30762,41.44336,138.1958,41.30566,138.1958z"
   id="path113" />
<path
   fill="#098EB7"
   d="M41.78516,107.73438H17.11963c-0.13818,0-0.25,0.11182-0.25,0.25v4.71777c0,0.13818,0.11182,0.25,0.25,0.25  H32.7168l-16.39014,12.34814c-0.0625,0.04736-0.09961,0.12109-0.09961,0.19971v3.3999c0,0.13818,0.11182,0.25,0.25,0.25h24.82861  c0.1377,0,0.25-0.11182,0.25-0.25v-4.71387c0-0.13818-0.1123-0.25-0.25-0.25H25.54199l16.39355-12.35205  c0.0625-0.04736,0.09961-0.12109,0.09961-0.19971v-3.3999C42.03516,107.84619,41.92285,107.73438,41.78516,107.73438z"
   id="path115" />
<rect
   x="8.07932"
   y="106.98158"
   fill="#E6E6E6"
   stroke="#E6E6E6"
   stroke-width="0.3"
   stroke-linejoin="round"
   stroke-miterlimit="10"
   width="3.78394"
   height="180.45505"
   id="rect117" />
<rect
   x="47.8782"
   y="106.39598"
   fill="#E6E6E6"
   stroke="#E6E6E6"
   stroke-width="0.3"
   stroke-linejoin="round"
   stroke-miterlimit="10"
   width="3.78394"
   height="180.45505"
   id="rect119" />
<g
   id="g129">
	<g
   id="g123">
		<path
   fill="#CC4C4C"
   d="M44.49023,348.71494c-0.33008-0.25-0.40039-0.72021-0.15039-1.05029l0,0    c0.25-0.32959,0.72949-0.3999,1.0498-0.1499l0,0c0.33008,0.25,0.40039,0.72021,0.15039,1.05029l0,0    c-0.15039,0.19971-0.37012,0.2998-0.60059,0.2998l0,0C44.7793,348.86484,44.62012,348.81503,44.49023,348.71494z     M46.2002,346.26474c-0.37012-0.19971-0.51074-0.6499-0.32031-1.02002l0,0c0.2002-0.35986,0.64941-0.5,1.01953-0.31006l0,0    c0.37012,0.2002,0.51074,0.65039,0.31055,1.02002l0,0c-0.12988,0.25-0.39063,0.39014-0.66016,0.39014l0,0    C46.42969,346.34482,46.30957,346.3248,46.2002,346.26474z M47.49023,343.56503c-0.39063-0.13037-0.60059-0.56006-0.4707-0.9502    l0,0l0,0l0,0c0.12988-0.39014,0.56055-0.6001,0.9502-0.47021l0,0c0.38965,0.13037,0.59961,0.56006,0.46973,0.9502l0,0    c-0.10938,0.31982-0.39941,0.51025-0.70996,0.51025l0,0C47.64941,343.60507,47.56934,343.59482,47.49023,343.56503z     M48.33008,340.69492c-0.41016-0.06006-0.69043-0.4502-0.61035-0.85986l0,0l0,0l0,0    c0.05957-0.41016,0.4502-0.68018,0.86035-0.61035l0,0c0.41016,0.06006,0.67969,0.4502,0.62012,0.86035l0,0    c-0.07031,0.35986-0.38086,0.62988-0.75,0.62988l0,0C48.41016,340.71494,48.37012,340.70468,48.33008,340.69492z     M48.7002,337.73495c-0.41016,0-0.75-0.34033-0.75-0.75l0,0c0-0.02002,0-0.05029,0.00977-0.07031l0,0    c0,0-0.00977,0-0.00977-0.00977l0,0c0-0.41016,0.33984-0.75,0.75-0.75l0,0c0.41992,0,0.75,0.33984,0.75,0.75l0,0    c0,0.02002,0,0.02979,0,0.04004l0,0c0,0.02002,0,0.02979,0,0.04004l0,0C49.4502,337.39462,49.12012,337.73495,48.7002,337.73495    L48.7002,337.73495L48.7002,337.73495z M47.72949,334.04501c0,0,0,0-0.00977,0l0,0    c-0.05957-0.41016,0.21973-0.79004,0.62988-0.86035l0,0c0.41016-0.05957,0.79004,0.22021,0.86035,0.63037l0,0    c0.05957,0.3999-0.21973,0.79004-0.62988,0.85986l0,0c-0.04004,0-0.08008,0.00977-0.12012,0.00977l0,0    C48.09961,334.68466,47.79004,334.41464,47.72949,334.04501z M47.04004,331.26474L47.04004,331.26474L47.04004,331.26474    c-0.12988-0.38965,0.08008-0.81982,0.47949-0.94971l0,0c0.39063-0.13037,0.82031,0.07959,0.9502,0.47998h-0.00977    c0.13965,0.38965-0.08008,0.81006-0.46973,0.93994l0,0c-0.08008,0.02979-0.16016,0.04004-0.24023,0.04004l0,0    C47.43945,331.77499,47.14941,331.58505,47.04004,331.26474z M45.91992,328.63486c0,0,0,0,0-0.00977l0,0    c-0.19043-0.36035-0.0498-0.81006,0.30957-1.01025l0,0c0.37012-0.18994,0.82031-0.0498,1.02051,0.31982l0,0    c0.18945,0.36035,0.0498,0.82031-0.32031,1.01025l0,0c-0.11035,0.06006-0.22949,0.08984-0.34961,0.08984l0,0    C46.30957,329.03476,46.0498,328.88486,45.91992,328.63486z M44.37988,326.20468c-0.24023-0.32959-0.17969-0.7998,0.14941-1.0498    l0,0c0.33008-0.25,0.80078-0.18018,1.05078,0.1499l0,0c0.25,0.33008,0.18945,0.80029-0.14063,1.05029l0,0    c-0.13965,0.09961-0.2998,0.1499-0.45996,0.1499l0,0C44.75977,326.50497,44.5293,326.40488,44.37988,326.20468z"
   id="path121" />
	</g>
	<g
   id="g127">
		<path
   fill="#CC4C4C"
   d="M15.80917,348.71494c0.33008-0.25,0.40039-0.72021,0.15039-1.05029l0,0    c-0.25-0.32959-0.72949-0.3999-1.0498-0.1499l0,0c-0.33008,0.25-0.40039,0.72021-0.15039,1.05029l0,0    c0.15039,0.19971,0.37012,0.2998,0.60059,0.2998l0,0C15.52011,348.86484,15.67929,348.81503,15.80917,348.71494z     M14.09921,346.26474c0.37012-0.19971,0.51074-0.6499,0.32031-1.02002l0,0c-0.2002-0.35986-0.64941-0.5-1.01953-0.31006l0,0    c-0.37012,0.2002-0.51074,0.65039-0.31055,1.02002l0,0c0.12988,0.25,0.39063,0.39014,0.66016,0.39014l0,0    C13.86972,346.34482,13.98984,346.3248,14.09921,346.26474z M12.80917,343.56503c0.39063-0.13037,0.60059-0.56006,0.4707-0.9502    l0,0l0,0l0,0c-0.12988-0.39014-0.56055-0.6001-0.9502-0.47021l0,0c-0.38965,0.13037-0.59961,0.56006-0.46973,0.9502l0,0    c0.10938,0.31982,0.39941,0.51025,0.70996,0.51025l0,0C12.64999,343.60507,12.73007,343.59482,12.80917,343.56503z     M11.96933,340.69492c0.41016-0.06006,0.69043-0.4502,0.61035-0.85986l0,0l0,0l0,0    c-0.05957-0.41016-0.4502-0.68018-0.86035-0.61035l0,0c-0.41016,0.06006-0.67969,0.4502-0.62012,0.86035l0,0    c0.07031,0.35986,0.38086,0.62988,0.75,0.62988l0,0C11.88925,340.71494,11.92929,340.70468,11.96933,340.69492z     M11.59921,337.73495c0.41016,0,0.75-0.34033,0.75-0.75l0,0c0-0.02002,0-0.05029-0.00977-0.07031l0,0    c0,0,0.00977,0,0.00977-0.00977l0,0c0-0.41016-0.33984-0.75-0.75-0.75l0,0c-0.41992,0-0.75,0.33984-0.75,0.75l0,0    c0,0.02002,0,0.02979,0,0.04004l0,0c0,0.02002,0,0.02979,0,0.04004l0,0C10.84921,337.39462,11.17929,337.73495,11.59921,337.73495    L11.59921,337.73495L11.59921,337.73495z M12.56991,334.04501c0,0,0,0,0.00977,0l0,0    c0.05957-0.41016-0.21973-0.79004-0.62988-0.86035l0,0c-0.41016-0.05957-0.79004,0.22021-0.86035,0.63037l0,0    c-0.05957,0.3999,0.21973,0.79004,0.62988,0.85986l0,0c0.04004,0,0.08008,0.00977,0.12012,0.00977l0,0    C12.1998,334.68466,12.50937,334.41464,12.56991,334.04501z M13.25937,331.26474L13.25937,331.26474L13.25937,331.26474    c0.12988-0.38965-0.08008-0.81982-0.47949-0.94971l0,0c-0.39063-0.13037-0.82031,0.07959-0.9502,0.47998h0.00977    c-0.13965,0.38965,0.08008,0.81006,0.46973,0.93994l0,0c0.08008,0.02979,0.16016,0.04004,0.24023,0.04004l0,0    C12.85995,331.77499,13.14999,331.58505,13.25937,331.26474z M14.37948,328.63486c0,0,0,0,0-0.00977l0,0    c0.19043-0.36035,0.0498-0.81006-0.30957-1.01025l0,0c-0.37012-0.18994-0.82031-0.0498-1.02051,0.31982l0,0    c-0.18945,0.36035-0.0498,0.82031,0.32031,1.01025l0,0c0.11035,0.06006,0.22949,0.08984,0.34961,0.08984l0,0    C13.98984,329.03476,14.2496,328.88486,14.37948,328.63486z M15.91952,326.20468c0.24023-0.32959,0.17969-0.7998-0.14941-1.0498    l0,0c-0.33008-0.25-0.80078-0.18018-1.05078,0.1499l0,0c-0.25,0.33008-0.18945,0.80029,0.14063,1.05029l0,0    c0.13965,0.09961,0.2998,0.1499,0.45996,0.1499l0,0C15.53964,326.50497,15.77011,326.40488,15.91952,326.20468z"
   id="path125" />
	</g>
</g>
<g
   id="g139">
	<g
   id="g133">
		<path
   fill="#D8BB44"
   d="M47.87012,351.56503c-0.33008-0.26025-0.39063-0.72998-0.12988-1.05029l0,0    c0.25-0.33008,0.71973-0.38965,1.0498-0.13965l0,0c0.31934,0.25977,0.37988,0.72998,0.12988,1.0498l0,0    c-0.15039,0.18994-0.37012,0.2998-0.58984,0.2998l0,0C48.16992,351.7247,48,351.66464,47.87012,351.56503z M49.62988,349.12509    c-0.36035-0.21045-0.48047-0.67041-0.27051-1.03027l0,0c0.20996-0.3501,0.66992-0.46973,1.03027-0.25977l0,0    c0.35059,0.19971,0.46973,0.65967,0.27051,1.02002l0,0c-0.14063,0.23975-0.39063,0.36963-0.65039,0.36963l0,0    C49.87988,349.2247,49.75,349.19492,49.62988,349.12509z M51.05957,346.48495c-0.37988-0.16016-0.55957-0.6001-0.39941-0.97998    l0,0c0.15918-0.39014,0.59961-0.57031,0.97949-0.41016l0,0c0.37988,0.16992,0.56055,0.6001,0.40039,0.99023l0,0    c-0.12012,0.27979-0.40039,0.45996-0.69043,0.45996l0,0C51.25,346.54501,51.16016,346.52499,51.05957,346.48495z     M52.12988,343.6749c-0.40039-0.10986-0.63965-0.52002-0.53027-0.91992l0,0c0,0,0,0,0.00977,0l0,0    c0.10059-0.41016,0.52051-0.64014,0.91016-0.53027l0,0c0.40039,0.11035,0.64063,0.52002,0.53027,0.91992l0,0    c-0.08984,0.33008-0.38965,0.55029-0.71973,0.55029l0,0C52.25977,343.69492,52.2002,343.68466,52.12988,343.6749z     M52.81934,340.74472c-0.40918-0.06006-0.69922-0.42969-0.63965-0.83984l0,0c0.0498-0.41016,0.42969-0.7002,0.83984-0.6499l0,0    c0.41016,0.06006,0.7002,0.42969,0.64063,0.8501l0,0c-0.04004,0.36963-0.37012,0.6499-0.74023,0.6499l0,0    C52.88965,340.75497,52.85938,340.74472,52.81934,340.74472z M53.12988,337.75497c-0.41992,0-0.75-0.34033-0.75-0.75l0,0    c0-0.02002,0-0.04004,0-0.05029l0,0c0-0.02002,0-0.02979,0-0.0498l0,0c0-0.41016,0.33008-0.75,0.75-0.75l0,0    c0.41016,0,0.75,0.33984,0.75,0.75l0,0c0,0.02979,0,0.0498,0,0.06982l0,0c0,0.01025,0,0.02002,0,0.03027l0,0    C53.87012,337.41464,53.54004,337.75497,53.12988,337.75497L53.12988,337.75497L53.12988,337.75497z M52.18945,334.00497    c-0.0498-0.41016,0.24023-0.79004,0.65039-0.84033l0,0c0.41016-0.0498,0.78027,0.22998,0.83984,0.65039l0,0    c0.0498,0.40967-0.24023,0.77979-0.65039,0.83984l0,0c-0.0293,0-0.06934,0-0.09961,0l0,0    C52.55957,334.65488,52.24023,334.38486,52.18945,334.00497z M51.62988,331.15488L51.62988,331.15488L51.62988,331.15488    c-0.11035-0.3999,0.12988-0.81006,0.53027-0.91992l0,0c0.39941-0.10986,0.80957,0.12988,0.91992,0.52979l0,0    c0.09961,0.3999-0.12988,0.81006-0.54004,0.91992l0,0c-0.06055,0.02002-0.12988,0.02002-0.19043,0.02002l0,0    C52.01953,331.70468,51.71973,331.48495,51.62988,331.15488z M50.68945,328.39462c0,0,0,0,0.01074,0l0,0    c-0.1709-0.37988,0.01953-0.81982,0.39941-0.97998l0,0c0.37988-0.15967,0.82031,0.02002,0.98047,0.41016l0,0    c0.16016,0.37988-0.02051,0.81982-0.41016,0.97998l0,0c-0.08984,0.04004-0.19043,0.06006-0.28027,0.06006l0,0    C51.08984,328.86484,50.80957,328.68466,50.68945,328.39462z M49.41016,325.78476    c-0.20996-0.3501-0.09082-0.81006,0.26953-1.02002l0,0c0.36035-0.20996,0.82031-0.08984,1.02051,0.27002l0,0    c0.20996,0.35986,0.08984,0.82031-0.27051,1.03027l0,0c-0.12012,0.06982-0.25,0.09961-0.37012,0.09961l0,0    C49.7998,326.16464,49.54004,326.02499,49.41016,325.78476z M47.79004,323.37509    c-0.26074-0.33008-0.19043-0.80029,0.13965-1.06006l0,0c0.32031-0.25,0.79004-0.18994,1.0498,0.13965l0,0    c0.25,0.33008,0.19043,0.80029-0.13965,1.06006l0,0c-0.13965,0.1001-0.2998,0.1499-0.45996,0.1499l0,0    C48.16016,323.66464,47.93945,323.56503,47.79004,323.37509z"
   id="path131" />
	</g>
	<g
   id="g137">
		<path
   fill="#D8BB44"
   d="M12.42929,351.56503c0.33008-0.26025,0.39063-0.72998,0.12988-1.05029l0,0    c-0.25-0.33008-0.71973-0.38965-1.0498-0.13965l0,0c-0.31934,0.25977-0.37988,0.72998-0.12988,1.0498l0,0    c0.15039,0.18994,0.37012,0.2998,0.58984,0.2998l0,0C12.12948,351.7247,12.29941,351.66464,12.42929,351.56503z     M10.66952,349.12509c0.36035-0.21045,0.48047-0.67041,0.27051-1.03027l0,0c-0.20996-0.3501-0.66992-0.46973-1.03027-0.25977l0,0    c-0.35059,0.19971-0.46973,0.65967-0.27051,1.02002l0,0c0.14063,0.23975,0.39063,0.36963,0.65039,0.36963l0,0    C10.41952,349.2247,10.54941,349.19492,10.66952,349.12509z M9.23984,346.48495c0.37988-0.16016,0.55957-0.6001,0.39941-0.97998    l0,0c-0.15918-0.39014-0.59961-0.57031-0.97949-0.41016l0,0c-0.37988,0.16992-0.56055,0.6001-0.40039,0.99023l0,0    c0.12012,0.27979,0.40039,0.45996,0.69043,0.45996l0,0C9.04941,346.54501,9.13925,346.52499,9.23984,346.48495z M8.16952,343.6749    c0.40039-0.10986,0.63965-0.52002,0.53027-0.91992l0,0c0,0,0,0-0.00977,0l0,0c-0.10059-0.41016-0.52051-0.64014-0.91016-0.53027    l0,0c-0.40039,0.11035-0.64063,0.52002-0.53027,0.91992l0,0c0.08984,0.33008,0.38965,0.55029,0.71973,0.55029l0,0    C8.03964,343.69492,8.09921,343.68466,8.16952,343.6749z M7.48007,340.74472c0.40918-0.06006,0.69922-0.42969,0.63965-0.83984l0,0    c-0.0498-0.41016-0.42969-0.7002-0.83984-0.6499l0,0c-0.41016,0.06006-0.7002,0.42969-0.64063,0.8501l0,0    c0.04004,0.36963,0.37012,0.6499,0.74023,0.6499l0,0C7.40976,340.75497,7.44003,340.74472,7.48007,340.74472z M7.16952,337.75497    c0.41992,0,0.75-0.34033,0.75-0.75l0,0c0-0.02002,0-0.04004,0-0.05029l0,0c0-0.02002,0-0.02979,0-0.0498l0,0    c0-0.41016-0.33008-0.75-0.75-0.75l0,0c-0.41016,0-0.75,0.33984-0.75,0.75l0,0c0,0.02979,0,0.0498,0,0.06982l0,0    c0,0.01025,0,0.02002,0,0.03027l0,0C6.42929,337.41464,6.75937,337.75497,7.16952,337.75497L7.16952,337.75497L7.16952,337.75497z     M8.10995,334.00497c0.0498-0.41016-0.24023-0.79004-0.65039-0.84033l0,0c-0.41016-0.0498-0.78027,0.22998-0.83984,0.65039l0,0    c-0.0498,0.40967,0.24023,0.77979,0.65039,0.83984l0,0c0.0293,0,0.06934,0,0.09961,0l0,0    C7.73984,334.65488,8.05917,334.38486,8.10995,334.00497z M8.66952,331.15488L8.66952,331.15488L8.66952,331.15488    c0.11035-0.3999-0.12988-0.81006-0.53027-0.91992l0,0c-0.39941-0.10986-0.80957,0.12988-0.91992,0.52979l0,0    c-0.09961,0.3999,0.12988,0.81006,0.54004,0.91992l0,0c0.06055,0.02002,0.12988,0.02002,0.19043,0.02002l0,0    C8.27987,331.70468,8.57968,331.48495,8.66952,331.15488z M9.60995,328.39462c0,0,0,0-0.01074,0l0,0    c0.1709-0.37988-0.01953-0.81982-0.39941-0.97998l0,0c-0.37988-0.15967-0.82031,0.02002-0.98047,0.41016l0,0    c-0.16016,0.37988,0.02051,0.81982,0.41016,0.97998l0,0c0.08984,0.04004,0.19043,0.06006,0.28027,0.06006l0,0    C9.20956,328.86484,9.48984,328.68466,9.60995,328.39462z M10.88925,325.78476c0.20996-0.3501,0.09082-0.81006-0.26953-1.02002    l0,0c-0.36035-0.20996-0.82031-0.08984-1.02051,0.27002l0,0c-0.20996,0.35986-0.08984,0.82031,0.27051,1.03027l0,0    c0.12012,0.06982,0.25,0.09961,0.37012,0.09961l0,0C10.4996,326.16464,10.75937,326.02499,10.88925,325.78476z     M12.50937,323.37509c0.26074-0.33008,0.19043-0.80029-0.13965-1.06006l0,0c-0.32031-0.25-0.79004-0.18994-1.0498,0.13965l0,0    c-0.25,0.33008-0.19043,0.80029,0.13965,1.06006l0,0c0.13965,0.1001,0.2998,0.1499,0.45996,0.1499l0,0    C12.13925,323.66464,12.35995,323.56503,12.50937,323.37509z"
   id="path135" />
	</g>
</g>
<g
   id="g149">
	<g
   id="g143">
		<path
   fill="#10A687"
   d="M51.22949,354.39462c-0.33008-0.25-0.38965-0.71973-0.12988-1.0498l0,0    c0.25977-0.33008,0.73047-0.37988,1.0498-0.12988l0,0c0.33008,0.25977,0.39063,0.72998,0.12988,1.06006l0,0    c-0.14941,0.18994-0.36914,0.27979-0.58984,0.27979l0,0C51.5293,354.55478,51.35938,354.50497,51.22949,354.39462z     M53.01953,351.9747c-0.34961-0.21973-0.4502-0.67969-0.24023-1.02979l0,0l0,0l0,0c0.2207-0.35986,0.68066-0.45996,1.03027-0.25    l0,0c0.36035,0.21973,0.46973,0.68994,0.25,1.04004l0,0c-0.13965,0.22998-0.38965,0.3501-0.63965,0.3501l0,0    C53.29004,352.08505,53.14941,352.05478,53.01953,351.9747z M54.5498,349.36484c-0.37988-0.18018-0.54004-0.62012-0.36035-1l0,0    c0.18066-0.37012,0.62988-0.52979,1-0.3501l0,0c0.37988,0.18018,0.53027,0.62988,0.35059,1l0,0    c-0.12988,0.27002-0.39063,0.43018-0.66992,0.43018l0,0C54.75977,349.44492,54.64941,349.41464,54.5498,349.36484z     M55.76953,346.60507c-0.38965-0.13037-0.59961-0.56006-0.45996-0.9502l0,0c0.12988-0.39014,0.56055-0.6001,0.9502-0.45996l0,0    c0.38965,0.14014,0.59961,0.56006,0.45996,0.94971l0,0c-0.11035,0.31006-0.40039,0.51025-0.70996,0.51025l0,0    C55.92969,346.65488,55.84961,346.63486,55.76953,346.60507z M56.67969,343.73495    c-0.41016-0.09033-0.66016-0.49023-0.57031-0.8999l0,0c0.10059-0.40039,0.5-0.66016,0.90039-0.56006l0,0    c0.40039,0.08984,0.66016,0.48975,0.55957,0.88965l0,0c-0.0791,0.3501-0.37988,0.59033-0.72949,0.59033l0,0    C56.79004,343.75497,56.72949,343.74472,56.67969,343.73495z M57.25977,340.77499    c-0.41016-0.05029-0.7002-0.41992-0.66016-0.83008l0,0c0.0498-0.41016,0.41992-0.70996,0.83008-0.66016l0,0    c0.41016,0.05029,0.70996,0.41992,0.66016,0.83008l0,0c-0.04004,0.37988-0.37012,0.66992-0.74023,0.66992l0,0    C57.31934,340.78476,57.29004,340.77499,57.25977,340.77499z M57.51953,337.76474c-0.41016,0-0.75-0.33008-0.74023-0.75l0,0    c0-0.02002,0-0.04004,0-0.0498l0,0c0-0.02002,0-0.04004,0-0.06006l0,0c0-0.41016,0.33008-0.75,0.75-0.75l0,0    c0.41016,0,0.75,0.33984,0.75,0.75l0,0c0,0.02002-0.00977,0.04004-0.00977,0.06006l0,0c0,0.02002,0.00977,0.04004,0.00977,0.06006    l0,0c-0.00977,0.40967-0.33984,0.73975-0.75,0.73975l0,0H57.51953z M56.62012,333.9747L56.62012,333.9747L56.62012,333.9747    c-0.05078-0.40967,0.25-0.77979,0.65918-0.83008l0,0c0.41016-0.03955,0.78027,0.26025,0.83008,0.67041l0,0    c0.04004,0.40967-0.25,0.77979-0.66992,0.82959l0,0c-0.0293,0-0.0498,0-0.08008,0l0,0    C56.97949,334.64462,56.66016,334.35507,56.62012,333.9747z M56.13965,331.08505    c-0.08984-0.40039,0.16016-0.81006,0.57031-0.90039l0,0c0.39941-0.08984,0.7998,0.17041,0.88965,0.57031l0,0    c0.08984,0.40967-0.16016,0.81006-0.57031,0.8999l0,0c-0.0498,0.00977-0.10938,0.02002-0.15918,0.02002l0,0    C56.5293,331.6749,56.21973,331.43466,56.13965,331.08505z M55.33984,328.25497c-0.13965-0.39014,0.07031-0.81006,0.46973-0.9502    l0,0c0.39063-0.12988,0.82031,0.08008,0.9502,0.47021l0,0c0.12988,0.38965-0.07031,0.81982-0.46973,0.94971l0,0    c-0.08008,0.03027-0.16016,0.04004-0.24023,0.04004l0,0C55.74023,328.76474,55.4502,328.5748,55.33984,328.25497z     M54.24023,325.54501c0,0,0,0-0.01074,0l0,0c-0.16992-0.38037-0.00977-0.82031,0.36035-1l0,0    c0.37988-0.18018,0.82031-0.02002,1,0.35986l0,0c0.17969,0.37012,0.01953,0.81982-0.34961,0.98975l0,0    c-0.11035,0.05029-0.2207,0.08008-0.33008,0.08008l0,0C54.62988,325.9747,54.37012,325.81503,54.24023,325.54501z     M52.83984,322.96494c-0.21973-0.35986-0.11035-0.82031,0.24023-1.03027l0,0c0.35938-0.21973,0.81934-0.10986,1.0293,0.24023l0,0    c0.2207,0.3501,0.11035,0.81006-0.23926,1.02979l0,0c-0.12012,0.08008-0.26074,0.11035-0.39063,0.11035l0,0    C53.22949,323.31503,52.97949,323.19492,52.83984,322.96494z M51.16016,320.55478c-0.25-0.33008-0.19043-0.7998,0.13965-1.06006    l0,0c0.32031-0.25,0.79004-0.18994,1.0498,0.14014l0,0c0.25,0.31982,0.19043,0.79004-0.12988,1.0498l0,0    c-0.13965,0.1001-0.2998,0.16016-0.45996,0.16016l0,0C51.5293,320.84482,51.30957,320.74472,51.16016,320.55478z"
   id="path141" />
	</g>
	<g
   id="g147">
		<path
   fill="#10A687"
   d="M9.06991,354.39462c0.33008-0.25,0.38965-0.71973,0.12988-1.0498l0,0    c-0.25977-0.33008-0.73047-0.37988-1.0498-0.12988l0,0c-0.33008,0.25977-0.39063,0.72998-0.12988,1.06006l0,0    c0.14941,0.18994,0.36914,0.27979,0.58984,0.27979l0,0C8.77011,354.55478,8.94003,354.50497,9.06991,354.39462z M7.27987,351.9747    c0.34961-0.21973,0.4502-0.67969,0.24023-1.02979l0,0l0,0l0,0c-0.2207-0.35986-0.68066-0.45996-1.03027-0.25l0,0    c-0.36035,0.21973-0.46973,0.68994-0.25,1.04004l0,0c0.13965,0.22998,0.38965,0.3501,0.63965,0.3501l0,0    C7.00937,352.08505,7.14999,352.05478,7.27987,351.9747z M5.7496,349.36484c0.37988-0.18018,0.54004-0.62012,0.36035-1l0,0    c-0.18066-0.37012-0.62988-0.52979-1-0.3501l0,0c-0.37988,0.18018-0.53027,0.62988-0.35059,1l0,0    c0.12988,0.27002,0.39063,0.43018,0.66992,0.43018l0,0C5.53964,349.44492,5.64999,349.41464,5.7496,349.36484z M4.52987,346.60507    c0.38965-0.13037,0.59961-0.56006,0.45996-0.9502l0,0c-0.12988-0.39014-0.56055-0.6001-0.9502-0.45996l0,0    c-0.38965,0.14014-0.59961,0.56006-0.45996,0.94971l0,0c0.11035,0.31006,0.40039,0.51025,0.70996,0.51025l0,0    C4.36972,346.65488,4.4498,346.63486,4.52987,346.60507z M3.61972,343.73495c0.41016-0.09033,0.66016-0.49023,0.57031-0.8999l0,0    c-0.10059-0.40039-0.5-0.66016-0.90039-0.56006l0,0c-0.40039,0.08984-0.66016,0.48975-0.55957,0.88965l0,0    c0.0791,0.3501,0.37988,0.59033,0.72949,0.59033l0,0C3.50937,343.75497,3.56991,343.74472,3.61972,343.73495z M3.03964,340.77499    c0.41016-0.05029,0.7002-0.41992,0.66016-0.83008l0,0c-0.0498-0.41016-0.41992-0.70996-0.83008-0.66016l0,0    c-0.41016,0.05029-0.70996,0.41992-0.66016,0.83008l0,0c0.04004,0.37988,0.37012,0.66992,0.74023,0.66992l0,0    C2.98007,340.78476,3.00937,340.77499,3.03964,340.77499z M2.77987,337.76474c0.41016,0,0.75-0.33008,0.74023-0.75l0,0    c0-0.02002,0-0.04004,0-0.0498l0,0c0-0.02002,0-0.04004,0-0.06006l0,0c0-0.41016-0.33008-0.75-0.75-0.75l0,0    c-0.41016,0-0.75,0.33984-0.75,0.75l0,0c0,0.02002,0.00977,0.04004,0.00977,0.06006l0,0    c0,0.02002-0.00977,0.04004-0.00977,0.06006l0,0c0.00977,0.40967,0.33984,0.73975,0.75,0.73975l0,0H2.77987z M3.67929,333.9747    L3.67929,333.9747L3.67929,333.9747c0.05078-0.40967-0.25-0.77979-0.65918-0.83008l0,0    c-0.41016-0.03955-0.78027,0.26025-0.83008,0.67041l0,0c-0.04004,0.40967,0.25,0.77979,0.66992,0.82959l0,0    c0.0293,0,0.0498,0,0.08008,0l0,0C3.31991,334.64462,3.63925,334.35507,3.67929,333.9747z M4.15976,331.08505    c0.08984-0.40039-0.16016-0.81006-0.57031-0.90039l0,0c-0.39941-0.08984-0.7998,0.17041-0.88965,0.57031l0,0    c-0.08984,0.40967,0.16016,0.81006,0.57031,0.8999l0,0c0.0498,0.00977,0.10938,0.02002,0.15918,0.02002l0,0    C3.77011,331.6749,4.07968,331.43466,4.15976,331.08505z M4.95956,328.25497c0.13965-0.39014-0.07031-0.81006-0.46973-0.9502l0,0    c-0.39063-0.12988-0.82031,0.08008-0.9502,0.47021l0,0c-0.12988,0.38965,0.07031,0.81982,0.46973,0.94971l0,0    c0.08008,0.03027,0.16016,0.04004,0.24023,0.04004l0,0C4.55917,328.76474,4.84921,328.5748,4.95956,328.25497z M6.05917,325.54501    c0,0,0,0,0.01074,0l0,0c0.16992-0.38037,0.00977-0.82031-0.36035-1l0,0c-0.37988-0.18018-0.82031-0.02002-1,0.35986l0,0    c-0.17969,0.37012-0.01953,0.81982,0.34961,0.98975l0,0c0.11035,0.05029,0.2207,0.08008,0.33008,0.08008l0,0    C5.66952,325.9747,5.92929,325.81503,6.05917,325.54501z M7.45956,322.96494c0.21973-0.35986,0.11035-0.82031-0.24023-1.03027l0,0    c-0.35938-0.21973-0.81934-0.10986-1.0293,0.24023l0,0c-0.2207,0.3501-0.11035,0.81006,0.23926,1.02979l0,0    c0.12012,0.08008,0.26074,0.11035,0.39063,0.11035l0,0C7.06991,323.31503,7.31991,323.19492,7.45956,322.96494z     M9.13925,320.55478c0.25-0.33008,0.19043-0.7998-0.13965-1.06006l0,0c-0.32031-0.25-0.79004-0.18994-1.04981,0.14014l0,0    c-0.25,0.31982-0.19043,0.79004,0.12988,1.0498l0,0c0.13965,0.1001,0.2998,0.16016,0.45996,0.16016l0,0    C8.77011,320.84482,8.98984,320.74472,9.13925,320.55478z"
   id="path145" />
	</g>
</g>
<g
   id="g157">
	<g
   id="g153">
		<path
   fill="#098EB7"
   d="M54.7998,357.00497c-0.33008-0.26025-0.38965-0.72998-0.12988-1.06006l0,0    c0.25-0.31982,0.71973-0.37988,1.0498-0.12988l0,0c0.33008,0.25977,0.38965,0.72998,0.12988,1.0498l0,0    c-0.14941,0.2002-0.37012,0.2998-0.58984,0.2998l0,0C55.09961,357.16464,54.92969,357.10507,54.7998,357.00497z     M56.56934,354.60507c-0.34961-0.22021-0.44922-0.68018-0.22949-1.03027l0,0c0.21973-0.3501,0.68945-0.45996,1.04004-0.22998l0,0    c0.34961,0.22021,0.4502,0.68018,0.22949,1.03027l0,0c-0.13965,0.22998-0.38965,0.34961-0.63965,0.34961l0,0    C56.83984,354.7247,56.7002,354.68466,56.56934,354.60507z M58.10938,352.05478c-0.35938-0.18994-0.50977-0.64014-0.31934-1.00977    l0,0l0,0l0,0c0.18945-0.37012,0.63965-0.51025,1.00977-0.32031l0,0c0.37012,0.18994,0.50977,0.64014,0.33008,1.01025l0,0    c-0.13965,0.25-0.40039,0.3999-0.67969,0.3999l0,0C58.33984,352.13486,58.21973,352.11484,58.10938,352.05478z     M57.84961,322.88486L57.84961,322.88486L57.84961,322.88486c-0.18945-0.37012-0.04004-0.81982,0.33008-1.00977l0,0    c0.37012-0.19043,0.82031-0.04004,1.00977,0.32959l0,0c0.18066,0.37012,0.03027,0.82031-0.33008,1.01025l0,0    c-0.10938,0.0498-0.22949,0.08008-0.33984,0.08008l0,0C58.24023,323.29501,57.97949,323.14462,57.84961,322.88486z     M56.41016,320.35507c-0.2207-0.3501-0.12012-0.82031,0.23926-1.04004l0,0c0.35059-0.22021,0.81055-0.11035,1.03027,0.23975l0,0    c0.21973,0.33984,0.11035,0.81006-0.22949,1.03027l0,0c-0.13086,0.07959-0.27051,0.10986-0.40039,0.10986l0,0    C56.7998,320.69492,56.5498,320.5748,56.41016,320.35507z M54.75,317.96494c0,0,0,0-0.00977,0l0,0    c-0.25-0.33008-0.19043-0.80029,0.13965-1.05029l0,0c0.33008-0.25,0.7998-0.18994,1.0498,0.14014v-0.00977    c0.25977,0.33008,0.19043,0.7998-0.13965,1.06006l0,0c-0.12988,0.09961-0.29004,0.1499-0.4502,0.1499l0,0    C55.10938,318.25497,54.88965,318.15488,54.75,317.96494z"
   id="path151" />
	</g>
	<path
   fill="#098EB7"
   d="M5.4996,357.00497c0.33008-0.26025,0.38965-0.72998,0.12988-1.06006l0,0   c-0.25-0.31982-0.71973-0.37988-1.0498-0.12988l0,0c-0.33008,0.25977-0.38965,0.72998-0.12988,1.0498l0,0   c0.14941,0.2002,0.37012,0.2998,0.58984,0.2998l0,0C5.1998,357.16464,5.36972,357.10507,5.4996,357.00497z M3.73007,354.60507   c0.34961-0.22021,0.44922-0.68018,0.22949-1.03027l0,0c-0.21973-0.3501-0.68945-0.45996-1.04004-0.22998l0,0   c-0.34961,0.22021-0.4502,0.68018-0.22949,1.03027l0,0c0.13965,0.22998,0.38965,0.34961,0.63965,0.34961l0,0   C3.45956,354.7247,3.59921,354.68466,3.73007,354.60507z M2.19003,352.05478c0.35938-0.18994,0.50977-0.64014,0.31934-1.00977l0,0   l0,0l0,0c-0.18945-0.37012-0.63965-0.51025-1.00977-0.32031l0,0c-0.37012,0.18994-0.50977,0.64014-0.33008,1.01025l0,0   c0.13965,0.25,0.40039,0.3999,0.67969,0.3999l0,0C1.95956,352.13486,2.07968,352.11484,2.19003,352.05478z M2.4498,322.88486   L2.4498,322.88486L2.4498,322.88486c0.18945-0.37012,0.04004-0.81982-0.33008-1.00977l0,0   c-0.37012-0.19043-0.82031-0.04004-1.00977,0.32959l0,0c-0.18066,0.37012-0.03027,0.82031,0.33008,1.01025l0,0   c0.10938,0.0498,0.22949,0.08008,0.33984,0.08008l0,0C2.05917,323.29501,2.31991,323.14462,2.4498,322.88486z M3.88925,320.35507   c0.2207-0.3501,0.12012-0.82031-0.23926-1.04004l0,0c-0.35059-0.22021-0.81055-0.11035-1.03027,0.23975l0,0   c-0.21973,0.33984-0.11035,0.81006,0.22949,1.03027l0,0c0.13086,0.07959,0.27051,0.10986,0.40039,0.10986l0,0   C3.4996,320.69492,3.7496,320.5748,3.88925,320.35507z M5.54941,317.96494c0,0,0,0,0.00977,0l0,0   c0.25-0.33008,0.19043-0.80029-0.13965-1.05029l0,0c-0.33008-0.25-0.7998-0.18994-1.0498,0.14014v-0.00977   c-0.25977,0.33008-0.19043,0.7998,0.13965,1.06006l0,0c0.12988,0.09961,0.29004,0.1499,0.4502,0.1499l0,0   C5.19003,318.25497,5.40976,318.15488,5.54941,317.96494z"
   id="path155" />
</g>
<path
   fill="#CC4C4C"
   d="M30.4873,322.38306v-35.28247h10.81836c0.1377,0,0.25-0.1123,0.25-0.25v-4.71289  c0-0.1377-0.1123-0.25-0.25-0.25h-8.96094l9.08984-5.47363c0.0752-0.04492,0.12109-0.12598,0.12109-0.21387v-5.70703  c0-0.09277-0.05078-0.17676-0.13184-0.2207c-0.08301-0.04395-0.18262-0.03711-0.25684,0.0127l-9.89063,6.62402  c-0.76563-3.27637-4.05029-4.77344-6.875-4.77344c-4.85693,0-7.53174,2.95898-7.53174,8.33105v6.38379  c0,0.1377,0.11182,0.25,0.25,0.25h12.3677v35.29736c-7.70801,0.34277-13.87793,6.70264-13.87793,14.49365  c0,8.00977,6.5166,14.52637,14.52637,14.52637s14.52637-6.5166,14.52637-14.52637  C44.66211,329.00049,38.33374,322.57227,30.4873,322.38306z M28.00098,281.8877h-6.78174v-0.39453  c0-2.4873,0.56299-4.14355,3.30957-4.14355c2.43359,0,3.47217,1.24902,3.47217,4.17578V281.8877z M30.13574,350.41797  c-7.45801,0-13.52637-6.06787-13.52637-13.52637s6.06836-13.52637,13.52637-13.52637s13.52637,6.06787,13.52637,13.52637  S37.59375,350.41797,30.13574,350.41797z"
   id="path159" />
<g
   id="g14530"><g
     aria-label="trig"
     id="text1863"
     style="font-weight:500;font-size:11.3333px;line-height:1.25;font-family:'Futura PT';-inkscape-font-specification:'Futura PT, Medium';fill:#afafaf"><path
       d="m 24.853273,357.75352 v -1.17866 h -0.951997 v -1.67733 h -1.382662 v 1.67733 h -0.543999 v 1.17866 h 0.543999 v 3.72866 h 1.382662 v -3.72866 z"
       id="path5556" /><path
       d="m 25.578588,361.48218 h 1.382663 v -2.35733 c 0,-0.34 0.01133,-0.75933 0.271999,-1.088 0.271999,-0.33999 0.657331,-0.39666 0.917997,-0.39666 0.283333,0 0.464665,0.0567 0.645998,0.18133 l 0.181333,-1.29199 c -0.158666,-0.0567 -0.351332,-0.11334 -0.589332,-0.11334 -0.328665,0 -0.600664,0.0793 -0.815997,0.21534 -0.102,0.0567 -0.396666,0.26066 -0.611998,0.67999 v -0.73666 h -1.382663 z"
       id="path5558" /><path
       d="m 29.658562,356.57486 v 4.90732 h 1.382662 v -4.90732 z m -0.136,-2.07399 c 0,0.45333 0.373999,0.82733 0.827331,0.82733 0.453332,0 0.827331,-0.374 0.827331,-0.82733 0,-0.45334 -0.373999,-0.82734 -0.827331,-0.82734 -0.453332,0 -0.827331,0.374 -0.827331,0.82734 z"
       id="path5560" /><path
       d="m 36.095864,357.20952 c -0.192666,-0.29466 -0.623332,-0.79333 -1.541329,-0.79333 -0.657331,0 -1.257996,0.238 -1.688662,0.65733 -0.475998,0.46467 -0.759331,1.17867 -0.759331,1.94933 0,0.952 0.419332,1.58666 0.781998,1.94933 0.475999,0.46466 1.042664,0.66866 1.699995,0.66866 0.373999,0 1.03133,-0.0907 1.507329,-0.81599 v 0.69133 c 0,0.39666 -0.034,0.782 -0.351332,1.08799 -0.181333,0.17 -0.441999,0.306 -0.838665,0.306 -0.192666,0 -0.566665,-0.0113 -0.838664,-0.26066 -0.158666,-0.136 -0.283332,-0.36267 -0.339999,-0.58933 h -1.495995 c 0.113333,0.55533 0.407998,1.13333 0.793331,1.46199 0.317332,0.28333 0.883997,0.56667 1.835994,0.56667 1.008664,0 1.597995,-0.35134 1.937994,-0.69133 0.611999,-0.612 0.679998,-1.394 0.679998,-2.142 v -4.68065 h -1.382662 z m -1.20133,0.43067 c 0.373999,0 0.691331,0.11333 0.963331,0.39666 0.192666,0.204 0.396665,0.52134 0.396665,0.986 0,0.39667 -0.158666,0.79333 -0.441999,1.054 -0.237999,0.21533 -0.577998,0.34 -0.917997,0.34 -0.328666,0 -0.702665,-0.11334 -0.99733,-0.43067 -0.204,-0.21533 -0.362666,-0.53266 -0.362666,-0.96333 0,-0.51 0.215333,-0.83866 0.441999,-1.04266 0.169999,-0.15867 0.475998,-0.34 0.917997,-0.34 z"
       id="path5562" /></g><g
     id="g6122"
     transform="translate(0,-20)"
     style="fill:#afafaf;fill-opacity:1"><g
       aria-label="Aepelzens"
       id="text1977"
       style="font-weight:500;font-size:11.3333px;line-height:1.25;font-family:'Futura PT';-inkscape-font-specification:'Futura PT, Medium'"><path
         d="m 10.624007,41.048569 h 1.586662 L 9.0486788,33.489258 H 7.8926823 l -3.252657,7.559311 H 6.2380205 L 6.9066852,39.461907 H 9.9553428 Z M 7.3713505,38.260577 8.448014,35.540585 9.5246774,38.260577 Z"
         id="path14381" /><path
         d="m 16.437979,39.47324 c -0.226666,0.396666 -0.623332,0.645998 -1.144664,0.645998 -0.532665,0 -0.838664,-0.260666 -0.985997,-0.464665 -0.158666,-0.215333 -0.237999,-0.532665 -0.237999,-0.827331 h 3.671989 v -0.113333 c 0,-0.532665 -0.068,-1.303329 -0.589331,-1.926661 -0.339999,-0.407999 -0.917998,-0.804664 -1.915328,-0.804664 -0.589332,0 -1.26933,0.124666 -1.847328,0.691331 -0.351332,0.351332 -0.747998,0.951997 -0.747998,1.926661 0,0.770664 0.226666,1.405329 0.770665,1.915328 0.487332,0.464665 1.087996,0.691331 1.881327,0.691331 1.711329,0 2.26666,-1.16733 2.413993,-1.529996 z m -2.323327,-1.529995 c 0.113333,-0.657332 0.645998,-0.985997 1.155997,-0.985997 0.509998,0 1.053997,0.317332 1.16733,0.985997 z"
         id="path14383" /><path
         d="m 20.189293,40.413904 c 0.543998,0.736664 1.23533,0.793331 1.575329,0.793331 0.725331,0 1.291996,-0.283333 1.665995,-0.634665 0.283332,-0.271999 0.770664,-0.872664 0.770664,-1.983327 0,-0.974664 -0.373999,-1.586662 -0.736664,-1.949328 -0.555332,-0.555332 -1.246663,-0.657331 -1.677329,-0.657331 -0.906664,0 -1.382662,0.487332 -1.597995,0.793331 V 36.14125 h -1.382662 v 7.502644 h 1.382662 z m 1.223996,-3.207324 c 0.328666,0 0.691332,0.124666 0.940664,0.351332 0.272,0.260666 0.419332,0.668665 0.419332,1.031331 0,0.362665 -0.135999,0.770664 -0.430665,1.042663 -0.181333,0.17 -0.475999,0.351333 -0.929331,0.351333 -0.430665,0 -0.725331,-0.17 -0.906664,-0.328666 -0.271999,-0.237999 -0.453332,-0.611998 -0.453332,-1.06533 0,-0.453332 0.158667,-0.793331 0.464666,-1.053997 0.249332,-0.226666 0.532665,-0.328666 0.89533,-0.328666 z"
         id="path14385" /><path
         d="m 28.813931,39.47324 c -0.226666,0.396666 -0.623331,0.645998 -1.144663,0.645998 -0.532665,0 -0.838664,-0.260666 -0.985997,-0.464665 -0.158666,-0.215333 -0.237999,-0.532665 -0.237999,-0.827331 h 3.671989 v -0.113333 c 0,-0.532665 -0.068,-1.303329 -0.589332,-1.926661 -0.339999,-0.407999 -0.917997,-0.804664 -1.915327,-0.804664 -0.589332,0 -1.26933,0.124666 -1.847328,0.691331 -0.351332,0.351332 -0.747998,0.951997 -0.747998,1.926661 0,0.770664 0.226666,1.405329 0.770664,1.915328 0.487332,0.464665 1.087997,0.691331 1.881328,0.691331 1.711328,0 2.26666,-1.16733 2.413993,-1.529996 z m -2.323326,-1.529995 c 0.113333,-0.657332 0.645998,-0.985997 1.155997,-0.985997 0.509998,0 1.053996,0.317332 1.167329,0.985997 z"
         id="path14387" /><path
         d="m 31.182584,32.786593 v 8.261976 h 1.382663 v -8.261976 z"
         id="path14389" /><path
         d="m 38.571884,36.14125 h -4.782653 v 1.178663 h 2.357326 l -2.787991,3.728656 h 5.020651 v -1.178663 h -2.595325 z"
         id="path14391" /><path
         d="m 42.912528,39.47324 c -0.226666,0.396666 -0.623331,0.645998 -1.144663,0.645998 -0.532665,0 -0.838664,-0.260666 -0.985997,-0.464665 -0.158667,-0.215333 -0.238,-0.532665 -0.238,-0.827331 h 3.671989 v -0.113333 c 0,-0.532665 -0.068,-1.303329 -0.589331,-1.926661 -0.339999,-0.407999 -0.917997,-0.804664 -1.915328,-0.804664 -0.589331,0 -1.269329,0.124666 -1.847328,0.691331 -0.351332,0.351332 -0.747997,0.951997 -0.747997,1.926661 0,0.770664 0.226666,1.405329 0.770664,1.915328 0.487332,0.464665 1.087997,0.691331 1.881328,0.691331 1.711328,0 2.26666,-1.16733 2.413993,-1.529996 z m -2.323326,-1.529995 c 0.113333,-0.657332 0.645998,-0.985997 1.155996,-0.985997 0.509999,0 1.053997,0.317332 1.16733,0.985997 z"
         id="path14393" /><path
         d="m 45.281179,41.048569 h 1.382662 V 38.54391 c 0,-0.283333 0.01133,-0.634665 0.215333,-0.951998 0.204,-0.305999 0.487332,-0.430665 0.849998,-0.430665 0.135999,0 0.430665,0.02267 0.645998,0.249333 0.249332,0.260665 0.260666,0.691331 0.260666,0.96333 v 2.674659 h 1.382662 v -3.082658 c 0,-0.475998 -0.04533,-0.96333 -0.385332,-1.382662 -0.385332,-0.475999 -1.019997,-0.600665 -1.450662,-0.600665 -0.793331,0 -1.257997,0.430665 -1.518663,0.793331 V 36.14125 h -1.382662 z"
         id="path14395" /><path
         d="m 54.687803,36.503916 c -0.623331,-0.475999 -1.20133,-0.521332 -1.563995,-0.521332 -0.396666,0 -0.895331,0.04533 -1.280663,0.351332 -0.283333,0.237999 -0.509999,0.634665 -0.509999,1.110663 0,0.396666 0.147333,0.702665 0.373999,0.940664 0.294666,0.305999 0.702665,0.464666 1.053997,0.589332 l 0.317333,0.113333 c 0.181332,0.068 0.430665,0.192666 0.430665,0.498665 0,0.339999 -0.294666,0.532665 -0.679998,0.532665 -0.407999,0 -0.815998,-0.249332 -1.087997,-0.566665 l -0.725331,0.838664 c 0.305999,0.328666 0.883997,0.815998 1.903994,0.815998 0.600665,0 1.076664,-0.158666 1.473329,-0.521332 0.396666,-0.362665 0.543999,-0.804664 0.543999,-1.246663 0,-0.317332 -0.102,-0.611998 -0.249333,-0.815997 -0.283332,-0.385333 -0.861331,-0.577999 -1.246663,-0.702665 l -0.328665,-0.102 c -0.385333,-0.124666 -0.441999,-0.317332 -0.441999,-0.441998 0,-0.238 0.203999,-0.396666 0.532665,-0.396666 0.147333,0 0.475999,0.02267 0.804664,0.328666 z"
         id="path14397" /></g><g
       aria-label="modules"
       id="text5268"
       style="font-weight:500;font-size:11.3333px;line-height:1.25;font-family:'Futura PT';-inkscape-font-specification:'Futura PT, Medium'"><path
         d="m 10.018107,52.101803 h 1.382663 v -2.504659 c 0,-0.260666 0.01133,-0.657332 0.192666,-0.951998 0.147333,-0.260665 0.385332,-0.430665 0.759331,-0.430665 0.136,0 0.385332,0.02267 0.566665,0.249333 0.102,0.124666 0.226666,0.385332 0.226666,0.96333 v 2.674659 h 1.382663 v -2.504659 c 0,-0.260666 0.01133,-0.657332 0.192666,-0.951998 0.147333,-0.260665 0.385332,-0.430665 0.759331,-0.430665 0.135999,0 0.385332,0.02267 0.566665,0.249333 0.101999,0.124666 0.226666,0.385332 0.226666,0.96333 v 2.674659 h 1.382662 v -3.082658 c 0,-0.543998 -0.02267,-0.96333 -0.339999,-1.382662 -0.192666,-0.249333 -0.566665,-0.600665 -1.325996,-0.600665 -0.849997,0 -1.337329,0.509998 -1.575328,0.895331 -0.124667,-0.249333 -0.521332,-0.895331 -1.552662,-0.895331 -0.294666,0 -0.940664,0.05667 -1.461996,0.713998 v -0.555332 h -1.382663 z"
         id="path14400" /><path
         d="m 21.532729,47.035818 c -0.929331,0 -1.563996,0.305999 -1.983328,0.691331 -0.487332,0.441999 -0.827331,1.121997 -0.827331,1.926661 0,0.793331 0.339999,1.473329 0.827331,1.915328 0.419332,0.385332 1.053997,0.691331 1.983328,0.691331 0.92933,0 1.563995,-0.305999 1.983327,-0.691331 0.487332,-0.441999 0.827331,-1.121997 0.827331,-1.915328 0,-0.804664 -0.339999,-1.484662 -0.827331,-1.926661 -0.419332,-0.385332 -1.053997,-0.691331 -1.983327,-0.691331 z m 0,4.000655 c -0.804665,0 -1.382663,-0.634665 -1.382663,-1.382663 0,-0.770664 0.589332,-1.393996 1.382663,-1.393996 0.793331,0 1.382662,0.623332 1.382662,1.393996 0,0.747998 -0.577998,1.382663 -1.382662,1.382663 z"
         id="path14402" /><path
         d="m 29.17136,47.829149 c -0.464665,-0.725331 -1.20133,-0.793331 -1.575329,-0.793331 -1.450662,0 -2.436659,1.155996 -2.436659,2.606659 0,1.439329 0.99733,2.617992 2.504659,2.617992 0.351333,0 1.008664,-0.07933 1.507329,-0.793331 v 0.634665 h 1.382663 V 43.839827 H 29.17136 Z m -1.223996,0.430665 c 0.793331,0 1.359996,0.600665 1.359996,1.382663 0,0.781997 -0.566665,1.393996 -1.359996,1.393996 -0.793331,0 -1.359996,-0.611999 -1.359996,-1.393996 0,-0.781998 0.566665,-1.382663 1.359996,-1.382663 z"
         id="path14404" /><path
         d="m 31.868682,47.194484 v 3.003324 c 0,0.441999 0.05667,1.031331 0.600665,1.507329 0.453332,0.396666 1.178663,0.555332 1.779328,0.555332 0.600665,0 1.325996,-0.158666 1.779328,-0.555332 0.543998,-0.475998 0.600665,-1.06533 0.600665,-1.507329 v -3.003324 h -1.382663 v 2.776658 c 0,0.260666 -0.02267,0.611999 -0.294666,0.861331 -0.169999,0.147333 -0.441998,0.249333 -0.702664,0.249333 -0.260666,0 -0.532665,-0.102 -0.702665,-0.249333 -0.271999,-0.249332 -0.294666,-0.600665 -0.294666,-0.861331 v -2.776658 z"
         id="path14406" /><path
         d="m 37.943322,43.839827 v 8.261976 h 1.382663 v -8.261976 z"
         id="path14408" /><path
         d="m 44.187958,50.526474 c -0.226666,0.396666 -0.623331,0.645998 -1.144663,0.645998 -0.532665,0 -0.838664,-0.260666 -0.985997,-0.464665 -0.158666,-0.215333 -0.237999,-0.532665 -0.237999,-0.827331 h 3.671989 v -0.113333 c 0,-0.532665 -0.068,-1.303329 -0.589332,-1.926661 -0.339999,-0.407999 -0.917997,-0.804664 -1.915328,-0.804664 -0.589331,0 -1.269329,0.124666 -1.847327,0.691331 -0.351333,0.351332 -0.747998,0.951997 -0.747998,1.926661 0,0.770664 0.226666,1.405329 0.770664,1.915328 0.487332,0.464665 1.087997,0.691331 1.881328,0.691331 1.711328,0 2.26666,-1.16733 2.413993,-1.529995 z m -2.323326,-1.529995 c 0.113333,-0.657332 0.645998,-0.985997 1.155996,-0.985997 0.509999,0 1.053997,0.317332 1.16733,0.985997 z"
         id="path14410" /><path
         d="m 49.91127,47.55715 c -0.623332,-0.475999 -1.20133,-0.521332 -1.563996,-0.521332 -0.396665,0 -0.89533,0.04533 -1.280663,0.351332 -0.283332,0.237999 -0.509998,0.634665 -0.509998,1.110664 0,0.396665 0.147333,0.702664 0.373999,0.940663 0.294666,0.306 0.702664,0.464666 1.053997,0.589332 l 0.317332,0.113333 c 0.181333,0.068 0.430665,0.192666 0.430665,0.498665 0,0.339999 -0.294665,0.532665 -0.679998,0.532665 -0.407998,0 -0.815997,-0.249332 -1.087996,-0.566665 l -0.725332,0.838664 c 0.306,0.328666 0.883998,0.815998 1.903995,0.815998 0.600665,0 1.076663,-0.158666 1.473329,-0.521332 0.396665,-0.362665 0.543998,-0.804664 0.543998,-1.246663 0,-0.317332 -0.102,-0.611998 -0.249332,-0.815997 -0.283333,-0.385332 -0.861331,-0.577999 -1.246663,-0.702665 l -0.328666,-0.102 c -0.385332,-0.124666 -0.441999,-0.317332 -0.441999,-0.441998 0,-0.238 0.204,-0.396666 0.532665,-0.396666 0.147333,0 0.475999,0.02267 0.804665,0.328666 z"
         id="path14412" /></g></g><g
     id="g10428"
     transform="translate(0,-20)"
     style="fill:#afafaf;fill-opacity:1"><g
       aria-label="reimagined"
       id="text6960"
       style="font-weight:500;font-size:11.3333px;line-height:1.25;font-family:'Futura PT';-inkscape-font-specification:'Futura PT, Medium'"><path
         d="m 2.9418112,74.042908 h 1.3826626 v -2.357327 c 0,-0.339999 0.011333,-0.759331 0.2719992,-1.087996 0.2719992,-0.339999 0.6573314,-0.396666 0.9179973,-0.396666 0.2833324,0 0.4646652,0.05667 0.645998,0.181333 l 0.1813328,-1.291996 c -0.1586662,-0.05667 -0.3513323,-0.113333 -0.5893316,-0.113333 -0.3286656,0 -0.6006648,0.07933 -0.8159975,0.215332 -0.1019997,0.05667 -0.3966655,0.260666 -0.6119982,0.679998 V 69.135589 H 2.9418112 Z"
         id="path14415" /><path
         d="m 10.331087,72.467579 c -0.226666,0.396666 -0.6233312,0.645998 -1.144663,0.645998 -0.532665,0 -0.8386641,-0.260666 -0.985997,-0.464665 C 8.0417608,72.433579 7.9624277,72.116247 7.9624277,71.821581 h 3.6719893 v -0.113333 c 0,-0.532665 -0.068,-1.303329 -0.589332,-1.926661 -0.339999,-0.407999 -0.917997,-0.804664 -1.9153275,-0.804664 -0.5893315,0 -1.2693295,0.124666 -1.8473278,0.691331 -0.3513323,0.351332 -0.7479978,0.951997 -0.7479978,1.926661 0,0.770664 0.226666,1.405329 0.7706644,1.915328 0.4873319,0.464665 1.0879968,0.691331 1.8813277,0.691331 1.711328,0 2.26666,-1.16733 2.413993,-1.529996 z M 8.0077609,70.937584 c 0.113333,-0.657332 0.6459981,-0.985997 1.1559965,-0.985997 0.5099985,0 1.0539966,0.317332 1.1673296,0.985997 z"
         id="path14417" /><path
         d="m 12.69974,69.135589 v 4.907319 h 1.382663 v -4.907319 z m -0.136,-2.073994 c 0,0.453332 0.373999,0.827331 0.827331,0.827331 0.453332,0 0.827331,-0.373999 0.827331,-0.827331 0,-0.453332 -0.373999,-0.827331 -0.827331,-0.827331 -0.453332,0 -0.827331,0.373999 -0.827331,0.827331 z"
         id="path14419" /><path
         d="m 15.397053,74.042908 h 1.382663 v -2.50466 c 0,-0.260665 0.01133,-0.657331 0.192666,-0.951997 0.147333,-0.260666 0.385332,-0.430665 0.759331,-0.430665 0.136,0 0.385332,0.02267 0.566665,0.249333 0.102,0.124666 0.226666,0.385332 0.226666,0.96333 v 2.674659 h 1.382663 v -2.50466 c 0,-0.260665 0.01133,-0.657331 0.192666,-0.951997 0.147333,-0.260666 0.385332,-0.430665 0.759331,-0.430665 0.135999,0 0.385332,0.02267 0.566665,0.249333 0.101999,0.124666 0.226666,0.385332 0.226666,0.96333 v 2.674659 h 1.382662 V 70.96025 c 0,-0.543998 -0.02267,-0.96333 -0.339999,-1.382662 -0.192666,-0.249333 -0.566665,-0.600665 -1.325996,-0.600665 -0.849997,0 -1.337329,0.509998 -1.575328,0.89533 -0.124667,-0.249332 -0.521332,-0.89533 -1.552662,-0.89533 -0.294666,0 -0.940664,0.05667 -1.461996,0.713998 v -0.555332 h -1.382663 z"
         id="path14421" /><path
         d="m 28.113004,69.770254 c -0.464666,-0.725331 -1.20133,-0.793331 -1.575329,-0.793331 -1.450662,0 -2.436659,1.155996 -2.436659,2.606659 0,1.439329 0.99733,2.617992 2.504659,2.617992 0.351332,0 1.008663,-0.07933 1.507329,-0.793331 v 0.634665 h 1.382662 v -4.907319 h -1.382662 z m -1.223997,0.430665 c 0.793331,0 1.359996,0.600665 1.359996,1.382663 0,0.781997 -0.566665,1.393996 -1.359996,1.393996 -0.793331,0 -1.359996,-0.611999 -1.359996,-1.393996 0,-0.781998 0.566665,-1.382663 1.359996,-1.382663 z"
         id="path14423" /><path
         d="m 34.550315,69.770254 c -0.192666,-0.294666 -0.623331,-0.793331 -1.541329,-0.793331 -0.657331,0 -1.257996,0.237999 -1.688661,0.657331 -0.475999,0.464665 -0.759331,1.178663 -0.759331,1.949328 0,0.951997 0.419332,1.586662 0.781997,1.949327 0.475999,0.464666 1.042664,0.668665 1.699995,0.668665 0.373999,0 1.031331,-0.09067 1.507329,-0.815998 v 0.691332 c 0,0.396665 -0.034,0.781997 -0.351332,1.087996 -0.181333,0.17 -0.441999,0.305999 -0.838664,0.305999 -0.192666,0 -0.566665,-0.01133 -0.838665,-0.260665 -0.158666,-0.136 -0.283332,-0.362666 -0.339998,-0.589332 H 30.68566 c 0.113333,0.555332 0.407999,1.13333 0.793331,1.461996 0.317332,0.283332 0.883997,0.566665 1.835994,0.566665 1.008664,0 1.597996,-0.351333 1.937995,-0.691332 0.611998,-0.611998 0.679998,-1.393996 0.679998,-2.141993 v -4.680653 h -1.382663 z m -1.20133,0.430665 c 0.373999,0 0.691332,0.113333 0.963331,0.396666 0.192666,0.203999 0.396665,0.521331 0.396665,0.985997 0,0.396665 -0.158666,0.793331 -0.441998,1.053997 -0.238,0.215332 -0.577999,0.339999 -0.917998,0.339999 -0.328665,0 -0.702664,-0.113333 -0.99733,-0.430666 -0.203999,-0.215333 -0.362666,-0.532665 -0.362666,-0.96333 0,-0.509999 0.215333,-0.838664 0.441999,-1.042664 0.17,-0.158666 0.475999,-0.339999 0.917997,-0.339999 z"
         id="path14425" /><path
         d="m 37.247628,69.135589 v 4.907319 h 1.382662 v -4.907319 z m -0.136,-2.073994 c 0,0.453332 0.373999,0.827331 0.827331,0.827331 0.453332,0 0.827331,-0.373999 0.827331,-0.827331 0,-0.453332 -0.373999,-0.827331 -0.827331,-0.827331 -0.453332,0 -0.827331,0.373999 -0.827331,0.827331 z"
         id="path14427" /><path
         d="m 39.944939,74.042908 h 1.382663 v -2.50466 c 0,-0.283332 0.01133,-0.634664 0.215333,-0.951997 0.203999,-0.305999 0.487331,-0.430665 0.849997,-0.430665 0.136,0 0.430665,0.02267 0.645998,0.249333 0.249333,0.260665 0.260666,0.691331 0.260666,0.96333 v 2.674659 h 1.382663 V 70.96025 c 0,-0.475998 -0.04533,-0.96333 -0.385333,-1.382662 -0.385332,-0.475999 -1.019997,-0.600665 -1.450662,-0.600665 -0.793331,0 -1.257996,0.430665 -1.518662,0.793331 v -0.634665 h -1.382663 z"
         id="path14429" /><path
         d="m 49.54423,72.467579 c -0.226666,0.396666 -0.623332,0.645998 -1.144664,0.645998 -0.532665,0 -0.838664,-0.260666 -0.985997,-0.464665 -0.158666,-0.215333 -0.237999,-0.532665 -0.237999,-0.827331 h 3.671989 v -0.113333 c 0,-0.532665 -0.068,-1.303329 -0.589331,-1.926661 -0.339999,-0.407999 -0.917998,-0.804664 -1.915328,-0.804664 -0.589332,0 -1.26933,0.124666 -1.847328,0.691331 -0.351332,0.351332 -0.747998,0.951997 -0.747998,1.926661 0,0.770664 0.226666,1.405329 0.770665,1.915328 0.487332,0.464665 1.087996,0.691331 1.881327,0.691331 1.711329,0 2.26666,-1.16733 2.413993,-1.529996 z m -2.323327,-1.529995 c 0.113333,-0.657332 0.645998,-0.985997 1.155997,-0.985997 0.509998,0 1.053997,0.317332 1.16733,0.985997 z"
         id="path14431" /><path
         d="m 55.675536,69.770254 c -0.464665,-0.725331 -1.20133,-0.793331 -1.575329,-0.793331 -1.450662,0 -2.436659,1.155996 -2.436659,2.606659 0,1.439329 0.99733,2.617992 2.504659,2.617992 0.351332,0 1.008664,-0.07933 1.507329,-0.793331 v 0.634665 h 1.382663 v -8.261976 h -1.382663 z m -1.223996,0.430665 c 0.793331,0 1.359996,0.600665 1.359996,1.382663 0,0.781997 -0.566665,1.393996 -1.359996,1.393996 -0.793331,0 -1.359996,-0.611999 -1.359996,-1.393996 0,-0.781998 0.566665,-1.382663 1.359996,-1.382663 z"
         id="path14433" /></g><g
       aria-label="by wiqid"
       id="text8420"
       style="font-weight:500;font-size:11.3333px;line-height:1.25;font-family:'Futura PT';-inkscape-font-specification:'Futura PT, Medium'"><path
         d="M 9.1561343,76.786601 H 7.7734717 v 8.261975 h 1.3826626 v -0.634664 c 0.5326651,0.736664 1.2466627,0.793331 1.5639957,0.793331 1.450662,0 2.447992,-1.121997 2.447992,-2.617993 0,-1.484662 -0.96333,-2.606659 -2.413992,-2.606659 -0.419333,0 -1.1106638,0.113333 -1.5979957,0.793331 z m 1.2239967,4.419987 c 0.793331,0 1.359996,0.600665 1.359996,1.382662 0,0.781998 -0.566665,1.393996 -1.359996,1.393996 -0.7933313,0 -1.3599963,-0.611998 -1.3599963,-1.393996 0,-0.781997 0.566665,-1.382662 1.3599963,-1.382662 z"
         id="path14436" /><path
         d="m 14.018114,87.643902 h 1.563995 l 3.955322,-7.502644 h -1.563996 l -1.359996,2.787991 -1.518662,-2.787991 h -1.609328 l 2.334659,4.170654 z"
         id="path14438" /><path
         d="m 26.68872,82.158585 1.291996,2.889991 h 0.679998 l 2.493326,-4.907318 h -1.541329 l -1.291996,2.833325 -1.314663,-2.833325 h -0.634665 l -1.314662,2.833325 -1.291996,-2.833325 H 22.2234 l 2.493326,4.907318 h 0.679998 z"
         id="path14440" /><path
         d="m 31.834036,80.141258 v 4.907318 h 1.382662 v -4.907318 z m -0.136,-2.073994 c 0,0.453332 0.373999,0.827331 0.827331,0.827331 0.453332,0 0.827331,-0.373999 0.827331,-0.827331 0,-0.453332 -0.373999,-0.827331 -0.827331,-0.827331 -0.453332,0 -0.827331,0.373999 -0.827331,0.827331 z"
         id="path14442" /><path
         d="m 38.294005,87.643902 h 1.382662 v -7.502644 h -1.382662 v 0.634664 c -0.215333,-0.305999 -0.691332,-0.793331 -1.597996,-0.793331 -0.430665,0 -1.121996,0.102 -1.677328,0.657332 -0.362666,0.362665 -0.736664,0.974664 -0.736664,1.949327 0,1.110664 0.487331,1.711329 0.770664,1.983328 0.373999,0.351332 0.940664,0.634665 1.665995,0.634665 0.339999,0 1.03133,-0.05667 1.575329,-0.793331 z m -1.223997,-6.437314 c 0.362666,0 0.645998,0.101999 0.895331,0.328665 0.305999,0.260666 0.464665,0.600665 0.464665,1.053997 0,0.453332 -0.181333,0.827331 -0.453332,1.06533 -0.181333,0.158667 -0.475998,0.328666 -0.906664,0.328666 -0.453332,0 -0.747998,-0.181333 -0.92933,-0.351332 -0.294666,-0.271999 -0.430666,-0.679998 -0.430666,-1.042664 0,-0.362665 0.147333,-0.770664 0.419332,-1.03133 0.249333,-0.226666 0.611999,-0.351332 0.940664,-0.351332 z"
         id="path14444" /><path
         d="m 40.991325,80.141258 v 4.907318 h 1.382663 v -4.907318 z m -0.135999,-2.073994 c 0,0.453332 0.373999,0.827331 0.827331,0.827331 0.453332,0 0.82733,-0.373999 0.82733,-0.827331 0,-0.453332 -0.373998,-0.827331 -0.82733,-0.827331 -0.453332,0 -0.827331,0.373999 -0.827331,0.827331 z"
         id="path14446" /><path
         d="m 47.451296,80.775922 c -0.464665,-0.725331 -1.20133,-0.793331 -1.575329,-0.793331 -1.450662,0 -2.436659,1.155997 -2.436659,2.606659 0,1.439329 0.99733,2.617993 2.504659,2.617993 0.351332,0 1.008664,-0.07933 1.507329,-0.793331 v 0.634664 h 1.382663 V 76.786601 H 47.451296 Z M 46.2273,81.206588 c 0.793331,0 1.359996,0.600665 1.359996,1.382662 0,0.781998 -0.566665,1.393996 -1.359996,1.393996 -0.793331,0 -1.359996,-0.611998 -1.359996,-1.393996 0,-0.781997 0.566665,-1.382662 1.359996,-1.382662 z"
         id="path14448" /></g><g
       aria-label="&amp; pyer"
       id="text9492"
       style="font-weight:500;font-size:11.3333px;line-height:1.25;font-family:'Futura PT';-inkscape-font-specification:'Futura PT, Medium'"><path
         d="m 19.99995,92.551667 c -0.158666,0.215332 -0.430666,0.543998 -0.940664,1.042663 l -1.246663,-1.427996 0.317332,-0.192666 c 0.804665,-0.487332 1.065331,-1.13333 1.065331,-1.677328 0,-0.929331 -0.713998,-1.801995 -2.028661,-1.801995 -1.405329,0 -2.085327,0.940664 -2.085327,1.881328 0,0.736665 0.498665,1.325996 0.759331,1.586662 l -0.589332,0.351332 c -0.339999,0.204 -1.212663,0.793331 -1.212663,1.915328 0,1.087997 0.815998,2.16466 2.36866,2.16466 1.20133,0 2.085327,-0.702664 2.436659,-1.019997 l 0.736665,0.849998 h 1.824661 l -1.529995,-1.733995 0.169999,-0.17 c 0.215333,-0.215332 0.362666,-0.351332 0.815998,-0.917997 z m -1.983328,1.892661 c -0.249332,0.249332 -0.781997,0.657331 -1.393995,0.657331 -0.634665,0 -1.110664,-0.430665 -1.110664,-0.99733 0,-0.577999 0.498665,-0.997331 1.076664,-1.30333 z m -1.235329,-3.46799 C 16.622627,90.783672 16.46396,90.545673 16.46396,90.26234 c 0,-0.339999 0.238,-0.702664 0.770665,-0.702664 0.509998,0 0.736664,0.373998 0.736664,0.747997 0,0.249333 -0.113333,0.555332 -0.521332,0.838664 l -0.339999,0.238 z"
         id="path14451" /><path
         d="m 26.176586,95.588991 c 0.543998,0.736664 1.23533,0.793331 1.575328,0.793331 0.725332,0 1.291997,-0.283333 1.665996,-0.634665 0.283332,-0.271999 0.770664,-0.872664 0.770664,-1.983327 0,-0.974664 -0.373999,-1.586662 -0.736665,-1.949328 -0.555331,-0.555332 -1.246663,-0.657331 -1.677328,-0.657331 -0.906664,0 -1.382662,0.487332 -1.597995,0.793331 v -0.634665 h -1.382663 v 7.502644 h 1.382663 z m 1.223996,-3.207324 c 0.328666,0 0.691331,0.124666 0.940664,0.351332 0.271999,0.260666 0.419332,0.668665 0.419332,1.031331 0,0.362665 -0.135999,0.770664 -0.430665,1.042663 -0.181333,0.17 -0.475999,0.351333 -0.929331,0.351333 -0.430665,0 -0.725331,-0.17 -0.906664,-0.328666 -0.271999,-0.237999 -0.453332,-0.611998 -0.453332,-1.06533 0,-0.453332 0.158666,-0.793331 0.464666,-1.053997 0.249332,-0.226666 0.532665,-0.328666 0.89533,-0.328666 z"
         id="path14453" /><path
         d="m 31.038566,98.818981 h 1.563995 l 3.955322,-7.502644 h -1.563995 l -1.359996,2.787992 -1.518662,-2.787992 h -1.609329 l 2.33466,4.170654 z"
         id="path14455" /><path
         d="m 40.660499,94.648327 c -0.226666,0.396666 -0.623331,0.645998 -1.144663,0.645998 -0.532665,0 -0.838664,-0.260666 -0.985997,-0.464665 -0.158666,-0.215333 -0.238,-0.532665 -0.238,-0.827331 h 3.67199 v -0.113333 c 0,-0.532665 -0.068,-1.303329 -0.589332,-1.926661 -0.339999,-0.407999 -0.917997,-0.804664 -1.915328,-0.804664 -0.589331,0 -1.269329,0.124666 -1.847328,0.691331 -0.351332,0.351332 -0.747997,0.951997 -0.747997,1.926661 0,0.770664 0.226666,1.405329 0.770664,1.915328 0.487332,0.464665 1.087997,0.691331 1.881328,0.691331 1.711328,0 2.26666,-1.16733 2.413993,-1.529996 z m -2.323326,-1.529995 c 0.113333,-0.657332 0.645998,-0.985997 1.155996,-0.985997 0.509999,0 1.053997,0.317332 1.16733,0.985997 z"
         id="path14457" /><path
         d="m 43.02915,96.223656 h 1.382662 v -2.357327 c 0,-0.339999 0.01133,-0.759331 0.272,-1.087996 0.271999,-0.339999 0.657331,-0.396666 0.917997,-0.396666 0.283332,0 0.464665,0.05667 0.645998,0.181333 l 0.181333,-1.291996 c -0.158666,-0.05667 -0.351332,-0.113333 -0.589332,-0.113333 -0.328665,0 -0.600665,0.07933 -0.815997,0.215332 -0.102,0.05667 -0.396666,0.260666 -0.611999,0.679998 V 91.316337 H 43.02915 Z"
         id="path14459" /></g></g></g></svg>
