<?xml version="1.0" encoding="UTF-8" standalone="no"?>
<!-- Generator: Adobe Illustrator 23.0.3, SVG Export Plug-In . SVG Version: 6.00 Build 0)  -->

<svg
   version="1.0"
   id="Layer_1"
   x="0px"
   y="0px"
   width="60px"
   height="380px"
   viewBox="0 0 60 380"
   enable-background="new 0 0 60 380"
   xml:space="preserve"
   sodipodi:docname="retrig_bg.svg"
   inkscape:version="1.1.1 (3bf5ae0d25, 2021-09-20)"
   xmlns:inkscape="http://www.inkscape.org/namespaces/inkscape"
   xmlns:sodipodi="http://sodipodi.sourceforge.net/DTD/sodipodi-0.dtd"
   xmlns="http://www.w3.org/2000/svg"
   xmlns:svg="http://www.w3.org/2000/svg"><defs
   id="defs330">
	
	
	
	
	
	
	
	
	
	
	
	
	
	

		
		
		
		
	
		
		
		
		
		
		
	</defs><sodipodi:namedview
   id="namedview328"
   pagecolor="#ffffff"
   bordercolor="#111111"
   borderopacity="1"
   inkscape:pageshadow="0"
   inkscape:pageopacity="0"
   inkscape:pagecheckerboard="1"
   showgrid="false"
   inkscape:zoom="2.4041631"
   inkscape:cx="29.948052"
   inkscape:cy="176.36075"
   inkscape:current-layer="Layer_1" />
<title
   id="title2">repelzen_BG</title>
<g
   id="export_bg">
	<g
   id="path33453">
		<path
   fill="#313131"
   d="M0,0h60v380H0V0z"
   id="path4" />
	</g>
</g>
<rect
   x="16.628429"
   y="206.00354"
   fill="#cc4c4c"
   width="28.50029"
   height="8.9929199"
   id="rect8" /><rect
   x="16.0697"
   y="248.00354"
   fill="#d8bb44"
   width="28.500271"
   height="8.9929199"
   id="rect10" /><rect
   x="16.0697"
   y="290.00354"
   fill="#10a687"
   width="28.500271"
   height="8.9929199"
   id="rect12" /><rect
   x="16.0697"
   y="332.00354"
   fill="#098eb7"
   width="28.500271"
   height="8.9929199"
   id="rect14" /><g
   id="g20">
		<path
   fill="#313131"
   d="m 38.19023,134.85168 c 7.93612,-4.52332 10.70275,-14.6237 6.17943,-22.55981 -4.52332,-7.93611 -14.6237,-10.70275 -22.55982,-6.17943 -7.93612,4.52332 -10.70275,14.6237 -6.17943,22.55981 1.46166,2.56447 3.58298,4.69106 6.14382,6.15907"
   id="path16" />
		<path
   fill="#afafaf"
   d="m 38.19043,135.35156 c -0.27605,2.7e-4 -0.50005,-0.22328 -0.50033,-0.49933 -1.8e-4,-0.17975 0.09616,-0.34575 0.25233,-0.43475 7.6964,-4.38646 10.37965,-14.18155 5.99319,-21.87795 -4.38646,-7.6964 -14.18155,-10.37965 -21.87795,-5.99319 -7.6964,4.38646 -10.37965,14.18156 -5.99319,21.87795 1.41763,2.48735 3.47516,4.54994 5.95902,5.97366 0.23947,0.13751 0.32211,0.44313 0.1846,0.68259 -0.13752,0.23947 -0.44313,0.32211 -0.68259,0.1846 v 0 c -8.16468,-4.68031 -10.98931,-15.09325 -6.30899,-23.25793 4.68032,-8.16468 15.09325,-10.98931 23.25793,-6.30899 8.16468,4.68032 10.98931,15.09325 6.30899,23.25793 -1.5123,2.63817 -3.70302,4.82358 -6.34484,6.32948 -0.07549,0.0434 -0.16109,0.0662 -0.24817,0.0659 z"
   id="path18" />
	</g><path
   fill="#afafaf"
   d="m 45,162.17799 v 0 c 5.7943,0 10.49151,4.6972 10.49151,10.49152 v 0 164.05 0 h -20.983 v 0 -164.05 C 34.5085,166.87521 39.2057,162.17801 45,162.17799 Z"
   id="path22" /><g
   id="g136">
		<g
   id="g132">
			<path
   fill="#afafaf"
   d="m 42.0625,83.34473 c -0.18487,1.4e-4 -0.35469,-0.10187 -0.44141,-0.26514 l -0.97265,-1.82617 c -0.1303,-0.24347 -0.03856,-0.54646 0.20491,-0.67677 0.24347,-0.13029 0.54647,-0.03855 0.67677,0.20492 3.8e-4,7e-4 7.6e-4,0.0014 0.0011,0.0021 l 0.97266,1.82617 c 0.1299,0.24348 0.03783,0.54616 -0.20565,0.67606 -0.07255,0.0387 -0.15353,0.05891 -0.23576,0.05881 z"
   id="path62" />
			<path
   fill="#afafaf"
   d="m 45.25293,81.29883 c -0.15194,1.1e-4 -0.29568,-0.06889 -0.39063,-0.1875 l -1.29394,-1.61524 c -0.17259,-0.21574 -0.13761,-0.53053 0.07813,-0.70313 0.21574,-0.1726 0.53054,-0.13761 0.70313,0.07813 l 1.29394,1.61524 c 0.17226,0.21565 0.1373,0.53008 -0.07812,0.70263 -0.08844,0.07147 -0.19881,0.11027 -0.31251,0.10987 z"
   id="path64" />
			<path
   fill="#afafaf"
   d="m 48.04,78.71143 c -0.12249,2.9e-4 -0.24075,-0.04476 -0.332,-0.12647 L 46.1621,77.20947 C 45.9558,77.0261 45.93722,76.7102 46.12059,76.5039 c 0.18338,-0.2063 0.49927,-0.22488 0.70557,-0.0415 l 1.5459,1.37549 c 0.20655,0.18292 0.2257,0.49864 0.04278,0.70518 -0.095,0.10728 -0.23149,0.16859 -0.37478,0.16836 z"
   id="path66" />
			<path
   fill="#afafaf"
   d="m 50.39551,75.68018 c -0.09597,2.1e-4 -0.18994,-0.02744 -0.27051,-0.07959 l -1.73926,-1.1211 c -0.23152,-0.15043 -0.29726,-0.46006 -0.14683,-0.69158 0.14948,-0.23006 0.45645,-0.29666 0.68783,-0.14924 l 1.73926,1.1211 c 0.23219,0.14948 0.29923,0.45888 0.14975,0.69107 -0.092,0.14291 -0.2503,0.22929 -0.42027,0.22934 z"
   id="path68" />
			<path
   fill="#afafaf"
   d="m 52.29,72.29932 c -0.07144,2e-4 -0.14207,-0.01514 -0.207,-0.04493 l -1.88281,-0.85888 c -0.25283,-0.11105 -0.36776,-0.40604 -0.25671,-0.65887 0.11105,-0.25282 0.40603,-0.36776 0.65886,-0.25671 0.004,0.0018 0.008,0.0036 0.0119,0.0054 l 1.88281,0.85889 c 0.25137,0.11422 0.36256,0.41058 0.24834,0.66196 -0.08114,0.17857 -0.2592,0.2932 -0.45534,0.29312 h -5e-5 z"
   id="path70" />
			<path
   fill="#afafaf"
   d="m 53.69336,68.65869 c -0.04795,1.4e-4 -0.09566,-0.0068 -0.1416,-0.02051 l -1.9834,-0.58789 c -0.26482,-0.07848 -0.41589,-0.35677 -0.33741,-0.62159 0.07847,-0.26482 0.35677,-0.41589 0.62159,-0.33741 l 1.9834,0.58789 c 0.26475,0.07874 0.41555,0.35718 0.33681,0.62193 -0.06308,0.21214 -0.25808,0.35757 -0.47939,0.35757 z"
   id="path72" />
			<path
   fill="#afafaf"
   d="m 54.57617,64.84668 c -0.02483,-8e-5 -0.04963,-0.0019 -0.07422,-0.0054 l -2.04687,-0.30322 c -0.27277,-0.04022 -0.46129,-0.29395 -0.42107,-0.56673 6e-5,-3.8e-4 1.1e-4,-7.7e-4 1.7e-4,-0.0011 0.04404,-0.27079 0.29541,-0.45749 0.56738,-0.42138 l 2.04688,0.30322 c 0.27315,0.04072 0.46157,0.29516 0.42086,0.56831 -0.03644,0.24444 -0.24599,0.4256 -0.49313,0.42632 z"
   id="path74" />
			<path
   fill="#afafaf"
   d="m 54.89941,60.95215 v 0 l -2.06836,-0.001 c -0.27614,0 -0.5,-0.22386 -0.5,-0.5 0,-0.27614 0.22386,-0.5 0.5,-0.5 v 0 l 2.06836,0.001 c 0.27614,0 0.5,0.22386 0.5,0.5 0,0.27614 -0.22386,0.5 -0.5,0.5 z"
   id="path76" />
			<path
   fill="#afafaf"
   d="m 52.56543,57.35889 c -0.27618,-5.9e-4 -0.49958,-0.22495 -0.49899,-0.50112 5.2e-4,-0.24372 0.17666,-0.45156 0.41699,-0.49205 l 2.04,-0.34179 c 0.27255,-0.04476 0.52977,0.1399 0.57453,0.41245 0.04451,0.27102 -0.13787,0.52721 -0.40853,0.57387 l -2.04,0.3418 c -0.02776,0.0047 -0.05586,0.007 -0.084,0.0068 z"
   id="path78" />
			<path
   fill="#afafaf"
   d="m 51.72754,53.94678 c -0.27606,-3e-5 -0.49982,-0.22385 -0.49979,-0.49992 3e-5,-0.21353 0.1357,-0.40347 0.33768,-0.47274 l 1.957,-0.67236 c 0.26104,-0.08953 0.54523,0.0495 0.63476,0.31055 0.08953,0.26104 -0.0495,0.54523 -0.31054,0.63476 v 0 l -1.957,0.67236 c -0.05214,0.01808 -0.10693,0.02732 -0.16211,0.02735 z"
   id="path80" />
			<path
   fill="#afafaf"
   d="m 50.36328,50.76123 c -0.27631,-3.5e-4 -0.50002,-0.22463 -0.49966,-0.50093 2.4e-4,-0.18392 0.10136,-0.35287 0.26334,-0.43999 l 1.82325,-0.97656 c 0.24371,-0.13016 0.54678,-0.03812 0.67694,0.20559 0.12989,0.2432 0.03852,0.54565 -0.2043,0.67625 l -1.82324,0.97656 c -0.07272,0.03881 -0.15389,0.05911 -0.23633,0.05908 z"
   id="path82" />
			<path
   fill="#afafaf"
   d="m 48.51855,47.84814 c -0.27604,1.3e-4 -0.49992,-0.22354 -0.50004,-0.49958 -8e-5,-0.15668 0.07333,-0.30433 0.19829,-0.39885 l 1.64843,-1.24951 c 0.21991,-0.16685 0.53343,-0.12384 0.70028,0.09607 0.16685,0.21991 0.12384,0.53343 -0.09607,0.70028 -2.3e-4,1.8e-4 -4.6e-4,3.5e-4 -6.9e-4,5.3e-4 l -1.64844,1.24951 c -0.08674,0.066 -0.19276,0.10168 -0.30176,0.10155 z"
   id="path84" />
			<path
   fill="#afafaf"
   d="m 46.23926,45.25391 c -0.27614,2e-5 -0.50001,-0.22383 -0.50003,-0.49997 0,-0.12976 0.05043,-0.25444 0.14065,-0.34769 l 1.43848,-1.4873 c 0.19201,-0.19848 0.50855,-0.20372 0.70703,-0.01172 0.19847,0.19201 0.20372,0.50855 0.01172,0.70703 v 0 l -1.43848,1.4873 c -0.09398,0.09769 -0.22381,0.15272 -0.35937,0.15235 z"
   id="path86" />
			<path
   fill="#afafaf"
   d="m 43.5752,43.02539 c -0.27634,-2.6e-4 -0.50015,-0.22448 -0.4999,-0.50082 1e-4,-0.10324 0.03212,-0.20392 0.09169,-0.28824 l 1.19629,-1.6875 c 0.16038,-0.22492 0.47273,-0.27724 0.69765,-0.11686 0.22388,0.15964 0.27693,0.47006 0.11876,0.69498 l -1.19629,1.6875 c -0.09372,0.13245 -0.24595,0.21111 -0.4082,0.21094 z"
   id="path88" />
			<path
   fill="#afafaf"
   d="m 40.57324,41.21045 c -0.27621,6e-5 -0.50017,-0.2238 -0.50023,-0.50001 -2e-5,-0.07781 0.01812,-0.15455 0.05297,-0.22411 l 0.92773,-1.84912 c 0.12479,-0.24651 0.42578,-0.34519 0.67229,-0.22041 0.24509,0.12407 0.3443,0.42255 0.22224,0.66865 l -0.92773,1.84912 c -0.085,0.16907 -0.25803,0.2758 -0.44727,0.27588 z"
   id="path90" />
			<path
   fill="#afafaf"
   d="m 37.28125,39.856 c -0.05203,-6e-5 -0.10374,-0.0081 -0.15332,-0.02393 -0.26277,-0.08484 -0.40705,-0.3666 -0.32227,-0.62939 l 0.63477,-1.96924 c 0.08416,-0.26283 0.36544,-0.40767 0.62827,-0.32351 0.26283,0.08416 0.40767,0.36544 0.32352,0.62827 -2e-4,6.3e-4 -4e-4,0.0013 -6.1e-4,0.0019 l -0.63476,1.96924 c -0.06658,0.20646 -0.25866,0.34647 -0.4756,0.34667 z"
   id="path92" />
			<path
   fill="#afafaf"
   d="m 33.74805,39.00781 c -0.0265,7e-5 -0.05296,-0.002 -0.0791,-0.0063 -0.27272,-0.04308 -0.45894,-0.29902 -0.416,-0.57177 l 0.32324,-2.04346 c 0.04385,-0.2728 0.30053,-0.4584 0.57333,-0.41455 0.27181,0.04369 0.45724,0.29877 0.41495,0.5708 l -0.32324,2.04346 c -0.03863,0.24257 -0.24755,0.42128 -0.49318,0.42187 z"
   id="path94" />
			<path
   fill="#afafaf"
   d="m 30.0166,38.71289 v 0 c -0.27623,-2.4e-4 -0.50003,-0.22425 -0.5,-0.50049 l 0.002,-2.06885 c 6e-5,-0.27593 0.22379,-0.49957 0.49973,-0.49951 9e-5,0 1.8e-4,0 2.7e-4,0 v 0 c 0.27623,2.4e-4 0.50003,0.22425 0.5,0.50049 l -0.002,2.06885 c -5e-5,0.27592 -0.22377,0.49956 -0.49969,0.49951 -10e-5,0 -2.1e-4,0 -3.1e-4,0 z"
   id="path96" />
			<path
   fill="#afafaf"
   d="m 26.28418,39.00244 c -0.24578,-6.3e-4 -0.45475,-0.1796 -0.49316,-0.42236 l -0.32032,-2.044 c -0.04288,-0.27291 0.1436,-0.5289 0.4165,-0.57177 0.27291,-0.04288 0.5289,0.1436 0.57178,0.4165 l 0.32032,2.04394 c 0.04287,0.27287 -0.14358,0.52882 -0.41644,0.57169 -1.9e-4,3e-5 -3.7e-4,6e-5 -5.6e-4,9e-5 -0.02586,0.0039 -0.05197,0.0059 -0.07812,0.0059 z"
   id="path98" />
			<path
   fill="#afafaf"
   d="m 22.749,39.8457 c -0.21735,-7e-5 -0.40985,-0.1403 -0.47656,-0.34716 l -0.63183,-1.96973 c -0.08361,-0.26345 0.06218,-0.5448 0.32563,-0.62841 0.26232,-0.08325 0.54264,0.06093 0.62749,0.32274 l 0.63184,1.96973 c 0.08397,0.26352 -0.06157,0.54521 -0.32509,0.62919 -0.04898,0.0156 -0.10007,0.02358 -0.15148,0.02364 z"
   id="path100" />
			<path
   fill="#afafaf"
   d="m 19.45508,41.19629 c -0.18937,-7e-5 -0.36248,-0.10704 -0.44727,-0.27637 l -0.9248,-1.85058 c -0.12418,-0.24668 -0.02488,-0.54733 0.22181,-0.67151 0.24668,-0.12418 0.54733,-0.02488 0.67151,0.22181 4.1e-4,8.1e-4 8.1e-4,0.0016 0.0012,0.0024 l 0.9248,1.85059 c 0.12351,0.24698 0.02341,0.54733 -0.22357,0.67083 -0.06945,0.03473 -0.14604,0.05281 -0.22369,0.0528 z"
   id="path102" />
			<path
   fill="#afafaf"
   d="m 16.4502,43.00732 c -0.16232,-3e-5 -0.31453,-0.07886 -0.40821,-0.21142 l -1.19433,-1.68945 c -0.15938,-0.22544 -0.10582,-0.5374 0.11963,-0.69677 0.22544,-0.15937 0.5374,-0.10582 0.69677,0.11963 v 0 l 1.19434,1.68945 c 0.15953,0.22521 0.10628,0.53711 -0.11893,0.69663 -0.08456,0.05989 -0.18565,0.09202 -0.28927,0.09193 z"
   id="path104" />
			<path
   fill="#afafaf"
   d="m 13.78223,45.23242 c -0.13587,1e-5 -0.26592,-0.05515 -0.36035,-0.15283 l -1.43555,-1.48926 c -0.19085,-0.19987 -0.18353,-0.51661 0.01634,-0.70745 0.19861,-0.18965 0.51296,-0.18379 0.70436,0.01313 l 1.43555,1.48925 c 0.19146,0.19937 0.18505,0.51621 -0.01432,0.70767 -0.09306,0.08935 -0.21702,0.13933 -0.34603,0.13949 z"
   id="path106" />
			<path
   fill="#afafaf"
   d="m 11.5,47.82373 c -0.10935,6e-5 -0.21571,-0.03578 -0.30273,-0.102 l -1.64649,-1.252 C 9.331,46.30254 9.28837,45.98883 9.45557,45.76905 c 0.1672,-0.21978 0.4809,-0.26241 0.70068,-0.09521 l 1.64648,1.252 c 0.21989,0.16685 0.26289,0.48038 0.09603,0.70027 -0.09463,0.1247 -0.24222,0.19787 -0.39876,0.19768 z"
   id="path108" />
			<path
   fill="#afafaf"
   d="m 9.65137,50.73389 c -0.0825,8e-5 -0.16373,-0.02039 -0.23633,-0.05957 L 7.59277,49.69482 C 7.34953,49.5643 7.25815,49.2613 7.38867,49.01806 7.51919,48.77482 7.82219,48.68344 8.06543,48.81396 l 1.82227,0.9795 c 0.24331,0.13044 0.33482,0.43342 0.20439,0.67673 -0.08707,0.16242 -0.25644,0.26376 -0.44072,0.2637 z"
   id="path110" />
			<path
   fill="#afafaf"
   d="m 8.28223,53.917 c -0.0555,-3e-5 -0.11061,-0.0093 -0.16309,-0.02734 l -1.956,-0.67481 C 5.90191,53.12534 5.76269,52.84101 5.8522,52.57978 c 0.08951,-0.26123 0.37384,-0.40045 0.63507,-0.31094 6.8e-4,2.3e-4 0.00136,4.7e-4 0.00204,7e-4 l 1.956,0.67481 c 0.26104,0.09008 0.39962,0.37472 0.30954,0.63575 -0.06957,0.20161 -0.25935,0.33689 -0.47262,0.3369 z"
   id="path112" />
			<path
   fill="#afafaf"
   d="m 7.43945,57.32764 c -0.02814,-9e-5 -0.05622,-0.0024 -0.084,-0.0068 l -2.04,-0.34473 C 5.04305,56.92993 4.8595,56.67187 4.90529,56.39941 4.95644,56.13045 5.21063,55.94972 5.48147,55.98975 l 2.04,0.34472 c 0.27237,0.04548 0.4563,0.30315 0.41082,0.57552 -0.04022,0.24089 -0.24859,0.41748 -0.49282,0.41765 z"
   id="path114" />
			<path
   fill="#afafaf"
   d="M 7.169,60.91943 H 7.168 L 5.09863,60.917 c -0.27614,-2.7e-4 -0.49978,-0.22436 -0.4995,-0.5005 2.8e-4,-0.27614 0.22436,-0.49978 0.5005,-0.4995 h 10e-4 l 2.06933,0.0024 c 0.27614,6.6e-4 0.49947,0.22505 0.49881,0.50119 -6.6e-4,0.2756 -0.2242,0.4987 -0.49981,0.49881 z"
   id="path116" />
			<path
   fill="#afafaf"
   d="m 5.41113,64.81543 c -0.2762,-5e-4 -0.4997,-0.22482 -0.49919,-0.50102 4.5e-4,-0.24834 0.18307,-0.45873 0.42888,-0.4941 l 2.04785,-0.29345 c 0.27244,-0.03484 0.52327,0.15306 0.56641,0.42431 0.03916,0.2733 -0.15056,0.52662 -0.42383,0.56592 L 5.4834,64.81055 c -0.02394,0.0033 -0.0481,0.0049 -0.07227,0.0049 z"
   id="path118" />
			<path
   fill="#afafaf"
   d="M 6.27148,68.63525 C 5.99534,68.63539 5.77136,68.41166 5.77122,68.13551 5.7711,67.91258 5.91859,67.7165 6.13281,67.65479 l 1.98731,-0.57325 c 0.26526,-0.07693 0.54265,0.07575 0.61958,0.341 0.07692,0.26526 -0.07575,0.54266 -0.34101,0.61958 -4.1e-4,1.2e-4 -8.2e-4,2.4e-4 -0.00123,3.6e-4 l -1.9873,0.57324 c -0.04509,0.01294 -0.09177,0.01951 -0.13868,0.01953 z"
   id="path120" />
			<path
   fill="#afafaf"
   d="m 7.64746,72.2876 c -0.27614,1.3e-4 -0.5001,-0.22363 -0.50023,-0.49976 -9e-5,-0.19736 0.11592,-0.37631 0.29613,-0.45679 L 9.333,70.4873 c 0.25214,-0.11272 0.54793,3.1e-4 0.66065,0.25245 0.11272,0.25214 -3e-4,0.54792 -0.25245,0.66064 L 7.85155,72.24414 C 7.78736,72.27291 7.7178,72.28773 7.64746,72.2876 Z"
   id="path122" />
			<path
   fill="#afafaf"
   d="m 9.51465,75.68164 c -0.27623,-3.1e-4 -0.4999,-0.22449 -0.49959,-0.50073 1.9e-4,-0.17096 0.0877,-0.32997 0.23201,-0.42163 l 1.74707,-1.10791 c 0.23434,-0.14607 0.54273,-0.07452 0.68881,0.15984 0.14456,0.23192 0.07613,0.53694 -0.15365,0.68488 L 9.78223,75.604 c -0.07997,0.05085 -0.17281,0.07779 -0.26758,0.07764 z"
   id="path124" />
			<path
   fill="#afafaf"
   d="m 11.84668,78.72607 c -0.27602,2.8e-4 -0.5,-0.22324 -0.50029,-0.49925 -1.5e-4,-0.14408 0.06189,-0.28122 0.17021,-0.37623 l 1.55469,-1.36621 c 0.20738,-0.1823 0.52328,-0.16196 0.70558,0.04542 0.1823,0.20738 0.16196,0.52328 -0.04542,0.70558 l -1.55469,1.36621 c -0.09116,0.08037 -0.20855,0.12464 -0.33008,0.12448 z"
   id="path126" />
			<path
   fill="#afafaf"
   d="m 14.62012,81.32471 c -0.11414,2.8e-4 -0.22488,-0.03887 -0.31348,-0.11084 -0.21489,-0.17329 -0.24897,-0.48784 -0.07617,-0.70313 l 1.29883,-1.61083 c 0.17413,-0.2146 0.48927,-0.24741 0.70387,-0.07327 0.21357,0.17329 0.24725,0.48646 0.07542,0.7012 l -1.29882,1.61084 c -0.09512,0.11767 -0.23834,0.18605 -0.38965,0.18603 z"
   id="path128" />
			<path
   fill="#afafaf"
   d="m 17.80957,83.37744 c -0.27595,3.3e-4 -0.49991,-0.22311 -0.50024,-0.49906 -10e-5,-0.08224 0.02011,-0.16324 0.05883,-0.2358 l 0.97266,-1.82617 c 0.12895,-0.24419 0.43144,-0.33759 0.67562,-0.20864 0.24418,0.12896 0.33759,0.43144 0.20864,0.67563 -4.8e-4,9.1e-4 -9.7e-4,0.0018 -0.0014,0.0027 L 18.251,83.1123 c -0.08672,0.16328 -0.25655,0.26529 -0.44143,0.26514 z"
   id="path130" />
		</g>
		<path
   fill="#afafaf"
   d="m 41.30664,81.31641 c -0.27605,2.7e-4 -0.50005,-0.2233 -0.50032,-0.49936 -1.7e-4,-0.17973 0.09617,-0.34573 0.25232,-0.43473 C 51.77495,74.27507 55.51133,60.63688 49.40408,49.92058 43.29683,39.20428 29.65864,35.46789 18.94234,41.57514 8.22604,47.68239 4.48965,61.32057 10.5969,72.03688 c 1.97373,3.46328 4.83843,6.33518 8.29674,8.3176 0.23947,0.13752 0.32211,0.44312 0.1846,0.68259 -0.13752,0.23946 -0.44313,0.32211 -0.68259,0.18459 v 0 C 7.21622,74.81251 3.34915,60.55416 9.7583,49.37473 16.16745,38.1953 30.4258,34.32823 41.60523,40.73737 c 11.17943,6.40914 15.0465,20.6675 8.63736,31.84693 -2.07083,3.61212 -5.07048,6.60432 -8.68775,8.66616 -0.0755,0.04346 -0.16111,0.06621 -0.2482,0.06595 z"
   id="path134" />
	</g><path
   fill="#afafaf"
   d="m 6.13366,6.2e-4 h 47.73268 v 0 5.40259 c 0,3.91436 -3.17322,7.08758 -7.08758,7.08758 v 0 H 13.22124 c -3.91436,0 -7.08758,-3.17322 -7.08758,-7.08758 v 0 z"
   id="path196" /><g
   id="g260">
		<g
   id="g246">
			<g
   id="g202">
				<path
   fill="#cc4c4c"
   d="M 12.51363,372.71753 H 11.15728 L 9.76189,370.39999 H 9.74628 v 2.3175 H 8.62607 v -5.74792 h 1.51736 c 1.13582,0 1.92036,0.50299 1.92036,1.73056 0.0558,0.74802 -0.44288,1.42474 -1.17388,1.59299 z m -2.76735,-3.10254 h 0.14539 c 0.61768,0 1.05191,-0.18301 1.05191,-0.88455 0,-0.70892 -0.44984,-0.84601 -1.0441,-0.84601 h -0.1532 z"
   id="path198" />
				<path
   fill="#cc4c4c"
   d="m 12.51367,372.918 h -1.35644 c -0.07009,-9e-5 -0.13497,-0.037 -0.1709,-0.0972 l -1.04,-1.72705 v 1.62399 c -1.5e-4,0.1105 -0.0897,0.20004 -0.2002,0.2002 H 8.626 c -0.1105,-1.5e-4 -0.20005,-0.0897 -0.2002,-0.2002 v -5.74799 c 1.6e-4,-0.1105 0.0897,-0.20004 0.2002,-0.2002 h 1.51757 c 1.36719,0 2.12012,0.68555 2.12012,1.93066 0.03289,0.73264 -0.38422,1.41132 -1.05273,1.71289 l 1.46875,2.19336 c 0.0617,0.0915 0.03756,0.21567 -0.05392,0.27737 -0.03311,0.0223 -0.07215,0.0342 -0.11208,0.0341 z m -1.24316,-0.40039 h 0.86816 l -1.415,-2.11328 c -0.03816,-0.0562 -0.0448,-0.12814 -0.01758,-0.19043 0.02702,-0.0622 0.08356,-0.10663 0.1504,-0.11816 0.63109,-0.15729 1.05657,-0.74701 1.00683,-1.39551 0,-1.01563 -0.57812,-1.53027 -1.71973,-1.53027 H 8.82617 v 5.34766 H 9.5459 v -2.11771 c 1.5e-4,-0.1105 0.08969,-0.20004 0.20019,-0.2002 0.07436,-2.1e-4 0.14408,0.0361 0.18653,0.0972 z M 9.8916,369.81543 H 9.74609 c -0.1105,-1.5e-4 -0.20004,-0.0897 -0.20019,-0.2002 v -1.73099 c 1.5e-4,-0.1105 0.08969,-0.20004 0.20019,-0.2002 h 0.15332 c 0.33985,0 1.24414,0 1.24414,1.04639 0.02367,0.58487 -0.43127,1.07816 -1.01613,1.10184 -0.07899,0.003 -0.15809,-0.002 -0.23582,-0.0168 z m 0.05469,-1.73099 v 1.33008 c 0.58008,-0.0107 0.79687,-0.19971 0.79687,-0.68408 0,-0.47116 -0.20216,-0.63766 -0.79687,-0.64597 z"
   id="path200" />
			</g>
			<g
   id="g208">
				<path
   fill="#cc4c4c"
   d="m 15.521,367.9454 v 1.26511 h 1.78375 v 0.9758 H 15.521 v 1.55542 h 1.853 v 0.9758 h -2.97318 v -5.74792 h 2.97324 v 0.9758 H 15.521 Z"
   id="path204" />
				<path
   fill="#cc4c4c"
   d="m 17.374,372.918 h -2.97361 c -0.1105,-1.5e-4 -0.20004,-0.0897 -0.20019,-0.2002 v -5.74799 c 1.5e-4,-0.1105 0.08969,-0.20004 0.20019,-0.2002 H 17.374 c 0.1105,1.5e-4 0.20005,0.0897 0.2002,0.2002 v 0.97559 c -1.5e-4,0.1105 -0.08969,0.20004 -0.2002,0.2002 h -1.65232 v 0.86475 h 1.583 c 0.1105,1.5e-4 0.20004,0.0897 0.20019,0.2002 v 0.97607 c -1.4e-4,0.1105 -0.08969,0.20004 -0.20019,0.2002 h -1.583 v 1.15479 H 17.374 c 0.1105,1.5e-4 0.20005,0.0897 0.2002,0.2002 v 0.97607 c -1.9e-4,0.11046 -0.08972,0.19997 -0.2002,0.20012 z m -2.77343,-0.40039 h 2.57324 v -0.57568 h -1.65233 c -0.1105,-1.5e-4 -0.20004,-0.0897 -0.20019,-0.2002 v -1.55518 c 1.5e-4,-0.1105 0.08969,-0.20004 0.20019,-0.2002 h 1.583 v -0.57568 h -1.583 c -0.1105,-1.5e-4 -0.20004,-0.0897 -0.20019,-0.2002 v -1.26514 c 1.5e-4,-0.1105 0.08969,-0.20004 0.20019,-0.2002 h 1.65235 v -0.5752 h -2.57324 z"
   id="path206" />
			</g>
			<g
   id="g214">
				<path
   fill="#d8bb44"
   d="m 20.763,372.71753 h -1.12022 v -5.74792 H 21.167 c 1.20511,0 1.98965,0.4801 1.98965,1.78375 0.11013,0.89337 -0.5248,1.70688 -1.41817,1.81699 -0.13896,0.0171 -0.27954,0.0163 -0.41828,-0.002 H 20.763 Z m 0,-3.07962 h 0.22932 c 0.66256,0 1.02165,-0.1449 1.02165,-0.89236 0,-0.73917 -0.4274,-0.84601 -1.05288,-0.84601 H 20.763 Z"
   id="path210" />
				<path
   fill="#d8bb44"
   d="m 20.7627,372.86768 h -1.12012 c -0.08284,2.1e-4 -0.15018,-0.0668 -0.15039,-0.1496 0,-1.2e-4 0,-2.1e-4 0,-3.1e-4 v -5.74799 c 5e-5,-0.0829 0.06726,-0.14996 0.1501,-0.1499 10e-5,0 2e-4,0 2.9e-4,0 H 21.167 c 1.41992,0 2.13965,0.65039 2.13965,1.93359 0.10779,0.97836 -0.59793,1.85886 -1.57628,1.96664 -0.13631,0.015 -0.27391,0.0143 -0.41005,-0.002 H 20.9131 v 2 c -9e-5,0.0829 -0.06732,0.14993 -0.15016,0.14984 -8e-5,2e-5 -1.6e-4,2e-5 -2.4e-4,2e-5 z m -0.96973,-0.29981 h 0.81933 v -2 c 5e-5,-0.0829 0.06726,-0.14996 0.1501,-0.1499 10e-5,0 2e-4,0 3e-4,0 h 0.55761 c 0.81132,0.11816 1.56482,-0.44376 1.68298,-1.25507 0.01977,-0.13574 0.02063,-0.27353 0.0026,-0.40948 0,-1.11475 -0.584,-1.63379 -1.83887,-1.63379 H 19.793 Z m 1.19922,-2.78027 H 20.7627 c -0.08284,2.1e-4 -0.15018,-0.0667 -0.1504,-0.1496 0,-9e-5 0,-2.1e-4 0,-3.1e-4 v -1.73828 c 5e-5,-0.0829 0.06726,-0.14996 0.1501,-0.1499 10e-5,0 2e-4,0 3e-4,0 h 0.19824 c 0.582,0 1.20312,0.0767 1.20312,0.99609 0,0.86475 -0.46875,1.042 -1.17187,1.042 z m -0.0791,-0.29981 h 0.0791 c 0.61426,0 0.87109,-0.103 0.87109,-0.74219 0,-0.5957 -0.27832,-0.69629 -0.90234,-0.69629 h -0.04785 z"
   id="path212" />
			</g>
			<g
   id="g220">
				<path
   fill="#d8bb44"
   d="m 26.30941,367.9454 v 1.26511 h 1.78375 v 0.9758 h -1.78375 v 1.55542 h 1.853 v 0.9758 H 25.1892 v -5.74792 h 2.97324 v 0.9758 h -1.85303 z"
   id="path216" />
				<path
   fill="#d8bb44"
   d="m 28.16211,372.86768 h -2.97266 c -0.08284,2.1e-4 -0.15018,-0.0668 -0.15039,-0.1496 0,-1.2e-4 0,-2.1e-4 0,-3.1e-4 v -5.74799 c 5e-5,-0.0829 0.06726,-0.14996 0.1501,-0.1499 10e-5,0 2e-4,0 2.9e-4,0 h 2.97266 c 0.08284,-2.1e-4 0.15018,0.0668 0.15039,0.1496 0,1.2e-4 0,2.1e-4 0,3.1e-4 v 0.97559 c -5e-5,0.0829 -0.06726,0.14996 -0.1501,0.1499 -1e-4,0 -2e-4,0 -2.9e-4,0 H 26.46 v 0.96533 h 1.63281 c 0.08284,-2.1e-4 0.15018,0.0668 0.15039,0.1496 0,1.2e-4 0,2.1e-4 0,3.1e-4 v 0.97607 c -5e-5,0.0829 -0.06726,0.14996 -0.1501,0.1499 -10e-5,0 -2e-4,0 -2.9e-4,0 H 26.46 v 1.25537 h 1.70215 c 0.08284,-2.1e-4 0.15018,0.0668 0.15039,0.1496 0,1.2e-4 0,2.1e-4 0,3.1e-4 v 0.97607 c -9e-5,0.0829 -0.06732,0.14993 -0.15016,0.14984 -9e-5,0 -1.8e-4,0 -2.7e-4,0 z m -2.82227,-0.29981 h 2.67188 v -0.67627 h -1.70215 c -0.08284,2.1e-4 -0.15018,-0.0668 -0.15039,-0.1496 0,-1.2e-4 0,-2.1e-4 0,-3.1e-4 v -1.55518 c 5e-5,-0.0829 0.06726,-0.14996 0.1501,-0.1499 10e-5,0 2e-4,0 2.9e-4,0 h 1.63281 v -0.67627 h -1.63281 c -0.08284,2.1e-4 -0.15018,-0.0668 -0.15039,-0.1496 0,-1.2e-4 0,-2.1e-4 0,-3.1e-4 v -1.26514 c 5e-5,-0.0829 0.06726,-0.14996 0.1501,-0.1499 10e-5,0 2e-4,0 2.9e-4,0 h 1.70215 v -0.67578 h -2.67188 z"
   id="path218" />
			</g>
			<g
   id="g226">
				<path
   fill="#10a687"
   d="M 31.55138,371.74173 H 33.137 v 0.9758 h -2.70584 v -5.74792 h 1.12022 z"
   id="path222" />
				<path
   fill="#10a687"
   d="m 33.13672,372.86768 h -2.70508 c -0.08284,2.1e-4 -0.15018,-0.0668 -0.15039,-0.1496 0,-1.2e-4 0,-2.1e-4 0,-3.1e-4 v -5.74799 c 5e-5,-0.0829 0.06726,-0.14996 0.1501,-0.1499 1e-4,0 2e-4,0 2.9e-4,0 h 1.12012 c 0.08284,-2.1e-4 0.15018,0.0668 0.15039,0.1496 0,1.2e-4 0,2.1e-4 0,3.1e-4 v 4.62207 h 1.43457 c 0.08284,-2.1e-4 0.15017,0.0668 0.15039,0.1496 0,1.2e-4 0,2.1e-4 0,3.1e-4 v 0.97607 c -9e-5,0.0829 -0.06731,0.14993 -0.15016,0.14984 -7e-5,0 -1.5e-4,0 -2.3e-4,0 z m -2.55469,-0.29981 h 2.4043 v -0.67627 h -1.43457 c -0.08284,2.1e-4 -0.15018,-0.0668 -0.15039,-0.1496 0,-1.2e-4 0,-2.1e-4 0,-3.1e-4 v -4.62207 H 30.582 Z"
   id="path224" />
			</g>
			<g
   id="g232">
				<path
   fill="#10a687"
   d="m 38.81519,371.74173 v 0.9758 h -4.17055 l 2.53121,-4.77213 H 35.033 v -0.9758 h 3.9188 l -2.52341,4.77213 z"
   id="path228" />
				<path
   fill="#10a687"
   d="m 38.81543,372.86768 h -4.1709 c -0.05276,9e-5 -0.1017,-0.0275 -0.1289,-0.0727 -0.02661,-0.0452 -0.02809,-0.10092 -0.0039,-0.14746 l 2.415,-4.55225 H 35.0332 c -0.08284,2.1e-4 -0.15017,-0.0668 -0.15039,-0.1496 0,-1.2e-4 0,-2.1e-4 0,-3.1e-4 v -0.97559 c 5e-5,-0.0829 0.06725,-0.14996 0.1501,-0.1499 10e-5,0 1.9e-4,0 2.9e-4,0 h 3.919 c 0.05264,-6e-5 0.10149,0.0273 0.1289,0.0723 0.02661,0.0454 0.02809,0.10123 0.0039,0.14795 l -2.40723,4.55176 h 2.1377 c 0.08284,-2.1e-4 0.15017,0.0668 0.15039,0.1496 0,1.2e-4 0,2.1e-4 0,3.1e-4 v 0.97607 c -5e-5,0.0829 -0.06725,0.14996 -0.1501,0.1499 -1.2e-4,0 -2.3e-4,0 -3.4e-4,0 z m -3.92188,-0.29981 H 38.665 v -0.67627 h -2.23629 c -0.05264,6e-5 -0.1015,-0.0273 -0.12891,-0.0723 -0.02663,-0.0454 -0.0281,-0.10129 -0.0039,-0.14801 l 2.40723,-4.55176 h -3.51954 v 0.67578 h 1.99219 c 0.05277,-9e-5 0.10171,0.0275 0.12891,0.0727 0.0266,0.0452 0.02807,0.10092 0.0039,0.14746 z"
   id="path230" />
			</g>
			<g
   id="g238">
				<path
   fill="#098eb7"
   d="m 42.04311,367.9454 v 1.26511 h 1.78376 v 0.9758 h -1.78376 v 1.55542 h 1.853 v 0.9758 H 40.9229 v -5.74792 h 2.97325 v 0.9758 h -1.85304 z"
   id="path234" />
				<path
   fill="#098eb7"
   d="m 43.89648,372.86768 h -2.97363 c -0.08284,2.1e-4 -0.15017,-0.0668 -0.15039,-0.1496 0,-1.2e-4 0,-2.1e-4 0,-3.1e-4 v -5.74799 c 5e-5,-0.0829 0.06725,-0.14996 0.1501,-0.1499 1e-4,0 1.9e-4,0 2.9e-4,0 h 2.97363 c 0.08287,-1.8e-4 0.1502,0.0668 0.1504,0.14969 0,9e-5 0,1.5e-4 0,2.1e-4 v 0.97559 c -5e-5,0.0829 -0.06725,0.14996 -0.1501,0.1499 -10e-5,0 -2e-4,0 -3e-4,0 h -1.70312 v 0.96533 h 1.63379 c 0.08284,-2.1e-4 0.15017,0.0668 0.15039,0.1496 0,1.2e-4 0,2.1e-4 0,3.1e-4 v 0.97607 c -5e-5,0.0829 -0.06725,0.14996 -0.1501,0.1499 -1e-4,0 -1.9e-4,0 -2.9e-4,0 h -1.63379 v 1.25537 h 1.70312 c 0.08284,-2.1e-4 0.15018,0.0668 0.1504,0.1496 0,9e-5 0,2.1e-4 0,3.1e-4 v 0.97607 c -1.1e-4,0.0829 -0.06739,0.14996 -0.15026,0.14984 -5e-5,1e-5 -9e-5,1e-5 -1.4e-4,1e-5 z m -2.82324,-0.29981 h 2.67285 V 371.8916 H 42.043 c -0.08284,2.1e-4 -0.15017,-0.0668 -0.15039,-0.1496 0,-1.2e-4 0,-2.1e-4 0,-3.1e-4 v -1.55518 c 5e-5,-0.0829 0.06725,-0.14996 0.1501,-0.1499 1e-4,0 1.9e-4,0 2.9e-4,0 h 1.63379 v -0.67627 H 42.043 c -0.08284,2.1e-4 -0.15017,-0.0668 -0.15039,-0.1496 0,-1.2e-4 0,-2.1e-4 0,-3.1e-4 v -1.26514 c 5e-5,-0.0829 0.06725,-0.14996 0.1501,-0.1499 1e-4,0 1.9e-4,0 2.9e-4,0 h 1.70312 v -0.67578 h -2.67288 z"
   id="path236" />
			</g>
			<g
   id="g244">
				<path
   fill="#098eb7"
   d="m 46.16487,366.81689 h 0.808 l 3.02691,4.01785 h 0.01464 v -3.86511 h 1.12118 v 5.86209 h -0.80795 l -3.02692,-4.01736 h -0.01561 v 3.90317 h -1.12025 z"
   id="path240" />
				<path
   fill="#098eb7"
   d="m 51.13574,372.98145 h -0.80859 c -0.04715,0 -0.09159,-0.022 -0.12012,-0.0596 l -2.77148,-3.67969 v 3.47559 c -5e-5,0.0829 -0.06725,0.14996 -0.1501,0.1499 -10e-5,0 -1.9e-4,0 -2.9e-4,0 H 46.165 c -0.08284,2.1e-4 -0.15017,-0.0668 -0.15039,-0.1496 0,-1.2e-4 0,-2.1e-4 0,-3.1e-4 v -5.90088 c 5e-5,-0.0829 0.06725,-0.14996 0.1501,-0.1499 1e-4,0 1.9e-4,0 2.9e-4,0 h 0.80762 c 0.04715,-3e-5 0.09159,0.022 0.12011,0.0596 l 2.77149,3.67969 v -3.43652 c 5e-5,-0.0829 0.06725,-0.14996 0.1501,-0.1499 1e-4,0 1.9e-4,0 2.9e-4,0 h 1.12109 c 0.08284,-2.1e-4 0.15017,0.0668 0.15039,0.1496 0,1.2e-4 0,2.1e-4 0,3.1e-4 v 5.86182 c -5e-5,0.0829 -0.06725,0.14996 -0.1501,0.1499 -8e-5,-1e-5 -1.7e-4,-1e-5 -2.5e-4,-1e-5 z m -0.7334,-0.29981 h 0.583 v -5.56201 H 50.165 v 3.71536 c -5e-5,0.0829 -0.06725,0.14996 -0.1501,0.1499 -10e-5,0 -1.9e-4,0 -2.9e-4,0 -0.05135,2.1e-4 -0.10036,-0.0215 -0.13477,-0.0596 l -2.98242,-3.9585 h -0.582 v 5.60107 h 0.81934 v -3.75342 c 5e-5,-0.0829 0.06725,-0.14996 0.1501,-0.1499 10e-5,0 1.9e-4,0 2.9e-4,0 0.05163,-2.1e-4 0.10094,0.0214 0.13574,0.0596 z"
   id="path242" />
			</g>
		</g>
		<g
   id="g252">
			<rect
   x="8.4868898"
   y="364.82104"
   fill="#e6e6e6"
   width="42.887039"
   height="0.89929003"
   id="rect248" />
			<path
   fill="#e6e6e6"
   d="M 51.374,365.87012 H 8.4873 c -0.08284,2.1e-4 -0.15017,-0.0668 -0.15039,-0.1496 0,-1.2e-4 0,-2.1e-4 0,-3.1e-4 v -0.89941 c 5e-5,-0.0829 0.06725,-0.14996 0.1501,-0.1499 10e-5,0 2e-4,0 2.9e-4,0 H 51.374 c 0.08284,-2.1e-4 0.15017,0.0668 0.15039,0.1496 0,1.2e-4 0,2.1e-4 0,3.1e-4 v 0.89941 c -5e-5,0.0829 -0.06725,0.14996 -0.1501,0.1499 -9e-5,0 -1.9e-4,0 -2.9e-4,0 z M 8.6377,365.57031 H 51.22363 V 364.9707 H 8.6377 Z"
   id="path250" />
		</g>
		<g
   id="g258">
			<rect
   x="8.62607"
   y="374.27966"
   fill="#e6e6e6"
   width="42.887039"
   height="0.89929003"
   id="rect254" />
			<path
   fill="#e6e6e6"
   d="M 51.5127,375.3291 H 8.626 c -0.08284,2.1e-4 -0.15017,-0.0668 -0.15039,-0.1496 0,-1.2e-4 0,-2.1e-4 0,-3.1e-4 v -0.89941 c 5e-5,-0.0829 0.06725,-0.14996 0.1501,-0.1499 10e-5,0 2e-4,0 2.9e-4,0 h 42.8867 c 0.08284,-2.1e-4 0.15017,0.0668 0.15039,0.1496 0,1.2e-4 0,2.1e-4 0,3.1e-4 v 0.89941 c -5e-5,0.0829 -0.06725,0.14996 -0.1501,0.1499 -1e-4,0 -1.9e-4,0 -2.9e-4,0 z M 8.77637,375.0293 H 51.3623 v -0.59961 H 8.77637 Z"
   id="path256" />
		</g>
	</g><g
   id="g300">
		<g
   id="g266">
			<path
   fill="#313131"
   d="M 16.11133,8.98633 H 14.75684 L 13.36328,6.67188 H 13.34766 V 8.98633 H 12.22852 V 3.24512 h 1.51562 c 1.13379,0 1.918,0.50293 1.918,1.72851 0.05576,0.7471 -0.44193,1.42314 -1.17188,1.5918 z M 13.34766,5.8877 h 0.14453 c 0.61719,0 1.05078,-0.18262 1.05078,-0.88379 0,-0.708 -0.44922,-0.84473 -1.043,-0.84473 h -0.15234 z"
   id="path262" />
			<path
   fill="#313131"
   d="M 16.11133,9.13623 H 14.75684 C 14.70407,9.13632 14.65513,9.1087 14.62793,9.06348 L 13.49805,7.186 v 1.80033 c -5e-5,0.08284 -0.06726,0.14996 -0.1501,0.1499 -1e-4,0 -1.9e-4,0 -2.9e-4,0 h -1.11914 c -0.08284,2.2e-4 -0.15017,-0.06677 -0.15039,-0.14961 0,-10e-5 0,-1.9e-4 0,-2.9e-4 V 3.24512 c 5e-5,-0.08284 0.06725,-0.14996 0.15009,-0.14991 10e-5,0 2e-4,0 3e-4,0 h 1.51562 c 1.334,0 2.06836,0.667 2.06836,1.87842 0.03605,0.73446 -0.39706,1.41115 -1.0791,1.686 l 1.50293,2.24316 c 0.03043,0.04628 0.03306,0.10551 0.0068,0.1543 -0.0257,0.04894 -0.07655,0.07947 -0.13183,0.07914 z M 14.8418,8.83643 h 0.98828 l -1.46485,-2.1875 c -0.04596,-0.06922 -0.0271,-0.1626 0.04212,-0.20856 0.01737,-0.01153 0.03695,-0.01933 0.05749,-0.02289 0.65433,-0.16165 1.09664,-0.77169 1.04688,-1.44385 0,-1.04736 -0.59473,-1.57861 -1.76758,-1.57861 h -1.36523 v 5.44141 h 0.81836 V 6.67188 c 5e-5,-0.08284 0.06725,-0.14996 0.15009,-0.14991 10e-5,0 2e-4,0 3e-4,0 0.05707,-3.7e-4 0.11084,0.0267 0.14453,0.07276 z M 13.49219,6.0376 h -0.14453 c -0.08284,2.2e-4 -0.15017,-0.06677 -0.15039,-0.14961 0,-1e-4 0,-1.9e-4 0,-2.9e-4 V 4.15918 c 6e-5,-0.08284 0.06726,-0.14996 0.1501,-0.1499 10e-5,0 1.9e-4,0 2.9e-4,0 H 13.5 c 0.55566,0 1.19336,0.11279 1.19336,0.99463 0,1.03369 -0.9043,1.03369 -1.20117,1.03369 z m 0.0059,-1.72852 v 1.42871 c 0.64355,-0.00146 0.89453,-0.20752 0.89453,-0.73388 0,-0.5127 -0.2334,-0.69483 -0.89258,-0.69483 z"
   id="path264" />
		</g>
		<g
   id="g272">
			<path
   fill="#313131"
   d="m 19.12305,4.21973 v 1.26465 h 1.78222 V 6.459 h -1.78222 v 1.55272 h 1.85058 V 8.98633 H 18.00391 V 3.24512 h 2.96972 v 0.97461 z"
   id="path268" />
			<path
   fill="#313131"
   d="m 20.97363,9.13623 h -2.96972 c -0.08284,2.2e-4 -0.15018,-0.06677 -0.15039,-0.14961 0,-10e-5 0,-1.9e-4 0,-2.9e-4 V 3.24512 c 5e-5,-0.08284 0.06725,-0.14996 0.15009,-0.14991 1e-4,0 2e-4,0 3e-4,0 h 2.96972 c 0.08284,-2.2e-4 0.15018,0.06677 0.15039,0.14961 0,1e-4 0,2e-4 0,3e-4 v 0.97461 c -6e-5,0.08284 -0.06726,0.14996 -0.1501,0.1499 -10e-5,0 -1.9e-4,0 -2.9e-4,0 h -1.70019 v 0.96484 h 1.63183 c 0.08284,-2.2e-4 0.15018,0.06677 0.15039,0.14961 0,1e-4 0,2e-4 0,3e-4 V 6.459 c -5e-5,0.08284 -0.06725,0.14996 -0.15009,0.14991 -10e-5,0 -2e-4,0 -3e-4,0 h -1.63183 v 1.25291 h 1.70019 c 0.08284,-2.2e-4 0.15018,0.06677 0.15039,0.14961 0,10e-5 0,1.9e-4 0,2.9e-4 v 0.97461 c -6e-5,0.08284 -0.06726,0.14995 -0.1501,0.1499 -10e-5,0 -1.9e-4,0 -2.9e-4,0 z M 18.1543,8.83643 h 2.66894 V 8.16162 h -1.70019 c -0.08284,2.2e-4 -0.15018,-0.06677 -0.15039,-0.14961 0,-10e-5 0,-1.9e-4 0,-2.9e-4 V 6.459 c 6e-5,-0.08284 0.06726,-0.14996 0.1501,-0.1499 10e-5,0 1.9e-4,0 2.9e-4,0 h 1.63183 V 5.6343 h -1.63183 c -0.08284,2.2e-4 -0.15018,-0.06677 -0.15039,-0.14961 0,-10e-5 0,-1.9e-4 0,-2.9e-4 V 4.21973 c 5e-5,-0.08284 0.06725,-0.14996 0.15009,-0.14991 10e-5,0 2e-4,0 3e-4,0 h 1.70019 V 3.395 H 18.1543 Z"
   id="path270" />
		</g>
		<g
   id="g278">
			<path
   fill="#313131"
   d="M 29.11035,8.98633 H 27.99121 V 4.21973 H 26.834 V 3.24512 h 3.4336 v 0.97461 h -1.15725 z"
   id="path274" />
			<path
   fill="#313131"
   d="m 29.11035,9.13623 h -1.11914 c -0.08284,2.2e-4 -0.15018,-0.06677 -0.15039,-0.14961 0,-10e-5 0,-1.9e-4 0,-2.9e-4 V 4.36963 H 26.834 c -0.08284,2.2e-4 -0.15018,-0.06677 -0.15039,-0.14961 0,-10e-5 0,-1.9e-4 0,-2.9e-4 V 3.24512 c 5e-5,-0.08284 0.06725,-0.14996 0.15009,-0.14991 10e-5,0 2e-4,0 3e-4,0 h 3.4336 c 0.08284,-2.2e-4 0.15018,0.06677 0.15039,0.14961 0,1e-4 0,2e-4 0,3e-4 v 0.97461 c -6e-5,0.08284 -0.06726,0.14996 -0.1501,0.1499 -10e-5,0 -1.9e-4,0 -2.9e-4,0 h -1.00686 v 4.6167 c -6e-5,0.08284 -0.06726,0.14996 -0.1501,0.1499 -10e-5,0 -1.9e-4,0 -2.9e-4,0 z M 28.1416,8.83643 H 28.96 v -4.6167 c 5e-5,-0.08284 0.06725,-0.14996 0.15009,-0.14991 10e-5,0 2e-4,0 3e-4,0 h 1.00684 V 3.395 h -3.13285 v 0.6748 h 1.00683 c 0.08284,-2.2e-4 0.15018,0.06677 0.15039,0.14961 0,10e-5 0,2e-4 0,3e-4 z"
   id="path276" />
		</g>
		<g
   id="g284">
			<path
   fill="#313131"
   d="M 36.08789,8.98633 H 34.7334 L 33.33984,6.67188 H 33.32422 V 8.98633 H 32.20508 V 3.24512 h 1.51562 c 1.13379,0 1.918,0.50293 1.918,1.72851 0.05576,0.7471 -0.44193,1.42313 -1.17187,1.5918 z M 33.32422,5.8877 h 0.14453 c 0.61719,0 1.05078,-0.18262 1.05078,-0.88379 0,-0.708 -0.44922,-0.84473 -1.043,-0.84473 h -0.15234 z"
   id="path280" />
			<path
   fill="#313131"
   d="M 36.08789,9.13623 H 34.7334 C 34.68063,9.13632 34.63169,9.1087 34.60449,9.06348 L 33.47461,7.186 v 1.80033 c -5e-5,0.08284 -0.06726,0.14996 -0.1501,0.1499 -10e-5,0 -1.9e-4,0 -2.9e-4,0 h -1.11914 c -0.08284,2.2e-4 -0.15017,-0.06677 -0.15039,-0.14961 0,-10e-5 0,-1.9e-4 0,-2.9e-4 V 3.24512 c 5e-5,-0.08284 0.06725,-0.14996 0.15009,-0.14991 1e-4,0 2e-4,0 3e-4,0 h 1.51562 c 1.334,0 2.06836,0.667 2.06836,1.87842 0.03605,0.73446 -0.39706,1.41115 -1.0791,1.686 l 1.50293,2.24316 c 0.03043,0.04628 0.03306,0.10551 0.0068,0.1543 -0.02571,0.04894 -0.07656,0.07946 -0.13184,0.07914 z m -1.26953,-0.2998 h 0.98828 L 34.3418,6.64893 c -0.04596,-0.06921 -0.02711,-0.16258 0.0421,-0.20855 0.01738,-0.01154 0.03696,-0.01934 0.05751,-0.0229 0.65432,-0.16166 1.09663,-0.77169 1.04687,-1.44385 0,-1.04736 -0.59473,-1.57861 -1.76758,-1.57861 h -1.36523 v 5.44141 h 0.81836 V 6.67188 c 5e-5,-0.08284 0.06725,-0.14996 0.15009,-0.14991 10e-5,0 2e-4,0 3e-4,0 0.05707,-3.7e-4 0.11084,0.0267 0.14453,0.07276 z M 33.46875,6.0376 h -0.14453 c -0.08284,2.2e-4 -0.15017,-0.06677 -0.15039,-0.14961 0,-1e-4 0,-1.9e-4 0,-2.9e-4 V 4.15918 c 6e-5,-0.08284 0.06726,-0.14996 0.1501,-0.1499 1e-4,0 1.9e-4,0 2.9e-4,0 h 0.15234 c 0.55567,0 1.19336,0.11279 1.19336,0.99463 0,1.03369 -0.90429,1.03369 -1.20117,1.03369 z m 0.0059,-1.72852 v 1.42871 c 0.64355,-0.00146 0.89453,-0.20752 0.89453,-0.73388 0,-0.5127 -0.2334,-0.69483 -0.89258,-0.69483 z"
   id="path282" />
		</g>
		<g
   id="g290">
			<path
   fill="#313131"
   d="M 39.09961,8.98633 H 37.98047 V 3.24512 h 1.11914 z"
   id="path286" />
			<path
   fill="#313131"
   d="m 39.09961,9.13623 h -1.11914 c -0.08284,2.2e-4 -0.15017,-0.06677 -0.15039,-0.14961 0,-10e-5 0,-1.9e-4 0,-2.9e-4 V 3.24512 c 5e-5,-0.08284 0.06725,-0.14996 0.15009,-0.14991 10e-5,0 2e-4,0 3e-4,0 h 1.11914 c 0.08284,-2.2e-4 0.15017,0.06677 0.15039,0.14961 0,1e-4 0,2e-4 0,3e-4 v 5.74121 c -5e-5,0.08284 -0.06726,0.14996 -0.1501,0.1499 -10e-5,0 -2e-4,0 -2.9e-4,0 z m -0.96875,-0.2998 h 0.81836 V 3.395 h -0.81836 z"
   id="path288" />
		</g>
		<g
   id="g296">
			<path
   fill="#313131"
   d="m 46.51074,5.93359 v 0.14454 c 0,1.62207 -0.83008,3.06054 -2.6123,3.06054 -1.55371,-0.04122 -2.77983,-1.33416 -2.73861,-2.88787 9.9e-4,-0.03741 0.0027,-0.07479 0.0052,-0.11213 -0.10595,-1.57288 1.08323,-2.93385 2.65611,-3.0398 0.04881,-0.00329 0.0977,-0.00532 0.14662,-0.0061 0.95774,-0.02027 1.84126,0.51372 2.26856,1.3711 l -0.99024,0.5332 C 45.02994,4.45926 44.51588,4.10045 43.93652,4.083 c -1.08105,0 -1.61425,1.10449 -1.61425,2.05566 -0.11299,0.99616 0.60297,1.8953 1.59912,2.00829 0.0076,8.7e-4 0.01529,0.00169 0.02295,0.00245 0.71091,-0.02293 1.28292,-0.59195 1.30957,-1.30273 H 44.03613 V 5.93359 Z"
   id="path292" />
			<path
   fill="#313131"
   d="M 43.89844,9.28857 C 42.26456,9.25034 40.97103,7.89483 41.00926,6.26095 c 9.5e-4,-0.04079 0.0027,-0.08156 0.0054,-0.12228 -0.10075,-1.66147 1.16446,-3.09003 2.82593,-3.19078 0.04236,-0.00257 0.08477,-0.00424 0.12719,-0.00502 1.01412,-0.01936 1.94895,0.54629 2.40235,1.45361 0.03687,0.07235 0.0091,0.1609 -0.0625,0.19922 L 45.31738,5.12891 C 45.28059,5.14923 45.23686,5.15279 45.19727,5.13867 45.15781,5.12494 45.1257,5.09565 45.1084,5.05762 44.91538,4.57505 44.45593,4.2517 43.93652,4.23291 c -0.95117,0 -1.46386,0.98193 -1.46386,1.90576 0,0.90186 0.51562,1.86084 1.47168,1.86084 0.57161,-0.01924 1.0504,-0.43879 1.14453,-1.00293 h -1.05275 c -0.08284,2.2e-4 -0.15017,-0.06677 -0.15039,-0.14961 0,-10e-5 0,-1.9e-4 0,-2.9e-4 V 5.93359 c 5e-5,-0.08284 0.06726,-0.14996 0.1501,-0.1499 1e-4,0 1.9e-4,0 2.9e-4,0 h 2.47461 c 0.08284,-2.2e-4 0.15017,0.06677 0.15039,0.14961 0,10e-5 0,1.9e-4 0,2.9e-4 v 0.14454 c 1e-5,1.95019 -1.08495,3.21044 -2.76268,3.21044 z m 0.06933,-6.04589 c -1.4915,0.02292 -2.68202,1.2506 -2.6591,2.7421 7.9e-4,0.05135 0.003,0.10267 0.0068,0.1539 -0.09591,1.47587 1.02278,2.75005 2.49865,2.84595 0.02809,0.00183 0.05621,0.00321 0.08435,0.00415 1.81543,0 2.46094,-1.56348 2.46191,-2.90527 h -2.17382 v 0.61328 h 1.06739 c 0.04047,2e-5 0.07921,0.0164 0.10742,0.04541 0.02836,0.02925 0.04384,0.06863 0.043,0.10937 -0.03198,0.79066 -0.66909,1.42244 -1.46,1.44776 -1.08092,-0.10089 -1.8754,-1.05893 -1.77451,-2.13985 6.5e-4,-0.00694 0.0013,-0.01387 0.002,-0.0208 -0.12346,-1.09422 0.66351,-2.08134 1.75773,-2.20479 0.0023,-2.6e-4 0.0046,-5.2e-4 0.0069,-7.7e-4 0.58048,0.0143 1.10725,0.34315 1.375,0.85839 l 0.7217,-0.38867 C 45.60601,3.67022 44.81567,3.22629 43.96777,3.24268 Z"
   id="path294" />
		</g>
		<circle
   fill="#cc4c4c"
   cx="23.92622"
   cy="5.8877001"
   r="1.15602"
   id="circle298" />
	</g>
<g
   id="g8686"
   transform="translate(20)"
   style="fill:#afafaf;fill-opacity:1"><g
     aria-label="cv"
     id="text3173"
     style="font-weight:500;font-size:11.3333px;line-height:1.25;font-family:'Futura PT';-inkscape-font-specification:'Futura PT, Medium'"><path
       d="m -6.1772698,171.56675 c -0.3966654,-0.19266 -0.8159975,-0.29466 -1.325996,-0.29466 -0.4759986,0 -1.1673299,0.102 -1.7679948,0.63466 -0.4986651,0.442 -0.8499974,1.13333 -0.8499974,1.99466 0,0.918 0.4079988,1.53 0.7819976,1.88133 0.4419987,0.41933 1.1219967,0.714 1.8926611,0.714 0.566665,0 0.9973303,-0.17 1.2693295,-0.306 v -1.34866 c -0.3739988,0.34 -0.7819976,0.43066 -1.0879967,0.43066 -0.8273309,0 -1.4279958,-0.58933 -1.4279958,-1.39399 0,-0.714 0.4646653,-1.38266 1.3826626,-1.38266 0.4759986,0 0.8386641,0.15866 1.1333299,0.43066 z"
       id="path21726" /><path
       d="m -5.6559652,171.43075 2.4706593,4.90732 h 0.7253312 l 2.47065934,-4.90732 H -1.5306441 l -1.2919962,2.76533 -1.2919961,-2.76533 z"
       id="path21728" /></g><g
     aria-label="in"
     id="text4804"
     style="font-weight:500;font-size:11.3333px;line-height:1.25;font-family:'Futura PT';-inkscape-font-specification:'Futura PT, Medium'"><path
       d="m -8.8851872,180.82323 v 4.90732 h 1.3826625 v -4.90732 z m -0.1359996,-2.074 c 0,0.45333 0.3739989,0.82733 0.8273308,0.82733 0.453332,0 0.8273309,-0.374 0.8273309,-0.82733 0,-0.45333 -0.3739989,-0.82733 -0.8273309,-0.82733 -0.4533319,0 -0.8273308,0.374 -0.8273308,0.82733 z"
       id="path21731" /><path
       d="m -6.1878737,185.73055 h 1.3826626 v -2.50466 c 0,-0.28334 0.011333,-0.63467 0.2153327,-0.952 0.2039994,-0.306 0.4873318,-0.43067 0.8499974,-0.43067 0.1359996,0 0.4306654,0.0227 0.6459981,0.24934 0.2493326,0.26066 0.2606659,0.69133 0.2606659,0.96333 v 2.67466 h 1.3826626 v -3.08266 c 0,-0.476 -0.045333,-0.96333 -0.3853322,-1.38267 -0.3853322,-0.47599 -1.019997,-0.60066 -1.4506624,-0.60066 -0.793331,0 -1.2579962,0.43067 -1.5186621,0.79333 v -0.63466 h -1.3826626 z"
       id="path21733" /></g></g><g
   id="g9784"
   style="fill:#313131;fill-opacity:1"><g
     aria-label="trg"
     id="text5744"
     style="font-weight:500;font-size:11.3333px;line-height:1.25;font-family:'Futura PT';-inkscape-font-specification:'Futura PT, Medium'"><path
       d="m 41.53771,172.60942 v -1.17867 h -0.951997 v -1.67732 h -1.382662 v 1.67732 h -0.543999 v 1.17867 h 0.543999 v 3.72865 h 1.382662 v -3.72865 z"
       id="path21736" /><path
       d="m 42.263025,176.33807 h 1.382663 v -2.35732 c 0,-0.34 0.01133,-0.75933 0.271999,-1.088 0.271999,-0.34 0.657331,-0.39666 0.917997,-0.39666 0.283332,0 0.464665,0.0567 0.645998,0.18133 l 0.181333,-1.292 c -0.158666,-0.0567 -0.351332,-0.11333 -0.589332,-0.11333 -0.328665,0 -0.600665,0.0793 -0.815997,0.21533 -0.102,0.0567 -0.396666,0.26067 -0.611998,0.68 v -0.73667 h -1.382663 z"
       id="path21738" /><path
       d="m 49.958303,172.06542 c -0.192666,-0.29467 -0.623332,-0.79333 -1.541329,-0.79333 -0.657331,0 -1.257996,0.238 -1.688661,0.65733 -0.475999,0.46467 -0.759332,1.17866 -0.759332,1.94933 0,0.95199 0.419333,1.58666 0.781998,1.94933 0.475999,0.46466 1.042664,0.66866 1.699995,0.66866 0.373999,0 1.03133,-0.0907 1.507329,-0.816 v 0.69133 c 0,0.39667 -0.034,0.782 -0.351332,1.088 -0.181333,0.17 -0.441999,0.306 -0.838664,0.306 -0.192667,0 -0.566665,-0.0113 -0.838665,-0.26067 -0.158666,-0.136 -0.283332,-0.36266 -0.339999,-0.58933 h -1.495995 c 0.113333,0.55533 0.407999,1.13333 0.793331,1.462 0.317332,0.28333 0.883997,0.56666 1.835994,0.56666 1.008664,0 1.597996,-0.35133 1.937995,-0.69133 0.611998,-0.612 0.679998,-1.39399 0.679998,-2.14199 v -4.68066 h -1.382663 z m -1.20133,0.43067 c 0.373999,0 0.691331,0.11333 0.963331,0.39666 0.192666,0.204 0.396665,0.52133 0.396665,0.986 0,0.39666 -0.158666,0.79333 -0.441999,1.05399 -0.237999,0.21534 -0.577998,0.34 -0.917997,0.34 -0.328665,0 -0.702664,-0.11333 -0.99733,-0.43066 -0.204,-0.21533 -0.362666,-0.53267 -0.362666,-0.96333 0,-0.51 0.215333,-0.83867 0.441999,-1.04267 0.169999,-0.15866 0.475999,-0.33999 0.917997,-0.33999 z"
       id="path21740" /></g><g
     aria-label="out"
     id="text7032"
     style="font-weight:500;font-size:11.3333px;line-height:1.25;font-family:'Futura PT';-inkscape-font-specification:'Futura PT, Medium'"><path
       d="m 40.262702,180.66456 c -0.929331,0 -1.563996,0.306 -1.983328,0.69133 -0.487332,0.442 -0.827331,1.122 -0.827331,1.92666 0,0.79333 0.339999,1.47333 0.827331,1.91533 0.419332,0.38533 1.053997,0.69133 1.983328,0.69133 0.92933,0 1.563995,-0.306 1.983327,-0.69133 0.487332,-0.442 0.827331,-1.122 0.827331,-1.91533 0,-0.80466 -0.339999,-1.48466 -0.827331,-1.92666 -0.419332,-0.38533 -1.053997,-0.69133 -1.983327,-0.69133 z m 0,4.00065 c -0.804665,0 -1.382663,-0.63466 -1.382663,-1.38266 0,-0.77066 0.589332,-1.39399 1.382663,-1.39399 0.793331,0 1.382662,0.62333 1.382662,1.39399 0,0.748 -0.577998,1.38266 -1.382662,1.38266 z"
       id="path21743" /><path
       d="m 44.138678,180.82323 v 3.00332 c 0,0.442 0.05667,1.03133 0.600664,1.50733 0.453332,0.39667 1.178664,0.55533 1.779328,0.55533 0.600665,0 1.325996,-0.15866 1.779328,-0.55533 0.543999,-0.476 0.600665,-1.06533 0.600665,-1.50733 v -3.00332 h -1.382662 v 2.77665 c 0,0.26067 -0.02267,0.612 -0.294666,0.86134 -0.169999,0.14733 -0.441999,0.24933 -0.702665,0.24933 -0.260665,0 -0.532665,-0.102 -0.702664,-0.24933 -0.271999,-0.24934 -0.294666,-0.60067 -0.294666,-0.86134 v -2.77665 z"
       id="path21745" /><path
       d="m 52.547978,182.00189 v -1.17866 H 51.59598 v -1.67733 h -1.382662 v 1.67733 h -0.543999 v 1.17866 h 0.543999 v 3.72866 h 1.382662 v -3.72866 z"
       id="path21747" /></g></g><g
   aria-label="sens."
   id="text14271"
   style="font-weight:500;font-size:11.3333px;line-height:1.25;font-family:'Futura PT';-inkscape-font-specification:'Futura PT, Medium';fill:#afafaf"><path
     d="m 21.618908,143.33253 c -0.623331,-0.476 -1.201329,-0.52133 -1.563995,-0.52133 -0.396666,0 -0.895331,0.0453 -1.280663,0.35133 -0.283332,0.238 -0.509998,0.63466 -0.509998,1.11066 0,0.39667 0.147333,0.70267 0.373999,0.94067 0.294665,0.306 0.702664,0.46466 1.053996,0.58933 l 0.317333,0.11333 c 0.181333,0.068 0.430665,0.19267 0.430665,0.49867 0,0.34 -0.294666,0.53266 -0.679998,0.53266 -0.407999,0 -0.815997,-0.24933 -1.087997,-0.56666 l -0.725331,0.83866 c 0.305999,0.32867 0.883998,0.816 1.903995,0.816 0.600664,0 1.076663,-0.15867 1.473329,-0.52133 0.396665,-0.36267 0.543998,-0.80467 0.543998,-1.24667 0,-0.31733 -0.102,-0.61199 -0.249333,-0.81599 -0.283332,-0.38534 -0.86133,-0.578 -1.246663,-0.70267 l -0.328665,-0.102 c -0.385333,-0.12466 -0.441999,-0.31733 -0.441999,-0.442 0,-0.238 0.203999,-0.39666 0.532665,-0.39666 0.147333,0 0.475999,0.0227 0.804664,0.32866 z"
     id="path21715" /><path
     d="m 26.39022,146.30185 c -0.226666,0.39667 -0.623332,0.646 -1.144664,0.646 -0.532665,0 -0.838664,-0.26066 -0.985997,-0.46466 -0.158666,-0.21534 -0.237999,-0.53267 -0.237999,-0.82733 h 3.671989 v -0.11334 c 0,-0.53266 -0.068,-1.30333 -0.589331,-1.92666 -0.339999,-0.408 -0.917998,-0.80466 -1.915328,-0.80466 -0.589332,0 -1.26933,0.12466 -1.847328,0.69133 -0.351332,0.35133 -0.747998,0.952 -0.747998,1.92666 0,0.77066 0.226666,1.40533 0.770665,1.91533 0.487332,0.46466 1.087996,0.69133 1.881327,0.69133 1.711329,0 2.26666,-1.16733 2.413993,-1.53 z m -2.323327,-1.52999 c 0.113333,-0.65733 0.645998,-0.986 1.155997,-0.986 0.509998,0 1.053997,0.31733 1.16733,0.986 z"
     id="path21717" /><path
     d="m 28.758872,147.87718 h 1.382663 v -2.50466 c 0,-0.28333 0.01133,-0.63466 0.215332,-0.95199 0.204,-0.306 0.487332,-0.43067 0.849998,-0.43067 0.135999,0 0.430665,0.0227 0.645998,0.24933 0.249332,0.26067 0.260666,0.69133 0.260666,0.96333 v 2.67466 h 1.382662 v -3.08266 c 0,-0.47599 -0.04533,-0.96333 -0.385332,-1.38266 -0.385332,-0.476 -1.019997,-0.60066 -1.450662,-0.60066 -0.793331,0 -1.257997,0.43066 -1.518662,0.79333 v -0.63467 h -1.382663 z"
     id="path21719" /><path
     d="m 38.165493,143.33253 c -0.623331,-0.476 -1.201329,-0.52133 -1.563995,-0.52133 -0.396665,0 -0.895331,0.0453 -1.280663,0.35133 -0.283332,0.238 -0.509998,0.63466 -0.509998,1.11066 0,0.39667 0.147333,0.70267 0.373999,0.94067 0.294665,0.306 0.702664,0.46466 1.053996,0.58933 l 0.317333,0.11333 c 0.181333,0.068 0.430665,0.19267 0.430665,0.49867 0,0.34 -0.294666,0.53266 -0.679998,0.53266 -0.407999,0 -0.815997,-0.24933 -1.087997,-0.56666 l -0.725331,0.83866 c 0.305999,0.32867 0.883998,0.816 1.903995,0.816 0.600665,0 1.076663,-0.15867 1.473329,-0.52133 0.396665,-0.36267 0.543998,-0.80467 0.543998,-1.24667 0,-0.31733 -0.102,-0.61199 -0.249333,-0.81599 -0.283332,-0.38534 -0.86133,-0.578 -1.246663,-0.70267 l -0.328665,-0.102 c -0.385332,-0.12466 -0.441999,-0.31733 -0.441999,-0.442 0,-0.238 0.203999,-0.39666 0.532665,-0.39666 0.147333,0 0.475999,0.0227 0.804664,0.32866 z"
     id="path21721" /><path
     d="m 39.276149,147.14052 c 0,0.49866 0.385333,0.88399 0.883998,0.88399 0.498665,0 0.883997,-0.38533 0.883997,-0.88399 0,-0.49867 -0.385332,-0.884 -0.883997,-0.884 -0.498665,0 -0.883998,0.38533 -0.883998,0.884 z"
     id="path21723" /></g><g
   aria-label="samplerate"
   id="text16995"
   style="font-weight:500;font-size:11.3333px;line-height:1.25;font-family:'Futura PT';-inkscape-font-specification:'Futura PT, Medium';fill:#afafaf"><path
     d="M 6.429783,91.599085 C 5.8064515,91.123086 5.2284533,91.077753 4.8657877,91.077753 c -0.3966655,0 -0.8953307,0.04533 -1.2806629,0.351332 -0.2833325,0.237999 -0.5099985,0.634665 -0.5099985,1.110664 0,0.396665 0.1473329,0.702664 0.3739989,0.940663 0.2946658,0.305999 0.7026646,0.464666 1.0539969,0.589332 l 0.3173324,0.113333 c 0.1813328,0.068 0.4306654,0.192666 0.4306654,0.498665 0,0.339999 -0.2946658,0.532665 -0.679998,0.532665 -0.4079988,0 -0.8159976,-0.249332 -1.0879968,-0.566665 l -0.7253312,0.838664 c 0.3059991,0.328666 0.8839974,0.815998 1.9039944,0.815998 0.6006649,0 1.0766634,-0.158666 1.4733289,-0.521332 0.3966655,-0.362665 0.5439984,-0.804664 0.5439984,-1.246663 0,-0.317332 -0.1019997,-0.611998 -0.2493326,-0.815997 C 6.1464505,93.333079 5.5684522,93.140413 5.1831201,93.015747 l -0.3286657,-0.102 C 4.4691222,92.789081 4.4124557,92.596415 4.4124557,92.471749 c 0,-0.238 0.2039994,-0.396666 0.5326651,-0.396666 0.1473329,0 0.4759985,0.02267 0.8046642,0.328666 z"
     id="path21694" /><path
     d="m 11.416427,91.871084 c -0.464665,-0.725331 -1.20133,-0.793331 -1.5753286,-0.793331 -1.4506624,0 -2.4366594,1.155996 -2.4366594,2.606659 0,1.439329 0.9973303,2.617992 2.5046592,2.617992 0.3513318,0 1.0086638,-0.07933 1.5073288,-0.793331 v 0.634665 h 1.382663 v -4.907319 h -1.382663 z m -1.223996,0.430665 c 0.793331,0 1.359996,0.600665 1.359996,1.382663 0,0.781997 -0.566665,1.393996 -1.359996,1.393996 -0.7933313,0 -1.3599963,-0.611999 -1.3599963,-1.393996 0,-0.781998 0.566665,-1.382663 1.3599963,-1.382663 z"
     id="path21696" /><path
     d="m 14.113748,96.143738 h 1.382663 v -2.504659 c 0,-0.260666 0.01133,-0.657332 0.192666,-0.951998 0.147333,-0.260665 0.385332,-0.430665 0.759331,-0.430665 0.136,0 0.385332,0.02267 0.566665,0.249333 0.102,0.124666 0.226666,0.385332 0.226666,0.96333 v 2.674659 h 1.382662 v -2.504659 c 0,-0.260666 0.01133,-0.657332 0.192667,-0.951998 0.147332,-0.260665 0.385332,-0.430665 0.759331,-0.430665 0.135999,0 0.385332,0.02267 0.566665,0.249333 0.101999,0.124666 0.226666,0.385332 0.226666,0.96333 v 2.674659 h 1.382662 V 93.06108 c 0,-0.543998 -0.02267,-0.96333 -0.339999,-1.382662 -0.192666,-0.249333 -0.566665,-0.600665 -1.325996,-0.600665 -0.849997,0 -1.337329,0.509998 -1.575329,0.895331 -0.124666,-0.249333 -0.521331,-0.895331 -1.552662,-0.895331 -0.294665,0 -0.940663,0.05667 -1.461995,0.713998 v -0.555332 h -1.382663 z"
     id="path21698" /><path
     d="m 24.449707,95.509073 c 0.543999,0.736664 1.23533,0.793331 1.575329,0.793331 0.725331,0 1.291996,-0.283333 1.665995,-0.634665 0.283333,-0.271999 0.770665,-0.872664 0.770665,-1.983327 0,-0.974664 -0.373999,-1.586662 -0.736665,-1.949328 -0.555332,-0.555331 -1.246663,-0.657331 -1.677328,-0.657331 -0.906664,0 -1.382663,0.487332 -1.597996,0.793331 v -0.634665 h -1.382662 v 7.502644 h 1.382662 z m 1.223997,-3.207324 c 0.328665,0 0.691331,0.124667 0.940664,0.351333 0.271999,0.260665 0.419332,0.668664 0.419332,1.03133 0,0.362665 -0.136,0.770664 -0.430666,1.042663 -0.181332,0.17 -0.475998,0.351333 -0.92933,0.351333 -0.430666,0 -0.725331,-0.17 -0.906664,-0.328666 -0.271999,-0.237999 -0.453332,-0.611998 -0.453332,-1.06533 0,-0.453332 0.158666,-0.793331 0.464665,-1.053997 0.249333,-0.226666 0.532665,-0.328666 0.895331,-0.328666 z"
     id="path21700" /><path
     d="m 29.527021,87.881762 v 8.261976 h 1.382663 v -8.261976 z"
     id="path21702" /><path
     d="m 35.771657,94.568409 c -0.226666,0.396666 -0.623331,0.645998 -1.144663,0.645998 -0.532665,0 -0.838664,-0.260666 -0.985997,-0.464665 -0.158666,-0.215333 -0.237999,-0.532665 -0.237999,-0.827331 h 3.671989 v -0.113333 c 0,-0.532665 -0.068,-1.303329 -0.589332,-1.926661 -0.339999,-0.407999 -0.917997,-0.804664 -1.915328,-0.804664 -0.589331,0 -1.269329,0.124666 -1.847327,0.691331 -0.351333,0.351332 -0.747998,0.951997 -0.747998,1.926661 0,0.770664 0.226666,1.405329 0.770664,1.915328 0.487332,0.464665 1.087997,0.691331 1.881328,0.691331 1.711328,0 2.26666,-1.16733 2.413993,-1.529995 z m -2.323326,-1.529995 c 0.113333,-0.657332 0.645998,-0.985997 1.155996,-0.985997 0.509999,0 1.053997,0.317332 1.16733,0.985997 z"
     id="path21704" /><path
     d="m 38.140312,96.143738 h 1.382662 v -2.357327 c 0,-0.339999 0.01133,-0.759331 0.272,-1.087996 0.271999,-0.339999 0.657331,-0.396666 0.917997,-0.396666 0.283332,0 0.464665,0.05667 0.645998,0.181333 l 0.181333,-1.291996 c -0.158666,-0.05667 -0.351333,-0.113333 -0.589332,-0.113333 -0.328666,0 -0.600665,0.07933 -0.815997,0.215333 -0.102,0.05667 -0.396666,0.260665 -0.611999,0.679998 v -0.736665 h -1.382662 z"
     id="path21706" /><path
     d="m 45.869604,91.871084 c -0.464665,-0.725331 -1.20133,-0.793331 -1.575329,-0.793331 -1.450662,0 -2.436659,1.155996 -2.436659,2.606659 0,1.439329 0.99733,2.617992 2.504659,2.617992 0.351332,0 1.008664,-0.07933 1.507329,-0.793331 v 0.634665 h 1.382663 v -4.907319 h -1.382663 z m -1.223996,0.430665 c 0.793331,0 1.359996,0.600665 1.359996,1.382663 0,0.781997 -0.566665,1.393996 -1.359996,1.393996 -0.793331,0 -1.359996,-0.611999 -1.359996,-1.393996 0,-0.781998 0.566665,-1.382663 1.359996,-1.382663 z"
     id="path21708" /><path
     d="m 50.901584,92.415082 v -1.178663 h -0.951997 v -1.677328 h -1.382662 v 1.677328 h -0.543999 v 1.178663 h 0.543999 v 3.728656 h 1.382662 v -3.728656 z"
     id="path21710" /><path
     d="m 55.174222,94.568409 c -0.226666,0.396666 -0.623331,0.645998 -1.144663,0.645998 -0.532665,0 -0.838664,-0.260666 -0.985997,-0.464665 -0.158666,-0.215333 -0.237999,-0.532665 -0.237999,-0.827331 h 3.671989 v -0.113333 c 0,-0.532665 -0.068,-1.303329 -0.589332,-1.926661 -0.339999,-0.407999 -0.917997,-0.804664 -1.915328,-0.804664 -0.589331,0 -1.269329,0.124666 -1.847327,0.691331 -0.351333,0.351332 -0.747998,0.951997 -0.747998,1.926661 0,0.770664 0.226666,1.405329 0.770664,1.915328 0.487332,0.464665 1.087997,0.691331 1.881328,0.691331 1.711328,0 2.26666,-1.16733 2.413993,-1.529995 z m -2.323326,-1.529995 c 0.113333,-0.657332 0.645998,-0.985997 1.155996,-0.985997 0.509999,0 1.053997,0.317332 1.16733,0.985997 z"
     id="path21712" /></g></svg>
