<?xml version="1.0" encoding="UTF-8" standalone="no"?>
<svg
   version="1.0"
   id="Layer_1"
   x="0px"
   y="0px"
   width="120px"
   height="380px"
   viewBox="0 0 120 380"
   enable-background="new 0 0 120 380"
   xml:space="preserve"
   sodipodi:docname="rewin_bg.svg"
   inkscape:version="1.1.1 (3bf5ae0d25, 2021-09-20)"
   xmlns:inkscape="http://www.inkscape.org/namespaces/inkscape"
   xmlns:sodipodi="http://sodipodi.sourceforge.net/DTD/sodipodi-0.dtd"
   xmlns:xlink="http://www.w3.org/1999/xlink"
   xmlns="http://www.w3.org/2000/svg"
   xmlns:svg="http://www.w3.org/2000/svg"
   xmlns:rdf="http://www.w3.org/1999/02/22-rdf-syntax-ns#"
   xmlns:cc="http://creativecommons.org/ns#"
   xmlns:dc="http://purl.org/dc/elements/1.1/"><metadata
   id="metadata546"><rdf:RDF><cc:Work
       rdf:about=""><dc:format>image/svg+xml</dc:format><dc:type
         rdf:resource="http://purl.org/dc/dcmitype/StillImage" /></cc:Work></rdf:RDF></metadata><defs
   id="defs544">
	
	
	
	
	
	
	
	
	
	
	
	
	
	
	
	
	
	
	
	
	
	
	
	
	
	
	
	
	
	
	
	
	
</defs><sodipodi:namedview
   pagecolor="#ffffff"
   bordercolor="#666666"
   borderopacity="1"
   objecttolerance="10"
   gridtolerance="10"
   guidetolerance="10"
   inkscape:pageopacity="0"
   inkscape:pageshadow="2"
   inkscape:window-width="640"
   inkscape:window-height="480"
   id="namedview542"
   showgrid="false"
   inkscape:object-paths="true"
   inkscape:zoom="1.9342105"
   inkscape:cx="58.938776"
   inkscape:cy="200.08164"
   inkscape:current-layer="Layer_1"
   inkscape:pagecheckerboard="1" />
<pattern
   y="380"
   width="24.63887"
   height="26.06439"
   patternUnits="userSpaceOnUse"
   id="New_Pattern_Swatch_1"
   viewBox="0 -26.06439 24.63887 26.06439"
   overflow="visible">
	<g
   id="g6">
		<rect
   y="-26.06439"
   fill="none"
   width="24.63887"
   height="26.06439"
   id="rect2" />
		<rect
   y="-26.06439"
   fill="#CC4C4C"
   width="24.63887"
   height="26.06439"
   id="rect4" />
	</g>
</pattern>
<title
   id="title9">repelzen_BG-01</title>
<g
   id="export_bg">
	<g
   id="path33453">
		<path
   fill="#313131"
   d="M0,0h120v380H0V0z"
   id="path11" />
	</g>
</g>
<g
   id="g41">
		<g
   id="g33">
			<path
   fill="#d8bb44"
   d="m 95.14063,243.47607 c -0.18405,0 -0.35323,-0.10109 -0.44043,-0.26318 l -0.56836,-1.05615 c -0.13079,-0.24324 -0.03963,-0.54646 0.20361,-0.67725 0.24324,-0.13079 0.54646,-0.0396 0.67725,0.20361 l 0.56835,1.05615 c 0.13101,0.24283 0.04036,0.5459 -0.20248,0.67691 -0.07309,0.0395 -0.15488,0.06 -0.23794,0.0599 z"
   id="path15" />
			<path
   fill="#d8bb44"
   d="m 100.21973,237.7998 c -0.0671,-5e-5 -0.1335,-0.0135 -0.19532,-0.0395 L 98.9209,237.293 c -0.25408,-0.10838 -0.37218,-0.40222 -0.2638,-0.6563 0.10807,-0.25334 0.40063,-0.37164 0.65442,-0.2646 l 1.10352,0.46729 c 0.25417,0.10823 0.37249,0.40202 0.26426,0.65619 -0.0785,0.18428 -0.25928,0.30399 -0.45957,0.30424 z"
   id="path17" />
			<path
   fill="#d8bb44"
   d="m 99.82813,230.311 c -0.27615,2e-5 -0.50002,-0.22383 -0.50003,-0.49997 -2e-5,-0.2299 0.15675,-0.43019 0.37992,-0.4854 l 1.16307,-0.28906 c 0.26776,-0.0675 0.53956,0.0948 0.60707,0.36258 0.0675,0.26776 -0.0948,0.53955 -0.36257,0.60707 l -0.004,10e-4 -1.1631,0.28906 c -0.03931,0.01 -0.07963,0.0145 -0.12011,0.0147 z"
   id="path19" />
			<path
   fill="#d8bb44"
   d="m 96.14941,224.62399 c -0.27599,3.2e-4 -0.49997,-0.22316 -0.50028,-0.49913 -1.3e-4,-0.1116 0.0371,-0.22002 0.10575,-0.308 l 0.73632,-0.9458 c 0.16821,-0.21901 0.48209,-0.26019 0.7011,-0.092 0.21848,0.16779 0.26008,0.4807 0.09303,0.69974 l -0.005,0.006 -0.73632,0.9458 c -0.09473,0.12174 -0.24035,0.19292 -0.3946,0.19287 z"
   id="path21" />
			<path
   fill="#d8bb44"
   d="m 89.52539,222.34131 h -0.001 c -0.27604,-4.6e-4 -0.49945,-0.22459 -0.499,-0.50064 v -8.2e-4 l 0.0029,-1.19824 c 7.9e-4,-0.27565 0.22435,-0.49876 0.5,-0.49899 h 0.001 c 0.27598,4e-4 0.49939,0.22443 0.499,0.50041 v 6e-4 l -0.0029,1.19875 c -8.2e-4,0.27562 -0.22436,0.49868 -0.5,0.49893 z"
   id="path23" />
			<path
   fill="#d8bb44"
   d="m 82.8877,224.59521 c -0.15485,1.4e-4 -0.30099,-0.0717 -0.3955,-0.19434 l -0.73243,-0.94922 c -0.17014,-0.21741 -0.13181,-0.53159 0.08561,-0.70172 0.21741,-0.17012 0.53158,-0.13179 0.70171,0.0856 v 0 l 0.0037,0.005 0.73243,0.94922 c 0.16901,0.21812 0.1292,0.53197 -0.08893,0.70097 -0.08773,0.068 -0.19559,0.10482 -0.30657,0.10469 z"
   id="path25" />
			<path
   fill="#d8bb44"
   d="m 79.18359,230.26465 c -0.04147,-3e-5 -0.08277,-0.005 -0.123,-0.0151 l -1.16211,-0.29443 c -0.26744,-0.0693 -0.42808,-0.34227 -0.35878,-0.60971 0.0688,-0.26556 0.33865,-0.42618 0.60488,-0.36002 l 1.16211,0.29443 c 0.26768,0.0682 0.42937,0.34055 0.36115,0.60822 -0.05643,0.22141 -0.25571,0.37642 -0.48419,0.37665 z"
   id="path27" />
			<path
   fill="#d8bb44"
   d="m 78.75391,237.75537 c -0.27619,-3.5e-4 -0.4998,-0.22453 -0.49945,-0.50073 2.5e-4,-0.20139 0.12128,-0.38297 0.30706,-0.46069 l 1.10648,-0.46201 c 0.25484,-0.10625 0.54755,0.0142 0.65381,0.26904 0.10625,0.25484 -0.01421,0.54756 -0.26905,0.65381 v 0 l -1.10644,0.46191 c -0.06091,0.0256 -0.12634,0.0388 -0.19241,0.0387 z"
   id="path29" />
			<path
   fill="#d8bb44"
   d="m 83.82324,243.4375 c -0.27593,4e-4 -0.49993,-0.22298 -0.50033,-0.49892 -1.1e-4,-0.083 0.02047,-0.16481 0.0599,-0.2379 l 0.56836,-1.05615 c 0.13079,-0.24324 0.43401,-0.3344 0.67725,-0.20361 0.24324,0.13079 0.3344,0.43401 0.20361,0.67725 v 0 0 l -0.56836,1.05615 c -0.08719,0.16209 -0.25638,0.26318 -0.44043,0.26318 z"
   id="path31" />
		</g>
		<g
   id="g39">
			<path
   fill="#313131"
   d="m 94.76114,241.731 c 5.0979,-2.90564 6.87508,-9.39378 3.96945,-14.49168 -2.90564,-5.0979 -9.39378,-6.87509 -14.49168,-3.96945 -5.09791,2.90564 -6.87509,9.39378 -3.96945,14.49168 0.93892,1.64732 2.30158,3.01337 3.94657,3.95638"
   id="path35" />
			<path
   fill="#d8bb44"
   d="m 94.76074,242.231 c -0.27605,2.7e-4 -0.50005,-0.22328 -0.50034,-0.49933 -1.8e-4,-0.17975 0.09617,-0.34575 0.25233,-0.43475 4.85835,-2.76851 6.55251,-8.95129 3.784,-13.80965 -2.7685,-4.85835 -8.95129,-6.55252 -13.80965,-3.78401 -4.85836,2.76851 -6.55251,8.95129 -3.78401,13.80965 0.89484,1.57034 2.19373,2.87251 3.7618,3.77132 0.23946,0.13751 0.32211,0.44313 0.18459,0.6826 -0.13752,0.23946 -0.44313,0.3221 -0.68259,0.18459 v 0 0 c -5.33057,-3.05577 -7.17465,-9.85423 -4.11888,-15.1848 3.05577,-5.33057 9.85423,-7.17465 15.1848,-4.11888 5.33057,3.05577 7.17465,9.85423 4.11888,15.1848 -0.98743,1.7225 -2.41785,3.14938 -4.1428,4.13255 -0.07545,0.0434 -0.16105,0.0662 -0.24813,0.0659 z"
   id="path37" />
		</g>
	</g><g
   id="g69">
		<g
   id="g61">
			<path
   fill="#cc4c4c"
   d="m 95.14063,201.46986 c -0.18405,0 -0.35323,-0.10109 -0.44043,-0.26318 l -0.56836,-1.05615 c -0.13079,-0.24324 -0.03963,-0.54646 0.20361,-0.67725 0.24324,-0.13079 0.54646,-0.0396 0.67725,0.20361 l 0.56835,1.05615 c 0.13101,0.24283 0.04036,0.5459 -0.20248,0.67691 -0.07309,0.0394 -0.15488,0.06 -0.23794,0.0599 z"
   id="path43" />
			<path
   fill="#cc4c4c"
   d="m 100.21973,195.79359 c -0.0671,-5e-5 -0.1335,-0.0135 -0.19532,-0.0395 l -1.10351,-0.46725 c -0.25408,-0.10838 -0.37218,-0.40222 -0.2638,-0.6563 0.10807,-0.25334 0.40063,-0.37164 0.65442,-0.2646 l 1.10352,0.46729 c 0.25417,0.10823 0.37249,0.40202 0.26426,0.65619 -0.0785,0.18428 -0.25928,0.30399 -0.45957,0.30424 z"
   id="path45" />
			<path
   fill="#cc4c4c"
   d="m 99.82813,188.30479 c -0.27615,2e-5 -0.50002,-0.22383 -0.50003,-0.49997 -2e-5,-0.2299 0.15675,-0.43019 0.37992,-0.4854 l 1.16307,-0.28906 c 0.26776,-0.0675 0.53956,0.0948 0.60707,0.36258 0.0675,0.26776 -0.0948,0.53955 -0.36257,0.60707 l -0.004,0.001 -1.1631,0.28906 c -0.03931,0.01 -0.07963,0.0145 -0.12011,0.0147 z"
   id="path47" />
			<path
   fill="#cc4c4c"
   d="m 96.14941,182.61778 c -0.27599,3.2e-4 -0.49997,-0.22316 -0.50028,-0.49913 -1.3e-4,-0.1116 0.0371,-0.22002 0.10575,-0.308 l 0.73632,-0.9458 c 0.16821,-0.21901 0.48209,-0.26019 0.7011,-0.092 0.21848,0.16779 0.26008,0.4807 0.09303,0.69974 l -0.005,0.006 -0.73632,0.9458 c -0.09473,0.12174 -0.24035,0.19292 -0.3946,0.19287 z"
   id="path49" />
			<path
   fill="#cc4c4c"
   d="m 89.52539,180.3351 h -0.001 c -0.27604,-4.6e-4 -0.49945,-0.22459 -0.499,-0.50064 v -8.2e-4 l 0.0029,-1.19824 c 7.9e-4,-0.27565 0.22435,-0.49876 0.5,-0.49899 h 0.001 c 0.27598,4e-4 0.49939,0.22443 0.499,0.50041 v 6e-4 l -0.0029,1.19875 c -8.2e-4,0.27562 -0.22436,0.49868 -0.5,0.49893 z"
   id="path51" />
			<path
   fill="#cc4c4c"
   d="m 82.8877,182.589 c -0.15485,1.4e-4 -0.30099,-0.0717 -0.3955,-0.19434 l -0.73243,-0.94922 c -0.17014,-0.21741 -0.13181,-0.53159 0.08561,-0.70172 0.21741,-0.17012 0.53158,-0.13179 0.70171,0.0856 v 0 l 0.0037,0.005 0.73243,0.94922 c 0.16901,0.21812 0.1292,0.53197 -0.08893,0.70097 -0.08773,0.068 -0.19559,0.10482 -0.30657,0.10469 z"
   id="path53" />
			<path
   fill="#cc4c4c"
   d="m 79.18359,188.25844 c -0.04147,-3e-5 -0.08277,-0.005 -0.123,-0.0151 l -1.16211,-0.29443 c -0.26744,-0.0693 -0.42808,-0.34227 -0.35878,-0.60971 0.0688,-0.26556 0.33865,-0.42618 0.60488,-0.36002 l 1.16211,0.29443 c 0.26768,0.0682 0.42937,0.34055 0.36115,0.60822 -0.05643,0.22141 -0.25571,0.37642 -0.48419,0.37665 z"
   id="path55" />
			<path
   fill="#cc4c4c"
   d="m 78.75391,195.74916 c -0.27619,-3.5e-4 -0.4998,-0.22453 -0.49945,-0.50073 2.5e-4,-0.20139 0.12128,-0.38297 0.30706,-0.46069 l 1.10648,-0.46201 c 0.25484,-0.10625 0.54755,0.0142 0.65381,0.26904 0.10625,0.25484 -0.01421,0.54756 -0.26905,0.65381 v 0 l -1.10644,0.46191 c -0.06091,0.0256 -0.12634,0.0388 -0.19241,0.0387 z"
   id="path57" />
			<path
   fill="#cc4c4c"
   d="m 83.82324,201.43129 c -0.27593,4e-4 -0.49993,-0.22298 -0.50033,-0.49892 -1.1e-4,-0.083 0.02047,-0.16481 0.0599,-0.2379 l 0.56836,-1.05615 c 0.13079,-0.24324 0.43401,-0.3344 0.67725,-0.20361 0.24324,0.13079 0.3344,0.43401 0.20361,0.67725 v 0 0 l -0.56836,1.05615 c -0.08719,0.16209 -0.25638,0.26318 -0.44043,0.26318 z"
   id="path59" />
		</g>
		<g
   id="g67">
			<path
   fill="#313131"
   d="m 94.76114,199.72479 c 5.0979,-2.90564 6.87508,-9.39378 3.96945,-14.49168 -2.90564,-5.0979 -9.39378,-6.87509 -14.49168,-3.96945 -5.09791,2.90564 -6.87509,9.39378 -3.96945,14.49168 0.93892,1.64732 2.30158,3.01337 3.94657,3.95638"
   id="path63" />
			<path
   fill="#cc4c4c"
   d="m 94.76074,200.22479 c -0.27605,2.7e-4 -0.50005,-0.22328 -0.50034,-0.49933 -1.8e-4,-0.17975 0.09617,-0.34575 0.25233,-0.43475 4.85835,-2.76851 6.55251,-8.95129 3.784,-13.80965 -2.7685,-4.85835 -8.95129,-6.55252 -13.80965,-3.78401 -4.85836,2.76851 -6.55251,8.95129 -3.78401,13.80965 0.89484,1.57034 2.19373,2.87251 3.7618,3.77132 0.23946,0.13751 0.32211,0.44313 0.18459,0.6826 -0.13752,0.23946 -0.44313,0.3221 -0.68259,0.18459 v 0 0 c -5.33057,-3.05577 -7.17465,-9.85423 -4.11888,-15.1848 3.05577,-5.33057 9.85423,-7.17465 15.1848,-4.11888 5.33057,3.05577 7.17465,9.85423 4.11888,15.1848 -0.98743,1.7225 -2.41785,3.14938 -4.1428,4.13255 -0.07545,0.0434 -0.16105,0.0662 -0.24813,0.0659 z"
   id="path65" />
		</g>
	</g><g
   id="g97">
		<g
   id="g89">
			<path
   fill="#10a687"
   d="m 95.14063,286.49316 c -0.18405,0 -0.35323,-0.1011 -0.44043,-0.26318 l -0.56836,-1.05566 c -0.13079,-0.24326 -0.03963,-0.54645 0.20361,-0.67725 0.24324,-0.1308 0.54646,-0.0396 0.67725,0.20361 l 0.56835,1.05566 c 0.13101,0.24283 0.04036,0.5459 -0.20248,0.67691 -0.07309,0.0394 -0.15488,0.06 -0.23794,0.0599 z"
   id="path71" />
			<path
   fill="#10a687"
   d="m 100.21973,280.81689 c -0.0671,-6e-5 -0.1335,-0.0135 -0.19532,-0.0396 L 98.9209,280.31 c -0.25408,-0.1084 -0.37218,-0.40222 -0.2638,-0.65631 0.10807,-0.25333 0.40063,-0.37161 0.65442,-0.26459 l 1.10352,0.46729 c 0.25418,0.10822 0.37252,0.40198 0.26431,0.65616 -0.0785,0.18433 -0.25931,0.30405 -0.45962,0.30429 z"
   id="path73" />
			<path
   fill="#10a687"
   d="m 99.82813,273.32813 c -0.27615,-3e-5 -0.49998,-0.22388 -0.49997,-0.50003 2e-5,-0.22986 0.15674,-0.43008 0.37986,-0.48532 l 1.16307,-0.28906 c 0.26811,-0.0661 0.53905,0.0977 0.60515,0.36578 0.0656,0.26611 -0.0953,0.53543 -0.36065,0.60385 l -0.004,0.001 -1.1631,0.28906 c -0.03931,0.01 -0.07963,0.0145 -0.12011,0.0146 z"
   id="path75" />
			<path
   fill="#10a687"
   d="m 96.14941,267.64111 c -0.27599,3.1e-4 -0.49997,-0.22314 -0.50028,-0.49915 -1.3e-4,-0.11157 0.0371,-0.22 0.10575,-0.30798 l 0.73632,-0.9458 c 0.16821,-0.21899 0.48209,-0.26019 0.7011,-0.092 0.21848,0.16779 0.26008,0.48068 0.09303,0.69974 l -0.005,0.006 -0.73632,0.9458 c -0.09473,0.12174 -0.24035,0.19293 -0.3946,0.19287 z"
   id="path77" />
			<path
   fill="#10a687"
   d="m 89.52539,265.35889 h -0.001 c -0.27599,-4e-4 -0.49939,-0.22446 -0.499,-0.50043 v -5.8e-4 l 0.0029,-1.19922 c 7.9e-4,-0.27563 0.22435,-0.49875 0.5,-0.49899 h 0.001 c 0.27598,4e-4 0.49939,0.22443 0.499,0.5004 v 3e-5 5.8e-4 l -0.0029,1.19922 c -8.1e-4,0.27563 -0.22436,0.49874 -0.5,0.49899 z"
   id="path79" />
			<path
   fill="#10a687"
   d="m 82.8877,267.6123 c -0.15485,1.2e-4 -0.30098,-0.0717 -0.3955,-0.19434 l -0.73243,-0.94922 c -0.17013,-0.21741 -0.1318,-0.53159 0.08562,-0.70172 0.21741,-0.1701 0.53158,-0.13177 0.70171,0.0856 l 0.0037,0.005 0.73243,0.94922 c 0.16901,0.21814 0.1292,0.53195 -0.08893,0.70099 -0.08774,0.068 -0.1956,0.10481 -0.30658,0.10468 z"
   id="path81" />
			<path
   fill="#10a687"
   d="m 79.18359,273.28223 c -0.04147,-3e-5 -0.08276,-0.005 -0.123,-0.0151 l -1.16211,-0.29443 c -0.26744,-0.0693 -0.42808,-0.34229 -0.35878,-0.60971 0.0688,-0.26556 0.33865,-0.42618 0.60488,-0.36002 v 0 l 1.16211,0.29443 c 0.26768,0.0683 0.42933,0.34061 0.36105,0.60831 -0.05645,0.22131 -0.25568,0.37628 -0.4841,0.37656 z"
   id="path83" />
			<path
   fill="#10a687"
   d="m 78.75391,280.77301 c -0.27615,-9e-5 -0.49992,-0.22406 -0.49981,-0.50018 7e-5,-0.20169 0.1213,-0.38358 0.30742,-0.46124 l 1.10645,-0.4624 c 0.25484,-0.10626 0.54755,0.0142 0.65381,0.26904 0.10625,0.25485 -0.01421,0.54755 -0.26905,0.65381 v 0 0 l -1.10644,0.4624 c -0.06091,0.0256 -0.12632,0.0387 -0.19238,0.0386 z"
   id="path85" />
			<path
   fill="#10a687"
   d="m 83.82324,286.45459 c -0.27593,4e-4 -0.49993,-0.22299 -0.50033,-0.4989 -1.1e-4,-0.0831 0.02047,-0.16483 0.0599,-0.23792 l 0.56836,-1.05615 c 0.13079,-0.24326 0.43401,-0.33441 0.67725,-0.20361 0.24324,0.1308 0.3344,0.43399 0.20361,0.67725 l -0.56836,1.05615 c -0.08719,0.16208 -0.25638,0.26318 -0.44043,0.26318 z"
   id="path87" />
		</g>
		<g
   id="g95">
			<path
   fill="#313131"
   d="m 94.76114,284.74826 c 5.09792,-2.90564 6.87511,-9.39377 3.96948,-14.4917 -2.90562,-5.0979 -9.39378,-6.87509 -14.49169,-3.96948 -5.09792,2.90564 -6.87511,9.3938 -3.96948,14.4917 0.93892,1.64734 2.30158,3.0134 3.94658,3.95639"
   id="path91" />
			<path
   fill="#10a687"
   d="m 94.76074,285.24805 c -0.27606,2.4e-4 -0.50004,-0.22336 -0.50027,-0.49942 -1.6e-4,-0.17972 0.09616,-0.34564 0.25227,-0.43466 4.85795,-2.76874 6.55158,-8.95139 3.78284,-13.80933 -2.76874,-4.85797 -8.95139,-6.55161 -13.80934,-3.78287 -4.85794,2.76877 -6.55157,8.95142 -3.78284,13.80936 0.89484,1.57004 2.1936,2.87198 3.76148,3.77063 0.23946,0.13751 0.32211,0.44312 0.18459,0.68259 -0.13752,0.23947 -0.44313,0.32211 -0.68259,0.1846 v 0 0 c -5.33096,-3.05554 -7.17556,-9.85413 -4.12003,-15.18509 3.05553,-5.33096 9.85413,-7.17557 15.18509,-4.12003 5.33096,3.05554 7.17556,9.85413 4.12003,15.18509 -0.98744,1.72278 -2.41796,3.14987 -4.14309,4.13321 -0.07547,0.0434 -0.16106,0.0662 -0.24814,0.0659 z"
   id="path93" />
		</g>
	</g><g
   id="g125">
		<g
   id="g117">
			<path
   fill="#098eb7"
   d="m 95.14063,328.47607 c -0.18405,0 -0.35323,-0.1011 -0.44043,-0.26318 l -0.56836,-1.05566 c -0.13079,-0.24326 -0.03963,-0.54645 0.20361,-0.67725 0.24324,-0.1308 0.54646,-0.0396 0.67725,0.20361 l 0.56835,1.05566 c 0.13101,0.24283 0.04036,0.5459 -0.20248,0.67691 -0.07309,0.0394 -0.15488,0.06 -0.23794,0.0599 z"
   id="path99" />
			<path
   fill="#098eb7"
   d="m 100.21973,322.7998 c -0.0668,3e-5 -0.13289,-0.0134 -0.19435,-0.0396 l -1.1035,-0.4668 c -0.2539,-0.10828 -0.37196,-0.40186 -0.26369,-0.65576 0.1076,-0.25235 0.3985,-0.37079 0.65176,-0.26538 l 6e-4,2.4e-4 1.1035,0.4668 c 0.25444,0.10696 0.37399,0.39993 0.26704,0.65436 -0.0781,0.18567 -0.25995,0.30637 -0.46136,0.30609 z"
   id="path101" />
			<path
   fill="#098eb7"
   d="m 99.82813,315.311 c -0.27615,-3e-5 -0.49998,-0.22388 -0.49997,-0.50003 2e-5,-0.22986 0.15674,-0.43008 0.37986,-0.48532 l 1.16307,-0.28906 c 0.26811,-0.0661 0.53905,0.0977 0.60515,0.36578 0.0656,0.26611 -0.0953,0.53543 -0.36065,0.60385 l -0.004,0.001 -1.1631,0.28906 c -0.03931,0.01 -0.07963,0.0145 -0.12011,0.0146 z"
   id="path103" />
			<path
   fill="#098eb7"
   d="m 96.14941,309.62399 c -0.27599,3.1e-4 -0.49997,-0.22314 -0.50028,-0.49915 -1.3e-4,-0.11157 0.0371,-0.22 0.10575,-0.30798 l 0.73632,-0.9458 c 0.16821,-0.21899 0.48209,-0.26019 0.7011,-0.092 0.21848,0.16779 0.26008,0.48068 0.09303,0.69974 l -0.005,0.007 -0.73632,0.9458 c -0.09473,0.12174 -0.24035,0.19293 -0.3946,0.19287 z"
   id="path105" />
			<path
   fill="#098eb7"
   d="m 89.52539,307.3418 h -0.001 c -0.27599,-4e-4 -0.49939,-0.22446 -0.499,-0.50043 v -5.8e-4 l 0.0029,-1.19922 c 7.9e-4,-0.27563 0.22435,-0.49875 0.5,-0.49899 h 0.001 c 0.27598,4e-4 0.49939,0.22443 0.499,0.5004 v 3e-5 5.8e-4 l -0.0029,1.19922 c -8.1e-4,0.27563 -0.22436,0.49874 -0.5,0.49899 z"
   id="path107" />
			<path
   fill="#098eb7"
   d="m 82.8877,309.59521 c -0.15485,1.2e-4 -0.30098,-0.0717 -0.3955,-0.19434 l -0.73243,-0.94922 c -0.17013,-0.21741 -0.1318,-0.53159 0.08562,-0.70172 0.21741,-0.1701 0.53158,-0.13177 0.70171,0.0856 v 0 l 0.0037,0.005 0.73243,0.94922 c 0.16901,0.21814 0.1292,0.53195 -0.08893,0.70099 -0.08774,0.068 -0.1956,0.10481 -0.30658,0.10468 z"
   id="path109" />
			<path
   fill="#098eb7"
   d="m 79.18359,315.26514 c -0.04147,-3e-5 -0.08276,-0.005 -0.123,-0.0151 l -1.16211,-0.29443 c -0.26744,-0.0693 -0.42808,-0.34229 -0.35878,-0.60971 0.0688,-0.26556 0.33865,-0.42618 0.60488,-0.36002 l 1.16211,0.29443 c 0.26768,0.0683 0.42933,0.34061 0.36105,0.60831 -0.05645,0.22131 -0.25568,0.37628 -0.4841,0.37656 z"
   id="path111" />
			<path
   fill="#098eb7"
   d="m 78.75391,322.75586 c -0.27615,-9e-5 -0.49992,-0.22406 -0.49981,-0.50018 7e-5,-0.20169 0.1213,-0.38358 0.30742,-0.46124 l 1.10645,-0.4624 c 0.25484,-0.10626 0.54755,0.0142 0.65381,0.26904 0.10625,0.25485 -0.01421,0.54755 -0.26905,0.65381 v 0 0 l -1.10644,0.4624 c -0.06091,0.0256 -0.12632,0.0387 -0.19238,0.0386 z"
   id="path113" />
			<path
   fill="#098eb7"
   d="m 83.82324,328.4375 c -0.27593,4e-4 -0.49993,-0.22299 -0.50033,-0.4989 -1.1e-4,-0.0831 0.02047,-0.16483 0.0599,-0.23792 l 0.56836,-1.05615 c 0.13079,-0.24326 0.43401,-0.33441 0.67725,-0.20361 0.24324,0.1308 0.3344,0.43399 0.20361,0.67725 l -0.56836,1.05615 c -0.08719,0.16208 -0.25638,0.26318 -0.44043,0.26318 z"
   id="path115" />
		</g>
		<g
   id="g123">
			<path
   fill="#313131"
   d="m 94.76114,326.73123 c 5.09792,-2.90564 6.87511,-9.39377 3.96948,-14.4917 -2.90562,-5.0979 -9.39378,-6.87509 -14.49169,-3.96948 -5.09792,2.90564 -6.87511,9.3938 -3.96948,14.4917 0.93892,1.64734 2.30158,3.0134 3.94658,3.95639"
   id="path119" />
			<path
   fill="#098eb7"
   d="m 94.76074,327.23145 c -0.27606,2.4e-4 -0.50004,-0.22336 -0.50027,-0.49942 -1.6e-4,-0.17972 0.09616,-0.34564 0.25227,-0.43466 4.85838,-2.76849 6.55254,-8.95132 3.78404,-13.80969 -2.76851,-4.85837 -8.95132,-6.55255 -13.80968,-3.78403 -4.85838,2.76849 -6.55255,8.95129 -3.78404,13.80969 0.89485,1.57034 2.19375,2.87253 3.76183,3.77133 0.23946,0.13751 0.32211,0.44312 0.18459,0.68259 -0.13752,0.23947 -0.44313,0.32211 -0.68259,0.1846 v 0 0 c -5.33055,-3.05576 -7.17463,-9.85422 -4.11886,-15.18478 3.05577,-5.33054 9.85423,-7.17462 15.18478,-4.11884 5.33055,3.05576 7.17463,9.85422 4.11886,15.18475 -0.98743,1.7225 -2.41784,3.14938 -4.14278,4.13254 -0.07548,0.0434 -0.16107,0.0662 -0.24815,0.0659 z"
   id="path121" />
		</g>
	</g><rect
   x="104.50002"
   y="198.94443"
   fill="#afafaf"
   width="15.45279"
   height="23.055559"
   id="rect127" /><g
   id="g133">
		<circle
   fill="#afafaf"
   cx="17.41783"
   cy="210.5"
   r="12.5479"
   id="circle129" />
		<rect
   x="0.047200002"
   y="197.95222"
   fill="#afafaf"
   width="17.370621"
   height="25.022341"
   id="rect131" />
	</g><g
   id="g139">
		<circle
   fill="#afafaf"
   cx="17.41783"
   cy="182.5"
   r="12.5479"
   id="circle135" />
		<rect
   x="0.047200002"
   y="169.95222"
   fill="#afafaf"
   width="17.370621"
   height="25.022341"
   id="rect137" />
	</g><g
   id="g145">
		<circle
   fill="#afafaf"
   cx="17.41783"
   cy="238.5"
   r="12.5479"
   id="circle141" />
		<rect
   x="0.047200002"
   y="225.95222"
   fill="#afafaf"
   width="17.370621"
   height="25.022341"
   id="rect143" />
	</g><g
   id="g151">
		<circle
   fill="#afafaf"
   cx="17.418221"
   cy="294.50003"
   r="12.54794"
   id="circle147" />
		<rect
   x="0.04721"
   y="281.95224"
   fill="#afafaf"
   width="17.370609"
   height="25.022341"
   id="rect149" />
	</g><g
   id="g157">
		<circle
   fill="#afafaf"
   cx="17.418261"
   cy="322.50006"
   r="12.54794"
   id="circle153" />
		<rect
   x="0.04721"
   y="309.95224"
   fill="#afafaf"
   width="17.370609"
   height="25.022341"
   id="rect155" />
	</g><rect
   x="104.5"
   y="241.00002"
   fill="#afafaf"
   width="15.4528"
   height="22.999981"
   id="rect159" /><rect
   x="104.49998"
   y="283"
   fill="#afafaf"
   width="15.45279"
   height="23"
   id="rect161" /><rect
   x="104.5"
   y="325.00003"
   fill="#afafaf"
   width="15.45279"
   height="22.72583"
   id="rect163" /><rect
   x="73.74675"
   y="205.52048"
   fill="#cc4c4c"
   width="30.753277"
   height="9.9590597"
   id="rect267" /><rect
   x="71.849548"
   y="247.52048"
   fill="#d8bb44"
   width="32.650452"
   height="9.9590502"
   id="rect269" /><rect
   x="71.849548"
   y="289.52048"
   fill="#10a687"
   width="32.650429"
   height="9.9590502"
   id="rect271" /><rect
   x="71.849548"
   y="331.52048"
   fill="#098eb7"
   width="32.650452"
   height="9.9590502"
   id="rect273" /><path
   fill="#afafaf"
   d="m 8.9375,0 h 102.125 v 5.40259 c 0,3.91436 -3.32204,7.08758 -7.41998,7.08758 H 16.35748 c -4.09794,0 -7.41998,-3.17322 -7.41998,-7.08758 z"
   id="path275" /><g
   id="g363">
		<g
   id="g281">
			<path
   fill="#313131"
   d="m 18.37891,9.01074 h -1.3545 L 15.63086,6.69531 H 15.61523 V 9.01074 H 14.49609 V 3.26953 h 1.51563 c 1.13379,0 1.918,0.50195 1.918,1.72852 0.05572,0.74688 -0.44206,1.42261 -1.17188,1.59082 z M 15.61523,5.91113 h 0.14454 c 0.61718,0 1.05078,-0.18261 1.05078,-0.88281 0,-0.708 -0.44922,-0.84473 -1.043,-0.84473 H 15.6152 Z"
   id="path277" />
			<path
   fill="#313131"
   d="m 18.37891,9.16064 h -1.3545 c -0.05277,9e-5 -0.10171,-0.02753 -0.1289,-0.07275 L 15.76563,7.20947 v 1.80127 c -6e-5,0.08284 -0.06726,0.14996 -0.1501,0.1499 v 0 h -1.11944 c -0.08284,2.2e-4 -0.15018,-0.06677 -0.15039,-0.14961 0,-10e-6 0,-2e-5 0,-3e-5 V 3.26953 c 6e-5,-0.08284 0.06726,-0.14996 0.1501,-0.1499 v 0 h 1.51592 c 1.334,0 2.06836,0.667 2.06836,1.87842 0.03641,0.73432 -0.39688,1.41093 -1.07908,1.68506 l 1.50293,2.24414 c 0.03043,0.04627 0.03306,0.10551 0.0068,0.15429 -0.02572,0.04893 -0.07657,0.07944 -0.13185,0.0791 z m -1.26953,-0.2998 h 0.98828 L 16.63281,6.67236 C 16.58687,6.60325 16.60565,6.50997 16.67476,6.46403 16.69245,6.45227 16.71244,6.44439 16.7334,6.44092 17.38733,6.2795 17.82933,5.66975 17.7793,4.99805 c 0,-1.04737 -0.59473,-1.57862 -1.76758,-1.57862 h -1.36524 v 5.44141 h 0.81836 V 6.69531 c 6e-5,-0.08284 0.06726,-0.14996 0.1501,-0.1499 v 0 h 2.9e-4 c 0.05707,-3.7e-4 0.11084,0.02669 0.14454,0.07275 z M 15.75977,6.061 H 15.61523 C 15.53239,6.06122 15.46505,5.99423 15.46484,5.91139 v 0 -1.7278 c 6e-5,-0.08284 0.06726,-0.14996 0.1501,-0.1499 v 0 h 0.15264 c 0.55566,0 1.19336,0.11279 1.19336,0.99463 0,1.03268 -0.9043,1.03268 -1.20117,1.03268 z m 0.0059,-1.72754 v 1.42777 c 0.64355,-0.00146 0.89453,-0.207 0.89453,-0.73291 0,-0.51269 -0.2334,-0.69482 -0.89258,-0.69482 z"
   id="path279" />
		</g>
		<g
   id="g287">
			<path
   fill="#313131"
   d="m 21.39063,4.24414 v 1.26367 h 1.78222 v 0.97461 h -1.78222 v 1.55371 h 1.85058 V 9.01074 H 20.27148 V 3.26953 h 2.96973 v 0.97461 z"
   id="path283" />
			<path
   fill="#313131"
   d="M 23.24121,9.16064 H 20.27148 C 20.18864,9.16086 20.1213,9.09387 20.12109,9.01103 v 0 -5.7415 c 6e-5,-0.08284 0.06726,-0.14996 0.1501,-0.1499 v 0 h 2.97 c 0.08284,-2.2e-4 0.15018,0.06677 0.15039,0.14961 v 0 0.9749 c -6e-5,0.08284 -0.06726,0.14996 -0.1501,0.1499 v 0 H 21.541 v 0.96387 h 1.63183 c 0.08284,-2.2e-4 0.15018,0.06677 0.15039,0.14961 v 0 0.9749 c -6e-5,0.08284 -0.06726,0.14996 -0.1501,0.1499 v 0 H 21.541 v 1.25391 h 1.70019 c 0.08284,-2.2e-4 0.15018,0.06677 0.15039,0.14961 v 0 0.9749 c -6e-5,0.08284 -0.06726,0.14996 -0.1501,0.1499 v 0 z m -2.81933,-0.2998 h 2.66894 V 8.186 h -1.70019 c -0.08287,1.9e-4 -0.1502,-0.06683 -0.1504,-0.1497 V 6.48242 c 6e-5,-0.08284 0.06726,-0.14996 0.1501,-0.1499 v 0 h 1.63213 V 5.65771 h -1.63183 c -0.08284,2.2e-4 -0.15018,-0.06676 -0.1504,-0.1496 v 0 -1.264 c 6e-5,-0.08284 0.06726,-0.14996 0.1501,-0.1499 v 0 h 1.70049 V 3.41943 h -2.66894 z"
   id="path285" />
		</g>
		<g
   id="g293">
			<path
   fill="#313131"
   d="m 31.3252,7.18262 h 0.01464 l 1.14258,-3.98926 h 0.66211 L 34.332,7.18262 h 0.01563 l 1.127,-3.91309 h 1.17285 L 34.70508,9.125 H 33.88281 L 32.74121,5.37109 H 32.72559 L 31.64453,9.125 H 30.82227 L 28.99512,3.26953 H 30.168 Z"
   id="path289" />
			<path
   fill="#313131"
   d="M 34.70508,9.2749 H 33.88281 C 33.81671,9.275 33.75837,9.23174 33.73926,9.16846 l -1.002,-3.29541 -0.9482,3.29345 c -0.01874,0.06423 -0.07762,0.10839 -0.14453,0.1084 h -0.82226 c -0.06563,4e-5 -0.12372,-0.04244 -0.14356,-0.105 L 28.85156,3.31445 c -0.01395,-0.04565 -0.0056,-0.0952 0.02246,-0.13379 0.02834,-0.03847 0.07332,-0.06113 0.1211,-0.061 H 30.168 c 0.06644,-1.7e-4 0.12498,0.04363 0.14355,0.10742 l 1.01853,3.44382 1.00781,-3.519 c 0.01866,-0.06429 0.07759,-0.10849 0.14453,-0.1084 h 0.66211 c 0.06629,-1.9e-4 0.12476,0.04336 0.14356,0.10693 L 34.33789,6.67582 35.33008,3.228 C 35.34882,3.16377 35.4077,3.11961 35.47461,3.1196 h 1.17285 c 0.04825,2e-5 0.0936,0.02305 0.12207,0.062 0.0275,0.03944 0.03508,0.08943 0.02051,0.13525 L 34.84766,9.17236 C 34.827,9.23355 34.76966,9.27478 34.70508,9.2749 Z M 33.99414,8.9751 h 0.60254 l 1.84277,-5.55567 h -0.85156 l -1.0957,3.80469 C 34.45272,7.30818 34.35258,7.34433 34.26852,7.30485 34.23352,7.28842 34.20526,7.26042 34.18848,7.22559 L 33.03223,3.34326 H 32.5957 L 31.48438,7.22412 C 31.4452,7.30785 31.34557,7.34397 31.26184,7.30479 31.22668,7.28834 31.19833,7.26017 31.18164,7.22512 l -1.126,-3.80567 H 29.1992 l 1.7334,5.55567 h 0.59863 L 32.581,5.32961 c 0.03933,-0.08413 0.13942,-0.12044 0.22354,-0.08111 0.03503,0.01638 0.06335,0.04434 0.08018,0.07916 z"
   id="path291" />
		</g>
		<g
   id="g299">
			<path
   fill="#313131"
   d="M 39.59961,9.01074 H 38.48047 V 3.26953 h 1.11914 z"
   id="path295" />
			<path
   fill="#313131"
   d="M 39.59961,9.16064 H 38.48047 C 38.39763,9.16086 38.3303,9.09387 38.33008,9.01103 v 0 -5.7415 c 5e-5,-0.08284 0.06726,-0.14996 0.1501,-0.1499 v 0 h 1.11943 C 39.68245,3.11941 39.74978,3.1864 39.75,3.26924 v 0 5.7415 c -5e-5,0.08284 -0.06726,0.14996 -0.1501,0.1499 v 0 z m -0.96875,-0.2998 h 0.81836 V 3.41943 h -0.81836 z"
   id="path297" />
		</g>
		<g
   id="g305">
			<path
   fill="#313131"
   d="m 41.93945,3.11719 h 0.80664 l 3.02344,4.01269 h 0.01465 V 3.26953 H 46.9043 V 9.125 H 46.09668 L 43.07422,5.1123 h -0.01563 v 3.89844 h -1.11914 z"
   id="path301" />
			<path
   fill="#313131"
   d="m 46.9043,9.2749 h -0.80762 c -0.04715,2e-5 -0.0916,-0.02202 -0.12012,-0.05957 L 43.209,5.54 v 3.4707 c -5e-5,0.08284 -0.06726,0.14996 -0.1501,0.1499 v 0 H 41.93945 C 41.85661,9.16082 41.78928,9.09383 41.78906,9.01099 v 0 -5.8938 c 5e-5,-0.08284 0.06726,-0.14996 0.1501,-0.1499 v 0 h 0.80693 c 0.04715,-2e-5 0.0916,0.02202 0.12012,0.05957 l 2.76758,3.67431 V 3.26953 c 5e-5,-0.08284 0.06726,-0.14996 0.1501,-0.1499 v 0 h 1.12041 c 0.08284,-2.2e-4 0.15017,0.06677 0.15039,0.14961 v 0 5.85576 c -5e-5,0.08284 -0.06726,0.14996 -0.1501,0.1499 v 0 z M 46.17188,8.9751 h 0.582 V 3.41943 h -0.81934 v 3.71045 c -5e-5,0.08284 -0.06725,0.14996 -0.15009,0.14991 h -3e-4 C 45.7328,7.27999 45.68379,7.25833 45.64938,7.22021 L 42.6709,3.26709 H 42.08984 V 8.86084 H 42.9082 V 5.1123 c 5e-5,-0.08284 0.06726,-0.14996 0.1501,-0.1499 v 0 h 2.9e-4 c 0.05163,-2.1e-4 0.10094,0.02143 0.13575,0.05957 z"
   id="path303" />
		</g>
		<g
   id="g311">
			<path
   fill="#313131"
   d="M 57.35742,9.25391 56.96191,8.77441 C 56.53498,9.03917 56.04033,9.1742 55.53809,9.16309 53.94219,9.13782 52.66894,7.8236 52.69421,6.2277 c 5e-4,-0.03165 0.0015,-0.06328 0.0031,-0.09489 -0.09395,-1.56867 1.10154,-2.91649 2.67022,-3.01045 1.56867,-0.09395 2.91649,1.10154 3.01044,2.67021 0.0068,0.11331 0.0068,0.22692 0,0.34023 0.0101,0.74859 -0.22824,1.47942 -0.67773,2.07813 l 0.78418,0.92871 z M 56.8623,7.29 C 57.10578,6.94236 57.23139,6.52581 57.2207,6.10152 57.33868,5.16766 56.67727,4.31498 55.74341,4.19701 54.80955,4.07903 53.95687,4.74044 53.8389,5.6743 c -0.02215,0.17536 -0.01689,0.3531 0.01559,0.52684 -0.08065,0.95506 0.62819,1.79467 1.58325,1.87532 0.03339,0.00282 0.06684,0.00467 0.10035,0.00555 0.21369,-0.00995 0.42107,-0.0756 0.60156,-0.19043 L 55.19531,6.8027 56.35254,6.71091 Z"
   id="path307" />
			<path
   fill="#313131"
   d="M 57.35742,9.40381 C 57.31268,9.4041 57.27025,9.38396 57.24219,9.34912 L 56.92969,8.9707 c -0.42659,0.23217 -0.90598,0.35009 -1.3916,0.34229 -1.66907,-0.01485 -3.01008,-1.37993 -2.99523,-3.049 4e-4,-0.04376 0.0017,-0.08749 0.004,-0.13119 -0.0939,-1.65173 1.16897,-3.06684 2.8207,-3.16075 1.65173,-0.0939 3.06684,1.16897 3.16074,2.8207 0.0064,0.11326 0.0064,0.22679 0,0.34005 0.0069,0.73994 -0.21555,1.46385 -0.63672,2.07227 l 0.707,0.83789 c 0.03631,0.04226 0.04575,0.10136 0.02442,0.15283 -0.02073,0.05176 -0.06852,0.0877 -0.124,0.09326 l -1.127,0.11426 z m -0.39551,-0.7793 c 0.0447,-1.1e-4 0.08706,0.01999 0.11524,0.05469 L 57.42188,9.09668 58.18652,9.01904 57.58594,8.30762 C 57.54009,8.2538 57.53806,8.17527 57.58105,8.11914 58.009,7.54608 58.23621,6.84798 58.22754,6.13281 58.32164,4.6472 57.19359,3.36659 55.70798,3.27249 c -1.48561,-0.0941 -2.76622,1.03395 -2.86032,2.51956 -0.0072,0.11347 -0.0072,0.22729 0,0.34076 -0.0839,1.50466 1.06784,2.79245 2.57251,2.87635 v 0 c 0.03927,0.00219 0.07858,0.00352 0.11792,0.004 0.47272,0.01101 0.93848,-0.11535 1.34082,-0.36377 0.02468,-0.01614 0.05351,-0.02478 0.083,-0.02488 z M 55.53809,8.23193 C 54.49802,8.20766 53.67455,7.34484 53.69881,6.30477 c 8.2e-4,-0.03458 0.0026,-0.06911 0.0053,-0.1036 -0.17357,-1.00865 0.50339,-1.96702 1.51204,-2.1406 1.00864,-0.17357 1.96702,0.50339 2.14059,1.51203 0.03007,0.17472 0.03491,0.35286 0.01437,0.52895 0.01284,0.45884 -0.12468,0.90929 -0.3916,1.28272 C 56.95136,7.41862 56.90962,7.43895 56.86523,7.43993 56.82061,7.44417 56.77699,7.42495 56.75,7.38916 l -0.46,-0.523 -0.78711,0.0625 0.75,0.86475 c 0.02829,0.03282 0.0411,0.07622 0.03516,0.11914 -0.0058,0.04324 -0.03052,0.08167 -0.06739,0.105 -0.20468,0.1303 -0.44014,0.20425 -0.68257,0.21438 z m 0,-3.89843 c -0.93454,0.08679 -1.62178,0.91474 -1.535,1.84928 l 0.0018,0.01839 c -0.07607,0.87718 0.57336,1.64993 1.45054,1.726 h 1e-5 c 0.0275,0.00239 0.05505,0.00406 0.08266,0.005 0.12574,-0.00473 0.2494,-0.03359 0.36425,-0.085 L 55.082,6.90088 C 55.02783,6.83824 55.0347,6.74354 55.09735,6.68937 55.12151,6.66847 55.15172,6.65584 55.18356,6.65332 l 1.15723,-0.0918 c 0.04708,-0.00459 0.09342,0.01421 0.124,0.0503 l 0.38184,0.43359 C 56.9966,6.75358 57.07335,6.42966 57.07026,6.10156 57.11512,5.1971 56.43974,4.41774 55.53809,4.3335 Z"
   id="path309" />
		</g>
		<g
   id="g317">
			<path
   fill="#313131"
   d="M 60.42285,3.26953 H 61.542 v 3.21289 c 0,0.708 0.06055,1.70606 1.0127,1.70606 0.95215,0 1.01269,-0.99805 1.01269,-1.70606 V 3.26953 h 1.11914 v 3.4336 c 0,1.40136 -0.59375,2.46 -2.13183,2.46 -1.53808,0 -2.13184,-1.0586 -2.13184,-2.46 z"
   id="path313" />
			<path
   fill="#313131"
   d="m 62.55469,9.313 c -1.47168,0 -2.28223,-0.92676 -2.28223,-2.60986 V 3.26953 c 5e-5,-0.08284 0.06726,-0.14996 0.1501,-0.1499 v 0 H 61.542 c 0.08284,-2.2e-4 0.15017,0.06677 0.15039,0.14961 v 0 3.21318 c 0,0.80811 0.1045,1.55615 0.86231,1.55615 0.75781,0 0.8623,-0.748 0.8623,-1.55615 V 3.26953 c 5e-5,-0.08284 0.06726,-0.14996 0.1501,-0.1499 v 0 h 1.11943 c 0.08284,-2.2e-4 0.15017,0.06677 0.15039,0.14961 v 0 3.43389 C 64.83691,8.38623 64.02637,9.313 62.55469,9.313 Z M 60.57324,3.41943 v 3.2837 c 0,1.05371 0.34375,2.31005 1.98145,2.31005 1.6377,0 1.98145,-1.25634 1.98145,-2.31005 v -3.2837 h -0.81836 v 3.063 c 0,0.55518 0,1.856 -1.16308,1.856 -1.16308,0 -1.1631,-1.30083 -1.1631,-1.85601 v -3.063 z"
   id="path315" />
		</g>
		<g
   id="g323">
			<path
   fill="#313131"
   d="m 68.17871,7.7998 -0.47266,1.21094 h -1.17969 l 2.23828,-5.89355 h 0.86815 l 2.17775,5.89355 H 70.61522 L 70.17382,7.7998 Z m 0.9668,-3 h -0.01563 l -0.63183,2.08594 h 1.36328 z"
   id="path319" />
			<path
   fill="#313131"
   d="m 71.81055,9.16064 h -1.19532 c -0.06299,8e-5 -0.11925,-0.03938 -0.14062,-0.09863 L 70.06934,7.94971 H 68.28125 L 67.8457,9.06543 C 67.8232,9.1229 67.76777,9.16069 67.70605,9.16064 h -1.17969 c -0.08339,-6e-4 -0.15051,-0.06868 -0.14992,-0.15207 1.2e-4,-0.01742 0.0033,-0.03469 0.0093,-0.05105 L 68.624,3.064 c 0.02238,-0.0582 0.07828,-0.09662 0.14063,-0.09667 h 0.86816 c 0.06282,-2e-5 0.11897,0.03917 0.14063,0.09814 L 71.95117,8.959 c 0.02876,0.07744 -0.0107,0.16354 -0.08814,0.1923 -0.01678,0.00624 -0.03456,0.00941 -0.05247,0.00936 z m -1.09082,-0.2998 h 0.875 L 69.52832,3.26709 h -0.66016 l -2.124,5.59375 h 0.85939 L 68.03909,7.74512 C 68.06158,7.68765 68.11702,7.64985 68.17873,7.6499 h 1.99512 c 0.06299,-9e-5 0.11926,0.03938 0.14062,0.09864 z m -0.8584,-1.8252 h -1.36328 c -0.083,-2.3e-4 -0.1501,-0.06771 -0.14987,-0.15071 4e-5,-0.01444 0.0022,-0.0288 0.0063,-0.04264 l 0.63185,-2.08594 c 0.03997,-0.0838 0.14031,-0.11933 0.22411,-0.07935 0.0329,0.0157 0.05981,0.04166 0.07667,0.07398 l 0.71582,2.08593 C 70.03015,6.91482 69.98906,7.00006 69.91114,7.02728 69.89513,7.03287 69.87829,7.0357 69.86133,7.03564 Z M 68.7002,6.73584 h 0.95117 L 69.14648,5.26367 Z"
   id="path321" />
		</g>
		<g
   id="g329">
			<path
   fill="#313131"
   d="m 73.67969,3.11719 h 0.80664 l 3.02344,4.01269 h 0.01464 V 3.26953 h 1.12011 V 9.125 H 77.83691 L 74.81446,5.1123 h -0.01561 v 3.89844 h -1.11916 c -10e-6,0 -10e-6,-5.89355 0,-5.89355 z"
   id="path325" />
			<path
   fill="#313131"
   d="M 78.64453,9.2749 H 77.83691 C 77.78976,9.27492 77.74532,9.25287 77.7168,9.21533 L 74.94922,5.54 v 3.4707 c -5e-5,0.08284 -0.06725,0.14996 -0.1501,0.1499 v 0 H 73.67969 C 73.59685,9.16082 73.52952,9.09384 73.5293,9.011 V 3.11719 c 5e-5,-0.08284 0.06726,-0.14996 0.1501,-0.1499 v 0 h 0.80693 c 0.04715,-1e-5 0.09159,0.02203 0.12012,0.05957 L 77.374,6.70117 V 3.26953 c 5e-5,-0.08284 0.06726,-0.14996 0.1501,-0.1499 v 0 h 1.12041 c 0.08284,-2.2e-4 0.15018,0.06677 0.15039,0.14961 v 0 5.85576 c -5e-5,0.08284 -0.06725,0.14996 -0.1501,0.1499 v 0 z M 77.91211,8.9751 h 0.582 V 3.41943 H 77.6748 v 3.71045 c -5e-5,0.08284 -0.06725,0.14996 -0.15009,0.14991 h -1e-5 -2.9e-4 c -0.05135,2e-4 -0.10035,-0.02147 -0.13476,-0.05958 L 74.41113,3.26709 h -0.581 v 5.59375 h 0.81836 V 5.1123 c 5e-5,-0.08284 0.06726,-0.14996 0.1501,-0.1499 v 0 h 2.9e-4 c 0.05163,-2.1e-4 0.10094,0.02143 0.13574,0.05957 z"
   id="path327" />
		</g>
		<g
   id="g335">
			<path
   fill="#313131"
   d="M 82.85156,9.01074 H 81.73242 V 4.24414 H 80.5752 V 3.26953 h 3.43359 v 0.97461 h -1.15723 z"
   id="path331" />
			<path
   fill="#313131"
   d="M 82.85156,9.16064 H 81.73242 C 81.64958,9.16087 81.58224,9.0939 81.582,9.01106 c 0,-2e-5 0,-4e-5 0,-6e-5 V 4.394 H 80.5752 C 80.49236,4.39422 80.42502,4.32724 80.4248,4.2444 V 3.26953 c 5e-5,-0.08284 0.06726,-0.14996 0.1501,-0.1499 h 1e-5 3.43388 c 0.08284,-2.2e-4 0.15018,0.06677 0.15039,0.14961 v 0 0.9749 c -5e-5,0.08284 -0.06726,0.14996 -0.1501,0.1499 v 0 h -1.00713 v 4.6167 c -5e-5,0.08284 -0.06725,0.14996 -0.1501,0.1499 v 0 z m -0.96875,-0.2998 h 0.81836 v -4.6167 c 5e-5,-0.08284 0.06726,-0.14996 0.1501,-0.1499 v 0 H 83.8584 V 3.41943 h -3.1328 v 0.67481 h 1.00683 c 0.08284,-2.2e-4 0.15018,0.06677 0.15039,0.14961 v 0 4.617 -10e-6 z"
   id="path333" />
		</g>
		<g
   id="g341">
			<path
   fill="#313131"
   d="M 87.06543,9.01074 H 85.94629 V 3.26953 h 1.11914 z"
   id="path337" />
			<path
   fill="#313131"
   d="m 87.06543,9.16064 h -1.11914 c -0.08284,2.2e-4 -0.15018,-0.06677 -0.15039,-0.14961 0,-10e-6 0,-2e-5 0,-3e-5 V 3.26953 c 5e-5,-0.08284 0.06726,-0.14996 0.1501,-0.1499 v 0 h 1.11943 c 0.08284,-2.2e-4 0.15018,0.06677 0.15039,0.14961 v 0 5.7415 c -5e-5,0.08284 -0.06725,0.14996 -0.1501,0.1499 v 0 z M 86.09668,8.86084 H 86.915 V 3.41943 h -0.81836 z"
   id="path339" />
		</g>
		<g
   id="g347">
			<path
   fill="#313131"
   d="m 93.19727,8.03613 v 0.97461 h -4.165 l 2.52832,-4.7666 H 89.4209 V 3.26953 h 3.9131 l -2.5205,4.7666 z"
   id="path343" />
			<path
   fill="#313131"
   d="m 93.19727,9.16064 h -4.165 c -0.05276,9e-5 -0.10171,-0.02753 -0.1289,-0.07275 -0.02661,-0.0452 -0.02808,-0.10091 -0.0039,-0.14746 L 91.31152,4.394 H 89.4209 C 89.33806,4.39422 89.27072,4.32723 89.27051,4.24439 v 0 -0.97486 c 5e-5,-0.08284 0.06726,-0.14996 0.1501,-0.1499 v 0 H 93.334 c 0.05264,-7e-5 0.10149,0.02732 0.12891,0.07226 0.02662,0.04539 0.02809,0.10127 0.0039,0.148 l -2.4043,4.54634 h 2.13477 c 0.08284,-2.2e-4 0.15018,0.06677 0.15039,0.14961 v 0 0.9749 c -5e-5,0.08284 -0.06725,0.14996 -0.1501,0.1499 v 0 z m -3.916,-0.2998 h 3.76564 V 8.186 h -2.2334 c -0.05264,7e-5 -0.1015,-0.02733 -0.12891,-0.07227 -0.02663,-0.04539 -0.0281,-0.10127 -0.0039,-0.148 l 2.4043,-4.5463 h -3.51371 v 0.67481 h 1.98926 c 0.05276,-9e-5 0.1017,0.02753 0.1289,0.07275 0.0266,0.0452 0.02808,0.10091 0.0039,0.14746 z"
   id="path345" />
		</g>
		<g
   id="g353">
			<path
   fill="#313131"
   d="m 96.42871,4.24414 v 1.26367 h 1.78223 V 6.48242 H 96.42871 V 8.03613 H 98.2793 V 9.01074 H 95.30957 V 3.26953 h 2.96973 v 0.97461 z"
   id="path349" />
			<path
   fill="#313131"
   d="M 98.2793,9.16064 H 95.30957 C 95.22673,9.16086 95.15939,9.09387 95.15918,9.01103 v 0 -5.7415 c 5e-5,-0.08284 0.06726,-0.14996 0.1501,-0.1499 v 0 h 2.97 c 0.08284,-2.2e-4 0.15018,0.06677 0.15039,0.14961 v 0 0.9749 c -5e-5,0.08284 -0.06726,0.14996 -0.1501,0.1499 v 0 H 96.5791 v 0.96387 h 1.6319 c 0.08284,-2.2e-4 0.15018,0.06677 0.15039,0.14961 v 0 0.9749 c -5e-5,0.08284 -0.06726,0.14996 -0.1501,0.1499 v 0 H 96.5791 v 1.25391 h 1.7002 c 0.08284,-2.2e-4 0.15018,0.06676 0.1504,0.1496 v 10e-6 0.9749 c -5e-5,0.08284 -0.06725,0.14996 -0.1501,0.1499 h -1e-5 z M 95.46,8.86084 h 2.669 V 8.186 H 96.42879 C 96.34595,8.18622 96.27861,8.11923 96.2784,8.03639 v 0 -1.554 c 5e-5,-0.08284 0.06726,-0.14996 0.1501,-0.1499 v 0 h 1.63214 V 5.65771 H 96.42871 C 96.34587,5.65793 96.27853,5.59094 96.27832,5.5081 v 0 -1.264 c 5e-5,-0.08284 0.06726,-0.14996 0.1501,-0.1499 v 0 h 1.70049 V 3.41943 H 95.46 Z"
   id="path351" />
		</g>
		<g
   id="g359">
			<path
   fill="#313131"
   d="m 104.43457,9.01074 h -1.35449 l -1.39355,-2.31543 h -0.0156 v 2.31543 h -1.11914 V 3.26953 h 1.51562 c 1.13378,0 1.918,0.50195 1.918,1.72852 0.0557,0.74687 -0.44205,1.42261 -1.17186,1.59082 z M 101.6709,5.91113 h 0.14453 c 0.61719,0 1.05078,-0.18261 1.05078,-0.88281 0,-0.708 -0.44922,-0.84473 -1.043,-0.84473 h -0.15231 z"
   id="path355" />
			<path
   fill="#313131"
   d="m 104.43457,9.16064 h -1.35449 c -0.0528,9e-5 -0.10171,-0.02753 -0.12891,-0.07275 l -1.12988,-1.87842 v 1.80127 c -5e-5,0.08284 -0.0673,0.14996 -0.1501,0.1499 v 0 h -1.11943 c -0.0828,2.2e-4 -0.15018,-0.06677 -0.15039,-0.14961 v 0 -5.7415 c 5e-5,-0.08284 0.0673,-0.14996 0.1501,-0.1499 v 0 h 1.51591 c 1.334,0 2.06835,0.667 2.06835,1.87842 0.0364,0.73433 -0.39688,1.41095 -1.0791,1.68506 l 1.50293,2.24414 c 0.0304,0.04627 0.0331,0.1055 0.007,0.15429 -0.0257,0.04891 -0.0766,0.07942 -0.13184,0.0791 z m -1.26953,-0.2998 h 0.98828 l -1.46484,-2.18848 c -0.046,-0.0691 -0.0272,-0.16237 0.0419,-0.20832 0.0177,-0.01177 0.0377,-0.01964 0.0587,-0.02312 0.65394,-0.16141 1.09593,-0.77117 1.0459,-1.44287 0,-1.04737 -0.59472,-1.57862 -1.76757,-1.57862 h -1.36523 v 5.44141 h 0.81836 V 6.69531 c 5e-5,-0.08284 0.0673,-0.14996 0.1501,-0.1499 v 0 h 2.9e-4 c 0.0571,-3.7e-4 0.11084,0.02669 0.14453,0.07275 z M 101.81543,6.061 h -0.14453 c -0.0828,2.2e-4 -0.15018,-0.06677 -0.15039,-0.14961 v 0 -1.7278 c 5e-5,-0.08284 0.0673,-0.14996 0.1501,-0.1499 v 0 h 0.15263 c 0.55567,0 1.19336,0.11279 1.19336,0.99463 0,1.03268 -0.9043,1.03268 -1.20117,1.03268 z m 0.006,-1.72754 v 1.42777 c 0.64355,-0.00146 0.89453,-0.207 0.89453,-0.73291 0,-0.51269 -0.2334,-0.69482 -0.89258,-0.69482 z"
   id="path357" />
		</g>
		<circle
   fill="#cc4c4c"
   cx="26.226219"
   cy="5.91113"
   r="1.15602"
   id="circle361" />
	</g><g
   id="g399">
		<g
   id="g395">
			<path
   fill="#afafaf"
   d="m 72.0625,83.34521 c -0.18487,1.4e-4 -0.35468,-0.10187 -0.44141,-0.26513 l -0.97264,-1.82617 c -0.12971,-0.24378 -0.03724,-0.54655 0.20654,-0.67627 0.24378,-0.12972 0.54655,-0.03724 0.67627,0.20654 v 0 0 l 0.97265,1.82617 c 0.12991,0.24346 0.03785,0.54613 -0.20561,0.67603 -0.07255,0.03872 -0.15355,0.05893 -0.2358,0.05883 z"
   id="path365" />
			<path
   fill="#afafaf"
   d="m 78.71191,77.94287 c -0.11536,2.8e-4 -0.22723,-0.0396 -0.3164,-0.11279 L 76.792,76.52148 c -0.21384,-0.17474 -0.24554,-0.48976 -0.07079,-0.70361 0.17475,-0.21385 0.48976,-0.24554 0.70361,-0.0708 l 1.60353,1.30859 c 0.21385,0.17471 0.24557,0.4897 0.07087,0.70354 -0.09498,0.11626 -0.23716,0.18369 -0.38728,0.18366 h -3e-5 z"
   id="path367" />
			<path
   fill="#afafaf"
   d="m 83.10156,70.38428 c -0.05898,8e-5 -0.11752,-0.01034 -0.17285,-0.03076 L 80.9873,69.63818 c -0.25915,-0.09547 -0.39185,-0.38294 -0.29637,-0.64209 0.09547,-0.25916 0.38294,-0.39185 0.64209,-0.29638 v 0 l 1.94139,0.71533 c 0.25909,0.09573 0.39151,0.38338 0.29578,0.64246 -0.0725,0.19621 -0.25945,0.32657 -0.46863,0.32678 z"
   id="path369" />
			<path
   fill="#afafaf"
   d="m 84.88086,61.73389 h -0.01563 l -2.06739,-0.063 c -0.27573,-0.0091 -0.49224,-0.23937 -0.48436,-0.51514 0.0011,-0.26935 0.22041,-0.48679 0.48976,-0.48565 h 1e-5 l 0.02584,7.9e-4 2.06739,0.063 c 0.27608,0.0086 0.49294,0.23929 0.48439,0.51537 -0.0084,0.2701 -0.22979,0.4847 -0.50001,0.48463 z"
   id="path371" />
			<path
   fill="#afafaf"
   d="m 81.65332,53.72705 c -0.27626,-3e-4 -0.49998,-0.22449 -0.49968,-0.50076 2.3e-4,-0.21109 0.13293,-0.39931 0.33168,-0.47043 l 1.94922,-0.69336 c 0.26023,-0.09277 0.54639,0.04299 0.63916,0.30322 0.09277,0.26023 -0.04299,0.54639 -0.30322,0.63916 v 0 0 l -1.94922,0.69336 c -0.05395,0.01902 -0.11073,0.02876 -0.16794,0.02881 z"
   id="path373" />
			<path
   fill="#afafaf"
   d="m 77.80469,46.9458 c -0.27602,3.5e-4 -0.50007,-0.22313 -0.50042,-0.49916 -1.8e-4,-0.14777 0.06503,-0.28806 0.17814,-0.38316 l 1.582,-1.33252 c 0.21115,-0.17799 0.52661,-0.1511 0.70459,0.06005 0.17799,0.21115 0.1511,0.52661 -0.06005,0.70459 l -1.582,1.33252 c -0.09008,0.0762 -0.20429,0.11791 -0.32226,0.11768 z"
   id="path375" />
			<path
   fill="#afafaf"
   d="m 71.81152,41.88428 c -0.2761,1.6e-4 -0.50006,-0.22353 -0.50023,-0.49963 -5e-5,-0.08829 0.02328,-0.17502 0.06762,-0.25137 L 72.417,39.34375 c 0.13863,-0.23893 0.44469,-0.32024 0.68362,-0.18162 0.23893,0.13862 0.32024,0.44469 0.18162,0.68362 l -1.03809,1.78955 c -0.08955,0.15415 -0.25436,0.249 -0.43263,0.24898 z"
   id="path377" />
			<path
   fill="#afafaf"
   d="m 64.23145,39.09033 c -0.03012,2e-5 -0.06019,-0.0026 -0.08985,-0.0078 -0.2716,-0.0491 -0.4521,-0.30891 -0.40332,-0.58057 l 0.36621,-2.03662 c 0.04881,-0.27183 0.30874,-0.45262 0.58057,-0.40381 0.27183,0.04881 0.45262,0.30874 0.40381,0.58057 l -0.36621,2.03662 c -0.04272,0.2379 -0.2495,0.41118 -0.49121,0.41162 z"
   id="path379" />
			<path
   fill="#afafaf"
   d="m 55.80078,39.08447 c -0.24192,-3.3e-4 -0.44884,-0.17393 -0.49121,-0.41211 l -0.36328,-2.03711 c -0.04564,-0.27235 0.13815,-0.53012 0.4105,-0.57575 0.26824,-0.04494 0.5232,0.13276 0.57388,0.39997 l 0.36329,2.03711 c 0.04849,0.2719 -0.13262,0.53163 -0.40452,0.58012 -0.02927,0.0052 -0.05894,0.0078 -0.08866,0.0078 z"
   id="path381" />
			<path
   fill="#afafaf"
   d="m 48.21582,41.86865 c -0.17841,2e-5 -0.3433,-0.09508 -0.43262,-0.24951 l -1.03613,-1.7915 c -0.13929,-0.23838 -0.05897,-0.54454 0.17941,-0.68384 0.23838,-0.13929 0.54454,-0.05897 0.68384,0.17941 6.6e-4,0.0011 0.0013,0.0023 0.002,0.0034 l 1.03614,1.7915 c 0.13833,0.23859 0.05705,0.54415 -0.18154,0.68248 l -0.0011,6.3e-4 c -0.07585,0.04432 -0.16215,0.06759 -0.25,0.0674 z"
   id="path383" />
			<path
   fill="#afafaf"
   d="m 42.21582,46.92236 c -0.11807,2.7e-4 -0.23236,-0.04163 -0.32227,-0.11816 l -1.581,-1.335 c -0.21088,-0.17798 -0.23755,-0.49322 -0.05957,-0.7041 0.17798,-0.21088 0.49322,-0.23755 0.7041,-0.05957 l 1.58106,1.335 c 0.211,0.17795 0.23779,0.49326 0.05984,0.70426 -0.09497,0.11261 -0.23479,0.17759 -0.38211,0.17757 z"
   id="path385" />
			<path
   fill="#afafaf"
   d="m 38.35742,53.69775 c -0.05727,3e-5 -0.11412,-0.0099 -0.168,-0.02929 l -1.94824,-0.69629 c -0.26012,-0.09232 -0.39616,-0.37803 -0.30384,-0.63816 0.09212,-0.25956 0.37686,-0.39566 0.6367,-0.30435 l 0.0031,0.0011 1.94823,0.69629 c 0.26003,0.09276 0.39562,0.37875 0.30286,0.63877 -0.07101,0.19905 -0.25953,0.33194 -0.47086,0.33192 h 6e-5 z"
   id="path387" />
			<path
   fill="#afafaf"
   d="m 35.11719,61.69922 c -0.2762,-10e-5 -0.50003,-0.22409 -0.49993,-0.50029 10e-5,-0.27036 0.21504,-0.4917 0.48528,-0.49971 l 2.06934,-0.05859 c 0.26824,0.01161 0.48714,0.21865 0.51367,0.48583 0.0077,0.27591 -0.20947,0.50594 -0.48535,0.51417 l -2.06934,0.05859 z"
   id="path389" />
			<path
   fill="#afafaf"
   d="m 36.85059,70.36621 c -0.27614,1.8e-4 -0.50014,-0.22355 -0.50031,-0.49969 -1.3e-4,-0.21124 0.1325,-0.39977 0.33136,-0.47102 l 1.94727,-0.70069 c 0.25951,-0.09458 0.54655,0.03912 0.64113,0.29862 0.09458,0.2595 -0.03912,0.54655 -0.29862,0.64113 l -0.0046,0.0017 -1.94727,0.70069 c -0.05419,0.0195 -0.11135,0.02942 -0.16894,0.02931 z"
   id="path391" />
			<path
   fill="#afafaf"
   d="m 41.18066,77.9541 c -0.276,1.4e-4 -0.49986,-0.2235 -0.49999,-0.4995 -8e-5,-0.15144 0.06852,-0.29474 0.18652,-0.38966 l 1.61133,-1.29785 c 0.21493,-0.17313 0.52951,-0.13924 0.70263,0.07568 0.17313,0.21493 0.13924,0.52951 -0.07568,0.70264 l -1.61133,1.29785 c -0.08859,0.07198 -0.19933,0.11113 -0.31348,0.11084 z"
   id="path393" />
		</g>
		<path
   fill="#afafaf"
   d="m 71.30664,81.31641 c -0.27605,2.9e-4 -0.50008,-0.22326 -0.50037,-0.49931 -1.9e-4,-0.17976 0.09615,-0.34576 0.25232,-0.43478 10.7159,-6.10748 14.45177,-19.74553 8.34428,-30.46143 -6.10749,-10.7159 -19.74553,-14.45177 -30.46143,-8.34429 -10.7159,6.10748 -14.45176,19.74553 -8.34428,30.46143 1.97372,3.46301 4.83831,6.33467 8.29643,8.31693 0.23947,0.13752 0.32211,0.44313 0.18459,0.68259 -0.13752,0.23946 -0.44313,0.32211 -0.68259,0.18459 v 0 0 C 37.21574,74.81323 33.34814,60.55472 39.75705,49.37487 46.16596,38.19502 60.42447,34.32742 71.60432,40.73633 c 11.17985,6.40891 15.04745,20.66742 8.63854,31.84727 -2.07084,3.61241 -5.07062,6.60487 -8.68809,8.66686 -0.07546,0.04345 -0.16106,0.06619 -0.24813,0.06595 z"
   id="path397" />
	</g><g
   id="g405">
		<path
   fill="#afafaf"
   d="m 50.5,182.5 c -0.0029,-0.27325 0.21631,-0.49712 0.48957,-0.5 H 51 c 0.27578,8.7e-4 0.49913,0.22421 0.5,0.5 v 0 c -10e-4,0.27571 -0.22429,0.49896 -0.5,0.5 v 0 c -0.27342,0.003 -0.49728,-0.21674 -0.5,-0.49016 v -2e-5 z m -3.00977,0 c -0.0029,-0.27325 0.21631,-0.49712 0.48957,-0.5 h 0.01043 c 0.27359,-0.003 0.49745,0.21718 0.5,0.49078 v 0 0.009 0 c 0.0024,0.27376 -0.21762,0.49762 -0.49138,0.5 h -0.0086 c -0.27342,0.003 -0.49728,-0.21674 -0.5,-0.49016 v -2e-5 z m -3,0 c -0.0029,-0.27325 0.21631,-0.49712 0.48957,-0.5 h 0.01043 c 0.27579,8.5e-4 0.49914,0.22421 0.5,0.5 v 0 c -10e-4,0.27571 -0.22429,0.49896 -0.5,0.5 v 0 c -0.27342,0.003 -0.49728,-0.21674 -0.5,-0.49016 v -2e-5 z m -3.01074,0 c -0.0025,-0.27361 0.2172,-0.49745 0.4908,-0.5 v 0 h 0.0092 c 0.27325,-0.003 0.49711,0.21629 0.5,0.48955 v 0 0.0104 0 c 0.0027,0.27342 -0.21673,0.49728 -0.49015,0.5 h -0.0099 c -0.27376,0.002 -0.49762,-0.21762 -0.5,-0.49138 z m -3,0 c -0.0025,-0.27361 0.2172,-0.49745 0.4908,-0.5 v 0 h 0.0092 c 0.27591,5.5e-4 0.49945,0.22409 0.5,0.5 v 0 c -6.9e-4,0.27585 -0.22414,0.49931 -0.5,0.5 v 0 c -0.27376,0.002 -0.49762,-0.21762 -0.5,-0.49138 z m -3,0 c -0.0037,-0.27245 0.21416,-0.49631 0.48661,-0.5 1e-5,0 3e-5,0 4e-5,0 h 0.0036 v 0 c 0.27326,-0.003 0.49712,0.21631 0.5,0.48956 v 0.0104 0 c 0.0027,0.27342 -0.21674,0.49728 -0.49017,0.5 h -0.0098 c -0.27262,-0.002 -0.49212,-0.22437 -0.49027,-0.49699 z m -3.00976,0 c -0.0029,-0.27325 0.21629,-0.49712 0.48954,-0.5 0,0 0,0 1e-5,0 h 0.01045 c 0.27326,-0.003 0.49712,0.21631 0.5,0.48956 v 0.0104 0 c 0.0027,0.27342 -0.21674,0.49728 -0.49017,0.5 h -0.0098 c -0.27342,0.003 -0.49728,-0.21672 -0.5,-0.49013 v -2e-5 z"
   id="path401" />
		<path
   fill="#afafaf"
   d="m 54,183 c -0.06576,0.002 -0.13107,-0.0116 -0.19043,-0.04 -0.06245,-0.0212 -0.11786,-0.0593 -0.16016,-0.10986 -0.05074,-0.0421 -0.08864,-0.0976 -0.10941,-0.16014 -0.02862,-0.0591 -0.04235,-0.12436 -0.04,-0.19 -0.0018,-0.13254 0.05248,-0.25967 0.14941,-0.3501 0.19476,-0.18994 0.50544,-0.18994 0.7002,0 0.19335,0.18353 0.20131,0.48904 0.01779,0.6824 l -0.01779,0.0178 c -0.04212,0.0508 -0.09759,0.0889 -0.16016,0.10986 -0.05901,0.0284 -0.124,0.0421 -0.18945,0.04 z"
   id="path403" />
	</g><g
   id="g411">
		<path
   fill="#afafaf"
   d="m 50.5,210.5 c -0.0029,-0.27325 0.21631,-0.49712 0.48957,-0.5 H 51 c 0.27578,8.7e-4 0.49913,0.22421 0.5,0.5 v 0 c -10e-4,0.27571 -0.22429,0.49896 -0.5,0.5 v 0 c -0.27342,0.003 -0.49728,-0.21674 -0.5,-0.49016 v -2e-5 z m -3.00977,0 c -0.0029,-0.27325 0.21631,-0.49712 0.48957,-0.5 h 0.01043 c 0.27359,-0.003 0.49745,0.21718 0.5,0.49078 v 0 0.009 0 c 0.0024,0.27376 -0.21762,0.49762 -0.49138,0.5 h -0.0086 c -0.27342,0.003 -0.49728,-0.21674 -0.5,-0.49016 v -2e-5 z m -3,0 c -0.0029,-0.27325 0.21631,-0.49712 0.48957,-0.5 h 0.01043 c 0.27579,8.5e-4 0.49914,0.22421 0.5,0.5 v 0 c -10e-4,0.27571 -0.22429,0.49896 -0.5,0.5 v 0 c -0.27342,0.003 -0.49728,-0.21674 -0.5,-0.49016 v -2e-5 z m -3.01074,0 c -0.0025,-0.27361 0.2172,-0.49745 0.4908,-0.5 v 0 h 0.0092 c 0.27325,-0.003 0.49711,0.21629 0.5,0.48955 v 0 0.0104 0 c 0.0027,0.27342 -0.21673,0.49728 -0.49015,0.5 h -0.0099 c -0.27376,0.002 -0.49762,-0.21762 -0.5,-0.49138 z m -3,0 c -0.0025,-0.27361 0.2172,-0.49745 0.4908,-0.5 v 0 h 0.0092 c 0.27591,5.5e-4 0.49945,0.22409 0.5,0.5 v 0 c -6.9e-4,0.27585 -0.22414,0.49931 -0.5,0.5 v 0 c -0.27376,0.002 -0.49762,-0.21762 -0.5,-0.49138 z m -3,0 c -0.0037,-0.27245 0.21416,-0.49631 0.48661,-0.5 1e-5,0 3e-5,0 4e-5,0 h 0.0036 v 0 c 0.27326,-0.003 0.49712,0.21631 0.5,0.48956 v 0.0104 0 c 0.0027,0.27342 -0.21674,0.49728 -0.49017,0.5 h -0.0098 c -0.27262,-0.002 -0.49212,-0.22437 -0.49027,-0.49699 z m -3.00976,0 c -0.0029,-0.27325 0.21629,-0.49712 0.48954,-0.5 0,0 0,0 1e-5,0 h 0.01045 c 0.27326,-0.003 0.49712,0.21631 0.5,0.48956 v 0.0104 0 c 0.0027,0.27342 -0.21674,0.49728 -0.49017,0.5 h -0.0098 c -0.27342,0.003 -0.49728,-0.21672 -0.5,-0.49013 v -2e-5 z"
   id="path407" />
		<path
   fill="#afafaf"
   d="m 54,211 c -0.13271,0.001 -0.25992,-0.053 -0.35059,-0.1499 -0.05072,-0.0421 -0.08862,-0.0976 -0.10937,-0.16016 -0.05339,-0.121 -0.05339,-0.25888 0,-0.37988 0.02076,-0.0626 0.05865,-0.11806 0.10937,-0.16016 0.0423,-0.0506 0.09771,-0.0886 0.16016,-0.10986 0.12163,-0.0503 0.25825,-0.0503 0.37988,0 0.06257,0.021 0.11804,0.059 0.16016,0.10986 0.19335,0.1972 0.19023,0.51381 -0.007,0.70715 C 54.251,210.94691 54.12832,210.99809 54,211 Z"
   id="path409" />
	</g><g
   id="g417">
		<path
   fill="#afafaf"
   d="m 50.5,154.5 c 5.5e-4,-0.27591 0.22409,-0.49945 0.5,-0.5 v 0 c 0.27359,-0.003 0.49745,0.21718 0.5,0.49078 v 0 0.009 0 c 0.0024,0.27376 -0.21762,0.49762 -0.49138,0.5 H 51 c -0.27586,-6.9e-4 -0.49931,-0.22415 -0.5,-0.5 z m -3,0 c 5.5e-4,-0.27591 0.22409,-0.49945 0.5,-0.5 v 0 c 0.27359,-0.003 0.49745,0.21718 0.5,0.49078 v 0 0.009 0 c 0.0024,0.27376 -0.21762,0.49762 -0.49138,0.5 H 48 c -0.27586,-6.9e-4 -0.49931,-0.22415 -0.5,-0.5 z m -2.99023,0 c -0.0029,-0.27325 0.21629,-0.49712 0.48954,-0.5 h 0.01046 c 0.27578,8.7e-4 0.49913,0.22421 0.5,0.5 v 0 c -0.001,0.27571 -0.22429,0.49896 -0.5,0.5 v 0 c -0.27342,0.003 -0.49728,-0.21674 -0.5,-0.49016 z m -3,0 c 8.6e-4,-0.27579 0.22421,-0.49915 0.5,-0.5 v 0 c 0.27326,-0.003 0.49712,0.21631 0.5,0.48956 v 0.0104 0 c 0.0027,0.27342 -0.21674,0.49728 -0.49017,0.5 h -0.0098 c -0.27571,-10e-4 -0.49896,-0.22429 -0.5,-0.5 z m -3,0 c 8.6e-4,-0.27579 0.22421,-0.49915 0.5,-0.5 v 0 c 0.27326,-0.003 0.49712,0.21631 0.5,0.48956 v 0.0104 0 c 0.0027,0.27342 -0.21674,0.49728 -0.49017,0.5 h -0.0098 c -0.27571,-10e-4 -0.49896,-0.22429 -0.5,-0.5 z m -2.99024,0 c -0.0026,-0.27359 0.21718,-0.49745 0.49078,-0.5 v 0 h 0.0092 c 0.27591,5.5e-4 0.49945,0.22409 0.5,0.5 v 0 c -6.9e-4,0.27585 -0.22414,0.49931 -0.5,0.5 v 0 c -0.27376,0.002 -0.49762,-0.21762 -0.5,-0.49138 z m -3,0 c -0.0026,-0.27359 0.21718,-0.49745 0.49078,-0.5 v 0 h 0.0092 c 0.27591,5.5e-4 0.49945,0.22409 0.5,0.5 v 0 c -6.9e-4,0.27585 -0.22414,0.49931 -0.5,0.5 v 0 c -0.27376,0.002 -0.49762,-0.21762 -0.5,-0.49138 z m -3,0 c 8.7e-4,-0.27579 0.22422,-0.49913 0.5,-0.5 v 0 c 0.27326,-0.003 0.49712,0.21631 0.5,0.48956 v 0.0104 0 c 0.0027,0.27342 -0.21674,0.49728 -0.49017,0.5 h -0.0098 c -0.27571,-10e-4 -0.49896,-0.22429 -0.5,-0.5 z m -3,0 c 8.7e-4,-0.27579 0.22422,-0.49913 0.5,-0.5 v 0 c 0.27326,-0.003 0.49712,0.21631 0.5,0.48956 v 0.0104 0 c 0.0027,0.27342 -0.21674,0.49728 -0.49017,0.5 h -0.0098 c -0.27571,-10e-4 -0.49896,-0.22429 -0.5,-0.5 z m -2.99023,0 c -0.0025,-0.27359 0.21718,-0.49745 0.49078,-0.5 v 0 h 0.0092 c 0.27591,5.5e-4 0.49945,0.22409 0.5,0.5 v 0 c -7e-4,0.27585 -0.22415,0.4993 -0.5,0.5 v 0 c -0.27376,0.002 -0.49762,-0.21762 -0.5,-0.49138 z m -3,0 c -0.0025,-0.27359 0.21718,-0.49745 0.49078,-0.5 v 0 h 0.0092 c 0.27591,5.5e-4 0.49945,0.22409 0.5,0.5 v 0 c -7e-4,0.27585 -0.22415,0.4993 -0.5,0.5 v 0 c -0.27376,0.002 -0.49762,-0.21762 -0.5,-0.49138 z m -3,0 c -0.0025,-0.27359 0.21718,-0.49745 0.49078,-0.5 v 0 h 0.0092 c 0.27326,-0.003 0.49712,0.21631 0.5,0.48956 v 0.0104 0 c 0.0027,0.27342 -0.21674,0.49728 -0.49017,0.5 h -0.0098 c -0.27376,0.002 -0.49762,-0.21762 -0.5,-0.49138 z m -3,0 c 8.7e-4,-0.27579 0.22422,-0.49913 0.5,-0.5 v 0 c 0.27832,-0.004 0.50698,0.21887 0.51071,0.49719 v 0.003 0 c -0.0023,0.27847 -0.22998,0.50233 -0.50846,0.5 h -0.0023 v 0 c -0.2757,-0.001 -0.49893,-0.2243 -0.49997,-0.5 z m -2.98926,0 c -0.0029,-0.27325 0.21631,-0.49712 0.48957,-0.5 H 12.04 c 0.27578,8.7e-4 0.49913,0.22421 0.5,0.5 v 0 c -10e-4,0.27571 -0.22429,0.49896 -0.5,0.5 v 0 c -0.27341,0.003 -0.49726,-0.21672 -0.5,-0.49013 v -0.01 z m -3,0 C 8.53716,154.22675 8.75635,154.00288 9.02961,154 H 9.04 c 0.27578,8.7e-4 0.49913,0.22421 0.5,0.5 v 0 c -0.00104,0.27571 -0.22429,0.49896 -0.5,0.5 v 0 c -0.27341,0.003 -0.49726,-0.21672 -0.5,-0.49013 v -0.01 z m -3,0 c 5.5e-4,-0.27591 0.22409,-0.49945 0.5,-0.5 v 0 c 0.2736,-0.003 0.49745,0.21718 0.5,0.49078 v 0 0.009 0 c 0.00238,0.27376 -0.21762,0.49762 -0.49138,0.5 H 6.04 c -0.27585,-7e-4 -0.4993,-0.22415 -0.5,-0.5 z m -2.99024,0 c -0.00405,-0.27209 0.21324,-0.49594 0.48533,-0.5 2e-5,0 5e-5,0 7e-5,0 H 3.04 v 0 c 0.2736,-0.003 0.49745,0.21718 0.5,0.49078 v 0 0.009 0 c 0.00238,0.27376 -0.21762,0.49762 -0.49138,0.5 H 3.04 c -0.27227,-0.002 -0.49176,-0.22346 -0.49024,-0.49574 z"
   id="path413" />
		<path
   fill="#afafaf"
   d="m 54,155 c -0.27361,-0.006 -0.49398,-0.22639 -0.5,-0.5 -0.0024,-0.0656 0.01134,-0.13084 0.04,-0.18994 0.04466,-0.12596 0.14365,-0.22513 0.26953,-0.27 0.12163,-0.0503 0.25825,-0.0503 0.37988,0 0.06,0.0212 0.11465,0.0552 0.16016,0.0996 0.04889,0.048 0.08657,0.10617 0.11035,0.17041 0.02766,0.0594 0.04135,0.12445 0.04,0.19 -0.0069,0.27322 -0.22678,0.49306 -0.5,0.5 z"
   id="path415" />
	</g><g
   id="g423">
		<path
   fill="#afafaf"
   d="m 50.5,238.5 c -0.0029,-0.27325 0.21631,-0.49712 0.48957,-0.5 H 51 c 0.27578,8.7e-4 0.49913,0.22421 0.5,0.5 v 0 c -10e-4,0.27571 -0.22429,0.49896 -0.5,0.5 v 0 c -0.27342,0.003 -0.49728,-0.21674 -0.5,-0.49016 v -2e-5 z m -3.00977,0 c -0.0029,-0.27325 0.21631,-0.49712 0.48957,-0.5 h 0.01043 c 0.27359,-0.003 0.49745,0.21718 0.5,0.49078 v 0 0.009 0 c 0.0024,0.27376 -0.21762,0.49762 -0.49138,0.5 h -0.0086 c -0.27342,0.003 -0.49728,-0.21674 -0.5,-0.49016 v -2e-5 z m -3,0 c -0.0029,-0.27325 0.21631,-0.49712 0.48957,-0.5 h 0.01043 c 0.27579,8.5e-4 0.49914,0.22421 0.5,0.5 v 0 c -10e-4,0.27571 -0.22429,0.49896 -0.5,0.5 v 0 c -0.27342,0.003 -0.49728,-0.21674 -0.5,-0.49016 v -2e-5 z m -3.01074,0 c -0.0025,-0.27361 0.2172,-0.49745 0.4908,-0.5 v 0 h 0.0092 c 0.27325,-0.003 0.49711,0.21629 0.5,0.48955 v 0 0.0104 0 c 0.0027,0.27342 -0.21673,0.49728 -0.49015,0.5 h -0.0099 c -0.27376,0.002 -0.49762,-0.21762 -0.5,-0.49138 z m -3,0 c -0.0025,-0.27361 0.2172,-0.49745 0.4908,-0.5 v 0 h 0.0092 c 0.27591,5.5e-4 0.49945,0.22409 0.5,0.5 v 0 c -6.9e-4,0.27585 -0.22414,0.49931 -0.5,0.5 v 0 c -0.27376,0.002 -0.49762,-0.21762 -0.5,-0.49138 z m -3,0 c -0.0037,-0.27245 0.21416,-0.49631 0.48661,-0.5 1e-5,0 3e-5,0 4e-5,0 h 0.0036 v 0 c 0.27326,-0.003 0.49712,0.21631 0.5,0.48956 v 0.0104 0 c 0.0027,0.27342 -0.21674,0.49728 -0.49017,0.5 h -0.0098 c -0.27262,-0.002 -0.49212,-0.22437 -0.49027,-0.49699 z m -3.00976,0 c -0.0029,-0.27325 0.21629,-0.49712 0.48954,-0.5 0,0 0,0 1e-5,0 h 0.01045 c 0.27326,-0.003 0.49712,0.21631 0.5,0.48956 v 0.0104 0 c 0.0027,0.27342 -0.21674,0.49728 -0.49017,0.5 h -0.0098 c -0.27342,0.003 -0.49728,-0.21672 -0.5,-0.49013 v -2e-5 z"
   id="path419" />
		<path
   fill="#afafaf"
   d="m 54,239 c -0.06576,0.002 -0.13107,-0.0116 -0.19043,-0.04 -0.06245,-0.0212 -0.11786,-0.0593 -0.16016,-0.10986 -0.05074,-0.0421 -0.08864,-0.0976 -0.10941,-0.16014 -0.02862,-0.0591 -0.04235,-0.12436 -0.04,-0.19 -0.0018,-0.13254 0.05248,-0.25967 0.14941,-0.3501 0.0423,-0.0506 0.09771,-0.0886 0.16016,-0.10986 0.12163,-0.0503 0.25825,-0.0503 0.37988,0 0.06257,0.021 0.11804,0.059 0.16016,0.10986 0.19335,0.18353 0.20131,0.48904 0.01779,0.6824 l -0.01779,0.0178 c -0.04212,0.0508 -0.09759,0.0889 -0.16016,0.10986 -0.05901,0.0284 -0.124,0.0421 -0.18945,0.04 z"
   id="path421" />
	</g><g
   id="g429">
		<path
   fill="#afafaf"
   d="m 50.5,266.5 c 5.5e-4,-0.27591 0.22409,-0.49945 0.5,-0.5 v 0 c 0.27359,-0.003 0.49744,0.21719 0.5,0.49078 v 0.009 0 c 0.0024,0.27374 -0.21761,0.49762 -0.49136,0.5 0,0 -1e-5,0 -2e-5,0 H 51 c -0.27586,-7e-4 -0.49931,-0.22415 -0.5,-0.5 z m -3,0 c 5.5e-4,-0.27591 0.22409,-0.49945 0.5,-0.5 v 0 c 0.27359,-0.003 0.49744,0.21719 0.5,0.49078 v 0.009 0 c 0.0024,0.27374 -0.21761,0.49762 -0.49136,0.5 0,0 -1e-5,0 -2e-5,0 H 48 c -0.27586,-7e-4 -0.49931,-0.22415 -0.5,-0.5 z m -2.99023,0 c -0.0029,-0.27325 0.21629,-0.4971 0.48954,-0.5 h 0.01046 c 0.27578,8.5e-4 0.49914,0.22421 0.5,0.5 v 0 c -0.001,0.27573 -0.22429,0.49896 -0.5,0.5 v 0 c -0.27342,0.003 -0.49727,-0.21674 -0.5,-0.49014 z m -3,0 c 8.6e-4,-0.27579 0.22421,-0.49915 0.5,-0.5 v 0 c 0.27326,-0.003 0.49711,0.21631 0.5,0.48956 v 0.0104 0 c 0.0027,0.27344 -0.21674,0.49728 -0.49017,0.5 h -0.0098 c -0.27572,-10e-4 -0.49897,-0.22427 -0.5,-0.5 z m -3,0 c 8.6e-4,-0.27579 0.22421,-0.49915 0.5,-0.5 v 0 c 0.27326,-0.003 0.49711,0.21631 0.5,0.48956 v 0.0104 0 c 0.0027,0.27344 -0.21674,0.49728 -0.49017,0.5 h -0.0098 c -0.27572,-10e-4 -0.49897,-0.22427 -0.5,-0.5 z m -2.99024,0 c -0.0026,-0.27359 0.21717,-0.49744 0.49076,-0.5 1e-5,0 2e-5,0 2e-5,0 h 0.0092 c 0.27591,5.5e-4 0.49945,0.22409 0.5,0.5 v 0 c -6.9e-4,0.27585 -0.22414,0.4993 -0.5,0.5 v 0 c -0.27376,0.002 -0.49762,-0.21762 -0.5,-0.49139 v 0 z m -3,0 c -0.0026,-0.27359 0.21717,-0.49744 0.49076,-0.5 1e-5,0 2e-5,0 2e-5,0 h 0.0092 c 0.27591,5.5e-4 0.49945,0.22409 0.5,0.5 v 0 c -6.9e-4,0.27585 -0.22414,0.4993 -0.5,0.5 v 0 c -0.27376,0.002 -0.49762,-0.21762 -0.5,-0.49139 v 0 z m -3,0 c 8.6e-4,-0.27579 0.22421,-0.49915 0.5,-0.5 v 0 c 0.27326,-0.003 0.49711,0.21631 0.5,0.48956 v 0.0104 0 c 0.0027,0.27344 -0.21673,0.49728 -0.49015,0.5 -10e-6,0 -10e-6,0 -2e-5,0 h -0.0098 c -0.27571,-10e-4 -0.49897,-0.22427 -0.5,-0.5 z m -3,0 c 8.6e-4,-0.27579 0.22421,-0.49915 0.5,-0.5 v 0 c 0.27326,-0.003 0.49711,0.21631 0.5,0.48956 v 0.0104 0 c 0.0027,0.27344 -0.21673,0.49728 -0.49015,0.5 -10e-6,0 -10e-6,0 -2e-5,0 h -0.0098 c -0.27571,-10e-4 -0.49897,-0.22427 -0.5,-0.5 z m -2.99023,0 c -0.0025,-0.27359 0.21717,-0.49744 0.49076,-0.5 10e-6,0 2e-5,0 2e-5,0 h 0.0092 c 0.27591,5.5e-4 0.49945,0.22409 0.5,0.5 v 0 c -7e-4,0.27585 -0.22415,0.4993 -0.5,0.5 v 0 c -0.27376,0.002 -0.49762,-0.21762 -0.5,-0.49139 v 0 z m -3,0 c -0.0025,-0.27359 0.21717,-0.49744 0.49076,-0.5 10e-6,0 2e-5,0 2e-5,0 h 0.0092 c 0.27591,5.5e-4 0.49945,0.22409 0.5,0.5 v 0 c -7e-4,0.27585 -0.22415,0.4993 -0.5,0.5 v 0 c -0.27376,0.002 -0.49762,-0.21762 -0.5,-0.49139 v 0 z m -3,0 c -0.0025,-0.27359 0.21717,-0.49744 0.49076,-0.5 10e-6,0 2e-5,0 2e-5,0 h 0.0092 c 0.27326,-0.003 0.49711,0.21631 0.5,0.48956 v 0.0104 0 c 0.0027,0.27344 -0.21674,0.49728 -0.49017,0.5 h -0.0098 c -0.27376,0.002 -0.49762,-0.21762 -0.5,-0.49139 v 0 z m -3,0 c 8.6e-4,-0.27579 0.22422,-0.49915 0.5,-0.5 v 0 c 0.27832,-0.004 0.50698,0.21887 0.51071,0.49719 v 0.003 0 c -0.0023,0.27847 -0.22999,0.50232 -0.50846,0.5 h -0.0023 v 0 c -0.2757,-10e-4 -0.49894,-0.2243 -0.49997,-0.5 z m -2.98926,0 c -0.0029,-0.27325 0.2163,-0.49713 0.48956,-0.5 v 0 H 12.04 c 0.27578,8.5e-4 0.49914,0.22421 0.5,0.5 v 0 c -10e-4,0.27573 -0.22429,0.49896 -0.5,0.5 v 0 c -0.27342,0.003 -0.49727,-0.21674 -0.5,-0.49014 v -0.01 z m -3,0 c -0.00288,-0.27325 0.2163,-0.49713 0.48956,-0.5 v 0 H 9.04 c 0.27578,8.5e-4 0.49914,0.22421 0.5,0.5 v 0 c -0.00103,0.27573 -0.22429,0.49896 -0.5,0.5 v 0 c -0.27342,0.003 -0.49727,-0.21674 -0.5,-0.49014 v -0.01 z m -3,0 c 5.5e-4,-0.27591 0.22409,-0.49945 0.5,-0.5 v 0 c 0.27359,-0.003 0.49745,0.21719 0.5,0.49078 v 0.009 0 c 0.00239,0.27374 -0.21761,0.49762 -0.49136,0.5 -10e-6,0 -10e-6,0 -2e-5,0 H 6.04 c -0.27586,-7e-4 -0.49931,-0.22415 -0.5,-0.5 z m -2.99024,0 c -0.00402,-0.27209 0.21329,-0.49591 0.48537,-0.49994 1e-5,0 2e-5,0 3e-5,0 L 3.04,266 v 0 c 0.27359,-0.003 0.49745,0.21719 0.5,0.49078 v 0.009 0 c 0.00239,0.27374 -0.21761,0.49762 -0.49136,0.5 -10e-6,0 -10e-6,0 -2e-5,0 H 3.04 c -0.27227,-0.002 -0.49175,-0.22345 -0.49024,-0.49573 z"
   id="path425" />
		<path
   fill="#afafaf"
   d="m 54,267 c -0.27361,-0.006 -0.49399,-0.22638 -0.5,-0.5 -0.0025,-0.0656 0.01129,-0.13086 0.04,-0.18994 0.02076,-0.0626 0.05865,-0.11804 0.10937,-0.16016 0.04231,-0.0506 0.09771,-0.0886 0.16016,-0.10986 0.12163,-0.0503 0.25825,-0.0503 0.37988,0 0.06257,0.021 0.11804,0.0591 0.16016,0.10986 0.19335,0.1972 0.19023,0.51379 -0.007,0.70715 C 54.25097,266.9469 54.12831,266.99808 54,267 Z"
   id="path427" />
	</g><g
   id="g435">
		<path
   fill="#afafaf"
   d="m 50.5,294.5 c 6.9e-4,-0.27585 0.22414,-0.4993 0.5,-0.5 v 0 c 0.27426,0.004 0.49551,0.22574 0.5,0.5 v 0 c -0.0045,0.27426 -0.22574,0.49551 -0.5,0.5 v 0 c -0.27586,-7e-4 -0.49931,-0.22415 -0.5,-0.5 z m -3.00977,0 c 6.9e-4,-0.27585 0.22414,-0.4993 0.5,-0.5 v 0 c 0.27571,10e-4 0.49896,0.2243 0.5,0.5 v 0 c -10e-4,0.2757 -0.22429,0.49896 -0.5,0.5 v 0 c -0.27586,-7e-4 -0.49931,-0.22415 -0.5,-0.5 z m -3,0 c 6.9e-4,-0.27585 0.22414,-0.4993 0.5,-0.5 v 0 c 0.27426,0.004 0.49551,0.22574 0.5,0.5 v 0 c -0.0045,0.27426 -0.22574,0.49551 -0.5,0.5 v 0 c -0.27586,-7e-4 -0.49931,-0.22415 -0.5,-0.5 z m -3.01074,0 c 0.001,-0.2757 0.22429,-0.49896 0.5,-0.5 v 0 c 0.27586,7e-4 0.49931,0.22415 0.5,0.5 v 0 c -6.9e-4,0.27585 -0.22414,0.4993 -0.5,0.5 v 0 c -0.27571,-10e-4 -0.49897,-0.22427 -0.5,-0.5 z m -3,0 c 0.001,-0.2757 0.22429,-0.49896 0.5,-0.5 v 0 c 0.27441,0.004 0.49586,0.22559 0.5,0.5 v 0 c -0.0041,0.27441 -0.22559,0.49585 -0.5,0.5 v 0 c -0.27571,-10e-4 -0.49897,-0.22427 -0.5,-0.5 z m -3,0 c -5e-5,-0.27237 0.21791,-0.49469 0.49024,-0.5 v 0 c 0.27586,7e-4 0.49931,0.22415 0.5,0.5 v 0 c -6.9e-4,0.27585 -0.22414,0.4993 -0.5,0.5 v 0 c -0.27232,-0.005 -0.4903,-0.22763 -0.49024,-0.5 z m -3.00976,0 c 7e-4,-0.27585 0.22415,-0.4993 0.5,-0.5 v 0 c 0.27586,7e-4 0.49931,0.22415 0.5,0.5 v 0 c -6.9e-4,0.27585 -0.22414,0.4993 -0.5,0.5 v 0 c -0.27585,-7e-4 -0.4993,-0.22415 -0.5,-0.5 z"
   id="path431" />
		<path
   fill="#afafaf"
   d="m 54,295 c -0.13271,10e-4 -0.25991,-0.053 -0.35059,-0.1499 -0.05072,-0.0421 -0.08861,-0.0976 -0.10937,-0.16016 -0.05339,-0.121 -0.05339,-0.25888 0,-0.37988 0.02076,-0.0626 0.05865,-0.11804 0.10937,-0.16016 0.14052,-0.14374 0.35448,-0.18729 0.54,-0.10986 0.06257,0.021 0.11804,0.0591 0.16016,0.10986 0.09766,0.09 0.15237,0.21732 0.15043,0.3501 0.0013,0.0655 -0.01234,0.13052 -0.04,0.18994 -0.0215,0.0624 -0.05965,0.11783 -0.11035,0.16016 -0.04212,0.0508 -0.09759,0.0889 -0.16016,0.10986 C 54.13015,294.9874 54.06537,295.0011 54,295 Z"
   id="path433" />
	</g><g
   id="g441">
		<path
   fill="#afafaf"
   d="m 50.5,322.5 c -0.0029,-0.27325 0.2163,-0.49713 0.48957,-0.5 v 0 H 51 c 0.27578,8.5e-4 0.49914,0.22421 0.5,0.5 v 0 c -10e-4,0.27573 -0.22429,0.49896 -0.5,0.5 v 0 c -0.27342,0.003 -0.49728,-0.21674 -0.5,-0.49014 0,-3e-5 0,-3e-5 0,-3e-5 z m -3.00977,0 c -0.0029,-0.27325 0.21631,-0.4971 0.48957,-0.5 h 0.01043 c 0.27359,-0.003 0.49744,0.21719 0.5,0.49078 v 0.009 0 c 0.0024,0.27374 -0.21761,0.49762 -0.49136,0.5 0,0 -10e-6,0 -2e-5,0 h -0.0086 c -0.27342,0.003 -0.49728,-0.21674 -0.5,-0.49014 0,-3e-5 0,-3e-5 0,-3e-5 z m -3,0 c -0.0029,-0.27325 0.21631,-0.4971 0.48957,-0.5 h 0.01043 c 0.27579,8.5e-4 0.49914,0.22421 0.5,0.5 v 0 c -10e-4,0.27573 -0.22429,0.49896 -0.5,0.5 v 0 c -0.27342,0.003 -0.49728,-0.21674 -0.5,-0.49014 0,-3e-5 0,-3e-5 0,-3e-5 z m -3.01074,0 c -0.0025,-0.27359 0.2172,-0.49747 0.4908,-0.5 v 0 h 0.0092 c 0.27324,-0.003 0.4971,0.21625 0.5,0.4895 v 3e-5 0.0105 0 c 0.0027,0.27341 -0.21671,0.49728 -0.49013,0.5 -10e-6,0 -10e-6,0 -2e-5,0 h -0.0099 c -0.27375,0.002 -0.49761,-0.21762 -0.5,-0.49136 z m -3,0 c -0.0025,-0.27359 0.2172,-0.49747 0.4908,-0.5 v 0 h 0.0092 c 0.27591,5.5e-4 0.49945,0.22409 0.5,0.5 v 0 c -6.9e-4,0.27585 -0.22414,0.4993 -0.5,0.5 v 0 c -0.27375,0.002 -0.49761,-0.21762 -0.5,-0.49136 z m -3,0 c -0.0037,-0.27246 0.21419,-0.49631 0.48665,-0.5 h 0.0036 v 0 c 0.27326,-0.003 0.49711,0.21631 0.5,0.48956 v 0.0104 0 c 0.0027,0.27344 -0.21674,0.49728 -0.49017,0.5 h -0.0098 c -0.27263,-0.002 -0.49213,-0.2244 -0.49027,-0.49701 z m -3.00976,0 c -0.0029,-0.27325 0.2163,-0.4971 0.48955,-0.5 h 0.01045 c 0.27326,-0.003 0.49712,0.21631 0.5,0.48956 v 0.0104 0 c 0.0027,0.27344 -0.21673,0.49728 -0.49015,0.5 -10e-6,0 -10e-6,0 -2e-5,0 h -0.0098 c -0.27342,0.003 -0.49727,-0.21674 -0.5,-0.49014 z"
   id="path437" />
		<path
   fill="#afafaf"
   d="m 54,323 c -0.06577,0.002 -0.13107,-0.0116 -0.19043,-0.04 -0.06245,-0.0212 -0.11785,-0.0593 -0.16016,-0.10986 -0.05073,-0.0421 -0.08863,-0.0976 -0.10941,-0.16013 -0.05339,-0.121 -0.05339,-0.25888 0,-0.37988 0.02076,-0.0626 0.05865,-0.11804 0.10937,-0.16016 0.04231,-0.0506 0.09771,-0.0886 0.16016,-0.10986 0.12163,-0.0503 0.25825,-0.0503 0.37988,0 0.06257,0.021 0.11804,0.0591 0.16016,0.10986 0.0507,0.0423 0.08886,0.0977 0.11035,0.16016 0.05339,0.121 0.05339,0.25888 0,0.37988 -0.0215,0.0624 -0.05965,0.11783 -0.11035,0.16016 -0.04212,0.0508 -0.09759,0.0889 -0.16016,0.10986 -0.059,0.0284 -0.12398,0.0421 -0.18941,0.04 z"
   id="path439" />
	</g><g
   id="g447">
		<path
   fill="#afafaf"
   d="m 50.5,350.5 c 5.5e-4,-0.27591 0.22409,-0.49945 0.5,-0.5 v 0 c 0.27359,-0.003 0.49744,0.21719 0.5,0.49078 v 0.009 0 c 0.0024,0.27374 -0.21761,0.49762 -0.49136,0.5 0,0 -1e-5,0 -2e-5,0 H 51 c -0.27586,-7e-4 -0.49931,-0.22415 -0.5,-0.5 z m -3,0 c 5.5e-4,-0.27591 0.22409,-0.49945 0.5,-0.5 v 0 c 0.27359,-0.003 0.49744,0.21719 0.5,0.49078 v 0.009 0 c 0.0024,0.27374 -0.21761,0.49762 -0.49136,0.5 0,0 -1e-5,0 -2e-5,0 H 48 c -0.27586,-7e-4 -0.49931,-0.22415 -0.5,-0.5 z m -2.99023,0 c -0.0029,-0.27325 0.21629,-0.4971 0.48954,-0.5 h 0.01046 c 0.27578,8.5e-4 0.49914,0.22421 0.5,0.5 v 0 c -0.001,0.27573 -0.22429,0.49896 -0.5,0.5 v 0 c -0.27342,0.003 -0.49727,-0.21674 -0.5,-0.49014 z m -3,0 c 8.6e-4,-0.27579 0.22421,-0.49915 0.5,-0.5 v 0 c 0.27326,-0.003 0.49711,0.21631 0.5,0.48956 v 0.0104 0 c 0.0027,0.27344 -0.21674,0.49728 -0.49017,0.5 h -0.0098 c -0.27572,-10e-4 -0.49897,-0.22427 -0.5,-0.5 z m -3,0 c 8.6e-4,-0.27579 0.22421,-0.49915 0.5,-0.5 v 0 c 0.27326,-0.003 0.49711,0.21631 0.5,0.48956 v 0.0104 0 c 0.0027,0.27344 -0.21674,0.49728 -0.49017,0.5 h -0.0098 c -0.27572,-10e-4 -0.49897,-0.22427 -0.5,-0.5 z m -2.99024,0 c -0.0026,-0.27359 0.21717,-0.49744 0.49076,-0.5 1e-5,0 2e-5,0 2e-5,0 h 0.0092 c 0.27591,5.5e-4 0.49945,0.22409 0.5,0.5 v 0 c -6.9e-4,0.27585 -0.22414,0.4993 -0.5,0.5 v 0 c -0.27376,0.002 -0.49762,-0.21762 -0.5,-0.49139 v 0 z m -3,0 c -0.0026,-0.27359 0.21717,-0.49744 0.49076,-0.5 1e-5,0 2e-5,0 2e-5,0 h 0.0092 c 0.27591,5.5e-4 0.49945,0.22409 0.5,0.5 v 0 c -6.9e-4,0.27585 -0.22414,0.4993 -0.5,0.5 v 0 c -0.27376,0.002 -0.49762,-0.21762 -0.5,-0.49139 v 0 z m -3,0 c 8.6e-4,-0.27579 0.22421,-0.49915 0.5,-0.5 v 0 c 0.27326,-0.003 0.49711,0.21631 0.5,0.48956 v 0.0104 0 c 0.0027,0.27344 -0.21673,0.49728 -0.49015,0.5 -10e-6,0 -10e-6,0 -2e-5,0 h -0.0098 c -0.27571,-10e-4 -0.49897,-0.22427 -0.5,-0.5 z m -3,0 c 8.6e-4,-0.27579 0.22421,-0.49915 0.5,-0.5 v 0 c 0.27326,-0.003 0.49711,0.21631 0.5,0.48956 v 0.0104 0 c 0.0027,0.27344 -0.21673,0.49728 -0.49015,0.5 -10e-6,0 -10e-6,0 -2e-5,0 h -0.0098 c -0.27571,-10e-4 -0.49897,-0.22427 -0.5,-0.5 z m -2.99023,0 c -0.0025,-0.27359 0.21717,-0.49744 0.49076,-0.5 10e-6,0 2e-5,0 2e-5,0 h 0.0092 c 0.27591,5.5e-4 0.49945,0.22409 0.5,0.5 v 0 c -7e-4,0.27585 -0.22415,0.4993 -0.5,0.5 v 0 c -0.27376,0.002 -0.49762,-0.21762 -0.5,-0.49139 v 0 z m -3,0 c -0.0025,-0.27359 0.21717,-0.49744 0.49076,-0.5 10e-6,0 2e-5,0 2e-5,0 h 0.0092 c 0.27591,5.5e-4 0.49945,0.22409 0.5,0.5 v 0 c -7e-4,0.27585 -0.22415,0.4993 -0.5,0.5 v 0 c -0.27376,0.002 -0.49762,-0.21762 -0.5,-0.49139 v 0 z m -3,0 c -0.0025,-0.27359 0.21717,-0.49744 0.49076,-0.5 10e-6,0 2e-5,0 2e-5,0 h 0.0092 c 0.27326,-0.003 0.49711,0.21631 0.5,0.48956 v 0.0104 0 c 0.0027,0.27344 -0.21674,0.49728 -0.49017,0.5 h -0.0098 c -0.27376,0.002 -0.49762,-0.21762 -0.5,-0.49139 v 0 z m -3,0 c 8.6e-4,-0.27579 0.22422,-0.49915 0.5,-0.5 v 0 c 0.27832,-0.004 0.50698,0.21887 0.51071,0.49719 v 0.003 0 c -0.0023,0.27847 -0.22999,0.50232 -0.50846,0.5 h -0.0023 v 0 c -0.2757,-10e-4 -0.49894,-0.2243 -0.49997,-0.5 z m -2.98926,0 c -0.0029,-0.27325 0.2163,-0.49713 0.48956,-0.5 v 0 H 12.04 c 0.27578,8.5e-4 0.49914,0.22421 0.5,0.5 v 0 c -10e-4,0.27573 -0.22429,0.49896 -0.5,0.5 v 0 c -0.27342,0.003 -0.49727,-0.21674 -0.5,-0.49014 v -0.01 z m -3,0 c -0.00288,-0.27325 0.2163,-0.49713 0.48956,-0.5 v 0 H 9.04 c 0.27578,8.5e-4 0.49914,0.22421 0.5,0.5 v 0 c -0.00103,0.27573 -0.22429,0.49896 -0.5,0.5 v 0 c -0.27342,0.003 -0.49727,-0.21674 -0.5,-0.49014 v -0.01 z m -3,0 c 5.5e-4,-0.27591 0.22409,-0.49945 0.5,-0.5 v 0 c 0.27359,-0.003 0.49745,0.21719 0.5,0.49078 v 0.009 0 c 0.00239,0.27374 -0.21761,0.49762 -0.49136,0.5 -10e-6,0 -10e-6,0 -2e-5,0 H 6.04 c -0.27586,-7e-4 -0.49931,-0.22415 -0.5,-0.5 z m -2.99024,0 c -0.00402,-0.27209 0.21329,-0.49591 0.48537,-0.49994 1e-5,0 2e-5,0 3e-5,0 L 3.04,350 v 0 c 0.27359,-0.003 0.49745,0.21719 0.5,0.49078 v 0.009 0 c 0.00239,0.27374 -0.21761,0.49762 -0.49136,0.5 -10e-6,0 -10e-6,0 -2e-5,0 H 3.04 c -0.27227,-0.002 -0.49175,-0.22345 -0.49024,-0.49573 z"
   id="path443" />
		<path
   fill="#afafaf"
   d="m 54,351 c -0.06577,0.002 -0.13107,-0.0116 -0.19043,-0.04 -0.06245,-0.0212 -0.11785,-0.0593 -0.16016,-0.10986 -0.09686,-0.0905 -0.1511,-0.21759 -0.14941,-0.35013 -0.0014,-0.0655 0.01229,-0.13052 0.04,-0.18994 0.02076,-0.0626 0.05865,-0.11804 0.10937,-0.16016 0.04231,-0.0506 0.09771,-0.0886 0.16016,-0.10986 0.12163,-0.0503 0.25825,-0.0503 0.37988,0 0.06257,0.021 0.11804,0.0591 0.16016,0.10986 0.0507,0.0423 0.08886,0.0977 0.11035,0.16016 0.02771,0.0594 0.04139,0.12439 0.04,0.18994 0.0018,0.13275 -0.05289,0.26001 -0.15039,0.3501 -0.04212,0.0508 -0.09759,0.0889 -0.16016,0.10986 -0.05898,0.0284 -0.12394,0.0421 -0.18937,0.04 z"
   id="path445" />
	</g><g
   id="g511">
		<g
   id="g497">
			<g
   id="g453">
				<path
   fill="#cc4c4c"
   d="m 42.51363,372.71753 h -1.35635 l -1.39539,-2.31754 h -0.01561 v 2.3175 h -1.12021 v -5.74792 h 1.51736 c 1.13582,0 1.92036,0.50299 1.92036,1.73056 0.0558,0.74802 -0.44289,1.42474 -1.17388,1.59299 z m -2.76735,-3.10254 h 0.14539 c 0.61768,0 1.05191,-0.18301 1.05191,-0.88455 0,-0.70892 -0.44984,-0.84601 -1.0441,-0.84601 h -0.1532 z"
   id="path449" />
				<path
   fill="#cc4c4c"
   d="m 42.51367,372.918 h -1.35644 c -0.07009,-9e-5 -0.13498,-0.037 -0.1709,-0.0972 l -1.04,-1.72705 v 1.62399 c -1.5e-4,0.1105 -0.08969,0.20004 -0.2002,0.2002 H 38.626 c -0.1105,-1.5e-4 -0.20005,-0.0897 -0.2002,-0.2002 v -5.74799 c 1.6e-4,-0.1105 0.0897,-0.20004 0.2002,-0.2002 h 1.51757 c 1.36719,0 2.12012,0.68555 2.12012,1.93066 0.03289,0.73264 -0.38422,1.41132 -1.05273,1.71289 l 1.46875,2.19336 c 0.06171,0.0915 0.03758,0.21564 -0.05389,0.27734 -0.03312,0.0224 -0.07217,0.0342 -0.11211,0.0342 z m -1.24316,-0.40039 h 0.86816 l -1.415,-2.11328 c -0.03816,-0.0562 -0.04479,-0.12814 -0.01758,-0.19043 0.02702,-0.0622 0.08356,-0.10663 0.1504,-0.11816 0.63109,-0.15729 1.05657,-0.74701 1.00683,-1.39551 0,-1.01563 -0.57812,-1.53027 -1.71973,-1.53027 h -1.31742 v 5.34766 h 0.71973 v -2.11771 c 1.4e-4,-0.1105 0.08969,-0.20004 0.20019,-0.2002 0.07436,-2.1e-4 0.14409,0.0361 0.18653,0.0972 z m -1.37891,-2.70215 h -0.14551 c -0.1105,-1.5e-4 -0.20005,-0.0897 -0.20019,-0.2002 v -1.73099 c 1.4e-4,-0.1105 0.08969,-0.20004 0.20019,-0.2002 h 0.15332 c 0.33985,0 1.24414,0 1.24414,1.04639 0.02367,0.58487 -0.43126,1.07819 -1.01612,1.10184 -0.07901,0.003 -0.15813,-0.002 -0.23588,-0.0168 h 5e-5 z m 0.05469,-1.73099 v 1.33008 c 0.58008,-0.0107 0.79687,-0.19971 0.79687,-0.68408 0,-0.47119 -0.20216,-0.6377 -0.79687,-0.646 z"
   id="path451" />
			</g>
			<g
   id="g459">
				<path
   fill="#cc4c4c"
   d="m 45.521,367.9454 v 1.26511 h 1.78375 v 0.9758 H 45.521 v 1.55542 h 1.853 v 0.9758 h -2.97318 v -5.74792 h 2.97324 v 0.9758 H 45.521 Z"
   id="path455" />
				<path
   fill="#cc4c4c"
   d="m 47.374,372.918 h -2.97361 c -0.1105,-1.5e-4 -0.20005,-0.0897 -0.20019,-0.2002 v -5.74799 c 1.5e-4,-0.1105 0.08969,-0.20004 0.20019,-0.2002 H 47.374 c 0.1105,1.5e-4 0.20004,0.0897 0.2002,0.2002 v 0.97559 c -1.5e-4,0.1105 -0.08969,0.20004 -0.2002,0.2002 h -1.65232 v 0.86475 h 1.583 c 0.1105,1.5e-4 0.20005,0.0897 0.20019,0.2002 v 0.97607 c -1.4e-4,0.1105 -0.08969,0.20004 -0.20019,0.2002 h -1.583 v 1.15479 H 47.374 c 0.1105,1.5e-4 0.20005,0.0897 0.2002,0.2002 v 0.97607 c -1.8e-4,0.11046 -0.08972,0.19997 -0.2002,0.20012 z m -2.77343,-0.40039 h 2.57324 v -0.57568 h -1.65233 c -0.1105,-1.5e-4 -0.20004,-0.0897 -0.20019,-0.2002 v -1.55518 c 1.4e-4,-0.1105 0.08969,-0.20004 0.20019,-0.2002 h 1.583 v -0.57568 h -1.583 c -0.1105,-1.5e-4 -0.20004,-0.0897 -0.20019,-0.2002 v -1.26514 c 1.4e-4,-0.1105 0.08969,-0.20004 0.20019,-0.2002 h 1.65235 v -0.5752 h -2.57324 z"
   id="path457" />
			</g>
			<g
   id="g465">
				<path
   fill="#d8bb44"
   d="m 50.763,372.71753 h -1.12022 v -5.74792 H 51.167 c 1.20511,0 1.98965,0.4801 1.98965,1.78375 0.1101,0.8934 -0.5249,1.70691 -1.41831,1.81699 -0.13891,0.0171 -0.27945,0.0163 -0.41814,-0.002 H 50.763 Z m 0,-3.07962 h 0.22932 c 0.66256,0 1.02165,-0.1449 1.02165,-0.89236 0,-0.73917 -0.4274,-0.84601 -1.05288,-0.84601 H 50.763 Z"
   id="path461" />
				<path
   fill="#d8bb44"
   d="m 50.7627,372.86768 h -1.12012 c -0.08284,2.1e-4 -0.15017,-0.0668 -0.15039,-0.1496 v -5.74829 c 5e-5,-0.0828 0.06725,-0.14996 0.15009,-0.1499 H 51.167 c 1.41992,0 2.13965,0.65039 2.13965,1.93359 0.10781,0.97833 -0.59789,1.85883 -1.57622,1.96664 -0.13633,0.015 -0.27395,0.0143 -0.41011,-0.002 H 50.9131 v 2 c -9e-5,0.0829 -0.06731,0.14993 -0.15016,0.14984 v 0 h -2.4e-4 z m -0.96973,-0.29981 h 0.81933 v -2 c 5e-5,-0.0828 0.06725,-0.14996 0.15009,-0.1499 h 0.55791 c 0.81133,0.11816 1.56483,-0.44376 1.68299,-1.2551 0.01976,-0.13571 0.02063,-0.2735 0.0026,-0.40945 0,-1.11475 -0.584,-1.63379 -1.83888,-1.63379 H 49.793 Z m 1.19922,-2.78027 H 50.7627 c -0.08284,2.1e-4 -0.15018,-0.0667 -0.1504,-0.1496 v -1.73859 c 5e-5,-0.0829 0.06725,-0.14996 0.1501,-0.1499 v 0 h 0.19854 c 0.582,0 1.20312,0.0767 1.20312,0.99609 0,0.86475 -0.46875,1.042 -1.17187,1.042 z m -0.0791,-0.29981 h 0.0791 c 0.61426,0 0.87109,-0.103 0.87109,-0.74219 0,-0.5957 -0.27832,-0.69629 -0.90234,-0.69629 h -0.04785 z"
   id="path463" />
			</g>
			<g
   id="g471">
				<path
   fill="#d8bb44"
   d="m 56.30941,367.9454 v 1.26511 h 1.78375 v 0.9758 h -1.78375 v 1.55542 h 1.853 v 0.9758 H 55.1892 v -5.74792 h 2.97324 v 0.9758 h -1.85303 z"
   id="path467" />
				<path
   fill="#d8bb44"
   d="m 58.16211,372.86768 h -2.97266 c -0.08284,2.1e-4 -0.15017,-0.0668 -0.15039,-0.1496 v -5.74829 c 5e-5,-0.0829 0.06725,-0.14996 0.1501,-0.1499 v 0 h 2.97295 c 0.08284,-2.1e-4 0.15017,0.0668 0.15039,0.1496 v 0.97589 c -5e-5,0.0829 -0.06725,0.14996 -0.1501,0.1499 v 0 H 56.46 v 0.96533 h 1.63281 c 0.08284,-2.1e-4 0.15017,0.0668 0.15039,0.1496 v 0.97638 c -5e-5,0.0829 -0.06725,0.14996 -0.1501,0.1499 v 0 H 56.46 v 1.25537 h 1.70215 c 0.08284,-2.1e-4 0.15017,0.0668 0.15039,0.1496 v 0.97638 c -9e-5,0.0829 -0.06731,0.14993 -0.15016,0.14984 v 0 z m -2.82227,-0.29981 h 2.67188 v -0.67627 h -1.70215 c -0.08284,2.1e-4 -0.15017,-0.0668 -0.15039,-0.1496 v -1.55548 c 5e-5,-0.0829 0.06725,-0.14996 0.1501,-0.1499 v 0 h 1.6331 v -0.67627 h -1.63281 c -0.08284,2.1e-4 -0.15017,-0.0668 -0.15039,-0.1496 v -1.26544 c 5e-5,-0.0829 0.06725,-0.14996 0.1501,-0.1499 v 0 h 1.70244 v -0.67578 h -2.67188 z"
   id="path469" />
			</g>
			<g
   id="g477">
				<path
   fill="#10a687"
   d="M 61.55138,371.74173 H 63.137 v 0.9758 h -2.70584 v -5.74792 h 1.12022 z"
   id="path473" />
				<path
   fill="#10a687"
   d="m 63.13672,372.86768 h -2.70508 c -0.08284,2.1e-4 -0.15017,-0.0668 -0.15039,-0.1496 v -5.74829 c 5e-5,-0.0829 0.06725,-0.14996 0.1501,-0.1499 v 0 h 1.12041 c 0.08284,-2.1e-4 0.15017,0.0668 0.15039,0.1496 v 4.62238 h 1.43457 c 0.08284,-2.1e-4 0.15017,0.0668 0.15039,0.1496 v 0.97638 c -9e-5,0.0828 -0.06731,0.14993 -0.15015,0.14984 h -2.4e-4 z m -2.55469,-0.29981 h 2.4043 v -0.67627 h -1.43457 c -0.08284,2.1e-4 -0.15017,-0.0668 -0.15039,-0.1496 v -4.62238 H 60.582 Z"
   id="path475" />
			</g>
			<g
   id="g483">
				<path
   fill="#10a687"
   d="m 68.81519,371.74173 v 0.9758 h -4.17056 l 2.53121,-4.77213 H 65.033 v -0.9758 h 3.9188 l -2.52341,4.77213 z"
   id="path479" />
				<path
   fill="#10a687"
   d="m 68.81543,372.86768 h -4.1709 c -0.05276,9e-5 -0.10171,-0.0275 -0.1289,-0.0727 -0.02661,-0.0452 -0.02808,-0.10092 -0.0039,-0.14746 l 2.415,-4.55225 H 65.0332 c -0.08284,2.1e-4 -0.15017,-0.0668 -0.15039,-0.1496 v -0.97589 c 5e-5,-0.0829 0.06725,-0.14996 0.1501,-0.1499 v 0 h 3.91929 c 0.05264,-6e-5 0.10149,0.0273 0.1289,0.0723 0.0266,0.0454 0.02808,0.10123 0.0039,0.14795 l -2.40723,4.55176 h 2.1377 c 0.08284,-2.1e-4 0.15017,0.0668 0.15039,0.1496 v 0.97638 c -5e-5,0.0829 -0.06725,0.14996 -0.1501,0.1499 v 0 h -3.4e-4 z m -3.92188,-0.29981 H 68.665 v -0.67627 h -2.23629 c -0.05264,6e-5 -0.1015,-0.0273 -0.12891,-0.0723 -0.02662,-0.0454 -0.02809,-0.10129 -0.0039,-0.14801 l 2.40722,-4.55176 h -3.51954 v 0.67578 h 1.99219 c 0.05277,-9e-5 0.10171,0.0275 0.12891,0.0727 0.0266,0.0452 0.02807,0.10092 0.0039,0.14746 z"
   id="path481" />
			</g>
			<g
   id="g489">
				<path
   fill="#098eb7"
   d="m 72.04311,367.9454 v 1.26511 h 1.78376 v 0.9758 h -1.78376 v 1.55542 h 1.853 v 0.9758 H 70.9229 v -5.74792 h 2.97325 v 0.9758 h -1.85304 z"
   id="path485" />
				<path
   fill="#098eb7"
   d="m 73.89648,372.86768 h -2.97363 c -0.08284,2.1e-4 -0.15017,-0.0668 -0.15039,-0.1496 v -5.74829 c 5e-5,-0.0829 0.06725,-0.14996 0.1501,-0.1499 v 0 h 2.97392 c 0.08284,-2.1e-4 0.15018,0.0668 0.1504,0.1496 0,3e-5 0,6e-5 0,9e-5 v 0.9758 c -5e-5,0.0829 -0.06725,0.14996 -0.1501,0.1499 v 0 h -1.70342 v 0.96533 h 1.63379 c 0.08284,-2.1e-4 0.15017,0.0668 0.15039,0.1496 v 0.97638 c -5e-5,0.0829 -0.06725,0.14996 -0.1501,0.1499 v 0 h -1.63408 v 1.25537 h 1.70312 c 0.08284,-2.1e-4 0.15018,0.0667 0.1504,0.1496 v 0.97638 c -1.3e-4,0.0829 -0.0674,0.14996 -0.15027,0.14984 z m -2.82325,-0.29981 h 2.67286 V 371.8916 H 72.043 c -0.08284,2.1e-4 -0.15017,-0.0668 -0.15039,-0.1496 v -1.55548 c 5e-5,-0.0829 0.06725,-0.14996 0.1501,-0.1499 v 0 h 1.63408 v -0.67627 H 72.043 c -0.08284,2.1e-4 -0.15017,-0.0668 -0.15039,-0.1496 v -1.26544 c 5e-5,-0.0829 0.06725,-0.14996 0.1501,-0.1499 v 0 h 1.70341 v -0.67578 h -2.67287 z"
   id="path487" />
			</g>
			<g
   id="g495">
				<path
   fill="#098eb7"
   d="m 76.16487,366.81689 h 0.808 l 3.02691,4.01785 h 0.01464 v -3.86511 h 1.12118 v 5.86209 h -0.808 l -3.02691,-4.01736 h -0.01561 v 3.90317 h -1.12021 z"
   id="path491" />
				<path
   fill="#098eb7"
   d="m 81.13574,372.98145 h -0.80859 c -0.04715,0 -0.09158,-0.022 -0.12012,-0.0596 l -2.77148,-3.67969 v 3.47559 c -5e-5,0.0829 -0.06725,0.14996 -0.1501,0.1499 v 0 H 76.165 c -0.08284,2.1e-4 -0.15017,-0.0668 -0.15039,-0.1496 v -5.90118 c 5e-5,-0.0829 0.06725,-0.14996 0.1501,-0.1499 v 0 h 0.80791 c 0.04715,-3e-5 0.09159,0.022 0.12011,0.0596 l 2.77149,3.67969 v -3.43652 c 5e-5,-0.0829 0.06725,-0.14996 0.1501,-0.1499 v 0 h 1.12138 c 0.08284,-2.1e-4 0.15017,0.0668 0.15039,0.1496 v 5.86212 c -5e-5,0.0829 -0.06725,0.14996 -0.1501,0.1499 v 0 h -2.5e-4 z m -0.7334,-0.29981 h 0.583 v -5.56201 H 80.165 v 3.71536 c -5e-5,0.0829 -0.06725,0.14996 -0.1501,0.1499 v 0 h -2.9e-4 c -0.05135,2.1e-4 -0.10036,-0.0215 -0.13477,-0.0596 l -2.98242,-3.9585 h -0.582 v 5.60107 h 0.81935 v -3.75342 c 5e-5,-0.0829 0.06725,-0.14996 0.1501,-0.1499 v 0 h 2.9e-4 c 0.05163,-2.1e-4 0.10094,0.0214 0.13574,0.0596 z"
   id="path493" />
			</g>
		</g>
		<g
   id="g503">
			<rect
   x="38.486889"
   y="364.82104"
   fill="#e6e6e6"
   width="42.887039"
   height="0.89929003"
   id="rect499" />
			<path
   fill="#e6e6e6"
   d="M 81.374,365.87012 H 38.4873 c -0.08284,2.1e-4 -0.15017,-0.0668 -0.15039,-0.1496 v -0.89972 c 5e-5,-0.0829 0.06725,-0.14996 0.1501,-0.1499 v 0 H 81.374 c 0.08284,-2.1e-4 0.15017,0.0668 0.15039,0.1496 v 0.89972 c -5e-5,0.0829 -0.06725,0.14996 -0.1501,0.1499 v 0 z M 38.63768,365.57031 H 81.22363 V 364.9707 H 38.6377 Z"
   id="path501" />
		</g>
		<g
   id="g509">
			<rect
   x="38.626068"
   y="374.27966"
   fill="#e6e6e6"
   width="42.887039"
   height="0.89929003"
   id="rect505" />
			<path
   fill="#e6e6e6"
   d="M 81.5127,375.3291 H 38.626 c -0.08284,2.1e-4 -0.15017,-0.0668 -0.15039,-0.1496 v -0.89972 c 5e-5,-0.0829 0.06725,-0.14996 0.1501,-0.1499 v 0 h 42.887 c 0.08284,-2.1e-4 0.15017,0.0668 0.15039,0.1496 v 0.89972 c -5e-5,0.0829 -0.06725,0.14996 -0.1501,0.1499 v 0 z M 38.77637,375.0293 H 81.3623 v -0.59961 H 38.77637 Z"
   id="path507" />
		</g>
	</g><g
   id="g529">
		<g
   display="none"
   id="g527">
			<g
   display="inline"
   id="g525">
				<g
   id="g517">
					<rect
   x="76.663879"
   y="151.11003"
   fill="none"
   width="24.63887"
   height="26.06439"
   id="rect513" />
					<rect
   x="76.663879"
   y="151.11003"
   fill="#cc4c4c"
   width="24.63887"
   height="26.06439"
   id="rect515" />
				</g>
				<g
   id="g523">
					<rect
   x="76.663879"
   y="177.17442"
   fill="none"
   width="24.63887"
   height="26.06439"
   id="rect519" />
					<rect
   x="76.663879"
   y="177.17442"
   fill="#cc4c4c"
   width="24.63887"
   height="26.06439"
   id="rect521" />
				</g>
			</g>
		</g>
	</g>
<g
   id="g534">
	<path
   fill="#AFAFAF"
   d="M22.8588,118.08745c-0.27637,0-0.5-0.22363-0.5-0.5v-8.57275c0-4.58545,2.66504-9.13623,7.91992-13.52637   l18.0498-15.07959c0.21094-0.17676,0.52637-0.14941,0.7041,0.06299c0.17676,0.21191,0.14844,0.52734-0.06348,0.70459   l-18.0498,15.07959c-5.0166,4.19092-7.56055,8.4834-7.56055,12.75879v8.57275   C23.3588,117.86382,23.13516,118.08745,22.8588,118.08745z"
   id="path532" />
</g>
<g
   id="g539">
	<pattern
   id="SVGID_1_"
   xlink:href="#New_Pattern_Swatch_1"
   patternTransform="matrix(1 0 0 1 10.10153 -7.75884)">
	</pattern>
	<path
   fill="url(#SVGID_1_)"
   d="M89.50562,175.8351c-0.27637,0-0.5-0.22363-0.5-0.5v-4.43164   c0-1.76074,0.79199-3.39746,2.17188-4.4917l4.86816-3.85596c1.13965-0.90283,1.79297-2.25439,1.79297-3.70801v-5.14844   c0-0.27637,0.22363-0.5,0.5-0.5s0.5,0.22363,0.5,0.5v5.14844c0,1.76074-0.79199,3.39795-2.17188,4.49219l-4.86816,3.85596   c-1.13965,0.90283-1.79297,2.25439-1.79297,3.70752v4.43164C90.00562,175.61147,89.78198,175.8351,89.50562,175.8351z"
   id="path537" />
</g>
<g
   aria-label="scenes"
   id="text1513"
   style="font-weight:500;font-size:11.3333px;line-height:1.25;font-family:'Futura PT';-inkscape-font-specification:'Futura PT, Medium';fill:#afafaf"><path
     d="m 10.407936,143.17828 c -0.623331,-0.476 -1.2013293,-0.52133 -1.5639949,-0.52133 -0.3966655,0 -0.8953306,0.0453 -1.2806628,0.35133 -0.2833325,0.238 -0.5099985,0.63466 -0.5099985,1.11066 0,0.39667 0.1473329,0.70267 0.3739989,0.94067 0.2946658,0.30599 0.7026646,0.46466 1.0539968,0.58933 l 0.3173324,0.11333 c 0.1813328,0.068 0.4306654,0.19267 0.4306654,0.49867 0,0.33999 -0.2946658,0.53266 -0.679998,0.53266 -0.4079987,0 -0.8159975,-0.24933 -1.0879967,-0.56666 l -0.7253312,0.83866 c 0.3059991,0.32867 0.8839974,0.816 1.9039943,0.816 0.6006649,0 1.0766635,-0.15867 1.4733293,-0.52133 0.396665,-0.36267 0.543998,-0.80467 0.543998,-1.24667 0,-0.31733 -0.102,-0.612 -0.249333,-0.816 -0.283332,-0.38533 -0.8613303,-0.57799 -1.2466625,-0.70266 l -0.3286657,-0.102 c -0.3853322,-0.12467 -0.4419987,-0.31733 -0.4419987,-0.442 0,-0.238 0.2039994,-0.39666 0.5326651,-0.39666 0.1473329,0 0.4759986,0.0227 0.8046643,0.32866 z"
     id="path7006" /><path
     d="m 15.326581,142.95161 c -0.396666,-0.19266 -0.815998,-0.29466 -1.325996,-0.29466 -0.475999,0 -1.16733,0.102 -1.767995,0.63466 -0.498665,0.442 -0.849998,1.13333 -0.849998,1.99466 0,0.918 0.407999,1.53 0.781998,1.88133 0.441999,0.41933 1.121997,0.714 1.892661,0.714 0.566665,0 0.997331,-0.17 1.26933,-0.306 v -1.34866 c -0.373999,0.33999 -0.781998,0.43066 -1.087997,0.43066 -0.827331,0 -1.427996,-0.58933 -1.427996,-1.394 0,-0.71399 0.464665,-1.38266 1.382663,-1.38266 0.475998,0 0.838664,0.15867 1.13333,0.43067 z"
     id="path7008" /><path
     d="m 19.916559,146.1476 c -0.226666,0.39667 -0.623332,0.646 -1.144664,0.646 -0.532665,0 -0.838664,-0.26067 -0.985997,-0.46466 -0.158666,-0.21534 -0.237999,-0.53267 -0.237999,-0.82734 h 3.671989 v -0.11333 c 0,-0.53266 -0.068,-1.30333 -0.589331,-1.92666 -0.339999,-0.408 -0.917998,-0.80466 -1.915328,-0.80466 -0.589332,0 -1.26933,0.12466 -1.847328,0.69133 -0.351332,0.35133 -0.747998,0.95199 -0.747998,1.92666 0,0.77066 0.226666,1.40533 0.770665,1.91533 0.487332,0.46466 1.087996,0.69133 1.881327,0.69133 1.711329,0 2.26666,-1.16733 2.413993,-1.53 z m -2.323327,-1.52999 c 0.113333,-0.65733 0.645998,-0.986 1.155997,-0.986 0.509998,0 1.053997,0.31733 1.16733,0.986 z"
     id="path7010" /><path
     d="m 22.285211,147.72293 h 1.382663 v -2.50466 c 0,-0.28333 0.01133,-0.63466 0.215333,-0.952 0.203999,-0.30599 0.487332,-0.43066 0.849997,-0.43066 0.136,0 0.430666,0.0227 0.645998,0.24933 0.249333,0.26067 0.260666,0.69133 0.260666,0.96333 v 2.67466 h 1.382663 v -3.08266 c 0,-0.476 -0.04533,-0.96333 -0.385332,-1.38266 -0.385333,-0.476 -1.019997,-0.60066 -1.450663,-0.60066 -0.793331,0 -1.257996,0.43066 -1.518662,0.79333 v -0.63467 h -1.382663 z"
     id="path7012" /><path
     d="m 31.884498,146.1476 c -0.226666,0.39667 -0.623331,0.646 -1.144663,0.646 -0.532665,0 -0.838664,-0.26067 -0.985997,-0.46466 -0.158666,-0.21534 -0.238,-0.53267 -0.238,-0.82734 h 3.67199 v -0.11333 c 0,-0.53266 -0.068,-1.30333 -0.589332,-1.92666 -0.339999,-0.408 -0.917997,-0.80466 -1.915328,-0.80466 -0.589331,0 -1.269329,0.12466 -1.847328,0.69133 -0.351332,0.35133 -0.747997,0.95199 -0.747997,1.92666 0,0.77066 0.226666,1.40533 0.770664,1.91533 0.487332,0.46466 1.087997,0.69133 1.881328,0.69133 1.711328,0 2.26666,-1.16733 2.413993,-1.53 z m -2.323326,-1.52999 c 0.113333,-0.65733 0.645998,-0.986 1.155996,-0.986 0.509999,0 1.053997,0.31733 1.16733,0.986 z"
     id="path7014" /><path
     d="m 37.607808,143.17828 c -0.623332,-0.476 -1.20133,-0.52133 -1.563996,-0.52133 -0.396665,0 -0.89533,0.0453 -1.280663,0.35133 -0.283332,0.238 -0.509998,0.63466 -0.509998,1.11066 0,0.39667 0.147333,0.70267 0.373999,0.94067 0.294666,0.30599 0.702664,0.46466 1.053997,0.58933 l 0.317332,0.11333 c 0.181333,0.068 0.430665,0.19267 0.430665,0.49867 0,0.33999 -0.294665,0.53266 -0.679998,0.53266 -0.407998,0 -0.815997,-0.24933 -1.087996,-0.56666 l -0.725332,0.83866 c 0.306,0.32867 0.883998,0.816 1.903995,0.816 0.600665,0 1.076663,-0.15867 1.473329,-0.52133 0.396665,-0.36267 0.543998,-0.80467 0.543998,-1.24667 0,-0.31733 -0.102,-0.612 -0.249332,-0.816 -0.283333,-0.38533 -0.861331,-0.57799 -1.246663,-0.70266 l -0.328666,-0.102 c -0.385332,-0.12467 -0.441999,-0.31733 -0.441999,-0.442 0,-0.238 0.204,-0.39666 0.532665,-0.39666 0.147333,0 0.475999,0.0227 0.804665,0.32866 z"
     id="path7016" /></g><g
   aria-label="root"
   id="text2555"
   style="font-weight:500;font-size:11.3333px;line-height:1.25;font-family:'Futura PT';-inkscape-font-specification:'Futura PT, Medium';fill:#afafaf"><path
     d="m 50.567305,147.72243 h 1.382662 v -2.35733 c 0,-0.34 0.01133,-0.75933 0.271999,-1.088 0.271999,-0.33999 0.657332,-0.39666 0.917998,-0.39666 0.283332,0 0.464665,0.0567 0.645998,0.18133 l 0.181332,-1.29199 c -0.158666,-0.0567 -0.351332,-0.11334 -0.589331,-0.11334 -0.328666,0 -0.600665,0.0793 -0.815998,0.21534 -0.101999,0.0567 -0.396665,0.26066 -0.611998,0.67999 v -0.73666 h -1.382662 z"
     id="path7019" /><path
     d="m 57.095268,142.65644 c -0.929331,0 -1.563995,0.306 -1.983328,0.69133 -0.487331,0.442 -0.82733,1.122 -0.82733,1.92666 0,0.79334 0.339999,1.47333 0.82733,1.91533 0.419333,0.38533 1.053997,0.69133 1.983328,0.69133 0.92933,0 1.563995,-0.306 1.983327,-0.69133 0.487332,-0.442 0.827331,-1.12199 0.827331,-1.91533 0,-0.80466 -0.339999,-1.48466 -0.827331,-1.92666 -0.419332,-0.38533 -1.053997,-0.69133 -1.983327,-0.69133 z m 0,4.00066 c -0.804664,0 -1.382663,-0.63467 -1.382663,-1.38267 0,-0.77066 0.589332,-1.39399 1.382663,-1.39399 0.793331,0 1.382662,0.62333 1.382662,1.39399 0,0.748 -0.577998,1.38267 -1.382662,1.38267 z"
     id="path7021" /><path
     d="m 63.532569,142.65644 c -0.92933,0 -1.563995,0.306 -1.983327,0.69133 -0.487332,0.442 -0.827331,1.122 -0.827331,1.92666 0,0.79334 0.339999,1.47333 0.827331,1.91533 0.419332,0.38533 1.053997,0.69133 1.983327,0.69133 0.929331,0 1.563996,-0.306 1.983328,-0.69133 0.487332,-0.442 0.827331,-1.12199 0.827331,-1.91533 0,-0.80466 -0.339999,-1.48466 -0.827331,-1.92666 -0.419332,-0.38533 -1.053997,-0.69133 -1.983328,-0.69133 z m 0,4.00066 c -0.804664,0 -1.382662,-0.63467 -1.382662,-1.38267 0,-0.77066 0.589332,-1.39399 1.382662,-1.39399 0.793331,0 1.382663,0.62333 1.382663,1.39399 0,0.748 -0.577998,1.38267 -1.382663,1.38267 z"
     id="path7023" /><path
     d="m 69.743204,143.99377 v -1.17866 h -0.951997 v -1.67733 h -1.382663 v 1.67733 h -0.543998 v 1.17866 h 0.543998 v 3.72866 h 1.382663 v -3.72866 z"
     id="path7025" /></g><g
   aria-label="octave"
   id="text3533"
   style="font-weight:500;font-size:11.3333px;line-height:1.25;font-family:'Futura PT';-inkscape-font-specification:'Futura PT, Medium';fill:#afafaf"><path
     d="m 84.367278,142.65695 c -0.929331,0 -1.563996,0.306 -1.983328,0.69133 -0.487332,0.442 -0.827331,1.12199 -0.827331,1.92666 0,0.79333 0.339999,1.47333 0.827331,1.91533 0.419332,0.38533 1.053997,0.69133 1.983328,0.69133 0.92933,0 1.563995,-0.306 1.983327,-0.69133 0.487332,-0.442 0.827331,-1.122 0.827331,-1.91533 0,-0.80467 -0.339999,-1.48466 -0.827331,-1.92666 -0.419332,-0.38533 -1.053997,-0.69133 -1.983327,-0.69133 z m 0,4.00065 c -0.804665,0 -1.382663,-0.63466 -1.382663,-1.38266 0,-0.77067 0.589332,-1.394 1.382663,-1.394 0.793331,0 1.382662,0.62333 1.382662,1.394 0,0.748 -0.577998,1.38266 -1.382662,1.38266 z"
     id="path7028" /><path
     d="m 91.937909,142.95161 c -0.396665,-0.19266 -0.815997,-0.29466 -1.325996,-0.29466 -0.475998,0 -1.16733,0.102 -1.767994,0.63466 -0.498666,0.442 -0.849998,1.13333 -0.849998,1.99466 0,0.918 0.407999,1.53 0.781998,1.88133 0.441998,0.41933 1.121996,0.714 1.892661,0.714 0.566665,0 0.99733,-0.17 1.269329,-0.306 v -1.34866 c -0.373999,0.33999 -0.781997,0.43066 -1.087996,0.43066 -0.827331,0 -1.427996,-0.58933 -1.427996,-1.394 0,-0.71399 0.464665,-1.38266 1.382662,-1.38266 0.475999,0 0.838665,0.15867 1.13333,0.43067 z"
     id="path7030" /><path
     d="m 95.428538,143.99428 v -1.17867 h -0.951997 v -1.67733 h -1.382662 v 1.67733 H 92.54988 v 1.17867 h 0.543999 v 3.72865 h 1.382662 v -3.72865 z"
     id="path7032" /><path
     d="m 99.916509,143.45028 c -0.464665,-0.72533 -1.20133,-0.79333 -1.575329,-0.79333 -1.450662,0 -2.436659,1.15599 -2.436659,2.60665 0,1.43933 0.99733,2.618 2.504659,2.618 0.351332,0 1.008664,-0.0793 1.507329,-0.79333 v 0.63466 h 1.382661 v -4.90732 h -1.382661 z m -1.223997,0.43066 c 0.793331,0 1.359998,0.60067 1.359998,1.38266 0,0.782 -0.566667,1.394 -1.359998,1.394 -0.793331,0 -1.359996,-0.612 -1.359996,-1.394 0,-0.78199 0.566665,-1.38266 1.359996,-1.38266 z"
     id="path7034" /><path
     d="m 101.97917,142.81561 2.47066,4.90732 h 0.72533 l 2.47066,-4.90732 h -1.54133 l -1.292,2.76533 -1.292,-2.76533 z"
     id="path7036" /><path
     d="m 111.7598,146.1476 c -0.22667,0.39667 -0.62333,0.646 -1.14467,0.646 -0.53266,0 -0.83866,-0.26067 -0.98599,-0.46466 -0.15867,-0.21534 -0.238,-0.53267 -0.238,-0.82734 h 3.67199 v -0.11333 c 0,-0.53266 -0.068,-1.30333 -0.58933,-1.92666 -0.34,-0.408 -0.918,-0.80466 -1.91533,-0.80466 -0.58933,0 -1.26933,0.12466 -1.84733,0.69133 -0.35133,0.35133 -0.748,0.95199 -0.748,1.92666 0,0.77066 0.22667,1.40533 0.77067,1.91533 0.48733,0.46466 1.08799,0.69133 1.88132,0.69133 1.71133,0 2.26666,-1.16733 2.414,-1.53 z m -2.32333,-1.52999 c 0.11333,-0.65733 0.646,-0.986 1.156,-0.986 0.51,0 1.05399,0.31733 1.16733,0.986 z"
     id="path7038" /></g></svg>
